<svg width="14" height="20" viewBox="0 0 14 20" fill="none" xmlns="http://www.w3.org/2000/svg">
<path d="M14 7.36842C14 3.30526 10.86 0 7 0C3.14 0 0 3.30526 0 7.36842C0 8.70526 0.34 9.95789 0.94 11.0316C2.23 14.1895 4.48 17.7579 5.36 19.0842C5.73 19.6632 6.34 20 7 20C7.66 20 8.27 19.6632 8.65 19.0947C9.53 17.7579 11.78 14.2 13.07 11.0421C13.66 9.95789 14 8.70526 14 7.36842ZM7 4.21053C8.65 4.21053 10 5.63158 10 7.36842C10 9.10526 8.65 10.5263 7 10.5263C5.35 10.5263 4 9.10526 4 7.36842C4 5.63158 5.35 4.21053 7 4.21053Z" fill="#F26B55"/>
</svg>
