<svg width="22" height="21" viewBox="0 0 22 21" fill="none" xmlns="http://www.w3.org/2000/svg">
<path d="M19.25 6.10352e-05H2.75C1.48437 6.10352e-05 0.5 1.03131 0.5 2.25006V18.7501C0.5 20.0157 1.48437 21.0001 2.75 21.0001H9.17187V13.8751H6.21875V10.5001H9.17187V7.96881C9.17187 5.06256 10.9062 3.42194 13.5312 3.42194C14.8437 3.42194 16.1562 3.65631 16.1562 3.65631V6.51569H14.7031C13.25 6.51569 12.7812 7.40631 12.7812 8.34381V10.5001H16.0156L15.5 13.8751H12.7812V21.0001H19.25C20.4687 21.0001 21.5 20.0157 21.5 18.7501V2.25006C21.5 1.03131 20.4687 6.10352e-05 19.25 6.10352e-05Z" fill="#F26B55"/>
</svg>
