<svg width="22" height="21" viewBox="0 0 22 21" fill="none" xmlns="http://www.w3.org/2000/svg">
<path d="M11.0234 5.086C8.02344 5.086 5.63281 7.5235 5.63281 10.4766C5.63281 13.4766 8.02344 15.8672 11.0234 15.8672C13.9766 15.8672 16.4141 13.4766 16.4141 10.4766C16.4141 7.5235 13.9766 5.086 11.0234 5.086ZM11.0234 13.9922C9.10156 13.9922 7.50781 12.4454 7.50781 10.4766C7.50781 8.55475 9.05469 7.00787 11.0234 7.00787C12.9453 7.00787 14.4922 8.55475 14.4922 10.4766C14.4922 12.4454 12.9453 13.9922 11.0234 13.9922ZM17.8672 4.8985C17.8672 4.19537 17.3047 3.63287 16.6016 3.63287C15.8984 3.63287 15.3359 4.19537 15.3359 4.8985C15.3359 5.60162 15.8984 6.16412 16.6016 6.16412C17.3047 6.16412 17.8672 5.60162 17.8672 4.8985ZM21.4297 6.16412C21.3359 4.47662 20.9609 2.97662 19.7422 1.75787C18.5234 0.539123 17.0234 0.164124 15.3359 0.0703735C13.6016 -0.0233765 8.39844 -0.0233765 6.66406 0.0703735C4.97656 0.164124 3.52344 0.539123 2.25781 1.75787C1.03906 2.97662 0.664062 4.47662 0.570312 6.16412C0.476563 7.8985 0.476563 13.1016 0.570312 14.836C0.664062 16.5235 1.03906 17.9766 2.25781 19.2422C3.52344 20.461 4.97656 20.836 6.66406 20.9297C8.39844 21.0235 13.6016 21.0235 15.3359 20.9297C17.0234 20.836 18.5234 20.461 19.7422 19.2422C20.9609 17.9766 21.3359 16.5235 21.4297 14.836C21.5234 13.1016 21.5234 7.8985 21.4297 6.16412ZM19.1797 16.6641C18.8516 17.6016 18.1016 18.3047 17.2109 18.6797C15.8047 19.2422 12.5234 19.1016 11.0234 19.1016C9.47656 19.1016 6.19531 19.2422 4.83594 18.6797C3.89844 18.3047 3.19531 17.6016 2.82031 16.6641C2.25781 15.3047 2.39844 12.0235 2.39844 10.4766C2.39844 8.97662 2.25781 5.69537 2.82031 4.28912C3.19531 3.3985 3.89844 2.69537 4.83594 2.32037C6.19531 1.75787 9.47656 1.8985 11.0234 1.8985C12.5234 1.8985 15.8047 1.75787 17.2109 2.32037C18.1016 2.6485 18.8047 3.3985 19.1797 4.28912C19.7422 5.69537 19.6016 8.97662 19.6016 10.4766C19.6016 12.0235 19.7422 15.3047 19.1797 16.6641Z" fill="#F26B55"/>
</svg>
