<svg width="21" height="20" viewBox="0 0 21 20" fill="none" xmlns="http://www.w3.org/2000/svg">
<path d="M10.5 1C5.532 1 1.5 5.032 1.5 10C1.5 14.968 5.532 19 10.5 19C15.468 19 19.5 14.968 19.5 10C19.5 5.032 15.468 1 10.5 1ZM10.5 17.4571C6.38571 17.4571 3.04286 14.1143 3.04286 10C3.04286 9.74286 3.05314 9.47543 3.084 9.22857C3.32057 9.65029 3.62914 10.0309 3.86571 10.4731C4.236 11.1314 3.78343 11.584 3.70114 12.2526C3.61886 12.8697 3.948 13.3634 4.452 13.6926C5.028 14.0629 5.69657 14.2377 6.27257 14.6389C6.94114 15.112 7.32171 15.7189 7.85657 16.3154C8.24743 16.7474 8.87486 17.0354 9.44057 16.7371C9.95486 16.4594 10.0783 15.832 10.0371 15.2971C9.98571 14.5154 9.83143 13.7337 9.72857 12.9623C9.62571 12.2423 9.57429 11.4709 9.17314 10.8331C8.86457 10.3497 8.38114 10.0206 7.85657 9.79429C7.548 9.66057 7.22914 9.57829 6.9 9.50629C6.57086 9.43429 6.11829 9.43429 5.90229 9.15657C5.43943 8.56 6.73543 7.58286 7.09543 7.21257C7.66114 6.64686 8.27829 6.112 8.80286 5.51543C9.10114 5.176 9.43029 4.72343 9.28629 4.24C9.204 4.00343 9.00857 3.83886 8.78229 3.75657C8.73086 3.736 8.67943 3.736 8.628 3.72571C8.89543 3.46857 8.988 3.04686 8.81314 2.73829C9.35829 2.61486 9.924 2.54286 10.5 2.54286C12.1457 2.54286 13.668 3.088 14.9023 3.99314C14.2337 4.71314 13.5343 5.42286 12.9069 6.19429C12.3926 6.82171 12.0326 7.63429 12.4749 8.40571C12.8657 9.08457 13.6474 9.30057 14.2749 9.67086C14.9743 10.072 15.4989 10.7611 15.756 11.5223C15.8794 11.8823 15.9411 12.2526 15.9411 12.6331C15.9411 13.0343 15.7869 13.456 15.8691 13.8571C15.9411 14.2274 16.1469 14.4434 16.404 14.5566C15.036 16.3154 12.8966 17.4571 10.5 17.4571Z" fill="#F24D3D"/>
</svg>
