<svg width="21" height="20" viewBox="0 0 21 20" fill="none" xmlns="http://www.w3.org/2000/svg">
<path d="M17.5 7.36842C17.5 3.30526 14.36 0 10.5 0C6.64 0 3.5 3.30526 3.5 7.36842C3.5 8.70526 3.84 9.95789 4.44 11.0316C5.73 14.1895 7.98 17.7579 8.86 19.0842C9.23 19.6632 9.84 20 10.5 20C11.16 20 11.77 19.6632 12.15 19.0947C13.03 17.7579 15.28 14.2 16.57 11.0421C17.16 9.9579 17.5 8.70526 17.5 7.36842ZM10.5 4.21053C12.15 4.21053 13.5 5.63158 13.5 7.36842C13.5 9.10526 12.15 10.5263 10.5 10.5263C8.85 10.5263 7.5 9.10526 7.5 7.36842C7.5 5.63158 8.85 4.21053 10.5 4.21053Z" fill="#F24D3D"/>
</svg>
