<svg width="22" height="21" viewBox="0 0 22 21" fill="none" xmlns="http://www.w3.org/2000/svg">
<path d="M19.25 0H2.75C1.48438 0 0.5 1.03125 0.5 2.25V18.75C0.5 20.0156 1.48438 21 2.75 21H19.25C20.4688 21 21.5 20.0156 21.5 18.75V2.25C21.5 1.03125 20.4688 0 19.25 0ZM16.9531 7.45312C16.9531 7.59375 16.9531 7.73437 16.9531 7.875C16.9531 11.9062 13.8594 16.5938 8.1875 16.5938C6.45312 16.5938 4.85937 16.125 3.5 15.2344C3.73437 15.2812 3.96875 15.2812 4.20312 15.2812C5.65625 15.2812 6.96875 14.7656 8.04687 13.9687C6.6875 13.9219 5.5625 13.0312 5.14062 11.8125C5.65625 11.9062 6.07812 11.9062 6.54687 11.7656C5.14062 11.4844 4.10937 10.2656 4.10937 8.76562V8.71875C4.48437 8.95312 4.95312 9.09375 5.46875 9.09375C4.625 8.53125 4.10937 7.59375 4.10937 6.5625C4.10937 5.95312 4.25 5.4375 4.53125 4.96875C6.03125 6.84375 8.32812 8.0625 10.8594 8.20312C10.4375 6.14062 11.9844 4.40625 13.8594 4.40625C14.75 4.40625 15.5469 4.78125 16.1094 5.39062C16.8125 5.25 17.4688 5.01562 18.0781 4.64062C17.8438 5.39062 17.3281 5.95312 16.7188 6.32812C17.3281 6.28125 17.9375 6.09375 18.5 5.85938C18.0781 6.46875 17.5156 7.03125 16.9531 7.45312Z" fill="#F26B55"/>
</svg>
