<svg width="291" height="221" viewBox="0 0 291 221" fill="none" xmlns="http://www.w3.org/2000/svg">
<g clip-path="url(#clip0_943_32560)">
<path d="M128.66 -115.849C136.91 -108.639 146.66 -103.419 156.66 -99.0791C163.31 -96.1691 170.25 -93.4491 175.86 -88.7291C178.706 -86.3963 180.972 -83.4355 182.48 -80.0791C183.62 -77.5891 184.48 -74.9791 185.6 -72.4991C187.532 -68.3727 189.877 -64.4526 192.6 -60.7991C196.87 -54.8991 201.66 -49.3791 205.87 -43.4191C214.29 -31.5791 219.98 -17.1391 218.97 -2.41914C218.5 4.89086 216.77 12.0209 214.97 19.1009C211.32 32.8809 205.44 48.0309 192.09 55.0209C185.55 58.6209 177.69 58.4509 170.78 56.0709C162.52 53.4109 152.39 50.0009 144.61 55.6009C139.29 60.2109 141.4 65.4909 146.79 68.7809C149.79 70.8708 153.33 71.9209 156.71 73.2909C166.77 77.4909 176.04 84.3409 181.71 93.8109C184.81 98.9209 185.93 104.871 188.53 110.201C189.15 111.413 189.844 112.585 190.61 113.711C198.61 125.501 214.61 132.771 215.94 148.391C216.67 155.796 214.445 163.189 209.75 168.961C205.33 174.321 198.92 177.491 192.5 179.801C185.1 182.261 177.15 182.071 169.66 183.951C162.24 186.121 161.56 190.611 168.84 193.951C173.808 196.197 179.133 197.551 184.57 197.951C207.57 199.441 214.9 211.001 229.27 226.381C243.46 240.701 248.36 240.001 252.92 261.861C253.698 265.416 254.727 268.911 256 272.321C257.32 275.711 258.89 279.001 260.5 282.271C263.59 288.711 267.74 295.591 266.21 303.021C262.6 318.071 244.35 322.311 231.36 325.831C224.36 327.561 217.02 329.131 209.97 330.371C217.12 328.951 224.27 327.511 231.33 325.721C244.2 322.191 262.41 317.891 265.95 302.971C267.44 295.611 263.28 288.811 260.2 282.411C258.58 279.151 256.99 275.861 255.66 272.411C254.369 268.993 253.323 265.487 252.53 261.921C247.92 240.141 243.05 241.001 228.91 226.691C214.6 211.361 207.31 199.861 184.52 198.381C179.029 197.993 173.65 196.639 168.63 194.381C161.03 190.871 161.63 185.771 169.53 183.471C177.06 181.591 184.96 181.791 192.35 179.331C206.83 174.501 216.75 164.461 215.54 148.401C214.21 132.841 198.32 125.691 190.36 113.841C189.591 112.705 188.893 111.523 188.27 110.301C185.68 104.971 184.56 99.0009 181.49 93.9109C175.9 84.4909 166.66 77.6309 156.66 73.4309C153.29 72.0609 149.75 70.9809 146.72 68.8909C141.3 65.5509 139.08 60.1609 144.52 55.4409C152.33 49.7709 162.52 53.1609 170.87 55.8209C177.75 58.1609 185.49 58.3109 191.98 54.7409C205.23 47.7409 210.98 32.7409 214.63 18.9709C216.39 11.9209 218.11 4.79086 218.56 -2.46914C219.5 -17.0791 213.93 -31.4691 205.56 -43.2291C201.37 -49.2291 196.56 -54.7191 192.34 -60.6491C189.613 -64.3211 187.268 -68.2615 185.34 -72.4091C184.19 -74.8891 183.34 -77.5191 182.24 -79.9991C180.757 -83.3293 178.522 -86.2698 175.71 -88.5891C170.12 -93.3191 163.21 -96.0391 156.58 -98.9691C146.65 -103.359 136.64 -108.589 128.58 -115.869L128.66 -115.849Z" fill="#F1B55D"/>
<path d="M124.45 -117.049C127.65 -110.149 133.94 -105.299 140.37 -101.569C146.8 -97.8388 154.21 -95.7088 161.01 -92.4588C168.046 -89.5103 173.864 -84.2462 177.5 -77.5388C189.37 -58.6988 204.13 -39.8088 206.28 -16.8888C206.94 -9.31882 205.15 -1.88883 203.67 5.51117C201.76 14.6612 201.22 24.3512 197.07 32.9112C191.25 45.0912 177.47 51.7712 164.3 51.3212C156.75 51.1712 149.37 49.1611 141.83 49.3712C137.2 49.5012 132.31 49.9512 128.29 52.4412C125.86 53.7612 123.82 56.7612 126.14 59.1812C130.3 63.1812 136.37 63.7112 141.73 65.0112C158.51 69.7512 168.29 86.2312 175.86 100.761C182.86 114.051 195.16 124.281 199.8 138.881C203.2 149.561 201.09 162.721 192.33 170.271C186.43 175.121 178.8 177.041 171.53 178.811C167.779 179.337 163.981 179.425 160.21 179.071C156.45 178.821 152.71 178.371 148.96 178.431C146.23 178.521 143.27 178.841 141.17 180.731C133.99 187.331 156.06 189.311 159.62 190.181C163.37 190.676 167.07 191.492 170.68 192.621C181.08 197.141 189.95 204.551 198.59 211.741C207.03 219.264 216.993 224.879 227.8 228.201C233.18 229.941 238.23 233.701 240.04 239.291C243.14 248.291 240.83 258.181 244.34 267.071C247.84 277.591 256.68 287.071 254.93 298.771C251.93 314.461 235.05 321.671 220.93 324.561C213.547 326.057 206.08 327.102 198.57 327.691C209.77 326.501 221.09 325.191 231.75 321.361C242.07 317.751 252.69 310.141 254.66 298.731C256.34 287.061 247.5 277.681 243.98 267.201C241.21 260.081 241.98 252.291 240.92 244.871C239.92 236.611 235.51 231.231 227.62 228.671C216.762 225.321 206.752 219.673 198.27 212.111C189.65 204.941 180.84 197.571 170.51 193.111C166.918 191.992 163.239 191.179 159.51 190.681C155.38 189.681 133.17 187.801 140.82 180.431C145.82 176.351 154.23 178.511 160.2 178.651C163.933 179.008 167.696 178.925 171.41 178.401C178.57 176.661 186.22 174.761 192.02 169.991C200.67 162.561 202.77 149.581 199.43 138.991C194.84 124.451 182.59 114.181 175.6 100.891C168.08 86.4112 158.37 69.8912 141.65 65.1612C136.25 63.8812 130.17 63.3512 125.96 59.3112C123.59 56.9112 125.56 53.6112 128.14 52.3112C132.14 49.7812 137.14 49.3112 141.79 49.1712C149.36 48.9512 156.79 50.9512 164.27 51.0712C177.33 51.4912 190.95 44.8612 196.7 32.7812C200.82 24.2512 201.31 14.6512 203.21 5.47118C204.68 -1.87882 206.44 -9.28883 205.81 -16.8188C204.6 -31.9088 197.21 -45.6588 189.45 -58.3588C185.45 -64.7688 181.29 -71.0088 177.26 -77.3588C173.658 -84.0416 167.883 -89.2946 160.89 -92.2488C154.12 -95.5188 146.82 -97.6388 140.27 -101.419C133.9 -105.189 127.38 -110.109 124.41 -116.999L124.45 -117.049Z" fill="#F8CC93"/>
<path d="M120.23 -118.239C120.16 -110.069 126.47 -103.549 133.11 -99.649C143.42 -93.819 156.11 -92.839 165.56 -85.359C175.01 -77.879 180.26 -66.649 184.56 -55.719C190.14 -41.169 196.69 -25.469 192.56 -9.71904C191.71 -5.84904 190.66 -2.03905 190 1.85095C188.67 9.63095 189.34 17.741 186.91 25.351C181.75 42.0009 161.85 44.211 146.98 45.351C139.08 45.8309 131.17 45.791 123.27 46.241C119.36 46.521 115.35 46.701 111.59 47.901C110.653 48.1711 109.804 48.6853 109.13 49.391C106.37 52.391 111.07 54.1409 113.4 54.8409C117.18 56.1809 121.13 56.201 125.09 56.431C141.58 58.141 150.36 75.1909 159.36 87.101C172.6 105.981 189.36 126.571 186.6 151.101C185.6 158.911 182.03 166.871 175.27 171.301C170.2 174.591 164.14 175.551 158.27 176.541C156.57 176.791 154.11 177.321 152.41 177.541C148.438 177.868 144.439 177.547 140.57 176.591C133.89 175.591 120.03 169.371 115.87 176.931C114.59 179.871 120.39 180.301 122.21 180.721C130 181.851 138.01 182.131 145.64 184.491C148.536 185.306 151.221 186.739 153.51 188.691L155.75 190.631C164.75 198.361 173.66 206.261 183.84 212.321C190.696 216.253 198.279 218.75 206.13 219.661C215.69 220.661 228.23 218.781 231.19 230.841C232.91 238.681 230.19 246.641 230.88 254.521C231.36 260.461 234.08 265.881 236.8 271.091C240.44 278.011 244.48 285.411 243.71 293.501C242.03 309.941 226.05 320.731 210.77 323.181C202.965 324.503 195.054 325.092 187.14 324.941C202.61 324.691 219.76 323.941 232.14 313.541C238.14 308.541 242.79 301.391 243.45 293.471C244.11 285.551 240.14 278.131 236.45 271.251C232.6 264.311 229.53 256.691 230.45 248.601C231.45 236.331 234.09 222.831 217.86 220.961C213.96 220.491 209.98 220.651 206.03 220.151C198.116 219.231 190.472 216.713 183.56 212.751C173.32 206.641 164.37 198.751 155.4 190.991L153.16 189.051C150.922 187.139 148.295 185.736 145.46 184.941C136.98 182.241 127.89 182.401 119.17 180.611C114.94 179.701 113.64 177.461 117.39 174.411C119.082 173.273 121.093 172.706 123.13 172.791C129.13 172.891 134.82 175.001 140.62 176.151C145.44 177.201 150.39 177.741 155.23 176.611L158.15 176.111C168.37 174.631 177.66 172.191 182.69 162.271C195.39 135.341 174 108.381 159.1 87.2209C150.16 75.3409 141.44 58.2709 124.98 56.6209C121.04 56.4009 116.98 56.381 113.25 55.041C111.25 54.291 107.42 53.3109 108.08 50.5309C109.58 47.101 114.08 47.0709 117.25 46.5309C123.15 45.851 129.1 45.7609 135.02 45.5309C150.42 44.8609 174.84 45.071 184.02 30.581C189.31 21.951 187.84 11.391 189.49 1.79095C190.82 -5.98904 193.69 -13.529 193.38 -21.509C193.05 -33.429 188.29 -44.599 184.19 -55.639C179.91 -66.559 174.77 -77.819 165.33 -85.229C155.89 -92.639 143.27 -93.709 132.96 -99.5891C126.36 -103.499 119.84 -110.189 120.13 -118.269L120.23 -118.239Z" fill="#FFE2CA"/>
<path d="M158.38 320.171C185.69 316.461 208.86 301.171 212.72 272.301C213 270.831 213.1 268.301 213.22 266.741C213.22 265.571 213.22 263.611 213.22 262.541C213.14 261.741 212.94 259.231 212.85 258.371C212.253 253.748 211.014 249.232 209.17 244.951C207.12 239.74 203.783 235.133 199.47 231.561C189.17 223.051 177.8 232.201 168.6 221.081C163.72 215.301 161.33 207.951 156.46 202.291C151.59 196.631 144.34 193.601 137.16 191.841C125.66 188.631 102.37 187.781 96.2799 176.341C92.3699 168.201 97.5799 160.981 106.28 160.701C113.85 160.381 120.73 164.701 128.28 164.361C143.19 164.241 157.56 152.951 160.28 138.151C163 123.351 153.71 107.661 139.85 102.151C138.754 101.632 137.851 100.777 137.272 99.7114C136.693 98.6454 136.468 97.4231 136.63 96.221L136.69 94.831C136.772 88.7674 135.122 82.8062 131.933 77.6479C128.745 72.4897 124.15 68.3485 118.69 65.711C111.85 62.501 104.08 63.011 96.8898 61.011C93.1989 60.1053 89.8184 58.2267 87.0999 55.571C83.0399 51.491 82.4698 44.131 86.9998 40.181C94.5898 33.401 105.2 37.601 114.18 36.181C117.844 35.5496 121.376 34.3091 124.63 32.511C131.2 28.971 136.81 23.921 142.37 18.991C147.93 14.061 153.29 8.58098 156.03 1.62098C157.419 -1.82117 157.81 -5.58472 157.16 -9.23902C156.48 -12.889 154.91 -16.309 153.75 -19.869C151.15 -27.059 152.53 -34.869 154.61 -42.019C156.11 -47.409 158.04 -52.699 158.61 -58.289C159.77 -67.439 156.95 -78.159 147.07 -80.969C139.95 -83.209 132.07 -81.969 125.07 -84.819C117.74 -87.659 114.75 -95.599 112.31 -102.429C109.97 -109.429 106.31 -116.429 99.8798 -120.499C103.06 -118.729 105.67 -115.679 107.75 -112.629C113.75 -103.689 113.88 -89.569 125.14 -84.989C133.74 -81.459 144.27 -84.359 152.19 -78.729C156.85 -75.329 158.86 -69.459 159.11 -63.879C159.62 -56.319 157.11 -49.069 155.03 -41.879C152.95 -34.689 151.63 -27.109 154.23 -19.989C155.38 -16.459 156.98 -12.989 157.68 -9.30903C159.2 -1.68903 155.44 5.69098 150.61 11.381C148.159 14.2185 145.523 16.891 142.72 19.381C137.14 24.381 131.51 29.381 124.89 32.961C121.591 34.7876 118.007 36.0452 114.29 36.681C105.29 38.141 94.8699 33.901 87.2899 40.561C82.9699 44.371 83.5199 51.371 87.4199 55.301C90.0789 57.8932 93.3832 59.7266 96.9898 60.611C103.27 62.371 109.99 62.161 116.23 64.311C127.89 68.311 136.23 79.901 137 92.071C137.18 93.911 136.94 95.841 137 97.661C137.094 98.5619 137.42 99.4231 137.946 100.161C138.471 100.899 139.179 101.488 140 101.871C146.996 104.775 152.814 109.945 156.52 116.551C160.448 123.04 161.848 130.75 160.452 138.206C159.055 145.663 154.961 152.343 148.95 156.971C142.351 162.365 133.942 165.037 125.44 164.441C118.92 163.951 112.83 160.581 106.23 160.921C97.6899 161.201 92.5399 168.271 96.4099 176.261C102.41 187.551 125.76 188.381 137.16 191.541C144.4 193.301 151.68 196.331 156.66 202.071C161.64 207.811 164.02 215.161 168.84 220.841C177.89 231.731 189.29 222.651 199.63 231.281C203.984 234.905 207.349 239.574 209.41 244.851C211.255 249.162 212.49 253.709 213.08 258.361L213.32 261.161L213.43 262.561V266.771L213.23 269.581C213.23 270.041 213.23 270.511 213.12 270.981L212.92 272.371C208.98 301.261 185.66 316.751 158.31 320.201L158.38 320.171Z" fill="#FFE2CA"/>
<path d="M158.38 320.171C185.69 316.461 208.86 301.171 212.72 272.301C213 270.831 213.1 268.301 213.22 266.741C213.22 265.571 213.22 263.611 213.22 262.541C213.14 261.741 212.94 259.231 212.85 258.371C212.253 253.748 211.014 249.232 209.17 244.951C207.12 239.74 203.783 235.133 199.47 231.561C189.17 223.051 177.8 232.201 168.6 221.081C163.72 215.301 161.33 207.951 156.46 202.291C151.59 196.631 144.34 193.601 137.16 191.841C125.66 188.631 102.37 187.781 96.2799 176.341C92.3699 168.201 97.5799 160.981 106.28 160.701C113.85 160.381 120.73 164.701 128.28 164.361C143.19 164.241 157.56 152.951 160.28 138.151C163 123.351 153.71 107.661 139.85 102.151C138.754 101.632 137.851 100.777 137.272 99.7114C136.693 98.6454 136.468 97.4231 136.63 96.221L136.69 94.831C136.772 88.7674 135.122 82.8062 131.933 77.6479C128.745 72.4897 124.15 68.3485 118.69 65.711C111.85 62.501 104.08 63.011 96.8898 61.011C93.1989 60.1053 89.8184 58.2267 87.0999 55.571C83.0399 51.491 82.4698 44.131 86.9998 40.181C94.5898 33.401 105.2 37.601 114.18 36.181C117.844 35.5496 121.376 34.3091 124.63 32.511C131.2 28.971 136.81 23.921 142.37 18.991C147.93 14.061 153.29 8.58098 156.03 1.62098C157.419 -1.82117 157.81 -5.58472 157.16 -9.23902C156.48 -12.889 154.91 -16.309 153.75 -19.869C151.15 -27.059 152.53 -34.869 154.61 -42.019C156.11 -47.409 158.04 -52.699 158.61 -58.289C159.77 -67.439 156.95 -78.159 147.07 -80.969C139.95 -83.209 132.07 -81.969 125.07 -84.819C117.74 -87.659 114.75 -95.599 112.31 -102.429C109.97 -109.429 106.31 -116.429 99.8798 -120.499C103.06 -118.729 105.67 -115.679 107.75 -112.629C113.75 -103.689 113.88 -89.569 125.14 -84.989C133.74 -81.459 144.27 -84.359 152.19 -78.729C156.85 -75.329 158.86 -69.459 159.11 -63.879C159.62 -56.319 157.11 -49.069 155.03 -41.879C152.95 -34.689 151.63 -27.109 154.23 -19.989C155.38 -16.459 156.98 -12.989 157.68 -9.30903C159.2 -1.68903 155.44 5.69098 150.61 11.381C148.159 14.2185 145.523 16.891 142.72 19.381C137.14 24.381 131.51 29.381 124.89 32.961C121.591 34.7876 118.007 36.0452 114.29 36.681C105.29 38.141 94.8699 33.901 87.2899 40.561C82.9699 44.371 83.5199 51.371 87.4199 55.301C90.0789 57.8932 93.3832 59.7266 96.9898 60.611C103.27 62.371 109.99 62.161 116.23 64.311C127.89 68.311 136.23 79.901 137 92.071C137.18 93.911 136.94 95.841 137 97.661C137.094 98.5619 137.42 99.4231 137.946 100.161C138.471 100.899 139.179 101.488 140 101.871C146.996 104.775 152.814 109.945 156.52 116.551C160.448 123.04 161.848 130.75 160.452 138.206C159.055 145.663 154.961 152.343 148.95 156.971C142.351 162.365 133.942 165.037 125.44 164.441C118.92 163.951 112.83 160.581 106.23 160.921C97.6899 161.201 92.5399 168.271 96.4099 176.261C102.41 187.551 125.76 188.381 137.16 191.541C144.4 193.301 151.68 196.331 156.66 202.071C161.64 207.811 164.02 215.161 168.84 220.841C177.89 231.731 189.29 222.651 199.63 231.281C203.984 234.905 207.349 239.574 209.41 244.851C211.255 249.162 212.49 253.709 213.08 258.361L213.32 261.161L213.43 262.561V266.771L213.23 269.581C213.23 270.041 213.23 270.511 213.12 270.981L212.92 272.371C208.98 301.261 185.66 316.751 158.31 320.201L158.38 320.171Z" fill="#FFE2CA"/>
<path d="M105.39 316.261C104.827 315.911 104.354 315.436 104.007 314.872C103.66 314.308 103.448 313.67 103.39 313.011C103.36 311.679 103.741 310.369 104.48 309.261C109.61 304.381 131.82 283.001 136.15 278.371C141 273.281 144.25 264.571 139.28 258.521C135.28 253.991 127.9 254.451 124.42 249.311C121.98 245.391 123.22 240.581 122.25 236.311C120.62 227.561 114.94 220.191 108.41 214.381C95.2699 202.821 77.0999 196.191 68.4099 180.141C62.2399 169.451 63.1999 156.001 72.9499 147.811C82.9499 139.371 95.0599 144.071 101.95 129.601C107.29 118.421 102.95 105.521 93.35 98.2307C90.4534 95.9635 87.2167 94.1681 83.7599 92.9107C78.2699 90.8207 68.9099 89.9107 67.0099 83.3707C66.2699 80.2507 68.6499 77.7007 69.6799 75.0208C71.1999 70.7507 68.51 66.3507 65.47 63.4407C61.21 59.4907 55.3099 56.7507 52.9199 51.1107C50.5299 45.4707 51.5299 39.1107 54.3099 33.8507C57.0899 28.5907 61.8999 24.6308 66.9899 21.6407C77.1499 15.6407 89.12 13.0807 98.47 5.72075C110.47 -3.62925 112.77 -19.8593 113.99 -34.1093C115.93 -52.7093 114.35 -60.6393 98.9899 -72.5893C89.9899 -79.9793 66.7399 -98.4393 57.6999 -105.989C67.1899 -98.4493 90.0499 -79.9893 99.1499 -72.7893C114.59 -60.8493 116.32 -52.9093 114.43 -34.0693C113.29 -19.6993 110.95 -3.32926 98.7799 6.10074C89.3899 13.5007 77.3999 16.1007 67.2399 22.1007C62.2399 25.0507 57.4699 28.9107 54.7399 34.1007C52.0099 39.2907 50.98 45.5508 53.35 50.9608C55.75 56.5608 61.5299 59.1708 65.7899 63.1508C68.9199 66.1508 71.69 70.7608 70.08 75.1508C69.08 77.8408 66.7099 80.2307 67.3999 83.2807C69.2499 89.6007 78.5699 90.5207 83.8799 92.5907C87.3721 93.8556 90.6375 95.6757 93.5499 97.9807C103.25 105.401 107.55 118.371 102.15 129.681C95.1499 144.301 83.1499 139.431 73.0699 147.931C63.4299 156.061 62.4999 169.431 68.6599 179.991C77.4099 195.991 95.5499 202.531 108.66 214.071C115.26 219.901 121.05 227.371 122.66 236.221C123.66 240.481 122.37 245.221 124.73 249.131C128.18 254.191 135.59 253.761 139.52 258.341C144.52 264.491 141.28 273.341 136.32 278.541C132.02 283.451 109.43 304.371 104.53 309.331C103.804 310.422 103.43 311.71 103.46 313.021C103.519 313.676 103.731 314.309 104.078 314.868C104.425 315.427 104.899 315.897 105.46 316.241L105.39 316.261Z" fill="#FFE2CA"/>
<path d="M105.39 316.261C104.827 315.911 104.354 315.436 104.007 314.872C103.66 314.308 103.448 313.67 103.39 313.011C103.36 311.679 103.741 310.369 104.48 309.261C109.61 304.381 131.82 283.001 136.15 278.371C141 273.281 144.25 264.571 139.28 258.521C135.28 253.991 127.9 254.451 124.42 249.311C121.98 245.391 123.22 240.581 122.25 236.311C120.62 227.561 114.94 220.191 108.41 214.381C95.2699 202.821 77.0999 196.191 68.4099 180.141C62.2399 169.451 63.1999 156.001 72.9499 147.811C82.9499 139.371 95.0599 144.071 101.95 129.601C107.29 118.421 102.95 105.521 93.35 98.2307C90.4534 95.9635 87.2167 94.1681 83.7599 92.9107C78.2699 90.8207 68.9099 89.9107 67.0099 83.3707C66.2699 80.2507 68.6499 77.7007 69.6799 75.0208C71.1999 70.7507 68.51 66.3507 65.47 63.4407C61.21 59.4907 55.3099 56.7507 52.9199 51.1107C50.5299 45.4707 51.5299 39.1107 54.3099 33.8507C57.0899 28.5907 61.8999 24.6308 66.9899 21.6407C77.1499 15.6407 89.12 13.0807 98.47 5.72075C110.47 -3.62925 112.77 -19.8593 113.99 -34.1093C115.93 -52.7093 114.35 -60.6393 98.9899 -72.5893C89.9899 -79.9793 66.7399 -98.4393 57.6999 -105.989C67.1899 -98.4493 90.0499 -79.9893 99.1499 -72.7893C114.59 -60.8493 116.32 -52.9093 114.43 -34.0693C113.29 -19.6993 110.95 -3.32926 98.7799 6.10074C89.3899 13.5007 77.3999 16.1007 67.2399 22.1007C62.2399 25.0507 57.4699 28.9107 54.7399 34.1007C52.0099 39.2907 50.98 45.5508 53.35 50.9608C55.75 56.5608 61.5299 59.1708 65.7899 63.1508C68.9199 66.1508 71.69 70.7608 70.08 75.1508C69.08 77.8408 66.7099 80.2307 67.3999 83.2807C69.2499 89.6007 78.5699 90.5207 83.8799 92.5907C87.3721 93.8556 90.6375 95.6757 93.5499 97.9807C103.25 105.401 107.55 118.371 102.15 129.681C95.1499 144.301 83.1499 139.431 73.0699 147.931C63.4299 156.061 62.4999 169.431 68.6599 179.991C77.4099 195.991 95.5499 202.531 108.66 214.071C115.26 219.901 121.05 227.371 122.66 236.221C123.66 240.481 122.37 245.221 124.73 249.131C128.18 254.191 135.59 253.761 139.52 258.341C144.52 264.491 141.28 273.341 136.32 278.541C132.02 283.451 109.43 304.371 104.53 309.331C103.804 310.422 103.43 311.71 103.46 313.021C103.519 313.676 103.731 314.309 104.078 314.868C104.425 315.427 104.899 315.897 105.46 316.241L105.39 316.261Z" fill="#FDD999"/>
<path d="M105.39 316.261C104.827 315.911 104.354 315.436 104.007 314.872C103.66 314.308 103.448 313.67 103.39 313.011C103.36 311.679 103.741 310.369 104.48 309.261C109.61 304.381 131.82 283.001 136.15 278.371C141 273.281 144.25 264.571 139.28 258.521C135.28 253.991 127.9 254.451 124.42 249.311C121.98 245.391 123.22 240.581 122.25 236.311C120.62 227.561 114.94 220.191 108.41 214.381C95.2699 202.821 77.0999 196.191 68.4099 180.141C62.2399 169.451 63.1999 156.001 72.9499 147.811C82.9499 139.371 95.0599 144.071 101.95 129.601C107.29 118.421 102.95 105.521 93.35 98.2307C90.4534 95.9635 87.2167 94.1681 83.7599 92.9107C78.2699 90.8207 68.9099 89.9107 67.0099 83.3707C66.2699 80.2507 68.6499 77.7007 69.6799 75.0208C71.1999 70.7507 68.51 66.3507 65.47 63.4407C61.21 59.4907 55.3099 56.7507 52.9199 51.1107C50.5299 45.4707 51.5299 39.1107 54.3099 33.8507C57.0899 28.5907 61.8999 24.6308 66.9899 21.6407C77.1499 15.6407 89.12 13.0807 98.47 5.72075C110.47 -3.62925 112.77 -19.8593 113.99 -34.1093C115.93 -52.7093 114.35 -60.6393 98.9899 -72.5893C89.9899 -79.9793 66.7399 -98.4393 57.6999 -105.989C67.1899 -98.4493 90.0499 -79.9893 99.1499 -72.7893C114.59 -60.8493 116.32 -52.9093 114.43 -34.0693C113.29 -19.6993 110.95 -3.32926 98.7799 6.10074C89.3899 13.5007 77.3999 16.1007 67.2399 22.1007C62.2399 25.0507 57.4699 28.9107 54.7399 34.1007C52.0099 39.2907 50.98 45.5508 53.35 50.9608C55.75 56.5608 61.5299 59.1708 65.7899 63.1508C68.9199 66.1508 71.69 70.7608 70.08 75.1508C69.08 77.8408 66.7099 80.2307 67.3999 83.2807C69.2499 89.6007 78.5699 90.5207 83.8799 92.5907C87.3721 93.8556 90.6375 95.6757 93.5499 97.9807C103.25 105.401 107.55 118.371 102.15 129.681C95.1499 144.301 83.1499 139.431 73.0699 147.931C63.4299 156.061 62.4999 169.431 68.6599 179.991C77.4099 195.991 95.5499 202.531 108.66 214.071C115.26 219.901 121.05 227.371 122.66 236.221C123.66 240.481 122.37 245.221 124.73 249.131C128.18 254.191 135.59 253.761 139.52 258.341C144.52 264.491 141.28 273.341 136.32 278.541C132.02 283.451 109.43 304.371 104.53 309.331C103.804 310.422 103.43 311.71 103.46 313.021C103.519 313.676 103.731 314.309 104.078 314.868C104.425 315.427 104.899 315.897 105.46 316.241L105.39 316.261Z" fill="#FBCF69"/>
<path d="M105.39 316.261C104.827 315.911 104.354 315.436 104.007 314.872C103.66 314.308 103.448 313.67 103.39 313.011C103.36 311.679 103.741 310.369 104.48 309.261C109.61 304.381 131.82 283.001 136.15 278.371C141 273.281 144.25 264.571 139.28 258.521C135.28 253.991 127.9 254.451 124.42 249.311C121.98 245.391 123.22 240.581 122.25 236.311C120.62 227.561 114.94 220.191 108.41 214.381C95.2699 202.821 77.0999 196.191 68.4099 180.141C62.2399 169.451 63.1999 156.001 72.9499 147.811C82.9499 139.371 95.0599 144.071 101.95 129.601C107.29 118.421 102.95 105.521 93.35 98.2307C90.4534 95.9635 87.2167 94.1681 83.7599 92.9107C78.2699 90.8207 68.9099 89.9107 67.0099 83.3707C66.2699 80.2507 68.6499 77.7007 69.6799 75.0208C71.1999 70.7507 68.51 66.3507 65.47 63.4407C61.21 59.4907 55.3099 56.7507 52.9199 51.1107C50.5299 45.4707 51.5299 39.1107 54.3099 33.8507C57.0899 28.5907 61.8999 24.6308 66.9899 21.6407C77.1499 15.6407 89.12 13.0807 98.47 5.72075C110.47 -3.62925 112.77 -19.8593 113.99 -34.1093C115.93 -52.7093 114.35 -60.6393 98.9899 -72.5893C89.9899 -79.9793 66.7399 -98.4393 57.6999 -105.989C67.1899 -98.4493 90.0499 -79.9893 99.1499 -72.7893C114.59 -60.8493 116.32 -52.9093 114.43 -34.0693C113.29 -19.6993 110.95 -3.32926 98.7799 6.10074C89.3899 13.5007 77.3999 16.1007 67.2399 22.1007C62.2399 25.0507 57.4699 28.9107 54.7399 34.1007C52.0099 39.2907 50.98 45.5508 53.35 50.9608C55.75 56.5608 61.5299 59.1708 65.7899 63.1508C68.9199 66.1508 71.69 70.7608 70.08 75.1508C69.08 77.8408 66.7099 80.2307 67.3999 83.2807C69.2499 89.6007 78.5699 90.5207 83.8799 92.5907C87.3721 93.8556 90.6375 95.6757 93.5499 97.9807C103.25 105.401 107.55 118.371 102.15 129.681C95.1499 144.301 83.1499 139.431 73.0699 147.931C63.4299 156.061 62.4999 169.431 68.6599 179.991C77.4099 195.991 95.5499 202.531 108.66 214.071C115.26 219.901 121.05 227.371 122.66 236.221C123.66 240.481 122.37 245.221 124.73 249.131C128.18 254.191 135.59 253.761 139.52 258.341C144.52 264.491 141.28 273.341 136.32 278.541C132.02 283.451 109.43 304.371 104.53 309.331C103.804 310.422 103.43 311.71 103.46 313.021C103.519 313.676 103.731 314.309 104.078 314.868C104.425 315.427 104.899 315.897 105.46 316.241L105.39 316.261Z" fill="#F9C638"/>
<path d="M62 -108.359C67.3656 -105.699 72.4483 -102.503 77.17 -98.8189C82.02 -95.1489 84.6901 -89.5589 88.9501 -85.3489C93.2101 -81.1389 98.1101 -77.6889 102.82 -74.0089C121.73 -59.1689 122.89 -49.5489 121.23 -26.6889C120.51 -14.9389 118.3 -1.99889 109.15 6.31111C97.82 16.5511 81.24 17.2211 69.38 26.5811C62.32 31.8511 57.5601 41.3311 60.6001 50.0611C62.5101 55.8711 67.6 59.6011 71.54 64.0611C74.39 67.4011 77.19 71.5111 76.91 76.0611C76.6776 77.5326 76.6239 79.0267 76.75 80.5111C78.11 86.3511 86.08 87.9811 90.81 90.3711C107.18 97.4311 117.27 119.591 107.48 135.571C102.31 144.121 92.3401 144.241 84.2201 148.071C76.1001 151.901 69.67 159.541 70.68 168.961C73.15 186.831 91.9901 198.061 105.82 207.211C110.82 210.411 115.92 213.631 120.82 217.071C123.301 218.776 125.552 220.793 127.52 223.071C131.52 227.761 132.43 234.071 133.52 239.871C134.52 246.271 136.68 250.971 142.52 254.341C147.61 257.341 153.52 260.561 154.3 267.111C155.75 276.581 148.06 283.991 141.18 289.251C134.18 294.821 127.07 300.391 119.32 304.931C115.38 307.511 108.87 308.851 108.75 314.551C108.787 315.234 109.015 315.893 109.41 316.451C108.965 315.916 108.711 315.247 108.69 314.551C108.733 313.514 109.002 312.498 109.479 311.576C109.956 310.653 110.628 309.846 111.45 309.211C113.9 307.571 116.71 306.361 119.26 304.821C126.99 300.261 134.04 294.671 141.05 289.081C147.82 283.851 155.44 276.521 153.98 267.161C153.19 260.721 147.35 257.641 142.31 254.671C136.31 251.261 134.1 246.511 133.01 239.961C131.85 234.191 130.94 228.011 127.01 223.391C125.077 221.13 122.859 219.13 120.41 217.441C115.53 214.011 110.49 210.791 105.41 207.581C91.41 198.361 72.5401 187.041 70.0701 168.971C69.0701 159.341 75.45 151.481 83.87 147.641C91.87 143.841 101.93 143.731 107.01 135.341C116.73 119.551 106.74 97.5911 90.56 90.5611C85.74 88.1111 77.8 86.5111 76.4 80.5111C76.06 77.5111 77.2201 74.5111 75.9501 71.6511C71.5201 59.7711 57.0501 56.4411 59.5901 41.1811C61.1101 32.0411 68.73 25.4411 76.68 21.5611C87.3 16.2611 99.75 14.1511 108.74 5.9911C117.73 -2.1689 120.02 -15.0489 120.8 -26.7389C122.51 -49.4189 121.48 -58.9789 102.65 -73.8389C97.39 -77.9989 91.77 -81.8389 87.27 -86.8389C83.88 -90.8389 81.2701 -95.4789 77.0801 -98.7089C72.5201 -102.569 67.0801 -105.449 61.9801 -108.339L62 -108.359Z" fill="#FBCF69"/>
<path d="M66.35 -110.739C74.82 -107.679 84.1699 -103.949 89.1599 -96.0093C90.7299 -93.3393 91.5699 -90.3293 93.1599 -87.7193C94.7706 -85.099 96.7701 -82.7387 99.09 -80.7193C103.69 -76.6393 108.99 -73.4493 113.67 -69.4493C118.387 -65.4682 122.185 -60.5108 124.8 -54.9193C128.67 -46.4092 128.62 -36.8293 128.51 -27.6793C128.34 -15.6793 127.64 -2.05925 118.81 7.08075C109.98 16.2207 96.71 17.5907 85.58 22.4507C74.44 26.9907 63.7999 38.0407 68.6399 50.8207C70.8199 56.5807 75.1299 61.2007 78.4999 66.2907C80.2699 68.8076 81.8638 71.4439 83.2699 74.1808C84.5799 76.9208 85.5299 79.9908 88.0499 81.8907C91.6699 84.7507 96.2699 86.0307 100.12 88.5407C113.29 96.0907 121.31 119.101 116.89 133.441C113.72 143.971 105.25 146.551 95.61 148.901C85.06 151.541 74.14 157.221 76.2 169.901C77.6 177.471 82.4799 183.901 87.8999 189.141C96.6899 197.721 106.97 204.621 117.73 210.501C123.1 213.501 128.8 215.861 133.99 219.201C143.36 225.011 141.32 234.971 145.36 243.691C146.612 246.477 148.334 249.028 150.45 251.231C154.67 255.681 160.34 258.651 164.04 263.651C172.39 275.581 162.45 287.791 152.04 294.221C144.34 299.221 136.19 303.811 127.34 306.481C123.7 307.651 119.62 308.041 116.6 310.551C114.82 312.061 113.2 314.211 113.53 316.661C113.19 314.191 114.81 312.011 116.6 310.491C119.6 307.971 123.73 307.491 127.36 306.371C136.18 303.671 144.3 299.101 151.96 294.031C166.78 284.561 173.84 269.461 157.16 257.531C152.28 253.841 147.4 249.661 144.94 243.881C143.686 241.053 142.776 238.085 142.23 235.041C140.38 223.131 135.95 220.141 125.67 215.191C108.67 206.591 79.6699 189.941 75.7399 169.971C73.6799 156.971 84.6799 151.161 95.4999 148.491C105.03 146.171 113.37 143.751 116.5 133.331C120.91 119.131 113 96.2608 99.95 88.7408C96.09 86.2108 91.5299 84.9407 87.8699 82.0407C85.3399 80.1307 84.3699 77.0407 83.0599 74.2607C81.6735 71.5245 80.0928 68.8911 78.33 66.3807C74.93 61.2807 70.6199 56.6807 68.3999 50.8807C63.4799 38.0307 74.1799 26.7608 85.3999 22.1808C96.4799 17.2908 109.65 15.7907 118.46 6.82074C127.27 -2.14926 127.78 -15.7393 128.03 -27.6893C128.16 -36.8193 128.25 -46.3093 124.43 -54.7893C121.86 -60.3668 118.106 -65.318 113.43 -69.2993C108.77 -73.2993 103.43 -76.5193 98.8899 -80.6193C96.5444 -82.6328 94.521 -84.9934 92.8899 -87.6193C91.2799 -90.2693 90.4499 -93.2793 88.8899 -95.9293C83.9699 -103.929 74.48 -107.539 66.2 -110.729L66.35 -110.739Z" fill="#FDD999"/>
<path d="M70.7 -113.139C79.84 -110.939 90.45 -107.769 95.7 -99.3592C97.38 -96.5192 97.81 -93.1992 98.7 -90.1092C100.49 -83.7192 105.57 -79.1092 110.78 -75.3492C123.41 -66.7892 130.62 -61.0492 133.71 -45.2892C134.845 -38.8672 135.434 -32.3606 135.47 -25.8392C136.12 -8.95917 135.08 8.49085 117.2 15.7809C108.2 19.7209 98.2599 20.7809 89.5299 25.2108C81.0799 29.4209 73.18 38.3108 75.7 48.3408C76.5117 51.4862 77.6863 54.5266 79.2 57.4008C82.04 63.2309 84.91 69.1608 89.2 74.0508C91.3393 76.4966 93.8912 78.5477 96.7399 80.1108C99.6099 81.6408 102.74 82.6708 105.64 84.1108C114.96 88.2508 119.09 98.3608 121.55 107.611C123.25 113.891 124.79 120.281 125.03 126.811C125.27 133.341 124.03 140.381 119.1 144.901C109.52 154.191 91.9299 148.101 83.5499 158.601C74.0499 172.691 93.7199 189.871 103.88 197.901C111.585 203.878 120.045 208.814 129.04 212.581C134.95 215.271 141.68 216.371 146.81 220.581C152.25 224.911 151.81 232.511 153.7 238.581C154.732 241.642 156.326 244.484 158.4 246.961C164.4 254.561 173.4 259.861 177.8 268.771C184.22 281.911 172.71 294.501 161.44 300.061C152.73 304.573 143.171 307.21 133.38 307.801C127.18 308.201 119.49 310.081 117.61 316.881H117.56C119.42 310.021 127.15 308.121 133.37 307.711C143.149 307.092 152.689 304.424 161.37 299.881C172.44 294.351 183.9 281.881 177.5 268.941C173.08 260.081 164.16 254.941 158.07 247.281C155.952 244.76 154.32 241.868 153.26 238.751C151.38 232.751 151.89 225.331 146.53 221.011C141.53 216.841 134.75 215.721 128.9 213.011C119.884 209.226 111.407 204.266 103.69 198.261C93.3199 190.071 73.5699 172.711 83.2799 158.321C93.7699 144.271 125.36 159.721 124.81 126.811C124.58 120.311 123.06 113.941 121.38 107.681C118.95 98.4708 114.9 88.4208 105.65 84.2908C102.74 82.8708 99.6499 81.8308 96.7599 80.2908C93.8894 78.7178 91.3225 76.6454 89.1799 74.1708C84.8599 69.2508 81.95 63.3308 79.1 57.5008C77.5727 54.6178 76.3848 51.5674 75.5599 48.4108C72.9899 38.2908 80.93 29.2508 89.47 24.9708C98.2 20.4908 108.19 19.4308 117.13 15.4808C134.87 8.21084 135.68 -9.09917 135.13 -25.8092C135.11 -32.3088 134.541 -38.7952 133.43 -45.1992C130.43 -60.8392 123.3 -66.5592 110.72 -75.1392C105.5 -78.9192 100.39 -83.6092 98.61 -90.0392C97.69 -93.1492 97.27 -96.4492 95.61 -99.2692C90.35 -107.739 79.72 -110.759 70.7 -113.119V-113.139Z" fill="#FFE2CA"/>
<path d="M70.7 -113.139C79.84 -110.939 90.45 -107.769 95.7 -99.3592C97.38 -96.5192 97.81 -93.1992 98.7 -90.1092C100.49 -83.7192 105.57 -79.1092 110.78 -75.3492C123.41 -66.7892 130.62 -61.0492 133.71 -45.2892C134.845 -38.8672 135.434 -32.3606 135.47 -25.8392C136.12 -8.95917 135.08 8.49085 117.2 15.7809C108.2 19.7209 98.2599 20.7809 89.5299 25.2108C81.0799 29.4209 73.18 38.3108 75.7 48.3408C76.5117 51.4862 77.6863 54.5266 79.2 57.4008C82.04 63.2309 84.91 69.1608 89.2 74.0508C91.3393 76.4966 93.8912 78.5477 96.7399 80.1108C99.6099 81.6408 102.74 82.6708 105.64 84.1108C114.96 88.2508 119.09 98.3608 121.55 107.611C123.25 113.891 124.79 120.281 125.03 126.811C125.27 133.341 124.03 140.381 119.1 144.901C109.52 154.191 91.9299 148.101 83.5499 158.601C74.0499 172.691 93.7199 189.871 103.88 197.901C111.585 203.878 120.045 208.814 129.04 212.581C134.95 215.271 141.68 216.371 146.81 220.581C152.25 224.911 151.81 232.511 153.7 238.581C154.732 241.642 156.326 244.484 158.4 246.961C164.4 254.561 173.4 259.861 177.8 268.771C184.22 281.911 172.71 294.501 161.44 300.061C152.73 304.573 143.171 307.21 133.38 307.801C127.18 308.201 119.49 310.081 117.61 316.881H117.56C119.42 310.021 127.15 308.121 133.37 307.711C143.149 307.092 152.689 304.424 161.37 299.881C172.44 294.351 183.9 281.881 177.5 268.941C173.08 260.081 164.16 254.941 158.07 247.281C155.952 244.76 154.32 241.868 153.26 238.751C151.38 232.751 151.89 225.331 146.53 221.011C141.53 216.841 134.75 215.721 128.9 213.011C119.884 209.226 111.407 204.266 103.69 198.261C93.3199 190.071 73.5699 172.711 83.2799 158.321C93.7699 144.271 125.36 159.721 124.81 126.811C124.58 120.311 123.06 113.941 121.38 107.681C118.95 98.4708 114.9 88.4208 105.65 84.2908C102.74 82.8708 99.6499 81.8308 96.7599 80.2908C93.8894 78.7178 91.3225 76.6454 89.1799 74.1708C84.8599 69.2508 81.95 63.3308 79.1 57.5008C77.5727 54.6178 76.3848 51.5674 75.5599 48.4108C72.9899 38.2908 80.93 29.2508 89.47 24.9708C98.2 20.4908 108.19 19.4308 117.13 15.4808C134.87 8.21084 135.68 -9.09917 135.13 -25.8092C135.11 -32.3088 134.541 -38.7952 133.43 -45.1992C130.43 -60.8392 123.3 -66.5592 110.72 -75.1392C105.5 -78.9192 100.39 -83.6092 98.61 -90.0392C97.69 -93.1492 97.27 -96.4492 95.61 -99.2692C90.35 -107.739 79.72 -110.759 70.7 -113.119V-113.139Z" fill="#FFE2CA"/>
<path d="M70.7 -113.139C79.84 -110.939 90.45 -107.769 95.7 -99.3592C97.38 -96.5192 97.81 -93.1992 98.7 -90.1092C100.49 -83.7192 105.57 -79.1092 110.78 -75.3492C123.41 -66.7892 130.62 -61.0492 133.71 -45.2892C134.845 -38.8672 135.434 -32.3606 135.47 -25.8392C136.12 -8.95917 135.08 8.49085 117.2 15.7809C108.2 19.7209 98.2599 20.7809 89.5299 25.2108C81.0799 29.4209 73.18 38.3108 75.7 48.3408C76.5117 51.4862 77.6863 54.5266 79.2 57.4008C82.04 63.2309 84.91 69.1608 89.2 74.0508C91.3393 76.4966 93.8912 78.5477 96.7399 80.1108C99.6099 81.6408 102.74 82.6708 105.64 84.1108C114.96 88.2508 119.09 98.3608 121.55 107.611C123.25 113.891 124.79 120.281 125.03 126.811C125.27 133.341 124.03 140.381 119.1 144.901C109.52 154.191 91.9299 148.101 83.5499 158.601C74.0499 172.691 93.7199 189.871 103.88 197.901C111.585 203.878 120.045 208.814 129.04 212.581C134.95 215.271 141.68 216.371 146.81 220.581C152.25 224.911 151.81 232.511 153.7 238.581C154.732 241.642 156.326 244.484 158.4 246.961C164.4 254.561 173.4 259.861 177.8 268.771C184.22 281.911 172.71 294.501 161.44 300.061C152.73 304.573 143.171 307.21 133.38 307.801C127.18 308.201 119.49 310.081 117.61 316.881H117.56C119.42 310.021 127.15 308.121 133.37 307.711C143.149 307.092 152.689 304.424 161.37 299.881C172.44 294.351 183.9 281.881 177.5 268.941C173.08 260.081 164.16 254.941 158.07 247.281C155.952 244.76 154.32 241.868 153.26 238.751C151.38 232.751 151.89 225.331 146.53 221.011C141.53 216.841 134.75 215.721 128.9 213.011C119.884 209.226 111.407 204.266 103.69 198.261C93.3199 190.071 73.5699 172.711 83.2799 158.321C93.7699 144.271 125.36 159.721 124.81 126.811C124.58 120.311 123.06 113.941 121.38 107.681C118.95 98.4708 114.9 88.4208 105.65 84.2908C102.74 82.8708 99.6499 81.8308 96.7599 80.2908C93.8894 78.7178 91.3225 76.6454 89.1799 74.1708C84.8599 69.2508 81.95 63.3308 79.1 57.5008C77.5727 54.6178 76.3848 51.5674 75.5599 48.4108C72.9899 38.2908 80.93 29.2508 89.47 24.9708C98.2 20.4908 108.19 19.4308 117.13 15.4808C134.87 8.21084 135.68 -9.09917 135.13 -25.8092C135.11 -32.3088 134.541 -38.7952 133.43 -45.1992C130.43 -60.8392 123.3 -66.5592 110.72 -75.1392C105.5 -78.9192 100.39 -83.6092 98.61 -90.0392C97.69 -93.1492 97.27 -96.4492 95.61 -99.2692C90.35 -107.739 79.72 -110.759 70.7 -113.119V-113.139Z" fill="#FFE2CA"/>
<path d="M70.7 -113.139C79.84 -110.939 90.45 -107.769 95.7 -99.3592C97.38 -96.5192 97.81 -93.1992 98.7 -90.1092C100.49 -83.7192 105.57 -79.1092 110.78 -75.3492C123.41 -66.7892 130.62 -61.0492 133.71 -45.2892C134.845 -38.8672 135.434 -32.3606 135.47 -25.8392C136.12 -8.95917 135.08 8.49085 117.2 15.7809C108.2 19.7209 98.2599 20.7809 89.5299 25.2108C81.0799 29.4209 73.18 38.3108 75.7 48.3408C76.5117 51.4862 77.6863 54.5266 79.2 57.4008C82.04 63.2309 84.91 69.1608 89.2 74.0508C91.3393 76.4966 93.8912 78.5477 96.7399 80.1108C99.6099 81.6408 102.74 82.6708 105.64 84.1108C114.96 88.2508 119.09 98.3608 121.55 107.611C123.25 113.891 124.79 120.281 125.03 126.811C125.27 133.341 124.03 140.381 119.1 144.901C109.52 154.191 91.9299 148.101 83.5499 158.601C74.0499 172.691 93.7199 189.871 103.88 197.901C111.585 203.878 120.045 208.814 129.04 212.581C134.95 215.271 141.68 216.371 146.81 220.581C152.25 224.911 151.81 232.511 153.7 238.581C154.732 241.642 156.326 244.484 158.4 246.961C164.4 254.561 173.4 259.861 177.8 268.771C184.22 281.911 172.71 294.501 161.44 300.061C152.73 304.573 143.171 307.21 133.38 307.801C127.18 308.201 119.49 310.081 117.61 316.881H117.56C119.42 310.021 127.15 308.121 133.37 307.711C143.149 307.092 152.689 304.424 161.37 299.881C172.44 294.351 183.9 281.881 177.5 268.941C173.08 260.081 164.16 254.941 158.07 247.281C155.952 244.76 154.32 241.868 153.26 238.751C151.38 232.751 151.89 225.331 146.53 221.011C141.53 216.841 134.75 215.721 128.9 213.011C119.884 209.226 111.407 204.266 103.69 198.261C93.3199 190.071 73.5699 172.711 83.2799 158.321C93.7699 144.271 125.36 159.721 124.81 126.811C124.58 120.311 123.06 113.941 121.38 107.681C118.95 98.4708 114.9 88.4208 105.65 84.2908C102.74 82.8708 99.6499 81.8308 96.7599 80.2908C93.8894 78.7178 91.3225 76.6454 89.1799 74.1708C84.8599 69.2508 81.95 63.3308 79.1 57.5008C77.5727 54.6178 76.3848 51.5674 75.5599 48.4108C72.9899 38.2908 80.93 29.2508 89.47 24.9708C98.2 20.4908 108.19 19.4308 117.13 15.4808C134.87 8.21084 135.68 -9.09917 135.13 -25.8092C135.11 -32.3088 134.541 -38.7952 133.43 -45.1992C130.43 -60.8392 123.3 -66.5592 110.72 -75.1392C105.5 -78.9192 100.39 -83.6092 98.61 -90.0392C97.69 -93.1492 97.27 -96.4492 95.61 -99.2692C90.35 -107.739 79.72 -110.759 70.7 -113.119V-113.139Z" fill="#FFE2CA"/>
<path d="M131.23 317.951C135.12 312.331 142.38 311.351 148.61 310.321C155.044 309.313 161.296 307.373 167.17 304.561C181.46 298.141 194.91 282.491 189.24 266.061C186.01 256.781 178.95 249.561 172.37 242.501C170.13 240.141 167.81 237.871 165.58 235.501C162.37 232.111 159.46 227.641 156.58 223.941C152.58 218.811 147.18 214.991 141.77 211.451C126.88 201.521 108.88 196.871 94.9999 185.331C89.8799 181.491 85.9999 174.721 87.9999 168.241C90.0599 161.571 97.2699 159.181 103.29 157.341C114.99 153.681 130.67 150.771 134.48 137.231C136.13 130.921 134.83 124.171 132.15 118.331C130.91 115.331 128.47 112.861 127.81 109.591C126.81 100.021 123.72 90.111 116.58 83.331C111.87 78.631 105.28 77.181 99.1899 75.071C86.3699 70.621 82.75 60.071 84.61 47.381C85.85 36.721 99.0199 28.251 107.75 23.551C118.75 17.641 133.33 14.021 138.61 1.55097C139.72 -1.48546 140.345 -4.67802 140.46 -7.90902C140.69 -14.389 141.02 -20.909 141.35 -27.409C142.05 -40.079 144.29 -54.129 136.8 -65.289C129.31 -76.449 112.64 -76.419 106.06 -88.289C104.52 -91.189 103.76 -94.389 102.45 -97.359C98.38 -106.359 89.51 -112.239 80.45 -115.449V-115.499C86.6519 -113.422 92.3054 -109.973 96.9899 -105.409C99.3042 -103.094 101.187 -100.385 102.55 -97.409C103.88 -94.409 104.65 -91.229 106.19 -88.409C107.782 -85.5757 110.04 -83.1731 112.77 -81.409C118.15 -77.719 124.49 -75.759 129.94 -72.169C138.66 -66.939 142.18 -56.609 142.51 -46.889C142.88 -40.359 142.07 -33.889 141.78 -27.369C141.49 -20.849 141.15 -14.369 140.91 -7.86903C140.792 -4.58591 140.154 -1.34229 139.02 1.74097C133.69 14.421 119.02 18.111 107.92 24.041C102.128 26.9723 96.7897 30.7243 92.0699 35.181C89.6828 37.3611 87.7257 39.9695 86.2999 42.871C84.9499 45.871 84.8199 49.131 84.6399 52.341C84.2099 58.751 86.0899 65.531 90.9899 69.901C95.8099 74.461 102.56 75.501 108.54 77.901C121.29 82.771 126.87 96.901 128.09 109.611C128.73 112.821 131.17 115.281 132.38 118.281C135.07 124.191 136.38 131.001 134.68 137.371C129.39 154.781 107.81 153.991 94.2599 161.141C88.0699 164.551 86.0199 171.471 89.0499 177.811C91.0499 182.331 95.1299 185.361 99.0499 188.201C112.41 197.591 128.42 202.201 142.05 211.201C147.5 214.751 152.93 218.581 156.98 223.741C159.85 227.381 162.79 231.901 165.98 235.261L172.76 242.261C179.33 249.361 186.42 256.661 189.63 266.001C195.3 282.631 181.77 298.291 167.33 304.771C161.431 307.563 155.159 309.489 148.71 310.491C142.45 311.491 135.25 312.571 131.31 318.001L131.23 317.951Z" fill="#FBBAA3"/>
<path d="M144.8 319.051C150.68 315.391 157.65 314.421 164.21 312.591C170.823 310.786 177.096 307.911 182.78 304.081C200.91 291.701 207.43 269.541 196.13 250.191C191.18 241.271 183.89 233.261 173.96 230.081C163.76 226.821 158.44 216.811 151.44 209.541C146.747 204.548 140.982 200.684 134.58 198.241C122.5 192.541 86.8901 187.471 91.9801 168.681C95.6801 159.481 107.31 162.681 114.98 161.151C127.98 159.081 142.62 152.091 146.51 138.501C149.4 127.691 144.38 115.771 135.93 108.831L134.93 108.041C134.028 107.409 133.295 106.565 132.794 105.583C132.294 104.602 132.042 103.512 132.06 102.411C132.025 95.5548 130.015 88.8541 126.27 83.1109C122.602 77.2971 116.932 73.0281 110.33 71.1109C103.81 69.211 96.59 68.7509 90.91 64.6009C86.67 61.6009 83.8601 56.3109 84.8201 51.0609C86.6001 41.7009 97.45 40.0609 104.26 35.521C110.13 32.021 115.73 28.0709 121.43 24.2809C127.13 20.4909 133.02 16.9309 138.21 12.4909C143.4 8.05093 147.76 2.29094 148.03 -4.64906C148.3 -11.5891 145.94 -18.2291 146.54 -25.0991C147.09 -38.6191 153.29 -52.3191 148.38 -65.6291C142.45 -81.6291 125.13 -76.8791 114.7 -86.2391C109.7 -91.1691 108.56 -98.4291 104.79 -104.139C101.351 -110.107 96.2413 -114.939 90.0901 -118.039C99.6101 -113.609 105.63 -104.419 109.45 -94.9691C110.81 -91.8491 112.31 -88.6791 114.81 -86.3391C119.93 -81.5591 127.14 -80.6591 133.57 -78.5991C149.64 -74.2791 152.18 -59.8791 149.9 -45.3291C148.9 -38.5591 147.28 -31.8691 147 -25.0391C146.43 -18.1291 148.68 -11.4891 148.51 -4.58907C147.45 10.1109 132.36 17.2509 121.68 24.7209C115.98 28.5109 110.38 32.4609 104.48 35.9709C100.14 38.7309 95.2001 40.4109 90.8601 43.1209C86.5201 45.8309 84.0401 51.121 85.4601 56.181C87.1401 63.041 94.0001 66.7909 100.46 68.3209C107.06 69.9209 114.19 70.9209 119.66 75.3209C127.82 81.7309 132.4 92.1509 132.4 102.451C132.372 104.138 133.007 105.768 134.17 106.991C135.41 108.111 136.88 109.111 138.07 110.321C140.528 112.737 142.581 115.533 144.15 118.601C151.23 132.101 147.15 146.421 134.21 154.361C128.362 157.994 121.824 160.377 115.01 161.361C108.43 162.671 100.85 160.631 95.0801 164.761C93.7439 165.817 92.7263 167.223 92.1403 168.822C91.5542 170.421 91.4226 172.151 91.76 173.821C94.01 188.361 123.01 192.611 134.66 197.981C141.112 200.43 146.925 204.31 151.66 209.331C157.66 215.401 162 223.221 169.41 227.631C173.94 230.031 179.12 231.151 183.24 234.381C193.91 242.791 201.57 255.991 202.02 269.701C202.31 283.591 194.17 296.701 182.83 304.271C177.123 308.099 170.826 310.964 164.19 312.751C157.62 314.511 150.6 315.631 144.75 319.101L144.8 319.051Z" fill="#F6937C"/>
<path d="M92.8001 315.921C90.8801 314.441 90.54 311.921 89.26 310.061H89.3201C94.3201 307.761 99.4201 305.401 103.48 301.631C107.54 297.861 110.59 292.631 109.67 287.081C109.28 284.361 108.2 281.761 107.89 278.981C106.89 270.411 113.57 263.491 115.41 255.521C117.05 249.981 114.97 244.651 111.97 239.991C110.56 237.621 109.19 235.221 107.62 232.991C102.98 225.991 95.52 221.871 88.62 217.301C84.03 214.241 79.52 210.851 76.13 206.421C70.53 198.801 68.2001 192.931 58.3401 190.141C55.7401 189.211 53.0701 188.021 51.3401 185.791C47.7401 181.211 48.83 174.981 49.89 169.711C52.0446 158.776 57.2764 148.684 64.9701 140.621C69.5301 135.451 76.22 132.341 79.89 126.401C81.89 122.921 82.5801 118.161 80.2101 114.721C78.6301 112.471 76.09 111.111 74.2701 108.981C72.5079 106.809 71.2632 104.265 70.63 101.541C68.35 92.601 67 85.871 57.63 81.951C52.63 79.711 46.96 78.861 42.14 76.041C40.2392 75.0826 38.6728 73.5716 37.6465 71.7066C36.6203 69.8415 36.1823 67.7096 36.39 65.591C36.39 61.441 35.9401 57.331 35.8501 53.171C35.1201 35.891 51.9301 23.761 65.0501 15.491C81.6201 5.58099 91.4501 -1.009 95.1501 -21.269C96.1136 -26.7037 96.7978 -32.1842 97.2001 -37.689C98.4001 -49.469 97.8801 -59.489 88.9201 -68.339C80.7601 -76.699 60.9701 -93.999 52.5201 -102.229C61.4401 -94.019 80.8301 -76.659 89.1101 -68.519C98.1101 -59.619 98.7601 -49.579 97.6001 -37.659C97.2178 -32.1349 96.5502 -26.6342 95.6001 -21.179C92.0001 -0.819 81.9001 6.001 65.3101 15.901C52.3101 24.051 35.5701 36.121 36.3101 53.161C36.3901 57.291 36.8701 61.451 36.8401 65.591C36.6323 67.6324 37.0486 69.6888 38.0342 71.4885C39.0198 73.2883 40.5282 74.7467 42.3601 75.671C52.3601 81.131 64.7801 80.301 68.7701 93.461C70.57 98.591 70.8501 104.531 74.5301 108.791C76.3001 110.881 78.8301 112.251 80.4601 114.571C82.8901 118.141 82.15 122.951 80.13 126.571C78.11 130.191 74.5101 132.701 71.2901 135.261C60.2854 143.832 52.772 156.111 50.1501 169.811C49.1501 175.021 48.0401 181.191 51.6001 185.671C53.3201 187.851 55.93 189.001 58.5 189.911C68.44 192.691 70.85 198.621 76.5 206.241C79.86 210.621 84.3401 213.971 88.9201 217.011C95.7801 221.551 103.37 225.711 108 232.791C109.58 235.081 110.94 237.491 112.35 239.871C115.35 244.551 117.48 250.101 115.79 255.691C113.92 263.691 107.29 270.481 108.21 279.031C108.51 281.761 109.58 284.351 109.97 287.121C110.89 292.751 107.66 298.121 103.66 301.871C99.6601 305.621 94.4 307.961 89.39 310.231V310.151C90.008 311.129 90.5081 312.176 90.88 313.271C91.383 314.311 92.0593 315.258 92.88 316.071L92.8001 315.921Z" fill="#FDD999"/>
<path d="M99.1101 316.111C97.2901 314.821 96.82 312.651 97 310.541C97.0452 310.239 96.9927 309.931 96.8501 309.661C105.92 303.591 115.73 296.451 118.99 285.521C119.83 282.871 120.8 280.241 121.77 277.611C124.77 270.401 130.58 261.811 126.17 254.051C123.94 250.541 120.23 248.101 118.05 244.491C115.87 240.881 115.18 236.581 113.29 232.871C112.047 230.384 110.487 228.068 108.65 225.981C103.18 219.641 96.27 214.731 90.24 208.921C86.24 205.061 82.5701 200.771 78.0401 197.501C70.1701 192.161 63.3401 191.411 60.0401 181.001C55.5401 167.301 59.0401 152.101 70.4801 142.921C74.7401 139.231 80.2801 137.541 84.8201 134.291C89.3601 131.041 92.15 125.351 91.13 119.831C90.4939 117.104 89.6516 114.43 88.6101 111.831C85.9501 104.051 83.69 95.3111 76.51 90.4711C69.75 85.2911 60.04 85.9211 53.87 79.9211C51.77 77.8311 51.59 74.5611 52.52 71.9211C53.3459 69.2704 53.3945 66.4385 52.6601 63.7611C51.4801 58.2111 47.2301 54.0111 45.8201 48.5311C43.7101 37.0311 53.0701 26.8211 62.0601 21.0611C76.2701 11.8211 93.59 8.06108 100.37 -9.40892C104.51 -19.7889 105.21 -31.1789 106.01 -42.2189C106.85 -55.3689 103.24 -62.8189 93.1901 -71.3789C84.3401 -79.2689 63.9801 -96.1989 55.0601 -104.149C64.4501 -96.2589 84.42 -79.1989 93.37 -71.5789C103.46 -63.0289 107.21 -55.4989 106.37 -42.2089C105.61 -31.0889 104.99 -19.6789 100.79 -9.20892C91.8501 14.1211 63.2601 13.5811 50.2301 32.7911C47.2301 37.3211 45.0001 42.9611 46.2301 48.4211C46.8601 51.1211 48.36 53.5011 49.74 55.9211C51.86 59.5211 53.6201 63.5911 53.5901 67.8511C53.5601 72.1111 50.59 75.8511 54.14 79.6711C58.09 83.6711 64.03 84.6011 69.14 86.4311C71.7996 87.3458 74.3227 88.6174 76.64 90.2111C83.87 95.1011 86.1701 103.981 88.7901 111.761C89.8361 114.357 90.6754 117.032 91.3001 119.761C92.3001 125.371 89.46 131.221 84.87 134.421C80.28 137.621 74.79 139.321 70.52 143.001C59.22 152.161 55.73 167.291 60.24 180.881C63.52 191.161 70.39 191.881 78.24 197.191C84.98 202.191 90.16 208.961 96.75 214.191C103.03 219.641 109.92 225.021 113.67 232.661C115.58 236.421 116.15 240.661 118.38 244.261C121.21 249.021 127.11 251.941 127.93 257.821C128.93 264.991 124.7 271.371 122.04 277.701C121.04 280.311 120.1 282.931 119.25 285.591C115.92 296.591 106.08 303.671 96.9001 309.721V309.641C97.0376 309.92 97.0865 310.234 97.0401 310.541V311.431C96.9632 312.617 97.2643 313.797 97.9001 314.801C98.2315 315.288 98.6403 315.717 99.1101 316.071V316.111Z" fill="#FBCF69"/>
<path d="M177.6 323.371C192.89 322.371 209.34 319.691 221.1 309.091C228.75 302.241 234.1 292.091 233.33 281.691C232.56 271.291 226.8 262.121 222.8 252.611C220.8 247.821 219.43 242.781 217.74 237.871C214.35 227.311 206.06 221.121 195.93 217.591C174.38 208.721 152.51 199.591 134.02 185.141C127.805 181.012 121.317 177.311 114.6 174.061C114.442 173.978 114.303 173.863 114.191 173.723C114.08 173.584 113.997 173.423 113.95 173.251V173.321C113.827 173.2 113.741 173.047 113.7 172.879C113.659 172.711 113.666 172.535 113.72 172.371C116.34 168.261 122.5 169.681 126.53 170.301C133.64 171.551 140.93 173.161 148.14 171.921C150.21 171.661 153.09 170.491 155.14 169.921C159.74 168.451 164.36 166.711 168.14 163.691C184.01 150.311 177.61 125.291 165.7 111.361C162.17 107.721 160.7 103.181 158.7 98.6911C156.576 94.3419 154.164 90.1393 151.48 86.1111C143.58 74.2411 133.48 62.1611 119.03 58.7911C115.52 57.8711 111.79 57.8811 108.29 56.7911C105.941 56.0659 103.735 54.9393 101.77 53.4611C101.252 53.0855 100.821 52.6041 100.504 52.049C100.186 51.4938 99.9909 50.8776 99.9299 50.2411C100.03 47.6411 102.37 45.7411 104.58 44.7911C113.75 41.0811 123.88 43.1211 133.45 42.0611C138.264 41.5526 143.013 40.5472 147.62 39.0611C161.15 34.9411 176.17 27.2611 177.62 11.5411C178.21 6.75111 177.44 1.92112 177.21 -2.93888C176.98 -7.79888 177.8 -12.6789 178.84 -17.3989C181.15 -26.7889 182.45 -36.5789 180.14 -46.0889C176.9 -60.3189 167.25 -72.3489 156.31 -81.6289C145.31 -91.1789 130.79 -95.9689 120.76 -106.729C117.51 -110.289 114.56 -114.359 113.38 -119.109H113.43C115.34 -112.049 120.61 -106.369 126.19 -101.889C135.67 -94.3189 147.19 -89.7589 156.46 -81.7989C167.46 -72.5289 177.21 -60.4389 180.46 -46.1689C182.82 -36.6189 181.54 -26.6989 179.25 -17.2989C178.063 -12.6114 177.532 -7.78223 177.67 -2.94889C177.89 1.87111 178.67 6.73112 178.07 11.6111C176.57 27.5511 161.42 35.3511 147.7 39.5311C143.062 41.0182 138.284 42.0235 133.44 42.5311C123.88 43.5911 113.83 41.5311 104.71 45.2211C103.038 45.8466 101.644 47.0488 100.78 48.6111C98.1699 53.4711 108.4 56.6911 111.88 57.1211C130.58 58.5611 141.99 71.1211 151.74 85.8711C155.8 91.9619 159.212 98.4606 161.92 105.261C163.015 107.414 164.386 109.414 166 111.211C172.13 118.711 176.58 127.811 177.63 137.521C178.74 147.051 176.16 157.781 168.32 163.901C164.48 166.901 159.83 168.671 155.23 170.131C153.23 170.711 150.29 171.731 148.23 172.081C145.834 172.496 143.398 172.636 140.97 172.501C133.67 172.381 126.63 169.791 119.36 169.821C117.55 169.843 115.811 170.526 114.47 171.741C114.06 172.131 113.73 172.741 114.18 173.161V173.261C114.18 173.511 114.48 173.731 114.73 173.901C115.553 174.409 116.412 174.857 117.3 175.241C120.825 176.906 124.257 178.762 127.58 180.801C132.15 183.291 136.25 186.521 140.45 189.561C157.55 201.401 176.93 209.371 196.08 217.221C203.43 219.831 210.55 223.931 214.78 230.701C217.65 235.101 218.87 240.261 220.5 245.191C224.02 257.661 232.62 268.511 233.58 281.701C234.28 292.211 228.92 302.381 221.2 309.251C209.42 319.791 192.76 322.631 177.58 323.401L177.6 323.371Z" fill="#FBBAA3"/>
<path d="M167.99 321.771C183.35 320.151 199.42 315.771 210.58 304.501C216.198 299.017 220.16 292.065 222.015 284.436C223.87 276.808 223.543 268.812 221.07 261.361C219.493 256.401 217.461 251.597 215 247.011C212.54 242.481 210 237.831 206.19 234.251C202.38 230.671 197.11 229.331 192.87 226.201C184.23 220.301 177.64 211.881 168.87 206.201C151.28 195.141 128.06 194.371 112.87 179.331C110.08 176.631 104.31 167.591 111.52 166.951C113.665 165.961 116.058 165.637 118.39 166.021C125.29 167.161 132.23 168.721 139.26 167.771C143.9 167.142 148.375 165.625 152.44 163.301C160.9 159.071 167.54 151.561 168.69 141.951C170.61 127.951 163.13 113.781 151.78 105.711C150.004 104.092 148.892 101.872 148.66 99.481C146.405 87.939 140.312 77.4995 131.37 69.861C127.796 66.8657 123.701 64.5538 119.29 63.041C112.74 60.471 105.43 60.121 99.0099 57.391C95.0099 55.501 90.01 51.181 92.6 46.301C93.6888 44.1472 95.5067 42.4498 97.73 41.511C106.53 37.451 116.37 40.741 125.53 38.881C130.107 37.9865 134.535 36.4479 138.68 34.311C152.23 27.221 169.53 16.311 167.47 -1.23901C166.94 -5.87901 165.33 -10.349 164.98 -15.039C164.45 -22.129 166.65 -29.039 168.11 -35.839L169.43 -42.719C170.7 -51.789 169.61 -61.989 163.43 -69.119C158.74 -74.409 152.31 -77.569 146.06 -80.659C137.515 -84.5903 129.937 -90.3491 123.86 -97.529C117.86 -104.719 112.1 -112.099 106.68 -119.729C112.12 -112.129 117.92 -104.729 123.92 -97.599C130.006 -90.4591 137.584 -84.7413 146.12 -80.849C152.38 -77.769 158.89 -74.599 163.62 -69.299C169.93 -62.109 171.07 -51.809 169.82 -42.649C168.75 -35.829 166.65 -28.749 165.69 -22.009C165.374 -19.7065 165.297 -17.3774 165.46 -15.059C166.08 -8.11901 169.24 -1.27901 167.76 5.79099C166.07 15.301 158.62 22.361 150.98 27.581C141.38 34.101 130.51 40.071 118.59 40.011C111.69 40.011 104.37 38.951 97.9299 41.951C94.8799 43.311 92.0599 46.281 92.3999 49.791C92.5706 50.9115 93.0405 51.9651 93.7599 52.841C96.7599 56.501 101.34 58.171 105.85 59.061C110.453 59.9565 114.993 61.1524 119.44 62.641C123.897 64.1783 128.033 66.5241 131.64 69.561C140.636 77.274 146.755 87.8059 149 99.441C149.209 101.761 150.28 103.92 152 105.491C167 115.891 175.66 139.231 163.5 154.831C160.472 158.442 156.726 161.384 152.5 163.471C148.415 165.798 143.919 167.316 139.26 167.941C132.26 168.941 125.26 167.371 118.35 166.241C116.031 165.865 113.652 166.192 111.52 167.181C108.09 167.371 107.69 169.921 108.82 172.711C115.66 188.431 140.31 193.321 154.95 199.171C159.877 200.922 164.612 203.174 169.08 205.891C179.99 213.031 187.77 224.351 199.88 229.701C207.34 232.821 211.73 240.001 215.3 246.881C217.76 251.494 219.789 256.325 221.36 261.311C223.824 268.811 224.131 276.853 222.247 284.519C220.362 292.186 216.361 299.168 210.7 304.671C199.51 315.831 183.23 320.401 167.97 321.811L167.99 321.771Z" fill="#F6937C"/>
<path d="M158.38 320.171C185.69 316.461 208.86 301.171 212.72 272.301C213 270.831 213.1 268.301 213.22 266.741C213.22 265.571 213.22 263.611 213.22 262.541C213.14 261.741 212.94 259.231 212.85 258.371C212.253 253.748 211.014 249.232 209.17 244.951C207.12 239.74 203.783 235.133 199.47 231.561C189.17 223.051 177.8 232.201 168.6 221.081C163.72 215.301 161.33 207.951 156.46 202.291C151.59 196.631 144.34 193.601 137.16 191.841C125.66 188.631 102.37 187.781 96.2799 176.341C92.3699 168.201 97.5799 160.981 106.28 160.701C113.85 160.381 120.73 164.701 128.28 164.361C143.19 164.241 157.56 152.951 160.28 138.151C163 123.351 153.71 107.661 139.85 102.151C138.754 101.632 137.851 100.777 137.272 99.7114C136.693 98.6454 136.468 97.4231 136.63 96.221L136.69 94.831C136.772 88.7674 135.122 82.8062 131.933 77.6479C128.745 72.4897 124.15 68.3485 118.69 65.711C111.85 62.501 104.08 63.011 96.8898 61.011C93.1989 60.1053 89.8184 58.2267 87.0999 55.571C83.0399 51.491 82.4698 44.131 86.9998 40.181C94.5898 33.401 105.2 37.601 114.18 36.181C117.844 35.5496 121.376 34.3091 124.63 32.511C131.2 28.971 136.81 23.921 142.37 18.991C147.93 14.061 153.29 8.58098 156.03 1.62098C157.419 -1.82117 157.81 -5.58472 157.16 -9.23902C156.48 -12.889 154.91 -16.309 153.75 -19.869C151.15 -27.059 152.53 -34.869 154.61 -42.019C156.11 -47.409 158.04 -52.699 158.61 -58.289C159.77 -67.439 156.95 -78.159 147.07 -80.969C139.95 -83.209 132.07 -81.969 125.07 -84.819C117.74 -87.659 114.75 -95.599 112.31 -102.429C109.97 -109.429 106.31 -116.429 99.8798 -120.499C103.06 -118.729 105.67 -115.679 107.75 -112.629C113.75 -103.689 113.88 -89.569 125.14 -84.989C133.74 -81.459 144.27 -84.359 152.19 -78.729C156.85 -75.329 158.86 -69.459 159.11 -63.879C159.62 -56.319 157.11 -49.069 155.03 -41.879C152.95 -34.689 151.63 -27.109 154.23 -19.989C155.38 -16.459 156.98 -12.989 157.68 -9.30903C159.2 -1.68903 155.44 5.69098 150.61 11.381C148.159 14.2185 145.523 16.891 142.72 19.381C137.14 24.381 131.51 29.381 124.89 32.961C121.591 34.7876 118.007 36.0452 114.29 36.681C105.29 38.141 94.8699 33.901 87.2899 40.561C82.9699 44.371 83.5199 51.371 87.4199 55.301C90.0789 57.8932 93.3832 59.7266 96.9898 60.611C103.27 62.371 109.99 62.161 116.23 64.311C127.89 68.311 136.23 79.901 137 92.071C137.18 93.911 136.94 95.841 137 97.661C137.094 98.5619 137.42 99.4231 137.946 100.161C138.471 100.899 139.179 101.488 140 101.871C146.996 104.775 152.814 109.945 156.52 116.551C160.448 123.04 161.848 130.75 160.452 138.206C159.055 145.663 154.961 152.343 148.95 156.971C142.351 162.365 133.942 165.037 125.44 164.441C118.92 163.951 112.83 160.581 106.23 160.921C97.6899 161.201 92.5399 168.271 96.4099 176.261C102.41 187.551 125.76 188.381 137.16 191.541C144.4 193.301 151.68 196.331 156.66 202.071C161.64 207.811 164.02 215.161 168.84 220.841C177.89 231.731 189.29 222.651 199.63 231.281C203.984 234.905 207.349 239.574 209.41 244.851C211.255 249.162 212.49 253.709 213.08 258.361L213.32 261.161L213.43 262.561V266.771L213.23 269.581C213.23 270.041 213.23 270.511 213.12 270.981L212.92 272.371C208.98 301.261 185.66 316.751 158.31 320.201L158.38 320.171Z" fill="#F26B55"/>
<path d="M161 -108.249C191.51 -106.829 207.46 -76.739 221.56 -53.619C240.96 -22.909 247.24 0.890961 253.73 36.031C256.5 49.631 258.61 65.371 249.81 77.291C243.06 86.881 231.69 88.741 221.06 85.111C210.77 81.931 202.65 74.381 192.86 70.231C189.86 69.341 184.94 68.811 183.54 72.331C183.309 73.1723 183.348 74.0648 183.651 74.8828C183.955 75.7009 184.507 76.4032 185.23 76.891C186.659 77.931 188.241 78.7408 189.92 79.291C193.252 80.5437 196.47 82.0793 199.54 83.881C211.86 91.161 221.45 102.011 230.87 112.571C235.698 117.797 240.168 123.343 244.25 129.171C257.57 148.171 258.25 173.821 232.69 181.751C229.32 182.921 225.9 183.881 222.56 185.051C219.45 186.051 215.56 188.111 215.91 191.871C216.52 195.521 220.79 196.781 224.08 196.511C227.623 196.174 231.183 196.057 234.74 196.161C241.868 196.526 248.903 197.938 255.62 200.351C260.68 201.981 265.7 204.711 268.69 209.271C273.8 216.681 275.61 225.721 277.56 234.271L286.92 275.851C289.68 288.791 294.53 304.121 285.92 315.851C276.46 327.971 259.2 327.771 245.19 327.271C259.12 327.721 276.42 327.881 285.76 315.781C294.3 304.071 289.4 288.871 286.62 275.981L277.12 234.431C275.52 227.531 274.12 220.511 270.97 214.141C267.79 207.141 262.75 203.071 255.48 200.831C248.809 198.43 241.821 197.024 234.74 196.661C231.193 196.559 227.643 196.673 224.11 197.001C220.65 197.291 216.11 195.911 215.47 191.951C215.05 187.951 219.15 185.651 222.42 184.631C225.79 183.461 229.21 182.491 232.56 181.331C257.83 173.511 257.02 148.151 243.94 129.411C239.881 123.588 235.434 118.046 230.63 112.821C221.25 102.251 211.7 91.401 199.44 84.121C196.382 82.3202 193.177 80.7814 189.86 79.521C188.16 78.9591 186.557 78.1359 185.11 77.081C182.79 75.541 182.37 71.631 185.11 70.241C187.54 69.011 190.45 69.321 192.98 70.071C202.75 74.251 210.9 81.811 221.18 84.951C231.73 88.541 243 86.671 249.66 77.151C258.38 65.291 256.22 49.651 253.44 36.151C250 18.891 246.53 1.15098 240.44 -15.419C235.58 -28.769 228.66 -41.249 221.37 -53.419C207.37 -76.609 191.47 -106.599 161.06 -108.199L161 -108.249Z" fill="#F26B55"/>
<path d="M237.23 329.201C250.94 328.441 266.35 327.081 276.64 316.971C281.58 311.971 285.04 305.401 285.41 298.331C285.94 291.231 283.32 284.471 281.34 277.771L268.72 237.431C265.45 227.581 262.66 216.781 255.11 209.271C247.31 202.061 236.34 199.271 225.91 199.451C219.43 199.191 210.02 201.331 206.63 194.091C205.1 190.011 208.73 187.491 212.09 186.281C215.45 185.071 218.75 183.941 222.09 182.771C228.66 180.491 235.41 177.491 239.7 171.771C246.22 163.401 247.31 151.451 243.05 141.771C238.76 131.931 229.78 125.491 222.87 117.591C218.01 112.421 215.34 105.681 210.93 100.191C204.34 91.9011 195.33 85.9311 186.04 81.0411C182.32 78.8411 177.38 77.7111 175.25 73.6011C172.94 68.3211 179.11 65.6611 183.5 66.2811C185.257 66.5483 186.987 66.97 188.67 67.5411C201.88 71.9611 213.28 83.7911 228.08 76.8311C256.82 61.5411 245.08 3.3811 233.94 -20.7389C228.18 -33.6189 219.2 -44.7389 212.38 -57.0389C208.88 -63.1789 206.63 -69.9389 202.83 -75.8689C198.984 -81.7739 194.291 -87.0807 188.9 -91.6189C178.25 -100.709 165.62 -108.129 151.64 -110.379C165.64 -108.169 178.31 -100.789 189.01 -91.7089C194.425 -87.1755 199.143 -81.8684 203.01 -75.9589C206.85 -69.9589 209.12 -63.2389 212.63 -57.1489C219.47 -44.8589 228.49 -33.8089 234.33 -20.8889C245.64 3.3011 257.33 61.9311 228.25 77.3011C213.17 84.3011 201.86 72.5511 188.49 68.0111C185.22 66.9111 181.64 66.0111 178.33 67.4211C174.49 68.7111 174.22 73.0111 177.08 75.5411C179.68 77.9011 183.14 79.0511 186.17 80.7611C195.49 85.6911 204.51 91.7111 211.17 100.051C215.58 105.571 218.17 112.291 223.06 117.481C229.94 125.371 238.95 131.881 243.22 141.751C247.46 151.451 246.38 163.451 239.85 171.901C235.55 177.651 228.76 180.691 222.16 183.001C218.84 184.181 215.48 185.221 212.21 186.521C209 187.661 205.42 190.151 206.92 193.991C210.3 201.051 219.57 198.831 225.92 199.121C233.017 198.867 240.076 200.253 246.55 203.171C249.799 204.608 252.79 206.571 255.4 208.981C263.02 216.531 265.9 227.401 269.14 237.301L281.64 277.691C283.64 284.421 286.21 291.211 285.64 298.351C285.01 309.021 277.64 318.621 268.14 323.171C258.64 327.721 247.59 328.841 237.23 329.171V329.201Z" fill="#F6937C"/>
<path d="M229.28 331.151C243.15 328.891 257.49 326.051 269.28 318.021C273.65 315.091 277.81 311.471 279.97 306.571C283.82 298.041 279.11 289.201 276.04 281.201L260.39 241.691C257.892 235.075 255.058 228.589 251.9 222.261C247.43 212.781 239.01 204.551 228.4 202.831C224.899 202.349 221.36 202.192 217.83 202.361C210.97 202.611 202.69 202.851 198.11 196.761C195.38 192.881 197.28 189.931 201.17 188.191C204.38 186.661 207.75 185.551 211.08 184.331C217.66 181.921 224.5 179.331 229.58 174.331C236.99 166.801 240.2 155.061 236.78 144.951C233.28 134.471 222.72 129.421 215.08 122.301C212.43 119.912 210.25 117.05 208.65 113.861C207.12 110.641 206.29 107.161 204.84 103.951C201.91 97.4512 196.48 92.5312 190.67 88.5912C184.86 84.6512 178.51 81.3812 172.48 77.5912C170.953 76.6503 169.569 75.4952 168.37 74.1612C164.08 69.4112 166.55 62.9112 172.77 61.7212C183.84 59.8412 192.55 69.0412 202.83 71.1012C222.42 74.5112 231.63 51.7412 235.63 36.3412C240.855 15.5565 238.093 -6.43193 227.89 -25.2788C220.46 -39.3488 207.36 -49.9188 201.46 -64.9688C200.23 -68.2888 199.33 -71.7288 198.03 -75.0188C194.74 -83.3288 187.77 -89.4588 180.46 -94.2788C168.56 -101.909 155.82 -108.439 142.24 -112.509C155.85 -108.509 168.61 -101.999 180.55 -94.3988C187.9 -89.5888 194.95 -83.3988 198.28 -75.0888C200.21 -70.1388 201.37 -64.9088 203.95 -60.2288C210.56 -47.6688 221.56 -38.0688 228.29 -25.4688C231.694 -19.2249 234.295 -12.5754 236.03 -5.67879C240.455 11.6662 239.357 29.9598 232.89 46.6512C230.43 53.2912 227.19 59.8212 222.18 64.9312C217.17 70.0412 209.86 73.1612 202.73 71.6012C195.73 70.2612 189.73 65.6512 183.18 63.3512C179.88 62.1268 176.329 61.7319 172.84 62.2012C169.53 62.7412 166.27 65.7312 166.62 69.2712C166.97 72.8112 169.82 75.4512 172.68 77.2712C184.35 84.6912 198.94 90.4712 205.1 103.791C206.56 107.051 207.38 110.521 208.89 113.711C210.476 116.87 212.628 119.71 215.24 122.091C222.84 129.191 233.48 134.351 236.94 144.861C241.55 158.561 234.16 174.681 220.94 180.461C214.61 183.651 207.66 185.411 201.24 188.391C197.55 190.061 195.65 192.831 198.3 196.561C202.82 202.561 211.02 202.251 217.79 202.001C245.02 200.071 252.26 220.101 260.79 241.511L276.33 281.061C279.4 289.121 284.1 298.061 280.19 306.631C278 311.551 273.78 315.211 269.39 318.141C257.57 326.141 243.05 329.061 229.27 331.141L229.28 331.151Z" fill="#FBBAA3"/>
<path d="M221.33 333.101C228.33 331.101 245.73 325.851 252.46 323.891C259.19 321.931 266.46 319.891 272.09 315.261C282.54 306.501 275.73 295.781 271.09 285.991L252.39 246.991L243.05 227.471C238.47 218.161 232.17 207.471 221.05 205.541C209.38 203.771 200.21 208.881 190.05 199.541C183.83 193.541 188.89 190.421 194.81 188.021C199.81 185.941 204.95 184.221 209.88 182.021C213.188 180.598 216.322 178.799 219.22 176.661C227.53 169.981 232.49 158.461 230.22 147.881C227.89 136.481 216 132.211 207.42 126.301C204.364 124.317 201.81 121.65 199.96 118.511C197.23 113.681 197.85 107.921 195.96 102.851C191.15 90.6009 177.53 86.1609 167.45 79.1909C164.328 77.2959 161.61 74.8053 159.45 71.8609C156.07 67.3709 155.67 60.4809 161 57.2809C165.81 54.4809 172 55.2809 176.85 57.4709C183.3 60.3109 189.6 65.0209 196.99 64.0009C211.34 61.6809 218.05 44.1009 223.76 32.5009C226.909 26.0209 229.231 19.1704 230.67 12.1109C233.88 -5.6591 227.81 -24.4391 215.95 -37.8891C208.9 -46.0491 200.21 -52.9891 195.13 -62.6991C192.43 -67.4891 191.92 -73.0291 190.67 -78.2791C187.23 -91.0991 173.5 -96.3991 162.51 -101.359C155.88 -104.449 139.6 -111.479 132.86 -114.579C144.5 -109.389 161.06 -102.269 172.4 -96.9591C180.34 -93.0691 188.62 -87.3591 190.92 -78.2991C191.86 -74.8191 192.17 -71.1791 193.31 -67.7591C196.14 -59.1091 202.61 -52.4191 208.83 -46.0091C225.25 -30.6691 235.08 -10.5591 231.12 12.2409C229.85 19.3909 227.18 26.1809 224.18 32.7409C221.18 39.3009 218.18 45.8809 214.05 51.8809C209.92 57.8809 204.45 63.5609 197.05 64.5009C189.65 65.4409 183.13 60.7909 176.66 57.9309C171.9 55.7909 165.91 55.0009 161.24 57.7109C156.14 60.7109 156.55 67.3509 159.8 71.6609C161.909 74.5679 164.57 77.0314 167.63 78.9109C177.69 85.9109 191.43 90.4609 196.21 102.781C198.12 107.841 197.51 113.651 200.21 118.421C202.031 121.528 204.551 124.168 207.57 126.131C216.16 132.061 228.09 136.431 230.4 147.871C232.64 158.541 227.68 170.101 219.34 176.871C216.436 179.028 213.292 180.84 209.97 182.271C205.04 184.521 199.9 186.271 194.91 188.341C189.27 190.661 184.14 193.621 190.24 199.421C200.31 208.601 209.52 203.491 221.13 205.251C232.36 207.181 238.77 217.941 243.42 227.351L252.76 246.871L271.36 285.961C276.01 295.761 282.82 306.731 272.23 315.511C266.59 320.151 259.39 322.111 252.51 324.121C245.88 326.121 228.12 331.321 221.34 333.191L221.33 333.101Z" fill="#FFE2CA"/>
<path d="M41.7999 -95.1689C50.0099 -86.4689 58.31 -77.6989 64.7999 -67.5789C79.41 -44.8889 79.95 -21.719 60.69 -1.69896C52.44 7.09104 42.55 14.051 32.81 21.001C20.94 29.621 7.19996 38.091 1.68996 52.381C-1.31004 60.721 0.259928 71.0311 6.77993 77.3011C11.1299 81.7611 17.5099 82.301 23.1299 84.161C25.995 85.1554 28.5263 86.9283 30.44 89.281C32.38 91.581 33.89 94.1911 35.69 96.5811C37.5104 98.9572 39.7059 101.021 42.19 102.691C48.86 107.601 60.3399 111.691 59.2799 121.691C58.8899 124.691 57.1199 127.381 55.1299 129.621C51.0599 134.061 45.9899 137.391 41.8799 141.781C35.6599 148.281 30.83 155.941 26.59 163.841C19.15 177.991 4.95989 201.551 27.7399 209.081C34.7399 211.441 42.7399 211.871 49.0499 216.081C52.75 218.641 55.7999 222.081 59.9099 223.991C70.3599 229.461 84.3299 228.901 92.5199 238.341C95.9599 243.221 91.9999 251.221 88.0499 254.711C84.7499 257.711 80.28 259.531 78.18 263.631C77.6751 264.511 77.3922 265.501 77.3556 266.515C77.319 267.529 77.5299 268.537 77.97 269.451C78.25 270.571 76.6999 271.041 76.1299 271.531C75.8605 271.76 75.6447 272.045 75.4978 272.366C75.3509 272.688 75.2766 273.038 75.2799 273.391C75.2799 275.651 76.94 277.481 78.47 278.991C81.75 282.091 85.88 283.991 89.72 286.341C92.25 287.881 94.8399 289.721 96.1699 292.501C99.4399 299.501 92.0499 303.141 86.1699 303.971C81.9999 304.851 76.68 305.751 74.94 310.221C74.6617 310.915 74.5503 311.665 74.6145 312.41C74.6788 313.155 74.917 313.875 75.31 314.511C73.42 312.001 75.2199 308.281 77.6699 306.741C82.6699 303.311 89.6699 304.551 94.3799 300.591C95.5471 299.661 96.3494 298.349 96.6457 296.886C96.9419 295.423 96.7132 293.902 95.9999 292.591C94.6999 289.881 92.14 288.061 89.61 286.591C85.77 284.291 81.6099 282.361 78.2899 279.251C76.7099 277.721 74.9899 275.811 74.9899 273.451C74.9881 273.048 75.0771 272.65 75.2503 272.287C75.4234 271.923 75.6761 271.603 75.9899 271.351C76.5799 270.851 77.41 270.621 77.69 270.041C77.83 269.761 77.6899 269.461 77.5099 269.101C77.1638 268.201 77.0219 267.235 77.0945 266.274C77.1671 265.312 77.4525 264.379 77.93 263.541C80.01 259.381 84.59 257.461 87.84 254.471C91.1692 251.449 93.1769 247.24 93.43 242.751C93.67 239.631 91.32 237.361 88.98 235.671C80.32 229.441 69.1199 229.291 59.7499 224.481C54.1799 221.921 50.59 216.551 44.93 214.481C36.8 210.921 26.6999 211.411 19.7599 205.231C7.99991 193.921 20.5599 175.231 26.2599 163.701C30.5399 155.791 35.4099 148.101 41.6699 141.591C45.7899 137.211 50.88 133.881 54.95 129.471C57.0593 127.356 58.4843 124.656 59.0399 121.721C60.0399 111.791 48.6899 107.821 42.1199 102.911C39.6156 101.227 37.4089 99.1389 35.59 96.731C33.78 94.3311 32.28 91.7311 30.36 89.4311C26.58 84.4311 20.14 83.531 14.48 81.911C2.23 78.571 -2.75 63.501 1.48 52.321C6.96 37.951 20.7299 29.401 32.6199 20.721C42.3599 13.721 52.1699 6.72105 60.4099 -1.95895C79.6599 -21.829 79.12 -44.839 64.68 -67.459C58.28 -77.599 49.8 -86.3989 41.81 -95.1389L41.7999 -95.1689Z" fill="#F26B55"/>
<path d="M44.5299 -96.9492C52.5299 -88.7092 60.46 -80.4792 67.72 -71.6092C71.4137 -67.1984 74.3409 -62.199 76.3799 -56.8192C82.4599 -40.7092 80.99 -21.6392 71.09 -7.33922C67.8427 -2.59245 63.9901 1.71052 59.6299 5.46078C44.7899 19.1708 16.5399 32.4608 9.12987 50.9008C4.82987 62.5108 9.19989 74.8008 21.6499 78.3208C24.4002 79.1653 27.0759 80.2356 29.6499 81.5208C34.7599 84.2908 38.2999 89.0108 42.3199 93.0508C48.3799 99.1408 54.32 105.371 59.11 112.581C66.41 123.711 52.9199 133.841 46.8099 141.981C37.9638 153.233 30.6655 165.62 25.11 178.811C21.87 187.001 21.2899 196.711 30.9299 200.481C33.6034 201.479 36.3351 202.314 39.11 202.981C44.66 204.471 50.0399 207.111 54.0099 211.341C55.9114 213.467 57.9455 215.471 60.1 217.341C64.56 220.931 70.0999 222.841 75.4399 224.671C82.1399 227.011 89.4399 229.021 94.5199 234.301C97.5799 237.581 97.5999 242.611 96.5199 246.711C95.0499 252.501 89.52 255.711 86.5799 260.601C85.6038 262.093 85.0445 263.819 84.96 265.601C84.96 265.961 85.02 266.271 84.96 266.691C84.82 267.551 84.0699 267.961 83.5599 268.401C81.1699 270.281 82.1599 273.811 83.3799 276.121C86.0099 281.361 91.5899 283.941 95.5699 287.981C100.19 292.481 99.8799 299.291 93.9999 302.601C88.9999 305.601 82.83 305.511 78.11 308.931C77.8322 309.955 77.7777 311.027 77.9502 312.074C78.1227 313.122 78.5183 314.12 79.11 315.001C78.4765 314.128 78.056 313.119 77.8823 312.055C77.7087 310.99 77.7867 309.9 78.11 308.871C84.54 304.101 97.1099 305.551 98.6299 295.751C99.0399 289.521 93.06 286.101 88.8299 282.691C85.1899 279.781 80.83 275.011 82.11 269.951C82.3607 269.243 82.8082 268.622 83.3999 268.161C83.9399 267.711 84.5899 267.281 84.6699 266.661C84.5951 265.946 84.5951 265.226 84.6699 264.511C85.9999 257.151 94.3099 253.771 96.0699 246.641C97.0699 242.641 97.0699 237.811 94.1399 234.641C86.9199 227.431 76.1399 226.241 67.1899 222.121C61.7299 219.961 57.4599 215.981 53.6399 211.681C49.6024 207.627 44.5158 204.777 38.9499 203.451C36.1585 202.777 33.4102 201.935 30.72 200.931C20.83 197.001 21.2999 187.141 24.6499 178.661C30.2226 165.423 37.5663 153.003 46.48 141.741C52.48 133.741 66.01 123.661 58.84 112.741C52.58 103.121 43.9699 95.3608 36.2399 86.9708C32.2399 82.6208 27.13 80.1808 21.6 78.4708C16.07 76.7608 10.9799 73.2308 8.89989 67.6908C4.20989 56.2908 10.4099 44.6908 18.7399 36.8308C35.0299 20.8308 57.4999 11.5208 70.7399 -7.56921C77.2264 -17.089 80.345 -28.5037 79.6 -39.9992C79.1252 -51.5204 74.913 -62.5739 67.6 -71.4892C60.44 -80.3892 52.2699 -88.6592 44.5399 -96.9392L44.5299 -96.9492Z" fill="#F6937C"/>
<path d="M47.24 -98.7388L70.8301 -74.3388C74.6601 -70.2088 78.5001 -65.8888 80.8301 -60.6588C85.4401 -50.1788 85.1001 -38.2888 83.5801 -27.1688C81.9001 -15.9588 77.05 -5.05881 68.81 2.83119C56.46 14.5212 41.39 22.8312 28.55 33.9612C24.27 37.6212 20.11 41.5812 17.3 46.4912C13.07 53.6012 12.52 63.8912 18.8 69.9812C22.94 73.9812 28.8 75.1812 33.8 77.6412C36.3672 78.8519 38.8148 80.3016 41.1101 81.9712C43.4085 83.6401 45.5029 85.5734 47.3501 87.7312C51.0501 92.1112 52.63 97.7312 55.28 102.731C56.5821 105.233 58.3624 107.455 60.52 109.271C62.52 111.191 65.16 112.861 65.99 115.701C66.6652 118.511 66.4018 121.465 65.24 124.111C63.06 129.411 58.9301 133.531 55.3501 137.881C46.3634 148.795 38.8027 160.808 32.8501 173.631C29.0101 182.011 28.3 191.091 39.13 193.711C41.8988 194.339 44.6191 195.165 47.27 196.181C49.8638 197.405 52.1889 199.132 54.1101 201.261C57.9501 205.421 60.3401 210.781 64.9701 214.171C73.9701 221.171 86.18 222.231 95.24 229.221C97.5289 230.98 99.3323 233.293 100.48 235.942C101.628 238.591 102.082 241.488 101.8 244.361C100.96 251.671 94.2601 256.301 92.0901 263.061C91.8001 264.501 90.4101 265.361 89.7101 266.571C89.0131 267.795 88.6091 269.165 88.53 270.571C87.24 282.151 102.94 285.071 100.46 296.321C98.0401 305.321 87.04 306.401 80 309.651C80.602 311.718 81.5671 313.662 82.8501 315.391C81.5014 313.704 80.508 311.762 79.93 309.681C87.0201 306.151 97.93 305.331 100.28 296.281C102.68 285.111 86.99 282.351 88.28 270.551C88.3637 269.107 88.7776 267.701 89.49 266.441C90.18 265.151 91.5801 264.441 91.8201 263.001C93.9301 256.241 100.61 251.581 101.43 244.351C101.694 241.56 101.243 238.748 100.12 236.18C98.997 233.612 97.2383 231.372 95.01 229.671C86.01 222.741 73.77 221.671 64.74 214.611C60.09 211.211 57.6401 205.791 53.8301 201.611C51.9573 199.513 49.6823 197.813 47.14 196.611C43.31 194.851 38.8501 194.611 35.0701 192.611C27.6401 188.801 29.59 179.611 32.5 173.441C38.4683 160.576 46.0746 148.536 55.13 137.621C60.13 131.441 67.78 124.541 65.76 115.791C64.36 111.691 59.89 109.791 57.42 106.431C54.76 103.071 53.3301 98.9612 51.5701 95.1312C49.3426 89.9055 45.7032 85.4039 41.06 82.1312C38.7821 80.4621 36.3512 79.0123 33.8 77.8012C28.8 75.3112 22.93 74.0912 18.8 70.1112C12.42 63.9712 12.9501 53.5612 17.1901 46.3712C20.0201 41.3712 24.1901 37.3712 28.4701 33.7412C41.2801 22.6012 56.31 14.2312 68.62 2.53119C76.76 -5.37881 81.62 -16.1288 83.3101 -27.2688C84.8501 -38.3188 85.22 -50.1588 80.67 -60.5788C78.4 -65.7688 74.59 -70.0688 70.77 -74.1988C70.77 -74.1988 47.19 -98.7588 47.37 -98.7788L47.24 -98.7388Z" fill="#FBBAA3"/>
<path d="M49.9399 -100.509L74.1599 -76.2188C78.1599 -72.1488 82.44 -68.2188 85.45 -63.3188C90.11 -55.8388 89.8299 -46.6888 89.0599 -38.2288C88.0599 -26.9288 87.13 -15.0588 81.34 -5.00879C77 2.52121 69.9099 7.87122 63.0199 12.9012L35.3099 33.1212C26.3099 39.4812 16.8599 49.4112 20.5399 61.3412C24.8099 73.3412 40.2499 71.6312 48.8099 78.7312C51.0343 80.5988 52.5895 83.1405 53.2399 85.9712C55.4199 95.3712 53.06 103.531 65.11 105.841C71.66 107.171 74.6999 112.361 73.5299 118.791C72.4299 124.581 68.0799 128.881 64.3899 133.151C56.8753 141.768 50.2017 151.084 44.46 160.971C40.41 168.091 31.21 182.151 43.71 185.821C47.81 186.941 52.4899 187.341 55.5099 190.701C59.5099 194.961 60.8499 200.831 64.0399 205.561C65.6559 207.888 67.6622 209.918 69.97 211.561C81.41 219.791 98.0999 221.061 105.68 234.241C112.68 246.351 101.56 255.351 95.9299 265.031C92.7699 270.281 93.0099 276.031 96.9299 280.841C98.5899 283.151 100.53 285.311 101.75 287.951C104.35 293.341 101.61 299.751 97.33 303.431C93.05 307.111 87.0499 309.021 81.8099 310.341L86.6199 315.671L81.7899 310.351C87.2399 308.791 92.9499 307.131 97.3199 303.351C101.52 299.701 104.21 293.351 101.63 288.071C100.43 285.481 98.4899 283.331 96.7999 281.071C90.0499 272.671 95.0499 265.071 100.53 257.811C103.79 253.301 107.46 248.391 107.53 242.611C107.66 233.771 100.02 227.251 92.86 223.321C85.29 219.321 76.7599 217.181 69.7599 212.031C67.4229 210.343 65.3934 208.267 63.7599 205.891C60.5599 201.161 59.2199 195.291 55.2899 191.091C52.2899 187.781 47.75 187.461 43.7 186.331C30.76 182.511 39.9299 168.191 44.1899 160.801C49.9426 150.898 56.6406 141.574 64.1899 132.961C67.8599 128.731 72.1899 124.481 73.2899 118.791C74.4499 112.531 71.4999 107.481 65.1299 106.181C52.9399 103.791 55.2599 95.5712 53.1299 86.0812C51.9499 80.2312 46.6099 76.7112 41.2999 74.8912C33.6399 71.9912 23.42 70.2912 20.45 61.4612C16.71 49.4612 26.15 39.3912 35.23 32.9412C44.47 25.7312 68.14 10.0212 75.97 1.65121C86.14 -8.91879 87.57 -24.2788 88.83 -38.1988C89.62 -46.6088 89.95 -55.6988 85.35 -63.1388C82.35 -68.0288 78.1199 -71.9588 74.1399 -76.0388C74.1399 -76.0388 49.8699 -100.429 50.0399 -100.449L49.9399 -100.509Z" fill="#FFE2CA"/>
</g>
<defs>
<clipPath id="clip0_943_32560">
<rect width="290.79" height="453.6" fill="white" transform="translate(0 -120.499)"/>
</clipPath>
</defs>
</svg>
