<svg width="15" height="15" viewBox="0 0 15 15" fill="none" xmlns="http://www.w3.org/2000/svg">
<g clip-path="url(#clip0_740_29036)">
<path d="M13.6206 2.23513H12.3706V0.995751C12.3706 0.71813 12.1506 0.5 11.8705 0.5H11.0005C10.7205 0.5 10.5005 0.71813 10.5005 0.995751V2.23513H4.50021V0.995751C4.50021 0.71813 4.28019 0.5 4.00018 0.5H3.12014C2.84013 0.5 2.62012 0.71813 2.62012 0.995751V2.23513H1.38006C0.620028 2.23513 0 2.84986 0 3.59348V4.46601V5.33853V13.1516C0 13.9051 0.620028 14.5198 1.38006 14.5198H13.6306C14.3907 14.5198 15.0107 13.9051 15.0107 13.1516V5.33853V4.46601V3.59348C15.0007 2.84986 14.3807 2.23513 13.6206 2.23513ZM13.6206 13.5085H1.38006C1.17005 13.5085 1.00005 13.3499 1.00005 13.1416V5.83428H14.0006V13.1516C14.0006 13.3499 13.8306 13.5085 13.6206 13.5085Z" fill="#969696"/>
</g>
<defs>
<clipPath id="clip0_740_29036">
<rect width="15.0007" height="14" fill="white" transform="translate(0 0.5)"/>
</clipPath>
</defs>
</svg>
