<svg width="50" height="44" viewBox="0 0 50 44" fill="none" xmlns="http://www.w3.org/2000/svg">
<path d="M25 0.500977C11.1952 0.500977 0 10.1288 0 22.0038C0.0351865 26.8441 1.87075 31.4967 5.14309 35.0639C5.19587 35.1108 5.24279 35.1636 5.28384 35.2223C6.15764 36.0906 6.6913 37.2406 6.79686 38.4668C6.76167 40.9016 4.02299 43.4655 4.02299 43.4655C4.02299 43.4655 9.3772 41.2478 11.1893 40.5789C11.2538 40.5555 11.3183 40.5437 11.3828 40.532C11.8285 40.4147 12.3035 40.4851 12.7023 40.7256C12.7082 40.7315 12.7141 40.7315 12.7199 40.7315C16.5494 42.5737 20.7483 43.5183 25 43.5007C38.8107 43.5007 50 33.8729 50 21.9979C50 10.123 38.8107 0.500977 25 0.500977Z" fill="#FFF5EE"/>
<path d="M11.3652 22.6082C13.3885 23.1891 15.4586 23.5763 17.5581 23.764C22.49 24.0867 27.4396 23.9752 32.3481 23.4355C34.4945 23.2184 36.5998 22.7373 38.6289 22.0039C38.4881 23.7816 38.019 25.5241 37.2508 27.1317C36.0661 29.4492 33.0167 33.0281 30.1196 33.7967C26.5365 34.5888 22.8243 34.5301 19.2646 33.6324C16.2151 32.6937 13.7696 28.6748 12.9604 27.296C12.0631 25.8879 11.5118 24.2803 11.3652 22.6082Z" fill="#F26B55"/>
<path d="M11.5706 17.574C13.8753 17.8439 16.1976 17.9378 18.5199 17.8615C21.5225 17.6797 29.6857 17.1986 34.4125 15.3974C36.3946 14.752 38.3064 13.9071 40.1127 12.8687C40.0071 15.192 39.5028 17.4802 38.629 19.6334C37.3798 21.9098 37.2039 21.8042 37.2039 21.8042C33.263 22.6373 29.2576 23.1184 25.2346 23.2358C21.4404 23.224 17.652 22.9894 13.887 22.5376C13.1188 21.5402 12.4737 20.4548 11.9576 19.3048C11.7641 18.7416 11.6351 18.1666 11.5706 17.574Z" fill="#F26B55"/>
<path d="M10.6851 10.0762C12.632 10.9152 14.6787 11.496 16.7723 11.7952C21.8392 12.6988 26.9823 13.0566 32.1254 12.863C34.5415 12.7692 36.9459 12.4582 39.3151 11.9419V12.4934C39.3151 12.4934 36.7934 14.4178 30.4305 15.644C25.4986 16.5358 20.5021 16.9934 15.488 17.0169H12.937C11.9694 15.3917 11.2774 13.614 10.8903 11.76C10.7672 11.2085 10.6968 10.6394 10.6851 10.0762Z" fill="#F26B55"/>
<path d="M31.967 12.1646C34.3069 12.0942 36.6409 11.8712 38.9515 11.4899C37.198 10.4397 31.2984 9.45988 24.2553 9.14306C19.8452 8.84971 15.4117 9.02572 11.0369 9.66523C12.849 10.3047 14.7197 10.7682 16.6257 11.0499C21.6984 11.9006 26.8356 12.2761 31.967 12.1646Z" fill="#F24D3D"/>
<path d="M35.5207 22.884C35.2979 23.7758 34.9812 24.6441 34.5707 25.4655C33.3919 27.783 30.3366 31.3619 27.4454 32.1364C23.8622 32.9284 20.1501 32.8697 16.5904 31.9662L16.5435 31.9486C17.3176 32.6996 18.25 33.2687 19.2645 33.6207C22.8184 34.5184 26.5364 34.5771 30.1137 33.785C33.0107 33.0164 36.0602 29.4375 37.239 27.12C38.0072 25.5066 38.4764 23.7699 38.623 21.9922C37.6202 22.3853 36.5822 22.6786 35.5207 22.884Z" fill="#F24D3D"/>
<path d="M37.6612 14.089C37.4266 16.2892 36.805 18.4306 35.8315 20.4137C35.4386 21.0884 34.9811 21.7221 34.4768 22.3146C36.1306 22.0272 37.2096 21.7983 37.2096 21.7983C37.2096 21.7983 37.3856 21.9098 38.6347 19.6275C39.5085 17.4743 40.0128 15.1862 40.1184 12.8628C39.3384 13.3498 38.5115 13.7546 37.6612 14.089Z" fill="#F24D3D"/>
<path d="M37.2508 12.335C37.2274 12.7633 37.1863 13.2209 37.1277 13.6668C37.8959 13.3559 38.629 12.9628 39.3151 12.4934V11.9419C38.6348 12.112 37.9428 12.2411 37.2508 12.335Z" fill="#F24D3D"/>
<path d="M30.0492 34.4771V35.7678C28.413 36.1492 26.7358 36.331 25.0586 36.3076C23.3403 36.3252 21.622 36.1433 19.9448 35.7737V34.4829C20.0797 34.5181 20.2205 34.5475 20.3612 34.5768C23.5632 35.1928 26.859 35.1635 30.0492 34.4771Z" fill="#F24D3D"/>
</svg>
