<svg width="140" height="141" viewBox="0 0 140 141" fill="none" xmlns="http://www.w3.org/2000/svg">
<g clip-path="url(#clip0_943_32618)">
<path d="M70 138.609C107.615 138.609 138.108 108.116 138.108 70.5012C138.108 32.8861 107.615 2.39307 70 2.39307C32.3849 2.39307 1.89185 32.8861 1.89185 70.5012C1.89185 108.116 32.3849 138.609 70 138.609Z" fill="white"/>
<path d="M70 4.28476C83.0964 4.28476 95.8986 8.16828 106.788 15.4442C117.677 22.7201 126.164 33.0617 131.176 45.1611C136.188 57.2606 137.499 70.5744 134.944 83.4191C132.389 96.2638 126.082 108.062 116.822 117.323C107.561 126.583 95.7629 132.89 82.9182 135.445C70.0735 138 56.7596 136.689 44.6602 131.677C32.5607 126.665 22.2192 118.178 14.9433 107.289C7.66733 96.3995 3.78381 83.5973 3.78381 70.501C3.78381 52.9393 10.7601 36.097 23.1781 23.679C35.596 11.2611 52.4384 4.28476 70 4.28476ZM70 0.500977C56.1553 0.500977 42.6216 4.60641 31.1101 12.2981C19.5987 19.9898 10.6266 30.9223 5.32847 43.7131C0.0303326 56.504 -1.3559 70.5786 1.34506 84.1573C4.04603 97.736 10.7129 110.209 20.5026 119.998C30.2922 129.788 42.765 136.455 56.3437 139.156C69.9224 141.857 83.997 140.471 96.7879 135.173C109.579 129.874 120.511 120.902 128.203 109.391C135.895 97.8795 140 84.3457 140 70.501C139.978 51.9427 132.595 34.1511 119.473 21.0284C106.35 7.90572 88.5583 0.523506 70 0.500977Z" fill="#60423C"/>
<g style="mix-blend-mode:darken">
<path d="M115.084 22.1064C126.765 34.6447 133.124 51.2275 132.821 68.3616C132.519 85.4956 125.577 101.843 113.46 113.961C101.342 126.078 84.9946 133.019 67.8606 133.322C50.7266 133.625 34.1438 127.266 21.6055 115.585C27.6604 122.084 34.9624 127.297 43.0757 130.912C51.1891 134.528 59.9476 136.472 68.8288 136.629C77.7099 136.786 86.5317 135.153 94.7678 131.826C103.004 128.5 110.486 123.548 116.766 117.267C123.047 110.987 127.999 103.505 131.325 95.2688C134.652 87.0327 136.285 78.2109 136.128 69.3297C135.971 60.4486 134.027 51.6901 130.411 43.5767C126.796 35.4633 121.583 28.1614 115.084 22.1064Z" fill="#FF6E53"/>
</g>
<g style="mix-blend-mode:darken">
<path d="M31.2162 109.285C21.3407 98.9155 15.9105 85.0963 16.0851 70.778C16.2597 56.4596 22.0253 42.7769 32.1506 32.6516C42.2759 22.5262 55.9587 16.7607 70.277 16.5861C84.5953 16.4115 98.4145 21.8417 108.784 31.7172" stroke="#FF6E53" stroke-width="3.5" stroke-linecap="round" stroke-linejoin="round"/>
</g>
<path d="M90.1296 70.1793L87.4999 35.236C87.3732 33.5682 86.6201 32.01 85.3917 30.8747C84.1634 29.7394 82.5509 29.1109 80.8783 29.1157H80.4053C79.5272 29.1157 78.6851 29.4646 78.0642 30.0855C77.4433 30.7064 77.0945 31.5485 77.0945 32.4266V107.156C77.0945 108.411 77.5928 109.614 78.4798 110.501C79.3668 111.388 80.5698 111.886 81.8242 111.886C82.4837 111.889 83.1365 111.754 83.7406 111.489C84.3448 111.225 84.887 110.837 85.3324 110.351C85.7778 109.864 86.1166 109.29 86.3269 108.665C86.5373 108.04 86.6146 107.378 86.5539 106.721L83.7161 74.4266L87.4999 73.6793C88.2891 73.5159 88.9917 73.0703 89.4758 72.4259C89.9599 71.7816 90.1924 70.9828 90.1296 70.1793Z" fill="#FF6E53"/>
<path d="M64.7595 30.7715C64.3204 30.7715 63.8994 30.9459 63.5889 31.2563C63.2785 31.5668 63.1041 31.9878 63.1041 32.4269V51.5823C63.1041 52.0213 62.9297 52.4424 62.6192 52.7528C62.3088 53.0633 61.8877 53.2377 61.4487 53.2377C61.0096 53.2377 60.5886 53.0633 60.2781 52.7528C59.9677 52.4424 59.7933 52.0213 59.7933 51.5823V32.4742C59.7933 32.0351 59.6189 31.6141 59.3084 31.3036C58.998 30.9932 58.5769 30.8188 58.1379 30.8188C57.6988 30.8188 57.2778 30.9932 56.9673 31.3036C56.6569 31.6141 56.4825 32.0351 56.4825 32.4742V51.5823C56.4825 52.0213 56.3081 52.4424 55.9976 52.7528C55.6872 53.0633 55.2661 53.2377 54.8271 53.2377C54.388 53.2377 53.967 53.0633 53.6565 52.7528C53.3461 52.4424 53.1717 52.0213 53.1717 51.5823V32.4742C53.1717 32.0351 52.9973 31.6141 52.6868 31.3036C52.3764 30.9932 51.9553 30.8188 51.5162 30.8188C51.0772 30.8188 50.6562 30.9932 50.3457 31.3036C50.0353 31.6141 49.8608 32.0351 49.8608 32.4742V55.6499C49.8601 57.3721 50.5304 59.027 51.7295 60.2632C52.9287 61.4994 54.5623 62.2198 56.2838 62.2715L53.446 106.996C53.4176 107.625 53.5171 108.254 53.7384 108.844C53.9597 109.434 54.2984 109.973 54.7338 110.428C55.1692 110.884 55.6923 111.246 56.2717 111.494C56.8511 111.742 57.4747 111.869 58.1048 111.869C58.7349 111.869 59.3584 111.742 59.9378 111.494C60.5172 111.246 61.0404 110.884 61.4758 110.428C61.9112 109.973 62.2498 109.434 62.4711 108.844C62.6925 108.254 62.7919 107.625 62.7636 106.996L59.9257 62.2715C61.6456 62.2174 63.2768 61.496 64.474 60.26C65.6711 59.024 66.3401 57.3706 66.3392 55.6499V32.4742C66.3521 32.0398 66.1936 31.6178 65.8981 31.2993C65.6025 30.9807 65.1936 30.7912 64.7595 30.7715Z" fill="#FF6E53"/>
</g>
<defs>
<clipPath id="clip0_943_32618">
<rect width="140" height="140" fill="white" transform="translate(0 0.500977)"/>
</clipPath>
</defs>
</svg>
