<svg width="15" height="15" viewBox="0 0 15 15" fill="none" xmlns="http://www.w3.org/2000/svg">
<g clip-path="url(#clip0_740_29039)">
<path d="M7.50034 0C6.01692 0 4.5668 0.439867 3.33338 1.26398C2.09995 2.08809 1.13862 3.25943 0.570933 4.62987C0.00324979 6.00032 -0.145282 7.50832 0.14412 8.96318C0.433523 10.418 1.14786 11.7544 2.1968 12.8033C3.24574 13.8522 4.58218 14.5665 6.0371 14.8559C7.49202 15.1453 9.00009 14.9968 10.3706 14.4291C11.7411 13.8614 12.9125 12.9001 13.7367 11.6668C14.5608 10.4334 15.0007 8.98336 15.0007 7.5C15.0007 5.51088 14.2105 3.60322 12.8039 2.1967C11.3973 0.790176 9.48956 0 7.50034 0V0ZM8.00037 14V13H7.00032V14C5.4458 13.8886 3.98352 13.2206 2.88149 12.1186C1.77946 11.0167 1.1115 9.55445 1.00005 8H2.00009V7H1.00005C1.1115 5.44555 1.77946 3.98334 2.88149 2.88136C3.98352 1.77938 5.4458 1.11145 7.00032 1V2H8.00037V1C9.55489 1.11145 11.0172 1.77938 12.1192 2.88136C13.2212 3.98334 13.8892 5.44555 14.0006 7H13.0006V8H14.0006C13.8892 9.55445 13.2212 11.0167 12.1192 12.1186C11.0172 13.2206 9.55489 13.8886 8.00037 14Z" fill="#969696"/>
<path d="M7 7.5H5V8.5H7H8V7.5V3.5H7V7.5Z" fill="#969696"/>
</g>
<defs>
<clipPath id="clip0_740_29039">
<rect width="15.0007" height="15" fill="white"/>
</clipPath>
</defs>
</svg>
