<svg width="49" height="43" viewBox="0 0 49 43" fill="none" xmlns="http://www.w3.org/2000/svg">
<path d="M24.4747 0C10.9599 0 0 9.42556 0 21.051C0.0344471 25.7896 1.83144 30.3444 5.03502 33.8367C5.08669 33.8826 5.13262 33.9343 5.17281 33.9917C6.02825 34.8418 6.5507 35.9676 6.65404 37.1681C6.61959 39.5517 3.93846 42.0618 3.93846 42.0618C3.93846 42.0618 9.18016 39.8906 10.9542 39.2358C11.0173 39.2129 11.0805 39.2014 11.1436 39.1899C11.58 39.075 12.045 39.1439 12.4354 39.3794C12.4412 39.3852 12.4469 39.3852 12.4526 39.3852C16.2016 41.1887 20.3123 42.1135 24.4747 42.0962C37.9952 42.0962 48.9494 32.6707 48.9494 21.0452C48.9494 9.41981 37.9952 0 24.4747 0Z" fill="#F24D3D"/>
<path d="M11.1265 21.6426C13.1072 22.2113 15.1338 22.5904 17.1892 22.7742C22.0175 23.0901 26.8631 22.9809 31.6684 22.4525C33.7697 22.24 35.8308 21.769 37.8172 21.051C37.6795 22.7914 37.2202 24.4973 36.4681 26.0711C35.3083 28.3399 32.3229 31.8436 29.4868 32.596C25.9789 33.3715 22.3447 33.314 18.8598 32.4352C15.8744 31.5162 13.4804 27.5817 12.6881 26.2319C11.8097 24.8534 11.27 23.2796 11.1265 21.6426Z" fill="white"/>
<path d="M11.3271 16.7144C13.5834 16.9786 15.8569 17.0705 18.1305 16.9959C21.0699 16.8178 29.0617 16.3468 33.6891 14.5835C35.6296 13.9517 37.5012 13.1246 39.2695 12.1079C39.1662 14.3825 38.6724 16.6225 37.817 18.7305C36.5941 20.9591 36.4219 20.8557 36.4219 20.8557C32.5638 21.6713 28.6426 22.1423 24.7041 22.2572C20.9896 22.2457 17.2808 22.0159 13.5949 21.5737C12.8428 20.5972 12.2113 19.5346 11.7061 18.4088C11.5166 17.8574 11.3903 17.2946 11.3271 16.7144Z" fill="white"/>
<path d="M10.4604 9.3739C12.3665 10.1953 14.3702 10.7639 16.4198 11.0568C21.3802 11.9414 26.4152 12.2917 31.4502 12.1022C33.8156 12.0103 36.1695 11.7059 38.4889 11.2004V11.7403C38.4889 11.7403 36.0202 13.6243 29.791 14.8248C24.9627 15.6978 20.0712 16.1458 15.1625 16.1688H12.6651C11.7178 14.5778 11.0403 12.8374 10.6614 11.0224C10.5408 10.4825 10.4719 9.92531 10.4604 9.3739Z" fill="white"/>
<path d="M31.295 11.4187C33.5857 11.3497 35.8707 11.1315 38.1328 10.7581C36.4161 9.72998 30.6405 8.77077 23.7453 8.4606C19.428 8.17341 15.0876 8.34573 10.8047 8.9718C12.5787 9.59787 14.4102 10.0516 16.276 10.3273C21.2422 11.1602 26.2715 11.5278 31.295 11.4187Z" fill="#FFE2CA"/>
<path d="M34.7743 21.9126C34.5561 22.7857 34.2461 23.6357 33.8442 24.4399C32.6902 26.7087 29.6991 30.2124 26.8687 30.9706C23.3608 31.746 19.7266 31.6885 16.2417 30.804L16.1958 30.7868C16.9536 31.522 17.8665 32.0791 18.8597 32.4237C22.3389 33.3025 25.9788 33.36 29.4809 32.5846C32.3171 31.8321 35.3025 28.3284 36.4565 26.0596C37.2086 24.4801 37.6679 22.7799 37.8114 21.0396C36.8296 21.4244 35.8135 21.7116 34.7743 21.9126Z" fill="#FFE2CA"/>
<path d="M36.8699 13.3026C36.6403 15.4565 36.0317 17.553 35.0787 19.4944C34.694 20.155 34.2462 20.7753 33.7524 21.3554C35.3715 21.074 36.4278 20.85 36.4278 20.85C36.4278 20.85 36.6001 20.9591 37.8229 18.7248C38.6784 16.6168 39.1721 14.3767 39.2755 12.1022C38.5119 12.5789 37.7024 12.9752 36.8699 13.3026Z" fill="#FFE2CA"/>
<path d="M36.4682 11.5853C36.4453 12.0046 36.4051 12.4526 36.3477 12.8891C37.0998 12.5847 37.8174 12.1999 38.4891 11.7404V11.2004C37.8231 11.367 37.1457 11.4934 36.4682 11.5853Z" fill="#FFE2CA"/>
<path d="M29.4179 33.2623V34.526C27.8162 34.8993 26.1742 35.0774 24.5322 35.0544C22.85 35.0716 21.1679 34.8936 19.5259 34.5317V33.2681C19.6579 33.3025 19.7957 33.3313 19.9335 33.36C23.0682 33.9631 26.2947 33.9344 29.4179 33.2623Z" fill="#FFE2CA"/>
</svg>
