<svg width="36" height="30" viewBox="0 0 36 30" fill="none" xmlns="http://www.w3.org/2000/svg">
<path d="M18 -0.019989C8.3 -0.019989 0.5 6.68001 0.5 14.98C0.5 18.38 1.8 21.58 4.1 24.08L4.2 24.18C4.8 24.78 5.2 25.58 5.3 26.48C5.3 28.18 3.4 29.98 3.4 29.98C3.4 29.98 7.1 28.48 8.4 27.98H8.5C8.8 27.88 9.1 27.98 9.4 28.08C12.1 29.38 15 29.98 18 29.98C27.7 29.98 35.5 23.28 35.5 14.98C35.5 6.68001 27.7 -0.019989 18 -0.019989Z" fill="#FFF5EE"/>
<path d="M8.5 15.38C9.9 15.78 11.4 16.08 12.8 16.18C16.3 16.38 19.7 16.28 23.2 15.98C24.7 15.78 26.2 15.48 27.6 14.98C27.5 16.18 27.2 17.48 26.6 18.58C25.8 20.18 23.6 22.68 21.6 23.28C19.1 23.88 16.5 23.78 14 23.18C11.9 22.48 10.2 19.68 9.6 18.78C8.9 17.68 8.6 16.58 8.5 15.38Z" fill="#F26B55"/>
<path d="M8.6001 11.88C10.2001 12.08 11.8001 12.18 13.5001 12.08C15.6001 11.98 21.3001 11.58 24.6001 10.38C26.0001 9.98002 27.3001 9.38002 28.6001 8.58002C28.5001 10.18 28.2001 11.78 27.6001 13.28C26.7001 14.88 26.6001 14.78 26.6001 14.78C23.8001 15.38 21.0001 15.68 18.2001 15.78C15.5001 15.78 12.9001 15.58 10.3001 15.28C9.8001 14.58 9.3001 13.78 8.9001 12.98C8.7001 12.68 8.6001 12.28 8.6001 11.88Z" fill="#F26B55"/>
<path d="M8 6.68002C9.4 7.28002 10.8 7.68002 12.3 7.88002C15.8 8.48002 19.4 8.78002 23 8.58002C24.7 8.48002 26.4 8.28002 28 7.98002V8.38002C28 8.38002 26.2 9.68002 21.8 10.58C18.3 11.18 14.8 11.48 11.3 11.58H9.5C8.8 10.48 8.3 9.18002 8.1 7.88002C8 7.48002 8 7.08002 8 6.68002Z" fill="#F26B55"/>
<path d="M22.9 8.18C24.5 8.18 26.1999 7.98 27.7999 7.68C26.4999 6.98 22.4 6.28 17.5 6.08C14.4 5.88 11.3 5.98 8.19995 6.48C9.49995 6.88 10.8 7.28 12.1 7.48C15.7 7.98 19.3 8.18 22.9 8.18Z" fill="#F24D3D"/>
<path d="M25.4001 15.58C25.2001 16.18 25.0001 16.78 24.7001 17.38C23.9001 18.98 21.7001 21.48 19.7001 22.08C17.2001 22.68 14.6001 22.58 12.1001 21.98C12.6001 22.48 13.3001 22.88 14.0001 23.18C16.5001 23.78 19.1001 23.88 21.6001 23.28C23.6001 22.78 25.8001 20.28 26.6001 18.58C27.1001 17.48 27.5001 16.28 27.6001 14.98C26.8001 15.28 26.1001 15.48 25.4001 15.58Z" fill="#F24D3D"/>
<path d="M26.9 9.48002C26.7 10.98 26.2999 12.48 25.5999 13.88C25.2999 14.38 25 14.78 24.7 15.18C25.9 14.98 26.5999 14.78 26.5999 14.78C26.5999 14.78 26.6999 14.88 27.5999 13.28C28.1999 11.78 28.5999 10.18 28.5999 8.58002C27.9999 8.98002 27.5 9.28002 26.9 9.48002Z" fill="#F24D3D"/>
<path d="M26.6 8.28001C26.6 8.58001 26.6 8.88001 26.5 9.18001C27 8.98001 27.6 8.68001 28 8.38001V7.98001C27.5 8.08001 27.1 8.18001 26.6 8.28001Z" fill="#F24D3D"/>
<path d="M21.4999 23.68V24.58C20.3999 24.88 19.1999 24.98 17.9999 24.98C16.7999 24.98 15.5999 24.88 14.3999 24.58V23.68C14.4999 23.68 14.5999 23.68 14.6999 23.78C16.9999 24.18 19.2999 24.18 21.4999 23.68Z" fill="#F24D3D"/>
</svg>
