<svg width="30" height="30" viewBox="0 0 30 30" fill="none" xmlns="http://www.w3.org/2000/svg">
<circle cx="15" cy="15" r="15" fill="#F24D3D"/>
<path d="M15.0019 21.3636H22.2013C22.8146 21.3636 23.2056 20.6 22.8857 20C22.228 18.7636 21.8191 17.3636 21.6858 15.9091L21.1347 11.3364C20.8147 7.73636 18.1661 5 15.0019 5C11.8378 5 9.1891 7.73636 8.86913 11.3364L8.30918 15.9091C8.18475 17.3636 7.76701 18.7636 7.10929 20C6.7982 20.6 7.18928 21.3636 7.80256 21.3636H15.0019Z" fill="white"/>
<path d="M12.3354 23.1818C12.7265 24.2364 13.7664 25 15.0019 25C16.2373 25 17.2772 24.2364 17.6683 23.1818H12.3354Z" fill="white"/>
</svg>
