<svg width="81" height="42" viewBox="0 0 81 42" fill="none" xmlns="http://www.w3.org/2000/svg">
<path d="M77.0047 5.45564C76.5906 6.40078 75.8337 7.33091 74.1342 8.96614H74.1199L56.3398 23.3382C53.7977 25.8736 49.8561 25.8736 47.314 23.3382L29.5624 9.02615C28.4484 8.05101 27.2488 6.49079 26.7204 5.69567C27.7772 2.95028 30.3478 1 33.3469 1H70.4782C73.3916 1 75.8908 2.83026 77.0047 5.45564Z" fill="white" stroke="black" stroke-width="2" stroke-linecap="round" stroke-linejoin="round"/>
<path d="M77.6189 9.13122V32.1145C77.6189 36.4651 74.3199 40.0056 70.2355 40.0056H33.4183C33.147 40.0056 32.8757 39.9906 32.6186 39.9606C31.3333 39.8106 30.1479 39.3005 29.134 38.5504C28.9911 38.4304 28.8626 38.3254 28.7198 38.2054C28.5341 38.0404 28.3628 37.8753 28.1914 37.6953C27.9058 37.3953 27.6487 37.0652 27.4202 36.7052C26.6633 35.505 26.2063 34.0648 26.2063 32.5046V8.50113C26.2063 7.51098 26.392 6.56585 26.7204 5.69572C27.2488 6.49084 28.4485 8.05106 29.5624 9.0262L47.314 23.3383C49.8561 25.8736 53.7977 25.8736 56.3398 23.3383L74.12 8.98119H74.1343C75.8337 7.33096 76.5906 6.40082 77.0048 5.45569C77.2618 6.07078 77.4475 6.74587 77.5332 7.43597C77.5475 7.46598 77.5475 7.49598 77.5475 7.54099C77.5618 7.78102 77.5903 8.02106 77.6046 8.2911C77.6189 8.56113 77.6189 8.83117 77.6189 9.13122Z" fill="white" stroke="black" stroke-width="2" stroke-linecap="round" stroke-linejoin="round"/>
<g style="mix-blend-mode:darken">
<path d="M33.3469 32.5045L43.3438 20.5028" stroke="#F26B55" stroke-width="2" stroke-linecap="square"/>
</g>
<g style="mix-blend-mode:darken">
<path fill-rule="evenodd" clip-rule="evenodd" d="M8.06878 12.8872H20.0657V14.8872H8.06878V12.8872ZM1.64215 20.705L16.4953 20.705V22.705L1.64215 22.705L1.64215 20.705ZM5.21253 28.2889L20.0657 28.2889V30.2889L5.21253 30.2889L5.21253 28.2889Z" fill="#F26B55"/>
</g>
<g style="mix-blend-mode:darken">
<path d="M70.4783 32.5045L60.4814 20.5028" stroke="#F26B55" stroke-width="2" stroke-linecap="square"/>
</g>
<g style="mix-blend-mode:darken">
<path d="M30.515 9.76038C35.2754 13.761 44.8719 23.1081 47.7282 24.9084C51.2985 27.1587 53.4407 26.9086 56.297 24.9084C59.1532 22.9081 70.8162 12.9066 77.0048 7.65588" stroke="#F26B55" stroke-width="2"/>
</g>
<g style="mix-blend-mode:darken">
<path fill-rule="evenodd" clip-rule="evenodd" d="M73.3303 2.41016C73.3303 2.41016 77.7677 3.65216 78.4428 5.38953C81.8703 14.2108 80.0918 33.0213 79.5998 34.2747C76.1723 43.006 65.3613 40.9807 58.335 40.3206C62.2195 38.9104 70.5312 37.4102 72.6734 33.6296C74.5442 24.1183 74.4157 11.8165 73.3303 2.41016Z" fill="#F26B55"/>
</g>
</svg>
