<svg width="61" height="54" viewBox="0 0 61 54" fill="none" xmlns="http://www.w3.org/2000/svg">
<g clip-path="url(#clip0_134_12410)">
<path d="M30.208 0.91304C13.6428 0.91304 0.208008 12.6522 0.208008 27C0.247888 32.8611 2.44406 38.5025 6.37757 42.8478L6.54714 43.0304C7.58841 44.0841 8.22958 45.4679 8.36018 46.9435C8.32105 49.9435 5.03409 53.087 5.03409 53.087C5.03409 53.087 11.4645 50.387 13.6297 49.5783H13.8645C14.1317 49.5064 14.4108 49.4902 14.6845 49.5306C14.9583 49.571 15.2208 49.6671 15.4558 49.813C20.0566 52.0226 25.1045 53.1429 30.208 53.087C46.7732 53.087 60.208 41.413 60.208 27C60.208 12.587 46.7732 0.91304 30.208 0.91304Z" fill="#F24D3D"/>
<path d="M13.8515 27.7304C16.2737 28.4405 18.7594 28.9123 21.2733 29.1391C27.1909 29.5322 33.1318 29.3969 39.0254 28.7348C41.6012 28.4745 44.1341 27.8917 46.5646 27C46.3954 29.1574 45.834 31.2658 44.908 33.2217C43.4863 36.0391 39.8341 40.3696 36.3515 41.3087C32.049 42.2716 27.5798 42.2046 23.308 41.113C19.6428 39.9783 16.708 35.1 15.7428 33.4304C14.6581 31.7106 14.0007 29.7562 13.8254 27.7304" fill="white"/>
<path d="M14.0994 21.6261C16.8649 21.9515 19.651 22.0692 22.4341 21.9783C26.0342 21.7565 35.8428 21.1826 41.5037 18.9913C43.8897 18.2127 46.1854 17.1807 48.3515 15.913C48.3515 15.913 48.0646 21.3522 46.5646 24.1304C45.0646 26.9087 44.8559 26.7391 44.8559 26.7391C40.1357 27.7525 35.3335 28.3375 30.5081 28.487C25.9563 28.4707 21.4093 28.1876 16.8907 27.6391C15.9687 26.4285 15.1896 25.1155 14.5689 23.7261C14.3427 23.0443 14.1896 22.3403 14.1124 21.6261" fill="white"/>
<path d="M13.0298 12.5217C15.3588 13.5478 17.8158 14.2542 20.3341 14.6217C26.4125 15.7205 32.592 16.1578 38.7646 15.9261C41.6659 15.8157 44.5514 15.4447 47.3863 14.8174V15.4826C47.3863 15.4826 44.3602 17.8696 36.7298 19.2913C30.812 20.3723 24.8106 20.9309 18.795 20.9609H15.7298C14.5612 18.9843 13.724 16.8297 13.2515 14.5826C13.1089 13.9048 13.0346 13.2144 13.0298 12.5217Z" fill="white"/>
<path d="M38.5689 15.0652C41.3805 14.9898 44.1831 14.7152 46.9559 14.2435C44.8559 12.9391 37.8254 11.7783 29.3211 11.4C24.0264 11.0471 18.7093 11.2614 13.4602 12.0391C15.6365 12.8116 17.8814 13.375 20.1646 13.7217C26.2442 14.7382 32.4067 15.1749 38.5689 15.0261" fill="#FFF5EE"/>
<path d="M45.4037 17.4C45.2341 18.6391 44.595 22.8522 43.1993 25.0696C42.7298 25.8897 42.1885 26.6667 41.5819 27.3913C43.5645 27.0391 44.8558 26.7522 44.8558 26.7522C44.8558 26.7522 45.0645 26.8957 46.5645 24.1435C48.0645 21.3913 48.3515 15.9261 48.3515 15.9261C47.4178 16.5132 46.4308 17.0111 45.4037 17.413" fill="#FFF5EE"/>
<path d="M44.908 15.2609C44.908 15.7957 44.8297 16.3304 44.7645 16.8783C45.6834 16.501 46.5582 16.0242 47.3732 15.4565V14.7913C47.3732 14.7913 46.5906 15 44.895 15.2609" fill="#FFF5EE"/>
<path d="M36.2733 42.1435V43.7087C34.3115 44.1687 32.301 44.3877 30.2863 44.3609C28.2203 44.378 26.1592 44.1592 24.1428 43.7087V42.1435L24.6385 42.2478C28.4834 43.0054 32.4425 42.9699 36.2733 42.1435Z" fill="#FFF5EE"/>
</g>
<defs>
<clipPath id="clip0_134_12410">
<rect width="60" height="52.1739" fill="white" transform="translate(0.208008 0.91304)"/>
</clipPath>
</defs>
</svg>
