<svg width="25" height="25" viewBox="0 0 25 25" fill="none" xmlns="http://www.w3.org/2000/svg">
<path d="M5 18.75C5 19.0815 5.1317 19.3995 5.36612 19.6339C5.60054 19.8683 5.91848 20 6.25 20H18.75C19.0815 20 19.3995 19.8683 19.6339 19.6339C19.8683 19.3995 20 19.0815 20 18.75V16.875C20 16.0462 19.6708 15.2513 19.0847 14.6653C18.4987 14.0792 17.7038 13.75 16.875 13.75H8.125C7.2962 13.75 6.50134 14.0792 5.91529 14.6653C5.32924 15.2513 5 16.0462 5 16.875V18.75Z" fill="white" stroke="black" stroke-linecap="round" stroke-linejoin="round"/>
<path d="M12.5 12.5C14.5711 12.5 16.25 10.8211 16.25 8.75C16.25 6.67893 14.5711 5 12.5 5C10.4289 5 8.75 6.67893 8.75 8.75C8.75 10.8211 10.4289 12.5 12.5 12.5Z" fill="white" stroke="black" stroke-linecap="round" stroke-linejoin="round"/>
<g style="mix-blend-mode:multiply">
<path d="M6 19.75C6 20.0815 6.1317 20.3995 6.36612 20.6339C6.60054 20.8683 6.91848 21 7.25 21H19.75C20.0815 21 20.3995 20.8683 20.6339 20.6339C20.8683 20.3995 21 20.0815 21 19.75V17.875C21 17.0462 20.6708 16.2513 20.0847 15.6653C19.4987 15.0792 18.7038 14.75 17.875 14.75H9.125C8.2962 14.75 7.50134 15.0792 6.91529 15.6653C6.32924 16.2513 6 17.0462 6 17.875V19.75Z" fill="#FF6E53"/>
</g>
<g style="mix-blend-mode:multiply">
<path d="M13.5 13.5C15.5711 13.5 17.25 11.8211 17.25 9.75C17.25 7.67893 15.5711 6 13.5 6C11.4289 6 9.75 7.67893 9.75 9.75C9.75 11.8211 11.4289 13.5 13.5 13.5Z" fill="#FF6E53"/>
</g>
</svg>
