<svg width="64" height="43" viewBox="0 0 64 43" fill="none" xmlns="http://www.w3.org/2000/svg">
<rect width="64" height="43" rx="4" fill="#2E77BB"/>
<g clip-path="url(#clip0_917_2992)">
<path d="M64 35.9348C63.2197 35.9459 62.4383 35.9613 61.6579 35.9679C61.0913 35.9735 60.5182 35.9128 59.9602 35.9823C59.2047 36.0772 58.705 35.7715 58.2495 35.1831C57.6915 34.4634 57.0537 33.8088 56.4255 33.099C55.7229 33.8915 55.0224 34.6444 54.3749 35.4259C54.0424 35.8267 53.6927 35.9845 53.1671 35.9779C48.0556 35.9558 42.944 35.9646 37.8325 35.9646C37.2853 35.9646 37.2821 35.9646 37.2821 35.3895C37.2821 31.2507 37.2821 27.1123 37.2821 22.9742C37.2821 22.388 37.2821 22.388 36.7079 22.388H32C32.0658 22.1971 32.1079 22.0569 32.1587 21.9266C34.2518 17.0754 36.3449 12.2239 38.438 7.37196C38.5459 7.11144 38.6905 6.99885 38.9776 7.00105C40.8657 7.0143 42.7537 7.0143 44.6418 7.00105C44.9289 7.00105 45.0735 7.10261 45.1814 7.37085C45.829 8.88537 46.4906 10.3911 47.204 11.8968V11.5214C47.204 10.1559 47.2127 8.78934 47.1975 7.42384C47.1975 7.09268 47.3055 6.99553 47.6195 6.99664C50.0069 7.00621 52.3943 7.00621 54.7817 6.99664C55.071 6.99664 55.2135 7.09267 55.3095 7.37416C55.6884 8.50674 56.0877 9.63049 56.5075 10.837C56.9058 9.69783 57.2976 8.637 57.6419 7.55962C57.7757 7.14014 57.9657 6.98229 58.4103 6.99002C60.1091 7.01982 61.809 7.00105 63.5089 7.00326C63.6697 7.00326 63.8327 7.02092 63.9914 7.03086V8.76947C63.8446 8.78161 63.6978 8.80258 63.551 8.80369C62.2429 8.80369 60.9348 8.82025 59.6267 8.79486C59.2619 8.78824 59.114 8.92291 58.9975 9.25959C58.2549 11.4144 57.4865 13.5647 56.731 15.7107C56.6802 15.8553 56.6047 15.991 56.5032 16.214C56.3953 15.9546 56.3305 15.7935 56.2723 15.6279C55.5175 13.4775 54.7659 11.3261 54.0176 9.17349C53.9302 8.9196 53.8233 8.79486 53.5363 8.79817C52.1612 8.81215 50.7855 8.81215 49.409 8.79817C49.1252 8.79817 49.0377 8.89421 49.0377 9.18011C49.0449 12.8494 49.0449 16.5183 49.0377 20.1869C49.0377 20.5048 49.1457 20.5876 49.4392 20.5799C50.1537 20.5633 50.8693 20.5556 51.5838 20.5799C51.9486 20.5942 52.0706 20.4938 52.0673 20.0997C52.0501 17.6855 52.0576 15.2724 52.0598 12.8582C52.0598 12.7103 52.0803 12.5624 52.0911 12.4167C52.2124 12.5284 52.3023 12.6713 52.3512 12.8306C53.2218 15.2592 54.0914 17.6877 54.9598 20.1162C55.0678 20.411 55.1757 20.6064 55.5524 20.581C56.1718 20.5473 56.7926 20.5473 57.412 20.581C57.7358 20.5964 57.8793 20.4761 57.9894 20.1637C58.8529 17.7043 59.7443 15.2514 60.6272 12.7975C60.6779 12.6573 60.7481 12.5238 60.8085 12.3869L60.9326 12.42V12.8947C60.9326 15.3077 60.9327 17.7219 60.9262 20.1361C60.9262 20.4794 61.0341 20.5854 61.3644 20.5777C62.2397 20.5666 63.115 20.592 63.9903 20.6031V24.9082L60.8798 28.2529L64 31.6297V35.9348ZM39.1762 28.2761C39.1762 30.0964 39.1762 31.9189 39.1762 33.7381C39.1762 34.0097 39.2032 34.1719 39.54 34.1708C42.5469 34.1598 45.5545 34.1598 48.5629 34.1708C48.8575 34.1708 48.932 34.0538 48.9255 33.7789C48.9104 33.2414 48.9255 32.7027 48.9255 32.1651C48.9255 31.5568 48.9255 31.5557 48.3308 31.5557C46.4561 31.5557 44.5813 31.5502 42.7066 31.5557C42.3537 31.5557 42.1777 31.4575 42.2069 31.0612C42.2258 30.6894 42.2258 30.3169 42.2069 29.9452C42.2004 29.6858 42.3008 29.5566 42.5598 29.5621C42.6936 29.5621 42.8286 29.5621 42.9635 29.5621C44.7443 29.5621 46.5251 29.5544 48.3049 29.5688C48.6578 29.5688 48.7841 29.4584 48.7647 29.0941C48.7388 28.5852 48.7647 28.0741 48.7582 27.563C48.7582 27.0232 48.7582 27.0221 48.2272 27.0221C46.3924 27.0221 44.5576 27.01 42.7228 27.0309C42.3051 27.0309 42.168 26.893 42.2026 26.479C42.229 26.1628 42.229 25.8448 42.2026 25.5286C42.1713 25.1378 42.331 25.0406 42.6937 25.044C44.5954 25.0594 46.4982 25.0517 48.3999 25.0517C48.9201 25.0517 48.9201 25.0517 48.9212 24.4997C48.9223 23.9478 48.9007 23.4224 48.9277 22.8859C48.946 22.515 48.8446 22.3825 48.4582 22.3836C45.5182 22.3991 42.5778 22.3991 39.6371 22.3836C39.2906 22.3836 39.1687 22.4741 39.1719 22.8461C39.1881 24.6609 39.1762 26.468 39.1762 28.2761ZM48.8618 20.5843C48.8111 20.4253 48.7841 20.3072 48.7377 20.1979C47.1497 16.5183 45.5628 12.8387 43.9769 9.15914C43.8582 8.88206 43.706 8.80369 43.4276 8.8081C42.3623 8.82245 41.296 8.82687 40.2307 8.8081C39.9209 8.80148 39.7796 8.91849 39.6619 9.19777C38.3596 12.2379 37.0507 15.2754 35.7354 18.3103C35.4181 19.0488 35.1019 19.7884 34.7641 20.5854C35.866 20.5854 36.9011 20.5931 37.935 20.5721C38.0354 20.5721 38.1736 20.4132 38.2254 20.2962C38.4779 19.7177 38.7197 19.1338 38.9399 18.5421C39.0381 18.2816 39.1859 18.1889 39.4536 18.1911C41.0046 18.1999 42.5555 18.2021 44.1064 18.1911C44.4011 18.1911 44.5382 18.3125 44.6461 18.5763C44.862 19.1537 45.0983 19.7266 45.3509 20.2896C45.407 20.4143 45.5667 20.5721 45.6801 20.5743C46.7237 20.5931 47.7717 20.5843 48.864 20.5843H48.8618ZM58.4244 28.2607L63.8921 22.398C62.6358 22.398 61.4917 22.3814 60.3488 22.4112C60.1048 22.43 59.8753 22.5368 59.7012 22.7126C58.8377 23.6398 57.9991 24.5958 57.1519 25.5407C56.9533 25.7615 56.7504 25.9823 56.4957 26.2549C56.3349 26.0606 56.2097 25.8995 56.0747 25.7471C55.1811 24.7327 54.281 23.7248 53.3949 22.7048C53.3172 22.6029 53.2168 22.5213 53.1021 22.467C52.9874 22.4127 52.8617 22.3871 52.7354 22.3924C51.6701 22.4068 50.6049 22.3924 49.5396 22.3991C49.4317 22.3991 49.3238 22.4189 49.1521 22.4355C49.2957 22.5967 49.382 22.6993 49.4759 22.7976C51.0485 24.5031 52.6134 26.2196 54.2022 27.9052C54.5044 28.2264 54.4623 28.4031 54.1849 28.6989C52.6178 30.3713 51.0701 32.0635 49.5159 33.7491C49.4079 33.8595 49.3097 33.9821 49.1478 34.1642C50.3923 34.1642 51.5352 34.1775 52.6782 34.1521C52.8962 34.1371 53.1016 34.0423 53.2567 33.8849C53.9464 33.1486 54.6058 32.3825 55.2782 31.6286C55.6571 31.2036 56.0413 30.783 56.5162 30.2565C56.587 30.3947 56.6685 30.5269 56.7601 30.6517C57.7077 31.7268 58.6672 32.7921 59.6094 33.8728C59.6888 33.9727 59.7904 34.0518 59.9056 34.1036C60.0208 34.1555 60.1465 34.1785 60.2721 34.1708C61.3374 34.1565 62.4026 34.1708 63.4679 34.1631C63.5758 34.1631 63.6838 34.1476 63.8489 34.1355C62.0238 32.164 60.2495 30.2399 58.4265 28.2607H58.4244Z" fill="white"/>
<path d="M40.1392 15.628C40.6788 14.289 41.2012 13.014 41.7182 11.739H41.8401L43.4235 15.6302L40.1392 15.628Z" fill="white"/>
</g>
<defs>
<clipPath id="clip0_917_2992">
<rect width="32" height="30" fill="white" transform="translate(32 6)"/>
</clipPath>
</defs>
</svg>
