<svg width="55" height="40" viewBox="0 0 55 40" fill="none" xmlns="http://www.w3.org/2000/svg">
<path d="M51 40H4C1.79 40 0 38.21 0 36V4C0 1.79 1.79 0 4 0H51C53.21 0 55 1.79 55 4V36C55 38.21 53.21 40 51 40Z" fill="#2F6EC8"/>
<path d="M11.24 14.75L6.5 25.24H12.17L12.87 23.57H14.48L15.18 25.24H21.43V23.96L21.99 25.24H25.22L25.78 23.94V25.24H38.77L40.35 23.61L41.83 25.24L48.5 25.25L43.74 20.02L48.5 14.75H41.93L40.39 16.35L38.96 14.75H24.83L23.62 17.46L22.38 14.75H16.72V15.98L16.09 14.75H11.24ZM12.34 16.24H15.11L18.25 23.35V16.24H21.28L23.71 21.34L25.95 16.24H28.96V23.77H27.13L27.12 17.87L24.45 23.77H22.81L20.12 17.87V23.77H16.35L15.63 22.08H11.76L11.05 23.77H9.01L12.34 16.24ZM30.64 16.24H38.1L40.38 18.7L42.74 16.24H45.02L41.55 20.02L45.02 23.76H42.64L40.36 21.27L37.99 23.76H30.65L30.64 16.24ZM13.68 17.51L12.41 20.52H14.96L13.68 17.51ZM32.48 17.8V19.17H36.55V20.7H32.48V22.2H37.04L39.16 19.99L37.13 17.79L32.48 17.8Z" fill="white"/>
</svg>
