<svg width="44" height="18" viewBox="0 0 44 18" fill="none" xmlns="http://www.w3.org/2000/svg">
<path d="M8.93338 3.80773C7.89754 3.80773 7.0619 4.43446 6.52222 4.43446C5.95642 4.43446 5.19913 3.84255 4.30256 3.84255C2.59646 3.84255 0.864258 5.26139 0.864258 7.91628C0.864258 9.57885 1.50839 11.3285 2.30051 12.4688C2.97076 13.4176 3.57137 14.201 4.42442 14.201C5.26876 14.201 5.64306 13.6439 6.69631 13.6439C7.75827 13.6439 8.00199 14.1836 8.93338 14.1836C9.86477 14.1836 10.4828 13.3392 11.066 12.5036C11.7101 11.5374 11.9887 10.5973 11.9974 10.5538C11.9452 10.5364 10.1694 9.81388 10.1694 7.77701C10.1694 6.01869 11.5622 5.23528 11.6405 5.17435C10.7265 3.84255 9.32509 3.80773 8.93338 3.80773ZM8.45463 2.68484C8.87245 2.17127 9.1684 1.47491 9.1684 0.769841C9.1684 0.674091 9.1597 0.578341 9.14229 0.5C8.46333 0.526114 7.6277 0.952637 7.13154 1.53584C6.74854 1.97977 6.38295 2.68484 6.38295 3.38991C6.38295 3.49437 6.40035 3.60753 6.40906 3.64234C6.45258 3.65105 6.52222 3.65975 6.59186 3.65975C7.20988 3.65975 7.99329 3.24194 8.45463 2.68484Z" fill="white"/>
<path d="M15.419 1.48361V14.0443H17.6648V9.92704H20.3893C22.931 9.92704 24.7068 8.22094 24.7068 5.73144C24.7068 3.19841 22.992 1.48361 20.4851 1.48361H15.419ZM17.6648 3.3638H19.8931C21.5122 3.3638 22.4262 4.19073 22.4262 5.73144C22.4262 7.22862 21.4861 8.06426 19.8844 8.06426H17.6648V3.3638Z" fill="white"/>
<path d="M28.9205 12.5036C27.963 12.5036 27.2753 12.0248 27.2753 11.224C27.2753 10.4493 27.8411 10.0141 29.0511 9.93574L31.2011 9.79647V10.5538C31.2011 11.6592 30.2262 12.5036 28.9205 12.5036ZM28.2851 14.201C29.5298 14.201 30.5744 13.6613 31.1053 12.7386H31.2533V14.0443H33.3337V7.54199C33.3337 5.52253 31.9584 4.33 29.5124 4.33C27.2492 4.33 25.6737 5.40067 25.4996 7.08065H27.5365C27.7367 6.43651 28.4156 6.08833 29.4079 6.08833C30.5744 6.08833 31.2011 6.6106 31.2011 7.54199V8.34281L28.7464 8.49078C26.431 8.63006 25.134 9.62238 25.134 11.3459C25.134 13.0868 26.4484 14.201 28.2851 14.201Z" fill="white"/>
<path d="M35.7369 17.5C37.8695 17.5 38.8879 16.7166 39.6975 14.349L43.1358 4.52151H40.8552L38.6355 11.9552H38.4875L36.2592 4.52151H33.8915L37.295 14.0878L37.1818 14.5056C36.9033 15.3848 36.3897 15.733 35.4758 15.733C35.3278 15.733 35.0057 15.7243 34.8838 15.6982V17.4652C35.0231 17.4913 35.6063 17.5 35.7369 17.5Z" fill="white"/>
</svg>
