<svg width="50" height="50" viewBox="0 0 50 50" fill="none" xmlns="http://www.w3.org/2000/svg">
<g clip-path="url(#clip0_16_6964)">
<path d="M24.54 40.4701C23.8 40.1801 6.38 33.3701 6.38 19.3901C6.44299 16.6625 7.58451 14.0711 9.55448 12.1836C11.5245 10.2961 14.1623 9.26642 16.89 9.32007C18.3395 9.31858 19.7741 9.61217 21.1065 10.1829C22.4389 10.7537 23.6411 11.5897 24.64 12.6401L25 13.0001L25.36 12.6101C26.3589 11.5597 27.5611 10.7237 28.8935 10.1529C30.2259 9.58217 31.6605 9.28858 33.11 9.29007C35.8428 9.23649 38.4851 10.2703 40.4559 12.1643C42.4268 14.0582 43.5649 16.6573 43.62 19.3901C43.62 33.3901 26.2 40.1801 25.46 40.4701L25 40.6401L24.54 40.4701Z" fill="white"/>
<path d="M33.11 9.82008C35.7035 9.76907 38.2115 10.7473 40.0856 12.5408C41.9596 14.3342 43.0471 16.7969 43.11 19.3901C43.12 33.0001 26 39.7201 25.28 40.0001L25 40.1101L24.72 40.0001C21.4047 38.6371 18.2896 36.8306 15.46 34.6301C9.77001 30.1501 6.88001 25.0001 6.88001 19.3901C6.94297 16.7969 8.03042 14.3342 9.90446 12.5408C11.7785 10.7473 14.2866 9.76907 16.88 9.82008C18.2631 9.82085 19.6316 10.1032 20.9021 10.6499C22.1726 11.1966 23.3185 11.9962 24.27 13.0001L25 13.7801L25.73 13.0001C26.6821 12.0011 27.8271 11.2059 29.0957 10.6627C30.3643 10.1195 31.73 9.83963 33.11 9.84008V9.82008ZM33.11 8.84008C31.5939 8.83458 30.0926 9.13861 28.6981 9.73355C27.3036 10.3285 26.0452 11.2018 25 12.3001C23.9565 11.1982 22.6989 10.3212 21.3043 9.72274C19.9097 9.12432 18.4076 8.81715 16.89 8.82008C14.0314 8.76913 11.269 9.85273 9.20743 11.8337C7.14587 13.8147 5.95304 16.5317 5.89001 19.3901C5.89001 33.6901 23.62 40.6401 24.38 40.9301L25.01 41.1801L25.64 40.9301C26.4 40.6401 44.13 33.6901 44.13 19.3901C44.067 16.5317 42.8742 13.8147 40.8126 11.8337C38.751 9.85273 35.9886 8.76913 33.13 8.82008L33.11 8.84008Z" fill="black"/>
<g style="mix-blend-mode:darken">
<g style="mix-blend-mode:darken">
<path d="M44.76 19.3099V19.2299C44.7128 16.9606 43.8311 14.7883 42.2834 13.128C40.7356 11.4678 38.6304 10.436 36.37 10.2299C35.9914 10.1895 35.6108 10.1694 35.23 10.1699C33.7134 10.1675 32.2123 10.4739 30.818 11.0705C29.4237 11.667 28.1654 12.5413 27.12 13.6399C26.07 12.5473 24.8086 11.6798 23.4127 11.0901C22.0167 10.5004 20.5154 10.201 19 10.2099C16.1414 10.159 13.379 11.2426 11.3174 13.2236C9.25585 15.2045 8.06302 17.9216 8 20.7799C8.09991 25.5943 10.0561 30.1838 13.46 33.5899C16.8609 36.655 20.7648 39.111 25 40.8499L25.64 41.0899L26.27 40.8499C27 40.5599 44.76 33.6099 44.76 19.3099Z" fill="#FF6E53"/>
</g>
</g>
<path d="M24.5 0.47998V5.47998C24.5 5.61259 24.5527 5.73977 24.6464 5.83353C24.7402 5.9273 24.8674 5.97998 25 5.97998C25.1326 5.97998 25.2598 5.9273 25.3536 5.83353C25.4473 5.73977 25.5 5.61259 25.5 5.47998V0.47998C25.5 0.347372 25.4473 0.220195 25.3536 0.126427C25.2598 0.0326589 25.1326 -0.0200195 25 -0.0200195C24.8674 -0.0200195 24.7402 0.0326589 24.6464 0.126427C24.5527 0.220195 24.5 0.347372 24.5 0.47998Z" fill="#FF6E53"/>
<path d="M0.84998 44.3901L3.99998 41.2901L4.43998 40.8501C4.89998 40.4001 4.18998 39.6901 3.72998 40.1501L0.58998 43.2401L0.14998 43.6801C-0.31002 44.1401 0.39998 44.8501 0.84998 44.3901Z" fill="#FF6E53"/>
<path d="M49.8499 43.6801L46.7599 40.5901L46.3199 40.1501C45.8599 39.6901 45.1499 40.4001 45.6099 40.8501L48.7099 43.9501L49.1499 44.3901C49.5999 44.8501 50.3099 44.1401 49.8499 43.6801Z" fill="#FF6E53"/>
<path d="M24.35 50C24.9023 50 25.35 49.5523 25.35 49C25.35 48.4477 24.9023 48 24.35 48C23.7977 48 23.35 48.4477 23.35 49C23.35 49.5523 23.7977 50 24.35 50Z" fill="#FF6E53"/>
<path d="M1 10.8201C1.55228 10.8201 2 10.3724 2 9.82007C2 9.26778 1.55228 8.82007 1 8.82007C0.447715 8.82007 0 9.26778 0 9.82007C0 10.3724 0.447715 10.8201 1 10.8201Z" fill="#FF6E53"/>
<path d="M49 10.8201C49.5523 10.8201 50 10.3724 50 9.82007C50 9.26778 49.5523 8.82007 49 8.82007C48.4477 8.82007 48 9.26778 48 9.82007C48 10.3724 48.4477 10.8201 49 10.8201Z" fill="#FF6E53"/>
</g>
<defs>
<clipPath id="clip0_16_6964">
<rect width="50" height="50" fill="white"/>
</clipPath>
</defs>
</svg>
