<svg width="37" height="41" viewBox="0 0 37 41" fill="none" xmlns="http://www.w3.org/2000/svg">
<path d="M34 40.0561H3C1.9 40.0561 1 39.2067 1 38.1685V10.9292C1 9.72109 1.81 8.64511 3.03 8.2487L18.5 3.24634L33.97 8.25813C35.18 8.65455 36 9.73053 36 10.9386V38.1779C36 39.2067 35.1 40.0561 34 40.0561Z" fill="white" stroke="black" stroke-miterlimit="10"/>
<path d="M31.87 6.62529L18.5 2.3025L5.17 6.61585C4.85 6.71967 4.6 6.97451 4.52 7.28598L2.5 15.0444L7.5 17.8759L4.5 27.3143L18.5 38.3761L32.5 27.3049L29.5 17.8664L34.5 15.0349L32.52 7.29542C32.44 6.98395 32.2 6.73855 31.87 6.62529Z" fill="white" stroke="black" stroke-miterlimit="10"/>
<path d="M18.5 30.6177L8 7.02171L11.28 1.96272C11.6 1.47192 12.14 1.14158 12.75 1.07551L24.13 1C24.74 1.06607 25.28 1.38697 25.61 1.87777L29.01 7.02171L18.5 30.6177Z" fill="white" stroke="black" stroke-miterlimit="10"/>
<g style="mix-blend-mode:darken">
<path d="M18.5 6.54979L11.28 1.96272C11.6 1.47192 12.14 1.14158 12.75 1.07551L24.13 1C24.74 1.06607 25.28 1.38697 25.61 1.87777L18.5 6.54979Z" fill="#FF6E53"/>
</g>
<path d="M17.07 3.93535L12.39 1.37754C11.9 1.11326 11.28 1.27371 11.01 1.74563L8.37 6.37989C8.15 6.75743 8.24 7.22935 8.57 7.52194L12.15 10.6555C12.6 11.0519 13.31 10.9764 13.66 10.495L17.41 5.2756C17.72 4.82256 17.57 4.20906 17.07 3.93535Z" fill="white" stroke="black" stroke-miterlimit="10"/>
<path d="M19.93 3.93535L24.61 1.37754C25.1 1.11326 25.72 1.27371 25.99 1.74563L28.63 6.37989C28.85 6.75743 28.76 7.22935 28.43 7.52194L24.85 10.6555C24.4 11.0519 23.69 10.9764 23.34 10.495L19.6 5.2756C19.28 4.82256 19.43 4.20906 19.93 3.93535Z" fill="white" stroke="black" stroke-miterlimit="10"/>
<path d="M18.5001 30.6177L20.5001 26.1251V8.43747H16.5001V26.1251L18.5001 30.6177Z" fill="white" stroke="black" stroke-miterlimit="10"/>
<path d="M17.5 6.18168L13 4.52996C12.33 4.15243 11.5 4.63378 11.5 5.40773V9.9948C11.5 10.7688 12.33 11.2501 13 10.8726L17.5 9.22085V6.18168Z" fill="white" stroke="black" stroke-miterlimit="10"/>
<path d="M19.5 9.22085L24 10.8726C24.67 11.2596 25.5 10.7688 25.5 9.9948V5.40773C25.5 4.63379 24.67 4.15243 24 4.52996L19.5 6.18168V9.22085Z" fill="white" stroke="black" stroke-miterlimit="10"/>
<path d="M19.5001 9.38131H17.5001C16.9501 9.38131 16.5001 8.95659 16.5001 8.43747V6.54979C16.5001 6.03068 16.9501 5.60595 17.5001 5.60595H19.5001C20.0501 5.60595 20.5001 6.03068 20.5001 6.54979V8.43747C20.5001 8.95659 20.0501 9.38131 19.5001 9.38131Z" fill="white" stroke="black" stroke-miterlimit="10"/>
<g style="mix-blend-mode:darken">
<path d="M18.5 7.12552L14 5.4738C13.33 5.09627 12.5 5.57762 12.5 6.35157V10.9386C12.5 11.7126 13.33 12.194 14 11.8164L18.5 10.1647V7.12552Z" fill="#FF6E53"/>
</g>
<g style="mix-blend-mode:darken">
<path d="M20.5 10.1647L25 11.8164C25.67 12.2034 26.5 11.7126 26.5 10.9386V6.35157C26.5 5.57763 25.67 5.09627 25 5.4738L20.5 7.12552V10.1647Z" fill="#FF6E53"/>
</g>
<g style="mix-blend-mode:darken">
<path d="M20.5 10.3252H18.5C17.95 10.3252 17.5 9.90043 17.5 9.38131V7.49363C17.5 6.97452 17.95 6.54979 18.5 6.54979H20.5C21.05 6.54979 21.5 6.97452 21.5 7.49363V9.38131C21.5 9.90043 21.05 10.3252 20.5 10.3252Z" fill="#FF6E53"/>
</g>
<g style="mix-blend-mode:darken">
<path d="M34.97 9.19255L33.65 8.76782L33.52 8.23927C33.44 7.9278 33.2 7.67296 32.87 7.56914L28.41 6.12506L29 7.01227L18.5 30.6083L8 7.01227L8.04 6.9462L6.17 7.5597C5.85 7.66352 5.6 7.91836 5.52 8.22983L5.39 8.75838L4.03 9.19255C2.81 9.58896 2 10.6649 2 11.8731V39.1123C2 40.1505 2.9 41 4 41H35C36.1 41 37 40.1505 37 39.1123V11.8731C37 10.6649 36.19 9.58896 34.97 9.19255Z" fill="#FF6E53"/>
</g>
<path d="M29.9999 7.02171L19.4999 30.6177" stroke="white" stroke-miterlimit="10"/>
<path d="M8.5 17.8759L5.5 27.3143" stroke="white" stroke-miterlimit="10"/>
<path d="M5.52 7.28599L3.5 15.0444" stroke="white" stroke-miterlimit="10"/>
</svg>
