<svg width="43" height="43" viewBox="0 0 43 43" fill="none" xmlns="http://www.w3.org/2000/svg">
<path d="M36.9332 41H5.05656C3.92545 41 3 40.1111 3 39.0247V10.521C3 9.25679 3.8329 8.13086 5.0874 7.71605L13.8278 4.84197C18.4756 3.31111 23.5244 3.31111 28.1722 4.84197L36.9126 7.71605C38.1568 8.13086 39 9.25679 39 10.521V39.0247C38.9897 40.1111 38.0643 41 36.9332 41Z" fill="white" stroke="black" stroke-miterlimit="10"/>
<path d="M33.3342 6.4321C33.3342 9.97778 27.8123 13.8395 20.9948 13.8395C14.1774 13.8395 8.65552 9.97778 8.65552 6.4321C8.65552 2.88642 14.1774 1 20.9948 1C27.8123 1 33.3342 2.88642 33.3342 6.4321Z" fill="white" stroke="black" stroke-miterlimit="10"/>
<path d="M13.8175 7.80494L13.4473 7.92345L20.9949 23.9926L28.5424 7.93333L28.1722 7.81481C23.5141 6.27407 18.4756 6.27407 13.8175 7.80494Z" fill="white" stroke="black" stroke-miterlimit="10"/>
<g style="mix-blend-mode:darken">
<path d="M33.3342 6.4321C33.3342 2.88642 27.8123 1 20.9948 1C14.1774 1 8.65552 2.88642 8.65552 6.4321C8.65552 9.01975 11.617 11.7753 15.8637 13.079L20.9948 23.9926L26.126 13.079C30.3727 11.7753 33.3342 9.01975 33.3342 6.4321Z" fill="#FF6E53"/>
</g>
<path d="M32.3779 6.22469L28.4704 4.94074L18.9383 25.2173V41H23.0514V26.0765L32.3779 6.22469Z" fill="white" stroke="black" stroke-miterlimit="10"/>
<path d="M14.1157 4.76296C14.0231 4.79259 13.9203 4.81234 13.8278 4.84197L10.1979 6.03704L18.9383 24.6247V41H23.0514V23.7753L14.1157 4.76296Z" fill="white" stroke="black" stroke-miterlimit="10"/>
<g style="mix-blend-mode:darken">
<path d="M6.08484 41H36.9332C38.0643 41 38.9897 40.1111 38.9897 39.0247V9.39507" stroke="#FF6E53" stroke-width="3" stroke-miterlimit="10" stroke-linecap="round"/>
</g>
<path d="M20.9949 29.1487C21.2788 29.1487 21.509 28.9275 21.509 28.6546C21.509 28.3817 21.2788 28.1605 20.9949 28.1605C20.7109 28.1605 20.4807 28.3817 20.4807 28.6546C20.4807 28.9275 20.7109 29.1487 20.9949 29.1487Z" fill="white" stroke="black" stroke-miterlimit="10"/>
<path d="M20.9949 38.0376C21.2788 38.0376 21.509 37.8164 21.509 37.5435C21.509 37.2706 21.2788 37.0494 20.9949 37.0494C20.7109 37.0494 20.4807 37.2706 20.4807 37.5435C20.4807 37.8164 20.7109 38.0376 20.9949 38.0376Z" fill="white" stroke="black" stroke-miterlimit="10"/>
<g style="mix-blend-mode:darken">
<path d="M12.8098 4.5358L9.10797 6.66913C8.83034 6.82716 8.64525 7.11358 8.6144 7.4395L7.79178 17.6518C7.7198 18.4914 8.70695 19.0148 9.41646 18.5309L17.2417 13.1383C17.6427 12.8617 17.7764 12.358 17.581 11.9235L14.2802 4.97037C14.0231 4.43703 13.3342 4.22963 12.8098 4.5358Z" fill="#FF6E53"/>
</g>
<g style="mix-blend-mode:darken">
<path d="M31.2365 4.5358L34.9383 6.66913C35.2262 6.83703 35.4113 7.12345 35.4319 7.4395L36.2545 17.6518C36.3265 18.4914 35.3393 19.0148 34.6298 18.5309L26.8046 13.1383C26.4036 12.8617 26.2699 12.358 26.4653 11.9235L29.7661 4.97037C30.0231 4.43703 30.7121 4.22963 31.2365 4.5358Z" fill="#FF6E53"/>
</g>
<path d="M11.7815 2.5605L8.07968 4.69383C7.80205 4.85185 7.61696 5.13827 7.58611 5.4642L6.76349 15.6765C6.69151 16.5161 7.67866 17.0395 8.38817 16.5556L16.2134 11.163C16.6144 10.8864 16.7481 10.3827 16.5527 9.94815L13.2519 2.99506C12.9949 2.46173 12.3059 2.25432 11.7815 2.5605Z" fill="white" stroke="black" stroke-miterlimit="10"/>
<path d="M30.2082 2.5605L33.91 4.69383C34.1979 4.86173 34.383 5.14815 34.4036 5.4642L35.2262 15.6765C35.2982 16.5161 34.311 17.0395 33.6015 16.5556L25.7763 11.163C25.3753 10.8864 25.2416 10.3827 25.437 9.94815L28.7378 2.99506C28.9949 2.46173 29.6838 2.25432 30.2082 2.5605Z" fill="white" stroke="black" stroke-miterlimit="10"/>
</svg>
