<svg width="40" height="40" viewBox="0 0 40 40" fill="none" xmlns="http://www.w3.org/2000/svg">
<path d="M38.9207 7.77734H6.48828V36.6662H38.9207V7.77734Z" fill="white" stroke="black" stroke-miterlimit="10"/>
<path d="M6.48744 7.77734H1.08203V36.6662H6.48744V7.77734Z" fill="white" stroke="black" stroke-miterlimit="10"/>
<path d="M38.9199 16.668H1.08203V36.668H38.9199V16.668Z" stroke="black" stroke-miterlimit="10"/>
<path d="M15.1368 13.3338V11.1115C16.3044 11.1115 17.299 9.58932 17.299 7.77821C17.299 5.9671 16.3044 4.44488 15.1368 4.44488C13.9693 4.44488 12.9747 5.9671 12.9747 7.77821H10.8125C10.8125 4.71155 12.7476 2.22266 15.1368 2.22266C17.526 2.22266 19.4611 4.71155 19.4611 7.77821C19.4611 10.8449 17.526 13.3338 15.1368 13.3338Z" fill="white" stroke="black" stroke-miterlimit="10"/>
<path d="M28.1095 13.3338V11.1115C29.277 11.1115 30.2716 9.58932 30.2716 7.77821C30.2716 5.9671 29.277 4.44488 28.1095 4.44488C26.9419 4.44488 25.9473 5.9671 25.9473 7.77821H23.7852C23.7852 4.71155 25.7203 2.22266 28.1095 2.22266C30.4987 2.22266 32.4338 4.71155 32.4338 7.77821C32.4338 10.8449 30.4987 13.3338 28.1095 13.3338Z" fill="white" stroke="black" stroke-miterlimit="10"/>
<path d="M4.32522 25.5547H3.24414V36.6658H4.32522V25.5547Z" fill="black"/>
<g style="mix-blend-mode:darken">
<path d="M33.427 6.6671C33.027 4.13377 31.2757 2.22266 29.1892 2.22266C27.1027 2.22266 25.3514 4.13377 24.9514 6.6671H20.4541C20.0541 4.13377 18.3027 2.22266 16.2162 2.22266C14.1297 2.22266 12.3784 4.13377 11.9784 6.6671H0V16.6671H36.7568V37.7782H40V16.6671V15.556V6.6671H33.427ZM14.1946 6.6671C14.4973 5.38932 15.2973 4.44488 16.2162 4.44488C17.1351 4.44488 17.9351 5.38932 18.2378 6.6671H14.1946ZM27.1676 6.6671C27.4703 5.38932 28.2703 4.44488 29.1892 4.44488C30.1081 4.44488 30.9081 5.38932 31.2108 6.6671H27.1676Z" fill="#FF6E53"/>
</g>
</svg>
