<svg width="40" height="40" viewBox="0 0 40 40" fill="none" xmlns="http://www.w3.org/2000/svg">
<g style="mix-blend-mode:darken">
<path d="M26.6024 15.9336L33.1112 37.0846C33.2646 37.6551 32.8557 38.2166 32.2934 38.2166H6.80347C6.2412 38.2166 5.83227 37.6551 5.98561 37.0846L12.4944 15.9336H26.6024Z" fill="white" stroke="black" stroke-miterlimit="10"/>
</g>
<path d="M19.5478 9.69484C19.5478 9.69484 23.8671 5.02432 25.5965 2.9832C27.4537 0.781641 11.6503 0.781641 13.5075 2.9832C15.2284 5.02432 19.5478 9.69484 19.5478 9.69484Z" fill="white" stroke="black" stroke-miterlimit="10"/>
<g style="mix-blend-mode:darken">
<path d="M19.5478 9.69484C19.5478 9.69484 23.8671 5.02432 25.5965 2.9832C27.4537 0.781641 11.6503 0.781641 13.5075 2.9832C15.2284 5.02432 19.5478 9.69484 19.5478 9.69484Z" fill="#FF6E53"/>
</g>
<path d="M26.6033 15.9338L28.0942 10.5859L29.1591 11.7267L34.0322 8.80322L30.1218 3.08986C29.5084 2.18963 28.5543 1.61918 27.4979 1.52114L25.7173 1.35178C25.2573 1.30722 24.8483 1.62809 24.7376 2.09158C24.1838 4.41792 21.9347 6.12926 19.5408 6.12926C17.1469 6.12926 14.9063 4.40901 14.344 2.09158C14.2332 1.62809 13.8243 1.30722 13.3643 1.35178L11.5922 1.52114C10.5444 1.61918 9.59018 2.18963 8.96827 3.08986L5.06641 8.80322L9.93948 11.7267L11.0044 10.5859L12.4953 15.9338H26.6033Z" fill="white" stroke="black" stroke-miterlimit="10"/>
<path d="M11.3196 26.6914L8.5764 37.7349C8.40601 38.4301 8.90865 39.1075 9.5902 39.1075H14.2247C14.77 39.1075 15.23 38.6618 15.2726 38.0914L15.9116 29.303" fill="white"/>
<path d="M11.3196 26.6914L8.5764 37.7349C8.40601 38.4301 8.90865 39.1075 9.5902 39.1075H14.2247C14.77 39.1075 15.23 38.6618 15.2726 38.0914L15.9116 29.303" stroke="black" stroke-miterlimit="10"/>
<path d="M26.6019 15.9357L27.3431 13.2617H11.7441L12.4938 15.9357H26.6019Z" fill="white" stroke="black" stroke-miterlimit="10"/>
<path d="M27.7697 26.6914L30.5129 37.7349C30.6833 38.4301 30.1806 39.1075 29.4991 39.1075H24.8646C24.3193 39.1075 23.8593 38.6618 23.8167 38.0914L23.1777 29.303" fill="white"/>
<path d="M27.7697 26.6914L30.5129 37.7349C30.6833 38.4301 30.1806 39.1075 29.4991 39.1075H24.8646C24.3193 39.1075 23.8593 38.6618 23.8167 38.0914L23.1777 29.303" stroke="black" stroke-miterlimit="10"/>
<path d="M15.3404 15.9336L14.8633 18.5452" stroke="black" stroke-miterlimit="10"/>
<path d="M23.7578 15.9336L24.2349 18.5452" stroke="black" stroke-miterlimit="10"/>
<g clip-path="url(#clip0_1467_24021)">
<path d="M27.7205 15.6445L34.5246 36.7112C34.7037 37.2445 34.2561 37.8668 33.6294 37.8668H6.94991C6.32321 37.8668 5.9651 37.3334 6.05463 36.7112L12.8588 15.6445H27.7205Z" fill="white" stroke="black" stroke-miterlimit="10"/>
<path d="M20.2902 9.42274C20.2902 9.42274 24.8562 4.80052 26.6468 2.75607C28.6164 0.533851 11.9641 0.53385 13.9337 2.66718C15.8138 4.71163 20.2902 9.42274 20.2902 9.42274Z" fill="white" stroke="black" stroke-miterlimit="10"/>
<g style="mix-blend-mode:darken">
<path d="M20.2902 9.42274C20.2902 9.42274 24.8562 4.80052 26.6468 2.75607C28.6164 0.533851 11.9641 0.53385 13.9337 2.66718C15.8138 4.71163 20.2902 9.42274 20.2902 9.42274Z" fill="#FF6E53"/>
</g>
<path d="M27.721 15.6462L29.243 10.3128L30.3173 11.4684L35.4204 8.53507L31.3021 2.84618C30.6754 1.95729 29.6906 1.33507 28.5267 1.24618L26.8257 1.0684C26.3781 1.0684 25.9304 1.33507 25.8409 1.77951C25.2142 4.09062 22.8865 5.77951 20.3797 5.77951C17.8729 5.77951 15.5451 4.09062 14.9184 1.77951C14.8289 1.33507 14.3813 0.979511 13.9336 1.0684L11.964 1.24618C10.8897 1.33507 9.81532 1.8684 9.18862 2.84618L5.07031 8.53507L10.1734 11.4684L11.2478 10.3128L12.7698 15.6462H27.721Z" fill="white" stroke="black" stroke-miterlimit="10"/>
<path d="M11.6945 26.3125L8.82963 37.3347C8.65057 38.0458 9.18774 38.6681 9.90397 38.6681H14.7385C15.2757 38.6681 15.8128 38.2236 15.8128 37.6903L16.4395 28.8903" fill="white"/>
<path d="M11.6945 26.3125L8.82963 37.3347C8.65057 38.0458 9.18774 38.6681 9.90397 38.6681H14.7385C15.2757 38.6681 15.8128 38.2236 15.8128 37.6903L16.4395 28.8903" stroke="black" stroke-miterlimit="10"/>
<path d="M27.7205 15.6432L28.5263 12.9766H12.1426L12.8588 15.6432H27.7205Z" fill="white" stroke="black" stroke-miterlimit="10"/>
<path d="M28.9752 26.3125L31.8401 37.3347C32.0191 38.0458 31.482 38.6681 30.7657 38.6681H25.9312C25.394 38.6681 24.8569 38.2236 24.8569 37.6903L24.1406 28.9792" fill="white"/>
<path d="M28.9752 26.3125L31.8401 37.3347C32.0191 38.0458 31.482 38.6681 30.7657 38.6681H25.9312C25.394 38.6681 24.8569 38.2236 24.8569 37.6903L24.1406 28.9792" stroke="black" stroke-miterlimit="10"/>
<path d="M15.9024 15.6445L15.3652 18.2223" stroke="black" stroke-miterlimit="10"/>
<path d="M24.7656 15.6445L25.2133 18.2223" stroke="black" stroke-miterlimit="10"/>
<g style="mix-blend-mode:darken">
<path d="M28.6155 16.5329L30.227 11.1996L31.3014 12.3551L36.4045 9.42179L32.2862 3.7329C31.6595 2.84401 30.6747 2.22178 29.5108 2.1329L27.7202 1.95512C27.2726 1.95512 26.8249 2.22179 26.7354 2.66623C26.1087 4.97734 23.781 6.66623 21.2742 6.66623C18.7674 6.66623 16.4397 4.97734 15.813 2.66623C15.7234 2.22179 15.2758 1.86623 14.8282 1.95512L12.8585 2.1329C11.7842 2.22178 10.7098 2.75512 10.0831 3.7329L5.96484 9.42179L11.068 12.3551L12.1423 11.1996L13.7538 16.5329L6.94966 37.5996C6.7706 38.1329 7.21824 38.7551 7.84494 38.7551H9.72503C9.81456 39.2885 10.2622 39.644 10.7994 39.644H15.6339C16.1711 39.644 16.6187 39.2885 16.7082 38.7551H25.7506C25.8401 39.2885 26.2878 39.644 26.825 39.644H31.6595C32.1967 39.644 32.6443 39.2885 32.7338 38.7551H34.6139C35.2406 38.7551 35.5987 38.2218 35.5092 37.5996L28.6155 16.5329Z" fill="#FF6E53"/>
<mask id="mask0_1467_24021" style="mask-type:alpha" maskUnits="userSpaceOnUse" x="5" y="1" width="32" height="39">
<path d="M28.6155 16.5329L30.227 11.1996L31.3014 12.3551L36.4045 9.42179L32.2862 3.7329C31.6595 2.84401 30.6747 2.22178 29.5108 2.1329L27.7202 1.95512C27.2726 1.95512 26.8249 2.22179 26.7354 2.66623C26.1087 4.97734 23.781 6.66623 21.2742 6.66623C18.7674 6.66623 16.4397 4.97734 15.813 2.66623C15.7234 2.22179 15.2758 1.86623 14.8282 1.95512L12.8585 2.1329C11.7842 2.22178 10.7098 2.75512 10.0831 3.7329L5.96484 9.42179L11.068 12.3551L12.1423 11.1996L13.7538 16.5329L6.94966 37.5996C6.7706 38.1329 7.21824 38.7551 7.84494 38.7551H9.72503C9.81456 39.2885 10.2622 39.644 10.7994 39.644H15.6339C16.1711 39.644 16.6187 39.2885 16.7082 38.7551H25.7506C25.8401 39.2885 26.2878 39.644 26.825 39.644H31.6595C32.1967 39.644 32.6443 39.2885 32.7338 38.7551H34.6139C35.2406 38.7551 35.5987 38.2218 35.5092 37.5996L28.6155 16.5329Z" fill="#FF6E53"/>
</mask>
<g mask="url(#mask0_1467_24021)">
<path d="M32.825 8.00043C33.3194 8.00043 33.7203 7.60247 33.7203 7.11155C33.7203 6.62063 33.3194 6.22266 32.825 6.22266C32.3305 6.22266 31.9297 6.62063 31.9297 7.11155C31.9297 7.60247 32.3305 8.00043 32.825 8.00043Z" fill="white"/>
<path d="M35.0633 39.1098C35.5577 39.1098 35.9585 38.7118 35.9585 38.2209C35.9585 37.73 35.5577 37.332 35.0633 37.332C34.5688 37.332 34.168 37.73 34.168 38.2209C34.168 38.7118 34.5688 39.1098 35.0633 39.1098Z" fill="white"/>
<path d="M32.825 34.6645C33.3194 34.6645 33.7203 34.2665 33.7203 33.7756C33.7203 33.2847 33.3194 32.8867 32.825 32.8867C32.3305 32.8867 31.9297 33.2847 31.9297 33.7756C31.9297 34.2665 32.3305 34.6645 32.825 34.6645Z" fill="white"/>
<path d="M35.0633 39.1098C35.5577 39.1098 35.9585 38.7118 35.9585 38.2209C35.9585 37.73 35.5577 37.332 35.0633 37.332C34.5688 37.332 34.168 37.73 34.168 38.2209C34.168 38.7118 34.5688 39.1098 35.0633 39.1098Z" fill="white"/>
<path d="M30.5867 3.55512C31.0811 3.55512 31.482 3.15715 31.482 2.66623C31.482 2.17531 31.0811 1.77734 30.5867 1.77734C30.0922 1.77734 29.6914 2.17531 29.6914 2.66623C29.6914 3.15715 30.0922 3.55512 30.5867 3.55512Z" fill="white"/>
<path d="M26.1101 3.55512C26.6046 3.55512 27.0054 3.15715 27.0054 2.66623C27.0054 2.17531 26.6046 1.77734 26.1101 1.77734C25.6157 1.77734 25.2148 2.17531 25.2148 2.66623C25.2148 3.15715 25.6157 3.55512 26.1101 3.55512Z" fill="white"/>
<path d="M30.5867 12.4457C31.0811 12.4457 31.482 12.0478 31.482 11.5569C31.482 11.0659 31.0811 10.668 30.5867 10.668C30.0922 10.668 29.6914 11.0659 29.6914 11.5569C29.6914 12.0478 30.0922 12.4457 30.5867 12.4457Z" fill="white"/>
<path d="M26.1101 12.4457C26.6046 12.4457 27.0054 12.0478 27.0054 11.5569C27.0054 11.0659 26.6046 10.668 26.1101 10.668C25.6157 10.668 25.2148 11.0659 25.2148 11.5569C25.2148 12.0478 25.6157 12.4457 26.1101 12.4457Z" fill="white"/>
<path d="M32.825 8.00043C33.3194 8.00043 33.7203 7.60247 33.7203 7.11155C33.7203 6.62063 33.3194 6.22266 32.825 6.22266C32.3305 6.22266 31.9297 6.62063 31.9297 7.11155C31.9297 7.60247 32.3305 8.00043 32.825 8.00043Z" fill="white"/>
<path d="M28.3484 8.00043C28.8429 8.00043 29.2437 7.60247 29.2437 7.11155C29.2437 6.62063 28.8429 6.22266 28.3484 6.22266C27.854 6.22266 27.4531 6.62063 27.4531 7.11155C27.4531 7.60247 27.854 8.00043 28.3484 8.00043Z" fill="white"/>
<path d="M23.8718 8.00043C24.3663 8.00043 24.7671 7.60247 24.7671 7.11155C24.7671 6.62063 24.3663 6.22266 23.8718 6.22266C23.3774 6.22266 22.9766 6.62063 22.9766 7.11155C22.9766 7.60247 23.3774 8.00043 23.8718 8.00043Z" fill="white"/>
<path d="M30.5867 3.55512C31.0811 3.55512 31.482 3.15715 31.482 2.66623C31.482 2.17531 31.0811 1.77734 30.5867 1.77734C30.0922 1.77734 29.6914 2.17531 29.6914 2.66623C29.6914 3.15715 30.0922 3.55512 30.5867 3.55512Z" fill="white"/>
<path d="M26.1101 3.55512C26.6046 3.55512 27.0054 3.15715 27.0054 2.66623C27.0054 2.17531 26.6046 1.77734 26.1101 1.77734C25.6157 1.77734 25.2148 2.17531 25.2148 2.66623C25.2148 3.15715 25.6157 3.55512 26.1101 3.55512Z" fill="white"/>
<path d="M30.5867 21.3364C31.0811 21.3364 31.482 20.9384 31.482 20.4475C31.482 19.9566 31.0811 19.5586 30.5867 19.5586C30.0922 19.5586 29.6914 19.9566 29.6914 20.4475C29.6914 20.9384 30.0922 21.3364 30.5867 21.3364Z" fill="white"/>
<path d="M26.1101 21.3364C26.6046 21.3364 27.0054 20.9384 27.0054 20.4475C27.0054 19.9566 26.6046 19.5586 26.1101 19.5586C25.6157 19.5586 25.2148 19.9566 25.2148 20.4475C25.2148 20.9384 25.6157 21.3364 26.1101 21.3364Z" fill="white"/>
<path d="M28.3484 16.8911C28.8429 16.8911 29.2437 16.4931 29.2437 16.0022C29.2437 15.5113 28.8429 15.1133 28.3484 15.1133C27.854 15.1133 27.4531 15.5113 27.4531 16.0022C27.4531 16.4931 27.854 16.8911 28.3484 16.8911Z" fill="white"/>
<path d="M23.8718 16.8911C24.3663 16.8911 24.7671 16.4931 24.7671 16.0022C24.7671 15.5113 24.3663 15.1133 23.8718 15.1133C23.3774 15.1133 22.9766 15.5113 22.9766 16.0022C22.9766 16.4931 23.3774 16.8911 23.8718 16.8911Z" fill="white"/>
<path d="M30.5867 12.4457C31.0811 12.4457 31.482 12.0478 31.482 11.5569C31.482 11.0659 31.0811 10.668 30.5867 10.668C30.0922 10.668 29.6914 11.0659 29.6914 11.5569C29.6914 12.0478 30.0922 12.4457 30.5867 12.4457Z" fill="white"/>
<path d="M26.1101 12.4457C26.6046 12.4457 27.0054 12.0478 27.0054 11.5569C27.0054 11.0659 26.6046 10.668 26.1101 10.668C25.6157 10.668 25.2148 11.0659 25.2148 11.5569C25.2148 12.0478 25.6157 12.4457 26.1101 12.4457Z" fill="white"/>
<path d="M30.5867 30.2231C31.0811 30.2231 31.482 29.8251 31.482 29.3342C31.482 28.8433 31.0811 28.4453 30.5867 28.4453C30.0922 28.4453 29.6914 28.8433 29.6914 29.3342C29.6914 29.8251 30.0922 30.2231 30.5867 30.2231Z" fill="white"/>
<path d="M26.1101 30.2231C26.6046 30.2231 27.0054 29.8251 27.0054 29.3342C27.0054 28.8433 26.6046 28.4453 26.1101 28.4453C25.6157 28.4453 25.2148 28.8433 25.2148 29.3342C25.2148 29.8251 25.6157 30.2231 26.1101 30.2231Z" fill="white"/>
<path d="M28.3484 25.7778C28.8429 25.7778 29.2437 25.3798 29.2437 24.8889C29.2437 24.398 28.8429 24 28.3484 24C27.854 24 27.4531 24.398 27.4531 24.8889C27.4531 25.3798 27.854 25.7778 28.3484 25.7778Z" fill="white"/>
<path d="M23.8718 25.7778C24.3663 25.7778 24.7671 25.3798 24.7671 24.8889C24.7671 24.398 24.3663 24 23.8718 24C23.3774 24 22.9766 24.398 22.9766 24.8889C22.9766 25.3798 23.3774 25.7778 23.8718 25.7778Z" fill="white"/>
<path d="M30.5867 21.3325C31.0811 21.3325 31.482 20.9345 31.482 20.4436C31.482 19.9527 31.0811 19.5547 30.5867 19.5547C30.0922 19.5547 29.6914 19.9527 29.6914 20.4436C29.6914 20.9345 30.0922 21.3325 30.5867 21.3325Z" fill="white"/>
<path d="M26.1101 21.3325C26.6046 21.3325 27.0054 20.9345 27.0054 20.4436C27.0054 19.9527 26.6046 19.5547 26.1101 19.5547C25.6157 19.5547 25.2148 19.9527 25.2148 20.4436C25.2148 20.9345 25.6157 21.3325 26.1101 21.3325Z" fill="white"/>
<path d="M30.5867 39.1137C31.0811 39.1137 31.482 38.7157 31.482 38.2248C31.482 37.7339 31.0811 37.3359 30.5867 37.3359C30.0922 37.3359 29.6914 37.7339 29.6914 38.2248C29.6914 38.7157 30.0922 39.1137 30.5867 39.1137Z" fill="white"/>
<path d="M26.1101 39.1137C26.6046 39.1137 27.0054 38.7157 27.0054 38.2248C27.0054 37.7339 26.6046 37.3359 26.1101 37.3359C25.6157 37.3359 25.2148 37.7339 25.2148 38.2248C25.2148 38.7157 25.6157 39.1137 26.1101 39.1137Z" fill="white"/>
<path d="M32.825 34.6684C33.3194 34.6684 33.7203 34.2704 33.7203 33.7795C33.7203 33.2886 33.3194 32.8906 32.825 32.8906C32.3305 32.8906 31.9297 33.2886 31.9297 33.7795C31.9297 34.2704 32.3305 34.6684 32.825 34.6684Z" fill="white"/>
<path d="M28.3484 34.6684C28.8429 34.6684 29.2437 34.2704 29.2437 33.7795C29.2437 33.2886 28.8429 32.8906 28.3484 32.8906C27.854 32.8906 27.4531 33.2886 27.4531 33.7795C27.4531 34.2704 27.854 34.6684 28.3484 34.6684Z" fill="white"/>
<path d="M23.8718 34.6684C24.3663 34.6684 24.7671 34.2704 24.7671 33.7795C24.7671 33.2886 24.3663 32.8906 23.8718 32.8906C23.3774 32.8906 22.9766 33.2886 22.9766 33.7795C22.9766 34.2704 23.3774 34.6684 23.8718 34.6684Z" fill="white"/>
<path d="M30.5867 30.2231C31.0811 30.2231 31.482 29.8251 31.482 29.3342C31.482 28.8433 31.0811 28.4453 30.5867 28.4453C30.0922 28.4453 29.6914 28.8433 29.6914 29.3342C29.6914 29.8251 30.0922 30.2231 30.5867 30.2231Z" fill="white"/>
<path d="M26.1101 30.2231C26.6046 30.2231 27.0054 29.8251 27.0054 29.3342C27.0054 28.8433 26.6046 28.4453 26.1101 28.4453C25.6157 28.4453 25.2148 28.8433 25.2148 29.3342C25.2148 29.8251 25.6157 30.2231 26.1101 30.2231Z" fill="white"/>
<path d="M30.5867 39.1098C31.0811 39.1098 31.482 38.7118 31.482 38.2209C31.482 37.73 31.0811 37.332 30.5867 37.332C30.0922 37.332 29.6914 37.73 29.6914 38.2209C29.6914 38.7118 30.0922 39.1098 30.5867 39.1098Z" fill="white"/>
<path d="M26.1101 39.1098C26.6046 39.1098 27.0054 38.7118 27.0054 38.2209C27.0054 37.73 26.6046 37.332 26.1101 37.332C25.6157 37.332 25.2148 37.73 25.2148 38.2209C25.2148 38.7118 25.6157 39.1098 26.1101 39.1098Z" fill="white"/>
<path d="M21.6336 12.4457C22.128 12.4457 22.5288 12.0478 22.5288 11.5569C22.5288 11.0659 22.128 10.668 21.6336 10.668C21.1391 10.668 20.7383 11.0659 20.7383 11.5569C20.7383 12.0478 21.1391 12.4457 21.6336 12.4457Z" fill="white"/>
<path d="M17.157 12.4457C17.6515 12.4457 18.0523 12.0478 18.0523 11.5569C18.0523 11.0659 17.6515 10.668 17.157 10.668C16.6626 10.668 16.2617 11.0659 16.2617 11.5569C16.2617 12.0478 16.6626 12.4457 17.157 12.4457Z" fill="white"/>
<path d="M23.8718 8.00043C24.3663 8.00043 24.7671 7.60247 24.7671 7.11155C24.7671 6.62063 24.3663 6.22266 23.8718 6.22266C23.3774 6.22266 22.9766 6.62063 22.9766 7.11155C22.9766 7.60247 23.3774 8.00043 23.8718 8.00043Z" fill="white"/>
<path d="M19.3953 8.00043C19.8897 8.00043 20.2906 7.60247 20.2906 7.11155C20.2906 6.62063 19.8897 6.22266 19.3953 6.22266C18.9008 6.22266 18.5 6.62063 18.5 7.11155C18.5 7.60247 18.9008 8.00043 19.3953 8.00043Z" fill="white"/>
<path d="M14.9187 8.00043C15.4132 8.00043 15.814 7.60247 15.814 7.11155C15.814 6.62063 15.4132 6.22266 14.9187 6.22266C14.4243 6.22266 14.0234 6.62063 14.0234 7.11155C14.0234 7.60247 14.4243 8.00043 14.9187 8.00043Z" fill="white"/>
<path d="M21.6336 21.3364C22.128 21.3364 22.5288 20.9384 22.5288 20.4475C22.5288 19.9566 22.128 19.5586 21.6336 19.5586C21.1391 19.5586 20.7383 19.9566 20.7383 20.4475C20.7383 20.9384 21.1391 21.3364 21.6336 21.3364Z" fill="white"/>
<path d="M17.157 21.3364C17.6515 21.3364 18.0523 20.9384 18.0523 20.4475C18.0523 19.9566 17.6515 19.5586 17.157 19.5586C16.6626 19.5586 16.2617 19.9566 16.2617 20.4475C16.2617 20.9384 16.6626 21.3364 17.157 21.3364Z" fill="white"/>
<path d="M23.8718 16.8911C24.3663 16.8911 24.7671 16.4931 24.7671 16.0022C24.7671 15.5113 24.3663 15.1133 23.8718 15.1133C23.3774 15.1133 22.9766 15.5113 22.9766 16.0022C22.9766 16.4931 23.3774 16.8911 23.8718 16.8911Z" fill="white"/>
<path d="M19.3953 16.8911C19.8897 16.8911 20.2906 16.4931 20.2906 16.0022C20.2906 15.5113 19.8897 15.1133 19.3953 15.1133C18.9008 15.1133 18.5 15.5113 18.5 16.0022C18.5 16.4931 18.9008 16.8911 19.3953 16.8911Z" fill="white"/>
<path d="M14.9187 16.8911C15.4132 16.8911 15.814 16.4931 15.814 16.0022C15.814 15.5113 15.4132 15.1133 14.9187 15.1133C14.4243 15.1133 14.0234 15.5113 14.0234 16.0022C14.0234 16.4931 14.4243 16.8911 14.9187 16.8911Z" fill="white"/>
<path d="M21.6336 12.4457C22.128 12.4457 22.5288 12.0478 22.5288 11.5569C22.5288 11.0659 22.128 10.668 21.6336 10.668C21.1391 10.668 20.7383 11.0659 20.7383 11.5569C20.7383 12.0478 21.1391 12.4457 21.6336 12.4457Z" fill="white"/>
<path d="M17.157 12.4457C17.6515 12.4457 18.0523 12.0478 18.0523 11.5569C18.0523 11.0659 17.6515 10.668 17.157 10.668C16.6626 10.668 16.2617 11.0659 16.2617 11.5569C16.2617 12.0478 16.6626 12.4457 17.157 12.4457Z" fill="white"/>
<path d="M21.6336 30.2231C22.128 30.2231 22.5288 29.8251 22.5288 29.3342C22.5288 28.8433 22.128 28.4453 21.6336 28.4453C21.1391 28.4453 20.7383 28.8433 20.7383 29.3342C20.7383 29.8251 21.1391 30.2231 21.6336 30.2231Z" fill="white"/>
<path d="M17.157 30.2231C17.6515 30.2231 18.0523 29.8251 18.0523 29.3342C18.0523 28.8433 17.6515 28.4453 17.157 28.4453C16.6626 28.4453 16.2617 28.8433 16.2617 29.3342C16.2617 29.8251 16.6626 30.2231 17.157 30.2231Z" fill="white"/>
<path d="M23.8718 25.7778C24.3663 25.7778 24.7671 25.3798 24.7671 24.8889C24.7671 24.398 24.3663 24 23.8718 24C23.3774 24 22.9766 24.398 22.9766 24.8889C22.9766 25.3798 23.3774 25.7778 23.8718 25.7778Z" fill="white"/>
<path d="M19.3953 25.7778C19.8897 25.7778 20.2906 25.3798 20.2906 24.8889C20.2906 24.398 19.8897 24 19.3953 24C18.9008 24 18.5 24.398 18.5 24.8889C18.5 25.3798 18.9008 25.7778 19.3953 25.7778Z" fill="white"/>
<path d="M14.9187 25.7778C15.4132 25.7778 15.814 25.3798 15.814 24.8889C15.814 24.398 15.4132 24 14.9187 24C14.4243 24 14.0234 24.398 14.0234 24.8889C14.0234 25.3798 14.4243 25.7778 14.9187 25.7778Z" fill="white"/>
<path d="M21.6336 21.3325C22.128 21.3325 22.5288 20.9345 22.5288 20.4436C22.5288 19.9527 22.128 19.5547 21.6336 19.5547C21.1391 19.5547 20.7383 19.9527 20.7383 20.4436C20.7383 20.9345 21.1391 21.3325 21.6336 21.3325Z" fill="white"/>
<path d="M17.157 21.3325C17.6515 21.3325 18.0523 20.9345 18.0523 20.4436C18.0523 19.9527 17.6515 19.5547 17.157 19.5547C16.6626 19.5547 16.2617 19.9527 16.2617 20.4436C16.2617 20.9345 16.6626 21.3325 17.157 21.3325Z" fill="white"/>
<path d="M21.6336 39.1137C22.128 39.1137 22.5288 38.7157 22.5288 38.2248C22.5288 37.7339 22.128 37.3359 21.6336 37.3359C21.1391 37.3359 20.7383 37.7339 20.7383 38.2248C20.7383 38.7157 21.1391 39.1137 21.6336 39.1137Z" fill="white"/>
<path d="M17.157 39.1137C17.6515 39.1137 18.0523 38.7157 18.0523 38.2248C18.0523 37.7339 17.6515 37.3359 17.157 37.3359C16.6626 37.3359 16.2617 37.7339 16.2617 38.2248C16.2617 38.7157 16.6626 39.1137 17.157 39.1137Z" fill="white"/>
<path d="M23.8718 34.6684C24.3663 34.6684 24.7671 34.2704 24.7671 33.7795C24.7671 33.2886 24.3663 32.8906 23.8718 32.8906C23.3774 32.8906 22.9766 33.2886 22.9766 33.7795C22.9766 34.2704 23.3774 34.6684 23.8718 34.6684Z" fill="white"/>
<path d="M19.3953 34.6684C19.8897 34.6684 20.2906 34.2704 20.2906 33.7795C20.2906 33.2886 19.8897 32.8906 19.3953 32.8906C18.9008 32.8906 18.5 33.2886 18.5 33.7795C18.5 34.2704 18.9008 34.6684 19.3953 34.6684Z" fill="white"/>
<path d="M14.9187 34.6684C15.4132 34.6684 15.814 34.2704 15.814 33.7795C15.814 33.2886 15.4132 32.8906 14.9187 32.8906C14.4243 32.8906 14.0234 33.2886 14.0234 33.7795C14.0234 34.2704 14.4243 34.6684 14.9187 34.6684Z" fill="white"/>
<path d="M21.6336 30.2231C22.128 30.2231 22.5288 29.8251 22.5288 29.3342C22.5288 28.8433 22.128 28.4453 21.6336 28.4453C21.1391 28.4453 20.7383 28.8433 20.7383 29.3342C20.7383 29.8251 21.1391 30.2231 21.6336 30.2231Z" fill="white"/>
<path d="M17.157 30.2231C17.6515 30.2231 18.0523 29.8251 18.0523 29.3342C18.0523 28.8433 17.6515 28.4453 17.157 28.4453C16.6626 28.4453 16.2617 28.8433 16.2617 29.3342C16.2617 29.8251 16.6626 30.2231 17.157 30.2231Z" fill="white"/>
<path d="M21.6336 39.1098C22.128 39.1098 22.5288 38.7118 22.5288 38.2209C22.5288 37.73 22.128 37.332 21.6336 37.332C21.1391 37.332 20.7383 37.73 20.7383 38.2209C20.7383 38.7118 21.1391 39.1098 21.6336 39.1098Z" fill="white"/>
<path d="M17.157 39.1098C17.6515 39.1098 18.0523 38.7118 18.0523 38.2209C18.0523 37.73 17.6515 37.332 17.157 37.332C16.6626 37.332 16.2617 37.73 16.2617 38.2209C16.2617 38.7118 16.6626 39.1098 17.157 39.1098Z" fill="white"/>
<path d="M12.6804 3.55512C13.1749 3.55512 13.5757 3.15715 13.5757 2.66623C13.5757 2.17531 13.1749 1.77734 12.6804 1.77734C12.186 1.77734 11.7852 2.17531 11.7852 2.66623C11.7852 3.15715 12.186 3.55512 12.6804 3.55512Z" fill="white"/>
<path d="M12.6804 12.4457C13.1749 12.4457 13.5757 12.0478 13.5757 11.5569C13.5757 11.0659 13.1749 10.668 12.6804 10.668C12.186 10.668 11.7852 11.0659 11.7852 11.5569C11.7852 12.0478 12.186 12.4457 12.6804 12.4457Z" fill="white"/>
<path d="M8.20388 12.4457C8.69833 12.4457 9.09916 12.0478 9.09916 11.5569C9.09916 11.0659 8.69833 10.668 8.20388 10.668C7.70943 10.668 7.30859 11.0659 7.30859 11.5569C7.30859 12.0478 7.70943 12.4457 8.20388 12.4457Z" fill="white"/>
<path d="M14.9187 8.00043C15.4132 8.00043 15.814 7.60247 15.814 7.11155C15.814 6.62063 15.4132 6.22266 14.9187 6.22266C14.4243 6.22266 14.0234 6.62063 14.0234 7.11155C14.0234 7.60247 14.4243 8.00043 14.9187 8.00043Z" fill="white"/>
<path d="M10.4422 8.00043C10.9366 8.00043 11.3374 7.60247 11.3374 7.11155C11.3374 6.62063 10.9366 6.22266 10.4422 6.22266C9.94771 6.22266 9.54688 6.62063 9.54688 7.11155C9.54688 7.60247 9.94771 8.00043 10.4422 8.00043Z" fill="white"/>
<path d="M12.6804 3.55512C13.1749 3.55512 13.5757 3.15715 13.5757 2.66623C13.5757 2.17531 13.1749 1.77734 12.6804 1.77734C12.186 1.77734 11.7852 2.17531 11.7852 2.66623C11.7852 3.15715 12.186 3.55512 12.6804 3.55512Z" fill="white"/>
<path d="M12.6804 21.3364C13.1749 21.3364 13.5757 20.9384 13.5757 20.4475C13.5757 19.9566 13.1749 19.5586 12.6804 19.5586C12.186 19.5586 11.7852 19.9566 11.7852 20.4475C11.7852 20.9384 12.186 21.3364 12.6804 21.3364Z" fill="white"/>
<path d="M14.9187 16.8911C15.4132 16.8911 15.814 16.4931 15.814 16.0022C15.814 15.5113 15.4132 15.1133 14.9187 15.1133C14.4243 15.1133 14.0234 15.5113 14.0234 16.0022C14.0234 16.4931 14.4243 16.8911 14.9187 16.8911Z" fill="white"/>
<path d="M12.6804 12.4457C13.1749 12.4457 13.5757 12.0478 13.5757 11.5569C13.5757 11.0659 13.1749 10.668 12.6804 10.668C12.186 10.668 11.7852 11.0659 11.7852 11.5569C11.7852 12.0478 12.186 12.4457 12.6804 12.4457Z" fill="white"/>
<path d="M8.20388 12.4457C8.69833 12.4457 9.09916 12.0478 9.09916 11.5569C9.09916 11.0659 8.69833 10.668 8.20388 10.668C7.70943 10.668 7.30859 11.0659 7.30859 11.5569C7.30859 12.0478 7.70943 12.4457 8.20388 12.4457Z" fill="white"/>
<path d="M12.6804 30.2231C13.1749 30.2231 13.5757 29.8251 13.5757 29.3342C13.5757 28.8433 13.1749 28.4453 12.6804 28.4453C12.186 28.4453 11.7852 28.8433 11.7852 29.3342C11.7852 29.8251 12.186 30.2231 12.6804 30.2231Z" fill="white"/>
<path d="M8.20388 30.2231C8.69833 30.2231 9.09916 29.8251 9.09916 29.3342C9.09916 28.8433 8.69833 28.4453 8.20388 28.4453C7.70943 28.4453 7.30859 28.8433 7.30859 29.3342C7.30859 29.8251 7.70943 30.2231 8.20388 30.2231Z" fill="white"/>
<path d="M14.9187 25.7778C15.4132 25.7778 15.814 25.3798 15.814 24.8889C15.814 24.398 15.4132 24 14.9187 24C14.4243 24 14.0234 24.398 14.0234 24.8889C14.0234 25.3798 14.4243 25.7778 14.9187 25.7778Z" fill="white"/>
<path d="M10.4422 25.7778C10.9366 25.7778 11.3374 25.3798 11.3374 24.8889C11.3374 24.398 10.9366 24 10.4422 24C9.94771 24 9.54688 24.398 9.54688 24.8889C9.54688 25.3798 9.94771 25.7778 10.4422 25.7778Z" fill="white"/>
<path d="M12.6804 21.3325C13.1749 21.3325 13.5757 20.9345 13.5757 20.4436C13.5757 19.9527 13.1749 19.5547 12.6804 19.5547C12.186 19.5547 11.7852 19.9527 11.7852 20.4436C11.7852 20.9345 12.186 21.3325 12.6804 21.3325Z" fill="white"/>
<path d="M12.6804 39.1137C13.1749 39.1137 13.5757 38.7157 13.5757 38.2248C13.5757 37.7339 13.1749 37.3359 12.6804 37.3359C12.186 37.3359 11.7852 37.7339 11.7852 38.2248C11.7852 38.7157 12.186 39.1137 12.6804 39.1137Z" fill="white"/>
<path d="M8.20388 39.1137C8.69833 39.1137 9.09916 38.7157 9.09916 38.2248C9.09916 37.7339 8.69833 37.3359 8.20388 37.3359C7.70943 37.3359 7.30859 37.7339 7.30859 38.2248C7.30859 38.7157 7.70943 39.1137 8.20388 39.1137Z" fill="white"/>
<path d="M14.9187 34.6684C15.4132 34.6684 15.814 34.2704 15.814 33.7795C15.814 33.2886 15.4132 32.8906 14.9187 32.8906C14.4243 32.8906 14.0234 33.2886 14.0234 33.7795C14.0234 34.2704 14.4243 34.6684 14.9187 34.6684Z" fill="white"/>
<path d="M10.4422 34.6684C10.9366 34.6684 11.3374 34.2704 11.3374 33.7795C11.3374 33.2886 10.9366 32.8906 10.4422 32.8906C9.94771 32.8906 9.54688 33.2886 9.54688 33.7795C9.54688 34.2704 9.94771 34.6684 10.4422 34.6684Z" fill="white"/>
<path d="M12.6804 30.2231C13.1749 30.2231 13.5757 29.8251 13.5757 29.3342C13.5757 28.8433 13.1749 28.4453 12.6804 28.4453C12.186 28.4453 11.7852 28.8433 11.7852 29.3342C11.7852 29.8251 12.186 30.2231 12.6804 30.2231Z" fill="white"/>
<path d="M12.6804 39.1098C13.1749 39.1098 13.5757 38.7118 13.5757 38.2209C13.5757 37.73 13.1749 37.332 12.6804 37.332C12.186 37.332 11.7852 37.73 11.7852 38.2209C11.7852 38.7118 12.186 39.1098 12.6804 39.1098Z" fill="white"/>
<path d="M8.20388 39.1098C8.69833 39.1098 9.09916 38.7118 9.09916 38.2209C9.09916 37.73 8.69833 37.332 8.20388 37.332C7.70943 37.332 7.30859 37.73 7.30859 38.2209C7.30859 38.7118 7.70943 39.1098 8.20388 39.1098Z" fill="white"/>
</g>
</g>
</g>
<defs>
<clipPath id="clip0_1467_24021">
<rect width="32.8889" height="40" fill="white" transform="translate(3.55469)"/>
</clipPath>
</defs>
</svg>
