<svg width="51" height="50" viewBox="0 0 51 50" fill="none" xmlns="http://www.w3.org/2000/svg">
<g clip-path="url(#clip0_1443_22155)">
<path d="M2.4919 49.2775C2.2805 49.2873 2.06986 49.2459 1.87788 49.1569C1.6859 49.0678 1.51827 48.9337 1.38924 48.766C1.26021 48.5983 1.17359 48.4019 1.13676 48.1936C1.09992 47.9852 1.11396 47.771 1.17768 47.5693L8.52417 24.0091C8.61092 23.7322 8.7869 23.4918 9.02463 23.3254C9.26237 23.159 9.5485 23.076 9.83839 23.0893C10.1019 23.0926 10.3583 23.175 10.5744 23.3258L20.155 29.8958C20.2878 29.9891 20.4034 30.1047 20.4967 30.2375L27.0678 39.8166C27.1857 39.9846 27.2625 40.178 27.2922 40.381C27.3218 40.5841 27.3035 40.7913 27.2387 40.9861C27.1714 41.1815 27.059 41.3583 26.9106 41.5022C26.7622 41.646 26.5819 41.7528 26.3844 41.8139L2.88617 49.2118C2.75886 49.2536 2.6259 49.2758 2.4919 49.2775Z" fill="#E6E6E6"/>
<path d="M9.85172 23.7457C9.98359 23.7465 10.112 23.7878 10.2197 23.8639L19.8004 30.4997C19.8654 30.5381 19.9197 30.5923 19.9581 30.6574L26.5949 40.2365C26.6558 40.3209 26.6949 40.4191 26.7086 40.5222C26.7224 40.6254 26.7104 40.7304 26.6737 40.8278C26.6428 40.9252 26.5882 41.0134 26.5148 41.0845C26.4414 41.1556 26.3515 41.2073 26.2532 41.2351L2.68922 48.6199H2.47894C2.37762 48.6184 2.27815 48.5926 2.18893 48.5445C2.09971 48.4965 2.02338 48.4277 1.96639 48.3439C1.89774 48.2663 1.84972 48.1727 1.82675 48.0716C1.80379 47.9706 1.80661 47.8654 1.83497 47.7658L9.1946 24.2056C9.23487 24.0704 9.3184 23.9522 9.43236 23.8692C9.54633 23.7861 9.68442 23.7427 9.82543 23.7457H9.85172ZM9.82543 22.4317C9.4039 22.4291 8.99265 22.5617 8.65204 22.8101C8.31143 23.0584 8.05941 23.4093 7.93295 23.8114L0.612748 47.3716C0.507406 47.6695 0.475237 47.9883 0.518954 48.3012C0.56267 48.6142 0.680991 48.912 0.863941 49.1696C1.04689 49.4273 1.28911 49.6372 1.57018 49.7816C1.85124 49.926 2.16292 50.0008 2.47894 49.9996C2.71 49.9876 2.93702 49.9342 3.14919 49.8419L26.7132 42.4966C27.0085 42.4038 27.2779 42.2427 27.4994 42.0264C27.7209 41.8102 27.8884 41.5448 27.9882 41.2517C28.0881 40.9587 28.1174 40.6463 28.074 40.3398C28.0306 40.0333 27.9156 39.7413 27.7382 39.4875L21.1671 29.9084C21.021 29.7228 20.8533 29.5552 20.6677 29.4091L11.0871 22.839C10.7612 22.6064 10.3704 22.4822 9.96999 22.4842L9.82543 22.4317Z" fill="#E6E6E6"/>
<path d="M2.4919 49.2775C2.2805 49.2873 2.06986 49.2459 1.87788 49.1569C1.6859 49.0678 1.51827 48.9337 1.38924 48.766C1.26021 48.5983 1.17359 48.4019 1.13676 48.1936C1.09992 47.9852 1.11396 47.771 1.17768 47.5693L8.52417 24.0091C8.61092 23.7322 8.7869 23.4918 9.02463 23.3254C9.26237 23.159 9.5485 23.076 9.83839 23.0893C10.1019 23.0926 10.3583 23.175 10.5744 23.3258L20.155 29.8958C20.2878 29.9891 20.4034 30.1047 20.4967 30.2375L27.0678 39.8166C27.1857 39.9846 27.2625 40.178 27.2922 40.381C27.3218 40.5841 27.3035 40.7913 27.2387 40.9861C27.1714 41.1815 27.059 41.3583 26.9106 41.5022C26.7622 41.646 26.5819 41.7528 26.3844 41.8139L2.88617 49.2118C2.75886 49.2536 2.6259 49.2758 2.4919 49.2775Z" fill="white"/>
<path d="M9.85172 23.7457C9.98359 23.7465 10.112 23.7878 10.2197 23.8639L19.8004 30.4997C19.8654 30.5381 19.9197 30.5923 19.9581 30.6574L26.5949 40.2365C26.6558 40.3209 26.6949 40.4191 26.7086 40.5222C26.7224 40.6254 26.7104 40.7304 26.6737 40.8278C26.6428 40.9252 26.5882 41.0134 26.5148 41.0845C26.4414 41.1556 26.3515 41.2073 26.2532 41.2351L2.68922 48.6199H2.47894C2.37762 48.6184 2.27815 48.5926 2.18893 48.5445C2.09971 48.4965 2.02338 48.4277 1.96639 48.3439C1.89774 48.2663 1.84972 48.1727 1.82675 48.0716C1.80379 47.9706 1.80661 47.8654 1.83497 47.7658L9.1946 24.2056C9.23487 24.0704 9.3184 23.9522 9.43236 23.8692C9.54633 23.7861 9.68442 23.7427 9.82543 23.7457H9.85172ZM9.82543 22.4317C9.4039 22.4291 8.99265 22.5617 8.65204 22.8101C8.31143 23.0584 8.05941 23.4093 7.93295 23.8114L0.612748 47.3716C0.507406 47.6695 0.475237 47.9883 0.518954 48.3012C0.56267 48.6142 0.680991 48.912 0.863941 49.1696C1.04689 49.4273 1.28911 49.6372 1.57018 49.7816C1.85124 49.926 2.16292 50.0008 2.47894 49.9996C2.71 49.9876 2.93702 49.9342 3.14919 49.8419L26.7132 42.4966C27.0085 42.4038 27.2779 42.2427 27.4994 42.0264C27.7209 41.8102 27.8884 41.5448 27.9882 41.2517C28.0881 40.9587 28.1174 40.6463 28.074 40.3398C28.0306 40.0333 27.9156 39.7413 27.7382 39.4875L21.1671 29.9084C21.021 29.7228 20.8533 29.5552 20.6677 29.4091L11.0871 22.839C10.7612 22.6064 10.3704 22.4822 9.96999 22.4842L9.82543 22.4317Z" fill="black"/>
<path d="M26.5941 40.237L24.4388 37.1228C20.0392 37.4816 15.6131 36.9223 11.4412 35.4803C10.0048 35.0439 8.6661 34.3345 7.49851 33.391C7.18084 33.1216 6.89431 32.8175 6.64427 32.4844L4.77808 38.4106C5.8766 39.786 7.25676 40.9106 8.82587 41.7087C11.4228 42.9822 14.2788 43.6388 17.1712 43.6272C17.6574 43.6272 18.1568 43.6272 18.6431 43.6272L26.2524 41.2488C26.3508 41.221 26.4407 41.1692 26.514 41.0981C26.5874 41.027 26.6421 40.9389 26.673 40.8415C26.712 40.7423 26.7252 40.6348 26.7114 40.5291C26.6976 40.4234 26.6573 40.3229 26.5941 40.237Z" fill="#FF6E53"/>
<path d="M7.73467 47.0171L7.27477 46.8595C5.84011 46.4194 4.5023 45.7104 3.33274 44.7702C3.1882 44.6519 3.04366 44.5074 2.91226 44.376L1.83477 47.7661C1.80289 47.8636 1.79581 47.9676 1.81416 48.0685C1.83251 48.1694 1.87573 48.2642 1.93989 48.3443C1.99687 48.4281 2.07319 48.4969 2.16239 48.5449C2.2516 48.5929 2.35106 48.6188 2.45236 48.6202H2.6626L7.73467 47.0171Z" fill="#FF6E53"/>
<path d="M25.596 41.4722C22.9675 41.4722 18.7358 39.015 15.0822 35.3621C12.8527 33.2287 11.0351 30.7031 9.7202 27.9117C8.80025 25.7567 8.70825 24.0616 9.48364 23.2863C9.92007 22.9112 10.4864 22.7224 11.0607 22.7607C13.6891 22.7607 17.9209 25.2179 21.5745 28.8577C23.7928 30.9949 25.6012 33.52 26.9102 36.3082C27.8433 38.4763 27.9222 40.1582 27.1468 40.9466C26.717 41.3153 26.1614 41.5036 25.596 41.4722Z" fill="white"/>
<path d="M11.0333 23.4175C13.0309 23.4175 17.013 25.2703 21.074 29.3306C26.1863 34.4289 27.7896 39.3433 26.6594 40.4734C26.3458 40.7285 25.945 40.8511 25.5423 40.815C23.5578 40.815 19.5626 38.9623 15.5017 34.902C10.4025 29.7905 8.78601 24.8892 9.92938 23.746C10.2428 23.5013 10.6371 23.384 11.0333 23.4175ZM11.0333 22.1035C10.6627 22.0815 10.2914 22.1341 9.94148 22.2583C9.59156 22.3824 9.27014 22.5755 8.99629 22.8262C6.9461 24.8761 9.44312 30.7103 14.5686 35.8349C18.5112 39.7769 22.8087 42.129 25.5423 42.129C25.913 42.151 26.2842 42.0984 26.6342 41.9743C26.9841 41.8501 27.3055 41.657 27.5794 41.4063C29.6427 39.3565 27.1457 33.5223 22.0071 28.3976C18.0644 24.4556 13.78 22.1035 11.0333 22.1035Z" fill="black"/>
<path d="M14.9766 23.9038C13.9254 23.1285 15.5022 21.578 15.9752 20.9867C16.3153 20.6404 16.5824 20.2293 16.7607 19.7779C16.9391 19.3265 17.0249 18.8439 17.0133 18.3587C16.9455 17.9383 16.7943 17.5358 16.5687 17.1747C16.343 16.8137 16.0474 16.5014 15.6993 16.2562C15.3476 16.0214 15.0732 15.6876 14.9109 15.297C14.8558 14.8336 14.9727 14.366 15.2394 13.983C16.0015 12.485 16.7505 11.0133 15.4496 9.5548C14.8978 8.92408 14.1356 8.51673 13.5706 7.91229C13.0056 7.30784 13.0844 6.32234 13.4786 5.44195C14.0181 4.57486 14.2582 3.55468 14.1619 2.53799C13.9936 2.01572 13.7235 1.53197 13.3672 1.11472C13.0108 0.697475 12.5753 0.354993 12.0858 0.107075C11.3631 -0.352828 10.7061 0.79036 11.4156 1.23712C12.388 1.85471 13.1633 2.55113 12.7296 3.86514C12.3342 4.69045 12.0089 5.54758 11.7573 6.42746C11.4551 8.38533 13.0713 9.17374 14.2802 10.3695C15.7387 11.828 13.6757 13.3523 13.5312 14.9422C13.5189 15.3524 13.6028 15.7598 13.7762 16.1317C13.9496 16.5037 14.2077 16.8298 14.5298 17.0841C15.3182 17.8199 16.1329 18.3981 15.5153 19.5281C14.8978 20.6582 13.8203 21.3152 13.5049 22.5503C13.3678 23.0115 13.3763 23.5037 13.5291 23.9599C13.682 24.4161 13.9718 24.814 14.359 25.0995C15.0423 25.612 15.673 24.4688 15.0292 23.9695L14.9766 23.9038Z" fill="#FF6E53"/>
<path d="M30.406 22.9053C34.8806 15.8581 41.4271 10.3684 49.1468 7.18975C49.9222 6.87438 49.5805 5.5998 48.7919 5.87574C40.7761 9.17313 33.9805 14.8751 29.3415 22.1957C28.8815 22.9053 30.0249 23.5097 30.4717 22.8527L30.406 22.9053Z" fill="#FF6E53"/>
<path d="M16.8958 31.2885C21.4053 26.0025 24.9025 19.9312 27.2125 13.3786C27.4884 12.577 26.2136 12.2354 25.8982 13.0369C23.6823 19.3727 20.3138 25.2443 15.9627 30.3556C15.4239 30.9994 16.3439 31.9324 16.8958 31.2885Z" fill="#FF6E53"/>
<path d="M29.2627 29.4092C30.1429 29.8444 31.1462 29.9632 32.1037 29.7454C33.0611 29.5276 33.9143 28.9866 34.5196 28.2135C34.835 27.8061 35.0715 27.3199 35.4264 26.8994C35.9784 26.3081 36.412 26.4658 37.056 26.7549C37.4252 26.9899 37.8537 27.1148 38.2914 27.1148C38.729 27.1148 39.1576 26.9899 39.5267 26.7549C40.3678 26.1636 40.4336 24.9941 41.1958 24.3897C41.7346 23.9429 42.1815 24.4948 42.7072 24.7051C43.0712 24.864 43.4769 24.9009 43.8637 24.8102C44.7836 24.5605 45.1779 23.6933 45.8876 23.102C46.1379 22.8816 46.4355 22.7215 46.7573 22.6341C47.0792 22.5466 47.4169 22.5342 47.7443 22.5976C48.0718 22.6611 48.3804 22.7988 48.6463 23.0001C48.9122 23.2014 49.1284 23.461 49.2783 23.759C49.6857 24.4948 50.829 23.8378 50.4085 23.0888C50.1562 22.6202 49.8003 22.2154 49.3678 21.9052C48.9354 21.595 48.4378 21.3876 47.913 21.2989C47.3882 21.2102 46.85 21.2425 46.3396 21.3933C45.8292 21.544 45.3599 21.8094 44.9676 22.169C44.6128 22.4975 44.3368 22.9049 43.9819 23.2334C43.6271 23.5619 43.1671 23.4567 42.6677 23.2334C42.2637 22.9881 41.7837 22.8995 41.3187 22.9842C40.8537 23.069 40.4359 23.3212 40.1444 23.6933C39.5662 24.3371 39.1982 26.1767 38.0811 25.7957C36.964 25.4146 36.4252 24.9153 35.4527 25.3621C34.4801 25.8088 34.0464 27.0571 33.1791 27.8061C32.7536 28.1741 32.2312 28.412 31.6743 28.4912C31.1173 28.5704 30.5493 28.4877 30.0381 28.2529C29.2758 27.8981 28.6056 29.0281 29.3678 29.3961L29.2627 29.4092Z" fill="#FF6E53"/>
<path d="M23.8745 37.2546C30.0443 37.1142 36.0343 39.3378 40.6176 43.4698C41.2353 44.0348 42.1684 43.115 41.5376 42.5369C36.708 38.1671 30.3862 35.8156 23.8745 35.9668C23.0334 35.9668 23.0334 37.2808 23.8745 37.2808V37.2546Z" fill="#FF6E53"/>
<path d="M20.8777 13.2471C20.6178 13.2471 20.3638 13.3241 20.1477 13.4685C19.9316 13.6129 19.7632 13.8181 19.6637 14.0582C19.5643 14.2983 19.5383 14.5625 19.589 14.8174C19.6397 15.0723 19.7648 15.3065 19.9486 15.4902C20.1324 15.674 20.3665 15.7991 20.6214 15.8498C20.8763 15.9005 21.1405 15.8745 21.3806 15.7751C21.6207 15.6756 21.8259 15.5072 21.9703 15.2911C22.1147 15.075 22.1917 14.821 22.1917 14.5611C22.1917 14.2126 22.0533 13.8784 21.8069 13.6319C21.5605 13.3855 21.2262 13.2471 20.8777 13.2471Z" fill="#FF6E53"/>
<path d="M46.5181 15.2314C46.2582 15.2314 46.0042 15.3085 45.7881 15.4529C45.572 15.5973 45.4036 15.8025 45.3041 16.0426C45.2047 16.2827 45.1786 16.5469 45.2293 16.8018C45.2801 17.0567 45.4052 17.2908 45.589 17.4746C45.7727 17.6584 46.0069 17.7835 46.2618 17.8342C46.5167 17.8849 46.7809 17.8589 47.021 17.7594C47.2611 17.66 47.4663 17.4916 47.6107 17.2755C47.7551 17.0594 47.8321 16.8053 47.8321 16.5455C47.8321 16.197 47.6937 15.8627 47.4473 15.6163C47.2008 15.3699 46.8666 15.2314 46.5181 15.2314Z" fill="#FF6E53"/>
<path d="M35.9126 45.5459C35.6528 45.5459 35.3987 45.623 35.1826 45.7673C34.9665 45.9117 34.7981 46.117 34.6987 46.3571C34.5992 46.5972 34.5732 46.8614 34.6239 47.1163C34.6746 47.3712 34.7997 47.6053 34.9835 47.7891C35.1673 47.9728 35.4014 48.098 35.6563 48.1487C35.9112 48.1994 36.1754 48.1733 36.4155 48.0739C36.6556 47.9744 36.8608 47.806 37.0052 47.5899C37.1496 47.3738 37.2267 47.1198 37.2267 46.8599C37.2267 46.5114 37.0882 46.1772 36.8418 45.9308C36.5954 45.6843 36.2611 45.5459 35.9126 45.5459Z" fill="#FF6E53"/>
<path d="M37.9622 6.84746L37.8308 3.60186C37.8239 3.4855 37.7863 3.37306 37.7216 3.27608C37.6569 3.17909 37.5676 3.10106 37.4629 3.04997C37.363 2.98548 37.2467 2.95117 37.1278 2.95117C37.0089 2.95117 36.8926 2.98548 36.7927 3.04997L34.1647 4.94214C34.0734 5.00087 33.9996 5.08311 33.951 5.18022C33.9025 5.27734 33.881 5.38574 33.8888 5.49403L34.0202 8.73963C34.0274 8.85759 34.0651 8.97165 34.1296 9.07068C34.1941 9.16972 34.2831 9.25033 34.3881 9.30465C34.4793 9.34494 34.5775 9.36725 34.6772 9.37035C34.8157 9.37254 34.9505 9.32603 35.0582 9.23895L37.6863 7.35992C37.7671 7.30009 37.8338 7.22313 37.8815 7.13454C37.9292 7.04595 37.9568 6.94792 37.9622 6.84746Z" fill="#FF6E53"/>
<path d="M14.0696 5.54661L10.8371 5.83569C10.7274 5.84795 10.6222 5.88663 10.5307 5.94842C10.4391 6.01021 10.3639 6.09326 10.3115 6.19048L8.78726 9.05501C8.7297 9.15731 8.69946 9.27271 8.69946 9.39009C8.69946 9.50746 8.7297 9.62286 8.78726 9.72516C8.84607 9.81422 8.92609 9.88726 9.02013 9.93773C9.11417 9.98819 9.21928 10.0145 9.326 10.0142L12.5585 9.71202C12.6663 9.70489 12.7704 9.66959 12.8603 9.60964C12.9503 9.54969 13.0229 9.46719 13.0709 9.37038L14.7003 6.57154C14.7618 6.4706 14.7944 6.35467 14.7944 6.23647C14.7944 6.11826 14.7618 6.00233 14.7003 5.90139C14.6389 5.78914 14.5473 5.69637 14.4358 5.63365C14.3243 5.57093 14.1974 5.54077 14.0696 5.54661Z" fill="#FF6E53"/>
<path d="M44.2833 34.1664L41.6553 32.3268C41.5663 32.2646 41.463 32.226 41.355 32.2146C41.247 32.2031 41.1379 32.2191 41.0377 32.2611L38.0287 33.47C37.9191 33.5157 37.8237 33.5896 37.7522 33.6843C37.6806 33.7789 37.6354 33.8909 37.6213 34.0087C37.6053 34.1285 37.624 34.2505 37.6752 34.3599C37.7265 34.4694 37.8081 34.5619 37.9104 34.6263L40.5384 36.4659C40.6453 36.5437 40.7742 36.5851 40.9063 36.5842C40.9891 36.5968 41.0733 36.5968 41.156 36.5842L44.1651 35.3621C44.282 35.3181 44.3843 35.2422 44.4604 35.143C44.5365 35.0439 44.5834 34.9254 44.5957 34.801C44.608 34.6766 44.5852 34.5513 44.53 34.4391C44.4749 34.327 44.3894 34.2325 44.2833 34.1664Z" fill="#FF6E53"/>
</g>
<defs>
<clipPath id="clip0_1443_22155">
<rect width="50" height="50" fill="white" transform="translate(0.5)"/>
</clipPath>
</defs>
</svg>
