<svg width="21" height="18" viewBox="0 0 21 18" fill="none" xmlns="http://www.w3.org/2000/svg">
<g clip-path="url(#clip0_1352_18984)">
<path d="M1.8755 13.2136H8.73259H18.0568C18.7313 13.2136 19.1593 12.8103 19.1593 12.1127V9.52926V5.375H0.759766V6.32166V12.1127C0.759766 12.8265 1.15194 13.2136 1.8755 13.2136Z" fill="#CCCCCC"/>
<path d="M19.1725 3.67807H0.773521C0.773521 3.29527 0.737369 2.07598 0.782283 1.70398C0.841438 1.21807 1.26593 0.900597 1.78628 0.900057C3.47842 0.897898 5.17037 0.897898 6.86214 0.900057H18.042C18.7847 0.900057 19.1719 1.27799 19.1725 2.00687C19.173 2.27737 19.1725 3.38705 19.1725 3.67807Z" fill="#CCCCCC"/>
<path d="M14.6788 17.3071C17.7597 17.3071 20.2721 14.843 20.2721 11.7852C20.2721 8.72742 17.7597 6.26328 14.6788 6.26328C11.5979 6.26328 9.08555 8.72742 9.08555 11.7852C9.08555 14.843 11.5979 17.3071 14.6788 17.3071Z" fill="#969696" stroke="white" stroke-width="1.2"/>
<path d="M11.0273 13.4043V12.9258H11.7607V10.7978H11.1565V10.4313C11.3183 10.4007 11.4595 10.3651 11.58 10.3244C11.7005 10.2803 11.8124 10.2276 11.9157 10.1666H12.3598V12.9258H13.0054V13.4043H11.0273Z" fill="white"/>
<path d="M13.4893 13.4043V13.0632C13.7957 12.7714 14.0591 12.5117 14.2795 12.2843C14.5033 12.0536 14.6754 11.8448 14.7959 11.6582C14.9164 11.4681 14.9767 11.2916 14.9767 11.1287C14.9767 10.959 14.9302 10.8233 14.8373 10.7215C14.7443 10.6196 14.61 10.5687 14.4344 10.5687C14.307 10.5687 14.19 10.6044 14.0832 10.6756C13.9799 10.7469 13.8835 10.8318 13.794 10.9302L13.4635 10.6044C13.615 10.4449 13.7716 10.3227 13.9334 10.2378C14.0953 10.1496 14.2881 10.1055 14.5119 10.1055C14.8286 10.1055 15.08 10.1954 15.2659 10.3753C15.4553 10.5552 15.55 10.7961 15.55 11.0982C15.55 11.2882 15.4949 11.4834 15.3847 11.6836C15.278 11.8805 15.1334 12.0824 14.9509 12.2894C14.7718 12.4965 14.5739 12.7137 14.3569 12.9411C14.443 12.9343 14.536 12.9275 14.6358 12.9207C14.7357 12.9105 14.8252 12.9054 14.9044 12.9054H15.7101V13.4043H13.4893Z" fill="white"/>
<path d="M17.1804 13.4654C16.9153 13.4654 16.6915 13.4213 16.509 13.3331C16.33 13.2414 16.1819 13.1328 16.0649 13.0072L16.3489 12.6305C16.4488 12.7289 16.5624 12.8138 16.6898 12.8851C16.8172 12.9529 16.9635 12.9869 17.1288 12.9869C17.3078 12.9869 17.4524 12.9445 17.5626 12.8596C17.6762 12.7714 17.733 12.6509 17.733 12.4982C17.733 12.3862 17.7038 12.2894 17.6452 12.208C17.5901 12.1231 17.492 12.0587 17.3509 12.0145C17.2131 11.9704 17.0186 11.9484 16.7673 11.9484V11.5207C17.0909 11.5207 17.3147 11.4715 17.4387 11.3731C17.5626 11.2747 17.6246 11.1508 17.6246 11.0015C17.6246 10.8657 17.5815 10.7605 17.4955 10.6858C17.4094 10.6078 17.2906 10.5687 17.1391 10.5687C17.0117 10.5687 16.8946 10.5976 16.7879 10.6553C16.6812 10.7096 16.5779 10.7825 16.478 10.8742L16.1733 10.5127C16.3145 10.3906 16.4643 10.2921 16.6226 10.2175C16.7845 10.1428 16.9635 10.1055 17.1598 10.1055C17.4765 10.1055 17.733 10.1801 17.9293 10.3295C18.1255 10.4754 18.2237 10.6858 18.2237 10.9607C18.2237 11.1406 18.172 11.2933 18.0687 11.4189C17.9689 11.5411 17.8294 11.6361 17.6504 11.704V11.7244C17.8432 11.7753 18.005 11.8686 18.1359 12.0044C18.2667 12.1401 18.3321 12.3149 18.3321 12.5287C18.3321 12.7256 18.2788 12.8936 18.172 13.0327C18.0687 13.1718 17.9293 13.2788 17.7537 13.3534C17.5815 13.4281 17.3904 13.4654 17.1804 13.4654Z" fill="white"/>
</g>
<defs>
<clipPath id="clip0_1352_18984">
<rect width="21" height="18" fill="white"/>
</clipPath>
</defs>
</svg>
