<svg width="21" height="21" viewBox="0 0 21 21" fill="none" xmlns="http://www.w3.org/2000/svg">
<path d="M14.778 10.177L16.948 12.347C17.238 12.637 17.238 13.117 16.948 13.407C16.798 13.557 16.608 13.627 16.418 13.627C16.228 13.627 16.038 13.557 15.888 13.407L13.768 11.287L12.978 12.157C12.268 12.937 11.258 13.387 10.208 13.387C9.15801 13.387 8.13801 12.927 7.43801 12.147L6.64801 11.287L4.52801 13.407C4.37801 13.557 4.18801 13.627 3.99801 13.627C3.80801 13.627 3.61801 13.557 3.46801 13.407C3.17801 13.117 3.17801 12.637 3.46801 12.347L5.63801 10.177L1.20801 5.297V15.087C1.20801 16.187 2.10801 17.087 3.20801 17.087H17.208C18.308 17.087 19.208 16.187 19.208 15.087V5.297L14.778 10.177Z" fill="#F26B55"/>
<path d="M8.53808 11.137C9.40808 12.087 11.0081 12.087 11.8781 11.137L18.6481 3.69698C18.2781 3.31698 17.7681 3.08698 17.2081 3.08698H3.20808C2.64808 3.08698 2.13808 3.31698 1.77808 3.69698L8.53808 11.137Z" fill="#F26B55"/>
</svg>
