<svg width="13" height="14" viewBox="0 0 13 14" fill="none" xmlns="http://www.w3.org/2000/svg">
<g clip-path="url(#clip0_1875_54180)">
<path d="M7.098 13.5L0 6.402L0.736667 1.23667L5.902 0.5L13 7.598L7.098 13.5ZM0.849333 6.12467L7.098 12.3733L11.8647 7.60667L5.62467 1.34933L1.44733 1.94733L0.849333 6.12467Z" fill="#969696"/>
<path d="M3.59604 4.97247C3.11937 4.97247 2.7207 4.58247 2.7207 4.09714C2.7207 3.6118 3.11937 3.23047 3.59604 3.23047C4.0727 3.23047 4.47137 3.62047 4.47137 4.09714C4.47137 4.5738 4.08137 4.97247 3.59604 4.97247ZM3.59604 4.0278C3.5527 4.0278 3.5267 4.06247 3.5267 4.09714C3.5267 4.17514 3.66537 4.17514 3.66537 4.09714C3.66537 4.06247 3.63937 4.0278 3.59604 4.0278Z" fill="#969696"/>
</g>
<defs>
<clipPath id="clip0_1875_54180">
<rect width="13" height="13" fill="white" transform="translate(0 0.5)"/>
</clipPath>
</defs>
</svg>
