<svg width="18" height="16" viewBox="0 0 18 16" fill="none" xmlns="http://www.w3.org/2000/svg">
<path d="M8.07169 1.03571C8.48427 0.321429 9.51573 0.321428 9.92831 1.03571L17.3548 13.8929C17.7674 14.6071 17.2516 15.5 16.4265 15.5H1.57352C0.748355 15.5 0.232627 14.6071 0.645209 13.8929L8.07169 1.03571Z" fill="#DE6956"/>
<path d="M8.93106 11.1139C8.73885 11.1139 8.57855 10.9669 8.56187 10.7754L8.07466 5.18009C8.04922 4.88794 8.27951 4.63672 8.57277 4.63672H9.41371C9.71136 4.63672 9.94309 4.89516 9.91075 5.19105L9.29945 10.7835C9.2789 10.9715 9.12014 11.1139 8.93106 11.1139ZM8.66881 13.7196C8.39267 13.7196 8.16881 13.4957 8.16881 13.2196V12.5767C8.16881 12.3006 8.39267 12.0767 8.66881 12.0767H9.29321C9.56935 12.0767 9.79321 12.3006 9.79321 12.5767V13.2196C9.79321 13.4957 9.56935 13.7196 9.29321 13.7196H8.66881Z" fill="white"/>
</svg>
