<svg width="44" height="18" viewBox="0 0 44 18" fill="none" xmlns="http://www.w3.org/2000/svg">
<path d="M20.5487 13.7802H18.9472V1.40301H23.1927C24.2686 1.40301 25.1861 1.75925 25.9367 2.47172C26.7041 3.1842 27.0878 4.05408 27.0878 5.08137C27.0878 6.13352 26.7041 7.0034 25.9367 7.70759C25.1944 8.41178 24.2769 8.75974 23.1927 8.75974H20.5487V13.7802ZM20.5487 2.92737V7.24365H23.226C23.8599 7.24365 24.3937 7.02825 24.8107 6.60574C25.2361 6.18322 25.453 5.66958 25.453 5.08965C25.453 4.51802 25.2361 4.01266 24.8107 3.59014C24.3937 3.15106 23.8682 2.93566 23.226 2.93566H20.5487V2.92737Z" fill="white"/>
<path d="M31.2748 5.03164C32.4592 5.03164 33.3933 5.34646 34.0773 5.97609C34.7612 6.60572 35.1032 7.46732 35.1032 8.56088V13.7802H33.5768V12.6038H33.5101C32.8512 13.5731 31.9671 14.0536 30.8661 14.0536C29.9236 14.0536 29.1396 13.7802 28.5057 13.2251C27.8718 12.67 27.5549 11.9824 27.5549 11.154C27.5549 10.2758 27.8885 9.57989 28.5557 9.06624C29.223 8.54431 30.1155 8.28749 31.2248 8.28749C32.1756 8.28749 32.9596 8.46147 33.5685 8.80942V8.4449C33.5685 7.88983 33.3516 7.42589 32.9096 7.03651C32.4675 6.64714 31.9504 6.45659 31.3582 6.45659C30.4658 6.45659 29.7568 6.8294 29.2397 7.5833L27.8301 6.70513C28.6058 5.58671 29.7568 5.03164 31.2748 5.03164ZM29.2063 11.1788C29.2063 11.593 29.3815 11.941 29.7401 12.2144C30.0904 12.4878 30.5075 12.6286 30.9829 12.6286C31.6585 12.6286 32.259 12.3801 32.7845 11.883C33.3099 11.3859 33.5768 10.806 33.5768 10.135C33.0764 9.74558 32.3841 9.54675 31.4917 9.54675C30.8411 9.54675 30.2989 9.70416 29.8652 10.0107C29.4232 10.3338 29.2063 10.7232 29.2063 11.1788Z" fill="white"/>
<path d="M43.8109 5.30506L38.4729 17.5H36.8214L38.8065 13.2334L35.2867 5.30506H37.0299L39.5655 11.386H39.5988L42.0677 5.30506H43.8109Z" fill="white"/>
<path d="M14.179 7.75728C14.179 7.23866 14.1322 6.74241 14.0455 6.26522H7.33292V8.99914L11.1988 8.99997C11.042 9.90962 10.5374 10.6851 9.76423 11.202V12.9757H12.0654C13.4091 11.7405 14.179 9.91459 14.179 7.75728Z" fill="#4285F4"/>
<path d="M9.76504 11.202C9.12448 11.6312 8.29958 11.8822 7.33457 11.8822C5.47042 11.8822 3.88903 10.6345 3.32269 8.95277H0.948933V10.782C2.12497 13.1 4.5421 14.6907 7.33457 14.6907C9.2646 14.6907 10.886 14.0602 12.0662 12.9749L9.76504 11.202Z" fill="#34A853"/>
<path d="M3.09915 7.59577C3.09915 7.12354 3.17839 6.66706 3.32268 6.23792V4.40868H0.948923C0.46266 5.36721 0.189087 6.44918 0.189087 7.59577C0.189087 8.74236 0.463494 9.82433 0.948923 10.7829L3.32268 8.95361C3.17839 8.52447 3.09915 8.06799 3.09915 7.59577Z" fill="#FABB05"/>
<path d="M7.33457 3.30848C8.38799 3.30848 9.33133 3.66886 10.0762 4.37305L12.1154 2.34912C10.8769 1.20336 9.2621 0.5 7.33457 0.5C4.54294 0.5 2.12496 2.09065 0.948923 4.40868L3.32268 6.23792C3.88901 4.55615 5.47042 3.30848 7.33457 3.30848Z" fill="#E94235"/>
</svg>
