<svg width="20" height="20" viewBox="0 0 20 20" fill="none" xmlns="http://www.w3.org/2000/svg">
<g clip-path="url(#clip0_639_19313)">
<path d="M15.6 10.1286C15.6 9.74293 15.5714 9.35007 15.5 8.96436H10.1071V11.1644H13.1928C13.0643 11.8715 12.65 12.5001 12.05 12.9001V14.3286H13.8928C14.9785 13.3429 15.6 11.8715 15.6 10.1286Z" fill="#2085FC"/>
<path d="M10.1143 15.7142C11.6571 15.7142 12.9571 15.2071 13.9 14.3356L12.0571 12.9071C11.5429 13.2571 10.8857 13.4499 10.1143 13.4499C8.62143 13.4499 7.35714 12.4428 6.90714 11.0928H5.00714V12.5642C5.97857 14.4999 7.95 15.7142 10.1143 15.7142Z" fill="#00AC47"/>
<path d="M6.90715 11.0927C6.66429 10.3855 6.66429 9.61412 6.90715 8.90698V7.43555H5.00715C4.20001 9.04983 4.20001 10.9498 5.00715 12.5641L6.90715 11.0927Z" fill="#FFBA00"/>
<path d="M10.1143 6.54991C10.9286 6.53562 11.7143 6.84276 12.3071 7.40705L13.9357 5.77848C12.9 4.80705 11.5286 4.27848 10.1143 4.29276C7.95714 4.29276 5.97857 5.50705 5.00714 7.44276L6.90714 8.91419C7.35714 7.54991 8.62143 6.54991 10.1143 6.54991Z" fill="#FF2B25"/>
</g>
<defs>
<clipPath id="clip0_639_19313">
<rect width="20" height="20" fill="white"/>
</clipPath>
</defs>
</svg>
