<svg width="50" height="43" viewBox="0 0 50 43" fill="none" xmlns="http://www.w3.org/2000/svg">
<path d="M25 0C11.1952 0 0 9.62786 0 21.5028C0.0351865 26.3431 1.87075 30.9957 5.14309 34.5629C5.19587 34.6098 5.24279 34.6627 5.28384 34.7213C6.15764 35.5896 6.6913 36.7396 6.79686 37.9658C6.76167 40.4007 4.02299 42.9646 4.02299 42.9646C4.02299 42.9646 9.3772 40.7468 11.1893 40.078C11.2538 40.0545 11.3183 40.0428 11.3828 40.031C11.8285 39.9137 12.3035 39.9841 12.7023 40.2246C12.7082 40.2305 12.7141 40.2305 12.7199 40.2305C16.5494 42.0728 20.7483 43.0174 25 42.9998C38.8107 42.9998 50 33.3719 50 21.4969C50 9.622 38.8107 0 25 0Z" fill="#F24D3D"/>
<path d="M11.3652 22.1071C13.3885 22.688 15.4586 23.0752 17.5581 23.263C22.49 23.5856 27.4396 23.4742 32.3481 22.9344C34.4945 22.7173 36.5998 22.2362 38.6289 21.5028C38.4881 23.2806 38.019 25.0231 37.2508 26.6307C36.0661 28.9482 33.0167 32.5271 30.1196 33.2957C26.5365 34.0877 22.8243 34.029 19.2646 33.1314C16.2151 32.1926 13.7696 28.1737 12.9604 26.7949C12.0631 25.3868 11.5118 23.7793 11.3652 22.1071Z" fill="white"/>
<path d="M11.5705 17.0732C13.8752 17.3431 16.1975 17.4369 18.5198 17.3607C21.5224 17.1788 29.6857 16.6977 34.4124 14.8965C36.3946 14.2511 38.3064 13.4063 40.1126 12.3678C40.007 14.6911 39.5027 16.9793 38.6289 19.1325C37.3798 21.4089 37.2039 21.3033 37.2039 21.3033C33.263 22.1365 29.2576 22.6176 25.2346 22.7349C21.4403 22.7232 17.6519 22.4885 13.8869 22.0367C13.1187 21.0393 12.4736 19.9539 11.9575 18.804C11.764 18.2407 11.635 17.6657 11.5705 17.0732Z" fill="white"/>
<path d="M10.685 9.57506C12.632 10.414 14.6786 10.9949 16.7722 11.2941C21.8391 12.1976 26.9822 12.5555 32.1253 12.3619C34.5414 12.268 36.9458 11.9571 39.315 11.4408V11.9923C39.315 11.9923 36.7933 13.9167 30.4305 15.1429C25.4985 16.0347 20.502 16.4923 15.4879 16.5158H12.9369C11.9693 14.8906 11.2773 13.1129 10.8902 11.2589C10.7671 10.7074 10.6967 10.1383 10.685 9.57506Z" fill="white"/>
<path d="M31.9669 11.6637C34.3068 11.5933 36.6409 11.3704 38.9514 10.989C37.198 9.9388 31.2984 8.959 24.2552 8.64218C19.8452 8.34882 15.4117 8.52483 11.0368 9.16434C12.8489 9.80386 14.7197 10.2674 16.6256 10.549C21.6983 11.3997 26.8356 11.7752 31.9669 11.6637Z" fill="#FFE2CA"/>
<path d="M35.5208 22.3829C35.2979 23.2747 34.9812 24.143 34.5707 24.9644C33.392 27.2819 30.3366 30.8608 27.4455 31.6352C23.8623 32.4273 20.1501 32.3686 16.5904 31.4651L16.5435 31.4475C17.3176 32.1985 18.25 32.7676 19.2646 33.1196C22.8184 34.0173 26.5365 34.0759 30.1138 33.2839C33.0108 32.5153 36.0603 28.9364 37.239 26.6189C38.0073 25.0054 38.4764 23.2688 38.623 21.4911C37.6202 21.8842 36.5822 22.1775 35.5208 22.3829Z" fill="#FFE2CA"/>
<path d="M37.6613 13.5881C37.4267 15.7883 36.8051 17.9297 35.8316 19.9128C35.4387 20.5875 34.9812 21.2212 34.4769 21.8137C36.1307 21.5263 37.2097 21.2974 37.2097 21.2974C37.2097 21.2974 37.3856 21.4089 38.6348 19.1266C39.5086 16.9734 40.0129 14.6853 40.1185 12.3619C39.3385 12.8489 38.5116 13.2537 37.6613 13.5881Z" fill="#FFE2CA"/>
<path d="M37.2507 11.8339C37.2273 12.2622 37.1862 12.7198 37.1276 13.1657C37.8958 12.8547 38.6289 12.4616 39.315 11.9923V11.4408C38.6348 11.6109 37.9427 11.74 37.2507 11.8339Z" fill="#FFE2CA"/>
<path d="M30.0492 33.9762V35.267C28.4131 35.6483 26.7358 35.8302 25.0586 35.8067C23.3404 35.8243 21.6221 35.6425 19.9449 35.2728V33.9821C20.0797 34.0173 20.2205 34.0466 20.3612 34.076C23.5632 34.692 26.859 34.6627 30.0492 33.9762Z" fill="#FFE2CA"/>
</svg>
