<?xml version="1.0" encoding="UTF-8"?><svg id="cz" xmlns="http://www.w3.org/2000/svg" viewBox="0 0 60 60"><g><rect x="7" y="12.5" width="46" height="15" fill="#fff" stroke="#fff" stroke-linecap="round" stroke-linejoin="round"/><path d="m9.69,28.62h2v4.29c0,.39-.32.71-.71.71h-.59c-.39,0-.71-.32-.71-.71v-4.29h0Z" transform="translate(14.15 -1.6) rotate(25)" fill="#fff" stroke="#fff" stroke-linecap="round" stroke-linejoin="round"/><path d="m49.02,28.62h.59c.39,0,.71.32.71.71v4.29h-2v-4.29c0-.39.32-.71.71-.71Z" transform="translate(107.15 38.48) rotate(155)" fill="#fff" stroke="#fff" stroke-linecap="round" stroke-linejoin="round"/><rect x="7" y="17.5" width="46" height="12" fill="#fff" stroke="#fff" stroke-linecap="round" stroke-linejoin="round"/><rect x="30.5" y="9" width="19.5" height="18.02" fill="#fff" stroke="#fff" stroke-linecap="round" stroke-linejoin="round"/><rect x="11" y="9" width="19.5" height="18.02" fill="#fff" stroke="#fff" stroke-linecap="round" stroke-linejoin="round"/><rect x="11" y="20" width="19.5" height="7.02" fill="#fff" stroke="#fff" stroke-linecap="round" stroke-linejoin="round"/><rect x="30.5" y="20" width="19.5" height="7.02" fill="#fff" stroke="#fff" stroke-linecap="round" stroke-linejoin="round"/></g><ellipse cx="30" cy="37.82" rx="24" ry="8" fill="#ff6e53"/><polygon points="51 18.5 51 12 12 12 12 20 50.91 20 50.91 23 12 23 12 23 11.91 23 11.91 18.5 8 18.5 8 30.5 54 30.5 54 18.5 51 18.5" fill="#ff6e53"/><g><ellipse cx="29.5" cy="52.02" rx="8" ry="2" fill="#ff6e53" stroke="#000" stroke-linecap="round" stroke-linejoin="round"/><path d="m29.79,51.98h-.59c-.39,0-.71-.32-.71-.71v-7.29h2v7.29c0,.39-.32.71-.71.71Z" fill="#fff" stroke="#000" stroke-linecap="round" stroke-linejoin="round"/><path d="m15.5,38.98v1.67c0,1.69,6.27,3.06,14,3.06s14-1.37,14-3.06v-1.67H15.5Z" fill="#ff6e53" stroke="#000" stroke-linecap="round" stroke-linejoin="round"/><ellipse cx="29.5" cy="38.98" rx="14" ry="3" fill="#fff" stroke="#000" stroke-linecap="round" stroke-linejoin="round"/><polygon points="27.08 30.5 27.08 26.5 26.08 26.5 26.08 30.5 25.08 30.5 25.08 38.5 28.08 38.5 28.08 30.5 27.08 30.5" fill="#fff" stroke="#000" stroke-linecap="round" stroke-linejoin="round"/><polygon points="37.26 37.5 34.26 37.5 33.26 31.5 38.26 31.5 37.26 37.5" fill="#fff" stroke="#000" stroke-linecap="round" stroke-linejoin="round"/><polygon points="34.26 40.5 31.26 40.5 30.26 34.5 35.26 34.5 34.26 40.5" fill="#fff" stroke="#000" stroke-linecap="round" stroke-linejoin="round"/></g><g><polygon points="50 12.5 50 27.02 30.5 27.02 11 27.02 11 12.5 7 12.5 7 29.5 53 29.5 53 12.5 50 12.5" fill="none" stroke="#000" stroke-linecap="round" stroke-linejoin="round"/><path d="m49.66,29.5h-2.21l1.71,3.66c.17.35.59.51.94.34l.53-.25c.35-.17.51-.59.34-.94l-1.31-2.82Z" fill="#fff" stroke="#000" stroke-linecap="round" stroke-linejoin="round"/><path d="m10.34,29.5l-1.31,2.82c-.17.35-.01.77.34.94l.53.25c.35.17.77.01.94-.34l1.71-3.66h-2.21Z" fill="#fff" stroke="#000" stroke-linecap="round" stroke-linejoin="round"/><rect x="30.5" y="9" width="19.5" height="18.02" fill="none" stroke="#000" stroke-linecap="round" stroke-linejoin="round"/><rect x="11" y="9" width="19.5" height="18.02" fill="none" stroke="#000" stroke-linecap="round" stroke-linejoin="round"/><rect x="11" y="20" width="19.5" height="7.02" fill="none" stroke="#000" stroke-linecap="round" stroke-linejoin="round"/><rect x="30.5" y="20" width="19.5" height="7.02" fill="none" stroke="#000" stroke-linecap="round" stroke-linejoin="round"/><polygon points="50 17.5 50 27.02 30.5 27.02 11 27.02 11 17.5 7 17.5 7 29.5 53 29.5 53 17.5 50 17.5" fill="none" stroke="#000" stroke-linecap="round" stroke-linejoin="round"/></g></svg>