<svg width="55" height="40" viewBox="0 0 55 40" fill="none" xmlns="http://www.w3.org/2000/svg">
<g clip-path="url(#clip0_15_862)">
<path d="M51 40H4C1.79 40 0 38.21 0 36V4C0 1.79 1.79 0 4 0H51C53.21 0 55 1.79 55 4V36C55 38.21 53.21 40 51 40Z" fill="#3B485F"/>
<path d="M31.17 12.92H23.29V27.07H31.17V12.92Z" fill="#FF5F00"/>
<path d="M23.79 20C23.79 17.13 25.13 14.57 27.23 12.92C25.7 11.72 23.77 11 21.67 11C16.7 11 12.67 15.03 12.67 20C12.67 24.97 16.7 29 21.67 29C23.77 29 25.7 28.28 27.23 27.08C25.14 25.43 23.79 22.87 23.79 20Z" fill="#EB001B"/>
<path d="M41.79 20C41.79 24.97 37.76 29 32.79 29C30.69 29 28.76 28.28 27.23 27.08C29.32 25.43 30.67 22.88 30.67 20C30.67 17.12 29.33 14.57 27.23 12.92C28.76 11.71 30.69 11 32.79 11C37.76 11 41.79 15.03 41.79 20ZM41.13 25.96V25.36H41.37V25.24H40.75V25.36H41V25.96H41.13ZM42.33 25.96V25.23H42.14L41.92 25.73L41.7 25.23H41.51V25.96H41.64V25.41L41.84 25.88H41.98L42.18 25.41V25.96H42.33Z" fill="#F79E1B"/>
</g>
<defs>
<clipPath id="clip0_15_862">
<rect width="55" height="40" fill="white"/>
</clipPath>
</defs>
</svg>
