<svg width="64" height="43" viewBox="0 0 64 43" fill="none" xmlns="http://www.w3.org/2000/svg">
<rect width="64" height="43" rx="4" fill="#E3DFD7"/>
<path d="M35.17 14.92H27.29V29.07H35.17V14.92Z" fill="#FF5F00"/>
<path d="M27.7899 22C27.7899 19.13 29.1299 16.57 31.2299 14.92C29.6999 13.72 27.7699 13 25.6699 13C20.6999 13 16.6699 17.03 16.6699 22C16.6699 26.97 20.6999 31 25.6699 31C27.7699 31 29.6999 30.28 31.2299 29.08C29.1399 27.43 27.7899 24.87 27.7899 22Z" fill="#EB001B"/>
<path d="M45.79 22C45.79 26.97 41.76 31 36.79 31C34.69 31 32.76 30.28 31.23 29.08C33.32 27.43 34.67 24.88 34.67 22C34.67 19.12 33.33 16.57 31.23 14.92C32.76 13.71 34.69 13 36.79 13C41.76 13 45.79 17.03 45.79 22ZM45.13 27.96V27.36H45.37V27.24H44.75V27.36H45V27.96H45.13ZM46.33 27.96V27.23H46.14L45.92 27.73L45.7 27.23H45.51V27.96H45.64V27.41L45.84 27.88H45.98L46.18 27.41V27.96H46.33Z" fill="#F79E1B"/>
</svg>
