<svg width="21" height="21" viewBox="0 0 21 21" fill="none" xmlns="http://www.w3.org/2000/svg">
<g clip-path="url(#clip0_937_8824)">
<path d="M18.5413 20.087H1.87467C0.958008 20.087 0.208008 19.337 0.208008 18.4203V15.9203C0.208008 13.6203 2.07467 11.7536 4.37467 11.7536H16.0413C18.3413 11.7536 20.208 13.6203 20.208 15.9203V18.4203C20.208 19.337 19.458 20.087 18.5413 20.087Z" fill="#F26B55"/>
<path d="M10.208 10.087C12.9694 10.087 15.208 7.8484 15.208 5.08698C15.208 2.32555 12.9694 0.0869751 10.208 0.0869751C7.44658 0.0869751 5.20801 2.32555 5.20801 5.08698C5.20801 7.8484 7.44658 10.087 10.208 10.087Z" fill="#F26B55"/>
</g>
<defs>
<clipPath id="clip0_937_8824">
<rect width="20" height="20" fill="white" transform="translate(0.208008 0.0869751)"/>
</clipPath>
</defs>
</svg>
