<svg width="25" height="25" viewBox="0 0 25 25" fill="none" xmlns="http://www.w3.org/2000/svg">
<path d="M17.54 13.095C18.6446 13.095 19.54 12.1996 19.54 11.095C19.54 9.99043 18.6446 9.095 17.54 9.095C16.4355 9.095 15.54 9.99043 15.54 11.095C15.54 12.1996 16.4355 13.095 17.54 13.095Z" fill="white" stroke="black" stroke-linecap="round" stroke-linejoin="round"/>
<path d="M17.735 17.235L10.96 14.095V8.095L17.735 4.96C17.8111 4.92164 17.8958 4.90338 17.981 4.90695C18.0661 4.91051 18.1489 4.93579 18.2216 4.98038C18.2942 5.02496 18.3543 5.08738 18.396 5.1617C18.4377 5.23601 18.4598 5.31976 18.46 5.405V16.785C18.4606 16.8707 18.4392 16.955 18.3978 17.03C18.3564 17.105 18.2965 17.1681 18.2237 17.2133C18.1509 17.2585 18.0678 17.2842 17.9822 17.288C17.8966 17.2918 17.8115 17.2735 17.735 17.235Z" fill="white" stroke="black" stroke-linecap="round" stroke-linejoin="round"/>
<path d="M5.96002 12.095C6.51231 12.095 6.96002 11.6473 6.96002 11.095C6.96002 10.5427 6.51231 10.095 5.96002 10.095C5.40774 10.095 4.96002 10.5427 4.96002 11.095C4.96002 11.6473 5.40774 12.095 5.96002 12.095Z" fill="white" stroke="black" stroke-linecap="round" stroke-linejoin="round"/>
<path d="M9.95001 16.18C10.5023 16.18 10.95 15.7323 10.95 15.18C10.95 14.6277 10.5023 14.18 9.95001 14.18C9.39773 14.18 8.95001 14.6277 8.95001 15.18C8.95001 15.7323 9.39773 16.18 9.95001 16.18Z" fill="white" stroke="black" stroke-linecap="round" stroke-linejoin="round"/>
<path d="M7.96002 8.095H10.96V14.095H7.96002C7.42959 14.095 6.92088 13.8843 6.54581 13.5092C6.17074 13.1341 5.96002 12.6254 5.96002 12.095V10.095C5.96002 9.56457 6.17074 9.05586 6.54581 8.68079C6.92088 8.30571 7.42959 8.095 7.96002 8.095Z" fill="white" stroke="black" stroke-linecap="round" stroke-linejoin="round"/>
<path d="M7.78 19.095H7.305C7.14919 19.0952 6.99548 19.059 6.85614 18.9893C6.71679 18.9196 6.59566 18.8183 6.50241 18.6935C6.40915 18.5687 6.34636 18.4238 6.31903 18.2704C6.2917 18.117 6.30059 17.9593 6.345 17.81L7.46 14.095H10.46L8.71 18.465C8.6359 18.6511 8.50763 18.8106 8.34182 18.9229C8.176 19.0352 7.98028 19.0952 7.78 19.095Z" fill="white" stroke="black" stroke-linecap="round" stroke-linejoin="round"/>
<g style="mix-blend-mode:multiply">
<path d="M20.04 12.095C20.0404 11.5669 19.8319 11.06 19.46 10.685V6.405C19.4598 6.31976 19.4377 6.23601 19.396 6.1617C19.3543 6.08738 19.2942 6.02496 19.2216 5.98038C19.1489 5.93579 19.0661 5.91051 18.9809 5.90695C18.8958 5.90338 18.8111 5.92164 18.735 5.96L11.96 9.095H8.96002C8.42959 9.095 7.92088 9.30571 7.54581 9.68078C7.17074 10.0559 6.96002 10.5646 6.96002 11.095V13.095C6.96002 13.6254 7.17074 14.1341 7.54581 14.5092C7.92088 14.8843 8.42959 15.095 8.96002 15.095H8.46002L7.34502 18.81C7.30062 18.9593 7.29172 19.117 7.31905 19.2704C7.34638 19.4238 7.40918 19.5687 7.50243 19.6935C7.59568 19.8183 7.71681 19.9196 7.85616 19.9893C7.9955 20.059 8.14921 20.0952 8.30502 20.095H8.78002C8.9803 20.0952 9.17602 20.0352 9.34184 19.9229C9.50765 19.8106 9.63592 19.6511 9.71002 19.465L11.46 15.095H11.96L18.735 18.235C18.8115 18.2735 18.8966 18.2918 18.9822 18.288C19.0678 18.2842 19.1509 18.2585 19.2237 18.2133C19.2965 18.1681 19.3564 18.105 19.3978 18.03C19.4392 17.955 19.4606 17.8707 19.46 17.785V13.5C19.8307 13.1262 20.0391 12.6214 20.04 12.095Z" fill="#FF6E53"/>
</g>
</svg>
