<svg width="12" height="14" viewBox="0 0 12 14" fill="none" xmlns="http://www.w3.org/2000/svg">
<g clip-path="url(#clip0_1642_49364)">
<path d="M3.63428 14.0001C3.71681 13.4926 3.80072 12.9854 3.88154 12.4779C4.08444 11.2017 4.28619 9.92524 4.4868 8.64856C4.50021 8.56157 4.54492 8.55301 4.61748 8.55233C5.12026 8.54822 5.62373 8.55233 6.12651 8.53246C7.18228 8.49034 8.18991 8.2585 9.1064 7.71262C9.82859 7.28284 10.3895 6.69415 10.8063 5.9678C11.133 5.39864 11.3493 4.78701 11.4913 4.14798L11.5326 4.13086C11.6282 4.31202 11.7389 4.48702 11.8167 4.67571C12.0086 5.14248 12.0271 5.63459 11.9745 6.12739C11.8989 6.83456 11.7162 7.51263 11.3713 8.14069C10.9053 8.98827 10.2 9.54477 9.28316 9.84545C8.66793 10.0468 8.03274 10.1064 7.39172 10.1129C7.29577 10.1129 7.19948 10.1112 7.10353 10.1129C6.8064 10.1204 6.59834 10.2869 6.54882 10.5797C6.42433 11.3156 6.30809 12.0522 6.1891 12.7896C6.15643 12.9916 6.11413 13.1926 6.0935 13.396C6.06323 13.6916 5.92533 13.8977 5.64058 13.9995L3.63428 14.0001Z" fill="#039DDD"/>
<path d="M3.08201 12.4441H0.44294C0.111078 12.4441 -0.0409237 12.2787 0.00962928 11.9537C0.166791 10.9414 0.330486 9.93042 0.491087 8.91881L1.10804 5.04904C1.31277 3.76277 1.51831 2.47672 1.72465 1.19091C1.75721 0.984066 1.79022 0.777337 1.82369 0.570721C1.87975 0.217304 2.12391 0.00155606 2.4826 0.0012136C3.97007 -0.000156225 5.45732 0.000414119 6.94434 0.00292547C7.5496 0.00463776 8.15004 0.0608007 8.73673 0.220043C9.49572 0.425518 10.134 0.797769 10.5391 1.50015C10.775 1.91003 10.8905 2.37769 10.8723 2.84977C10.8459 3.81619 10.6099 4.73329 10.1361 5.57882C9.68417 6.38633 9.0232 6.96783 8.16861 7.32946C7.34532 7.67808 6.47801 7.77808 5.59316 7.77671C5.21785 7.77671 4.84254 7.77671 4.46724 7.77671C4.0298 7.77671 3.80902 7.96232 3.73955 8.39313C3.52885 9.70086 3.31953 11.0089 3.11159 12.3174C3.10368 12.3567 3.09267 12.3958 3.08201 12.4441Z" fill="#023390"/>
</g>
<defs>
<clipPath id="clip0_1642_49364">
<rect width="12" height="14" fill="white"/>
</clipPath>
</defs>
</svg>
