<svg width="50" height="50" viewBox="0 0 50 50" fill="none" xmlns="http://www.w3.org/2000/svg">
<g style="mix-blend-mode:darken">
<path d="M24.7474 50C34.235 50 41.9263 49.0953 41.9263 47.9794C41.9263 46.8634 34.235 45.9588 24.7474 45.9588C15.2597 45.9588 7.56842 46.8634 7.56842 47.9794C7.56842 49.0953 15.2597 50 24.7474 50Z" fill="#FF6E53"/>
</g>
<g style="mix-blend-mode:darken">
<path d="M49 46.9691H1.50525V50H49V46.9691Z" fill="#FF6E53"/>
</g>
<path d="M25.2526 4.03093H23.2316V48.4845H25.2526V4.03093Z" fill="white" stroke="black" stroke-miterlimit="10"/>
<path d="M7.06317 28.2784V30.299C7.06317 31.4103 14.7533 32.3196 24.2421 32.3196C33.731 32.3196 41.4211 31.4103 41.4211 30.299V28.2784H7.06317Z" fill="white" stroke="black" stroke-miterlimit="10" stroke-linejoin="round"/>
<g style="mix-blend-mode:darken">
<path d="M7.06317 29.2887V31.3093C7.06317 32.4206 14.7533 33.3299 24.2421 33.3299C33.731 33.3299 41.4211 32.4206 41.4211 31.3093V29.2887H7.06317Z" fill="#FF6E53"/>
</g>
<path d="M24.2421 30.299C33.7298 30.299 41.4211 29.3943 41.4211 28.2784C41.4211 27.1624 33.7298 26.2577 24.2421 26.2577C14.7544 26.2577 7.06317 27.1624 7.06317 28.2784C7.06317 29.3943 14.7544 30.299 24.2421 30.299Z" fill="white" stroke="black" stroke-miterlimit="10"/>
<path d="M25.2526 4.03093H23.2316V28.2784H25.2526V4.03093Z" fill="white" stroke="black" stroke-miterlimit="10" stroke-linejoin="round"/>
<path d="M3.02105 23.2268H1V48.4845H3.02105V23.2268Z" fill="white" stroke="black" stroke-miterlimit="10"/>
<path d="M14.1368 37.3711H12.1158V48.4845H14.1368V37.3711Z" fill="white" stroke="black" stroke-miterlimit="10"/>
<path d="M13.1263 40.4021H3.02106V36.3608H13.1263C14.2379 36.3608 15.1474 37.2701 15.1474 38.3814C15.1474 39.4928 14.2379 40.4021 13.1263 40.4021Z" fill="white" stroke="black" stroke-miterlimit="10"/>
<path d="M13.1263 38.3814H3.02106V34.3402H13.1263C14.2379 34.3402 15.1474 35.2495 15.1474 36.3608C15.1474 37.4722 14.2379 38.3814 13.1263 38.3814Z" fill="white" stroke="black" stroke-miterlimit="10"/>
<g style="mix-blend-mode:darken">
<path d="M13.1263 38.7148H3.02106V41.4124H13.1263C14.2379 41.4124 15.1474 40.2101 15.1474 38.7148C15.1474 38.2198 15.0362 37.7652 14.8644 37.3711C14.5208 38.1693 13.8741 38.7148 13.1263 38.7148Z" fill="#FF6E53"/>
</g>
<path d="M1 27.268H3.02105" stroke="black" stroke-miterlimit="10"/>
<path d="M45.4632 48.4845L47.4842 48.4845L47.4842 23.2268L45.4632 23.2268L45.4632 48.4845Z" fill="white" stroke="black" stroke-miterlimit="10"/>
<path d="M34.3474 48.4845L36.3684 48.4845L36.3684 37.3711L34.3474 37.3711L34.3474 48.4845Z" fill="white" stroke="black" stroke-miterlimit="10"/>
<path d="M35.3579 40.4021H45.4632V36.3608H35.3579C34.2463 36.3608 33.3369 37.2701 33.3369 38.3814C33.3369 39.4928 34.2463 40.4021 35.3579 40.4021Z" fill="white" stroke="black" stroke-miterlimit="10"/>
<path d="M35.3579 38.3814H45.4632V34.3402H35.3579C34.2463 34.3402 33.3369 35.2495 33.3369 36.3608C33.3369 37.4722 34.2463 38.3814 35.3579 38.3814Z" fill="white" stroke="black" stroke-miterlimit="10"/>
<path d="M47.4842 27.268H45.4632" stroke="black" stroke-miterlimit="10"/>
<g style="mix-blend-mode:darken">
<path d="M35.3579 38.7148H45.4632V41.4124H35.3579C34.2463 41.4124 33.3369 40.2101 33.3369 38.7148C33.3369 38.2198 33.448 37.7652 33.6198 37.3711C33.9634 38.1693 34.6101 38.7148 35.3579 38.7148Z" fill="#FF6E53"/>
</g>
<g style="mix-blend-mode:darken">
<path d="M24.7474 13.6289H23.7368V18.6804H24.7474V13.6289Z" fill="#FF6E53"/>
</g>
<g style="mix-blend-mode:darken">
<path d="M24.7474 31.8144H23.7368V36.866H24.7474V31.8144Z" fill="#FF6E53"/>
</g>
<path d="M10.408 15.1443C10.408 15.1443 7.08337 12.8812 4.87032 12.8812C2.65726 12.8812 1 12.8812 1 12.8812L24.2421 1L10.408 15.1443Z" fill="white" stroke="black" stroke-miterlimit="10" stroke-linejoin="round"/>
<path d="M24.2421 1L38.0762 15.1443C38.0762 15.1443 27.0109 14.0633 24.2421 14.0633C21.4733 14.0633 10.408 15.1443 10.408 15.1443L24.2421 1Z" fill="white" stroke="black" stroke-miterlimit="10" stroke-linejoin="round"/>
<path d="M38.0762 15.1443C38.0762 15.1443 41.4008 12.8812 43.6139 12.8812C45.8269 12.8812 47.4842 12.8812 47.4842 12.8812L24.2421 1L38.0762 15.1443Z" fill="white" stroke="black" stroke-miterlimit="10" stroke-linejoin="round"/>
<g style="mix-blend-mode:darken">
<path d="M10.408 15.1443C10.408 15.1443 7.08337 12.8812 4.87032 12.8812C2.65726 12.8812 1 12.8812 1 12.8812L24.2421 1L10.408 15.1443Z" fill="#FF6E53"/>
</g>
<g style="mix-blend-mode:darken">
<path d="M24.2421 1L38.0762 15.1443C38.0762 15.1443 27.0109 14.0633 24.2421 14.0633C21.4733 14.0633 10.408 15.1443 10.408 15.1443L24.2421 1Z" fill="#FF6E53"/>
</g>
<g style="mix-blend-mode:darken">
<path d="M38.0762 15.1443C38.0762 15.1443 41.4008 12.8812 43.6139 12.8812C45.8269 12.8812 47.4842 12.8812 47.4842 12.8812L24.2421 1L38.0762 15.1443Z" fill="#FF6E53"/>
</g>
</svg>
