<svg width="25" height="25" viewBox="0 0 25 25" fill="none" xmlns="http://www.w3.org/2000/svg">
<g style="mix-blend-mode:darken">
<path d="M13.2864 22.5C18.499 22.5 22.7246 18.3213 22.7246 13.1667C22.7246 8.012 18.499 3.83333 13.2864 3.83333C8.07383 3.83333 3.84821 8.012 3.84821 13.1667C3.84821 18.3213 8.07383 22.5 13.2864 22.5Z" fill="#FF6E53"/>
</g>
<path d="M12.3875 21.8333C17.7242 21.8333 22.0505 17.5552 22.0505 12.2778C22.0505 7.0004 17.7242 2.72223 12.3875 2.72223C7.05085 2.72223 2.72461 7.0004 2.72461 12.2778C2.72461 17.5552 7.05085 21.8333 12.3875 21.8333Z" fill="white"/>
<path d="M12.3876 3.15094C17.6011 3.15094 21.5156 7.12222 21.5156 12.2778C21.5156 17.4333 17.6011 21.3837 12.3876 21.3837C7.17416 21.3837 3.18359 17.4333 3.18359 12.2778C3.18359 7.12222 7.17416 3.15094 12.3876 3.15094ZM12.3876 2.5C6.94944 2.5 2.5 6.9 2.5 12.2778C2.5 17.6556 6.94944 22.0556 12.3876 22.0556C17.8258 22.0556 22.2753 17.6556 22.2753 12.2778C22.2753 6.9 17.8258 2.5 12.3876 2.5Z" fill="black"/>
<path d="M12.3876 20.2778C16.8555 20.2778 20.4774 16.696 20.4774 12.2778C20.4774 7.85949 16.8555 4.27777 12.3876 4.27777C7.91963 4.27777 4.29767 7.85949 4.29767 12.2778C4.29767 16.696 7.91963 20.2778 12.3876 20.2778Z" fill="white" stroke="black" stroke-linecap="round" stroke-linejoin="round"/>
<path d="M13.0617 4.27777H11.7134V6.49999H13.0617V4.27777Z" fill="white" stroke="black" stroke-width="0.7" stroke-linecap="round" stroke-linejoin="round"/>
<path d="M13.0617 18.0555H11.7134V20.2778H13.0617V18.0555Z" fill="white" stroke="black" stroke-width="0.7" stroke-linecap="round" stroke-linejoin="round"/>
<path d="M17.7991 18.2489L18.4347 17.6203L17.1635 16.3633L16.5279 16.9918L17.7991 18.2489Z" fill="white" stroke="black" stroke-width="0.7" stroke-linecap="round" stroke-linejoin="round"/>
<path d="M7.6119 8.19225L8.2475 7.56372L6.97631 6.30665L6.34071 6.93519L7.6119 8.19225Z" fill="white" stroke="black" stroke-width="0.7" stroke-linecap="round" stroke-linejoin="round"/>
<path d="M18.417 6.93505L17.7814 6.30652L16.5102 7.56359L17.1458 8.19212L18.417 6.93505Z" fill="white" stroke="black" stroke-width="0.7" stroke-linecap="round" stroke-linejoin="round"/>
<path d="M8.26493 16.9917L7.62933 16.3631L6.35814 17.6202L6.99374 18.2487L8.26493 16.9917Z" fill="white" stroke="black" stroke-width="0.7" stroke-linecap="round" stroke-linejoin="round"/>
<path d="M20.4774 12.9444V11.6111H18.2302V12.9444H20.4774Z" fill="white" stroke="black" stroke-width="0.7" stroke-linecap="round" stroke-linejoin="round"/>
<path d="M6.54486 12.9444V11.6111H4.29767V12.9444H6.54486Z" fill="white" stroke="black" stroke-width="0.7" stroke-linecap="round" stroke-linejoin="round"/>
<path d="M12.9268 13.0333L13.3313 12.6333L12.9268 12.2333V8.10001H12.028V12.0111L9.87067 14.1889L10.8145 15.1667L12.5673 13.4333H12.9268V13.0333Z" fill="white" stroke="black" stroke-width="0.7" stroke-linecap="round" stroke-linejoin="round"/>
<g style="mix-blend-mode:darken">
<path d="M13.3763 13.4778L13.7808 13.0778L13.3763 12.6778V8.54445H12.4774V12.4556L10.3201 14.6333L11.2639 15.6111L13.0168 13.8778H13.3763V13.4778Z" fill="#FF6E53"/>
</g>
<g style="mix-blend-mode:darken">
<path d="M7.53359 7.78888C10.5448 4.81111 15.3089 4.67777 18.4549 7.34444C18.3201 7.16666 18.1853 6.98888 18.0055 6.85555C14.8594 3.74444 9.73584 3.74444 6.54483 6.85555C3.35382 9.96666 3.39876 15.0333 6.54483 18.1889C6.72461 18.3667 6.85944 18.5 7.03921 18.6333C4.38753 15.4778 4.52236 10.7667 7.53359 7.78888Z" fill="#FF6E53"/>
<path d="M13.5111 4.72221H12.1628V6.94444H13.5111V4.72221Z" fill="#FF6E53"/>
<path d="M13.5111 18.5H12.1628V20.7222H13.5111V18.5Z" fill="#FF6E53"/>
<path d="M18.2485 18.6933L18.8841 18.0648L17.6129 16.8077L16.9773 17.4363L18.2485 18.6933Z" fill="#FF6E53"/>
<path d="M8.0613 8.63671L8.6969 8.00818L7.42571 6.75111L6.79011 7.37965L8.0613 8.63671Z" fill="#FF6E53"/>
<path d="M18.8664 7.37951L18.2308 6.75098L16.9596 8.00804L17.5952 8.63658L18.8664 7.37951Z" fill="#FF6E53"/>
<path d="M8.71433 17.4361L8.07874 16.8076L6.80754 18.0647L7.44314 18.6932L8.71433 17.4361Z" fill="#FF6E53"/>
<path d="M20.9269 13.3889V12.0556H18.6797V13.3889H20.9269Z" fill="#FF6E53"/>
<path d="M6.99426 13.3889V12.0556H4.74707V13.3889H6.99426Z" fill="#FF6E53"/>
</g>
</svg>
