<svg width="25" height="25" viewBox="0 0 25 25" fill="none" xmlns="http://www.w3.org/2000/svg">
<g clip-path="url(#clip0_903_21625)">
<path d="M5.83358 6.66832L20.7999 5.35894C20.9911 5.34221 21.1811 5.40211 21.3281 5.52546C21.4751 5.6488 21.567 5.82549 21.5838 6.01665L22.3805 15.123C22.3972 15.3142 22.3373 15.5042 22.214 15.6512C22.0906 15.7982 21.9139 15.8902 21.7227 15.9069L6.7564 17.2163C6.56524 17.233 6.37526 17.1731 6.22826 17.0497C6.08126 16.9264 5.98928 16.7497 5.97256 16.5586L5.17585 7.45216C5.15913 7.261 5.21903 7.07102 5.34237 6.92402C5.46572 6.77703 5.64241 6.68505 5.83358 6.66832Z" fill="#F26B55"/>
<path d="M21.0662 6.97579L4.65881 8.41125" stroke="black"/>
<path d="M5.1473 6.0066L20.1136 4.69721C20.3048 4.68049 20.4948 4.74038 20.6418 4.86373C20.7888 4.98708 20.8808 5.16376 20.8975 5.35493L21.6942 14.4613C21.7109 14.6525 21.651 14.8425 21.5277 14.9895C21.4043 15.1365 21.2276 15.2284 21.0365 15.2452L6.07012 16.5545C5.87896 16.5713 5.68898 16.5114 5.54198 16.388C5.39498 16.2647 5.303 16.088 5.28628 15.8968L4.48957 6.79043C4.47285 6.59927 4.53275 6.4093 4.65609 6.2623C4.77944 6.1153 4.95613 6.02332 5.1473 6.0066Z" stroke="black" stroke-linecap="round" stroke-linejoin="round"/>
<path d="M3.62087 9.55882H18.6444C18.8363 9.55882 19.0203 9.63505 19.156 9.77074C19.2917 9.90643 19.3679 10.0905 19.3679 10.2824V19.4235C19.3679 19.6154 19.2917 19.7995 19.156 19.9351C19.0203 20.0708 18.8363 20.1471 18.6444 20.1471H3.62087C3.42898 20.1471 3.24494 20.0708 3.10926 19.9351C2.97357 19.7995 2.89734 19.6154 2.89734 19.4235V10.2824C2.89734 10.0905 2.97357 9.90643 3.10926 9.77074C3.24494 9.63505 3.42898 9.55882 3.62087 9.55882Z" fill="white" stroke="black" stroke-linecap="round" stroke-linejoin="round"/>
<path d="M4.85297 18.3824H7.1912" stroke="black"/>
<path d="M8.19122 18.3824H10.5295" stroke="black"/>
<path d="M11.5294 18.3824H13.8677" stroke="black"/>
<path d="M14.8677 18.3824H17.2059" stroke="black"/>
<rect x="5.55231" y="13.9706" width="3.52941" height="2.35294" rx="1" fill="#F26B55"/>
<rect x="4.96405" y="13.3824" width="3.52941" height="2.35294" rx="1" stroke="black"/>
</g>
<defs>
<clipPath id="clip0_903_21625">
<rect width="20" height="20" fill="white" transform="translate(2.5 2.5)"/>
</clipPath>
</defs>
</svg>
