<svg width="54" height="14" viewBox="0 0 54 14" fill="none" xmlns="http://www.w3.org/2000/svg">
<g clip-path="url(#clip0_1642_49367)">
<path d="M0 9.55367C0.307617 8.41393 0.62837 7.27767 0.919106 6.1362C1.36553 4.37621 1.78756 2.611 2.23211 0.847538C2.39342 0.194274 2.64101 -0.00726527 3.35754 -0.000315652C4.84686 0.0135836 6.33992 -0.000315651 7.82548 0.0865545C9.08784 0.157788 10.3014 0.500059 10.7722 1.73362C11.2749 3.04188 11.0011 4.28933 9.95818 5.32656C9.00157 6.27692 7.74859 6.68869 6.39432 6.852C5.74127 6.92382 5.08431 6.96094 4.42669 6.9632C3.8771 6.9632 3.55824 7.19254 3.43819 7.68422C3.28063 8.33054 3.10056 8.97164 2.95425 9.61969C2.83796 10.127 2.51533 10.3442 1.96762 10.3303C1.54184 10.3181 1.11418 10.3529 0.69214 10.3164C0.456255 10.2693 0.227998 10.194 0.0131314 10.0923L0 9.55367ZM5.97229 1.90909C5.42645 1.89345 4.88999 1.90909 4.72117 2.52239C4.55236 3.1357 4.40231 3.7768 4.24662 4.40574C4.16784 4.72542 4.31227 4.97387 4.65177 4.99819C5.58963 5.06421 6.52749 5.01036 7.28903 4.41617C7.54786 4.22293 7.73933 3.96322 7.83944 3.66959C7.93954 3.37597 7.94382 3.0615 7.85175 2.76563C7.69231 2.15059 7.11459 2.03766 6.55188 1.94558C6.35976 1.9206 6.16624 1.9061 5.97229 1.90214V1.90909Z" fill="#023390"/>
<path d="M34.8527 0.00195312C35.7587 0.048863 36.6703 0.0558118 37.5706 0.153106C38.7598 0.281674 39.8215 0.68649 40.2342 1.84186C40.6825 3.11191 40.4048 4.2916 39.4464 5.2993C38.5441 6.24792 37.3399 6.67706 36.0307 6.85253C35.3211 6.93307 34.6072 6.97715 33.8924 6.98458C33.3297 7.00195 32.9808 7.2087 32.8645 7.73861C32.7294 8.35192 32.5719 8.95479 32.4181 9.57157C32.2643 10.1883 32.0129 10.3673 31.3189 10.3777C30.8931 10.3777 30.4673 10.3916 30.0415 10.3777C29.5839 10.3586 29.3794 10.1519 29.4901 9.70535C30.2403 6.72165 30.9806 3.73853 31.7109 0.755986C31.8347 0.248664 32.1648 0.0401743 32.7013 0.0436491C33.4178 0.0436491 34.1343 0.0436491 34.849 0.0436491L34.8527 0.00195312ZM34.6858 5.1464C35.301 4.97266 35.9613 4.86147 36.5202 4.58175C37.3662 4.15782 37.6157 2.95901 37.068 2.3961C36.6722 1.98607 35.0422 1.75152 34.5489 2.07294C34.3586 2.21707 34.2205 2.41168 34.1531 2.63064C33.9993 3.09105 33.9036 3.56711 33.778 4.0362C33.5566 4.91881 33.6673 5.04563 34.6858 5.1464Z" fill="#039DDD"/>
<path d="M23.7785 7.23622C23.9411 7.06609 24.0939 6.88804 24.2361 6.70283C24.9508 5.57526 25.6729 4.44421 26.3613 3.30968C26.7364 2.69464 27.2429 2.39581 28.0101 2.44098C28.4527 2.47052 28.901 2.4514 29.3456 2.44098C29.7395 2.44098 29.8258 2.60604 29.6682 2.91703C29.5857 3.07861 29.5013 3.24019 29.4037 3.39308C27.3292 6.64724 25.2434 9.89618 23.1801 13.1556C22.82 13.7219 22.3642 14.0364 21.6345 13.986C21.2481 13.9582 20.8598 13.986 20.4734 13.986C19.952 13.9721 19.8451 13.8123 20.0983 13.3866C20.4222 12.7956 20.7797 12.2208 21.1693 11.6649C21.5445 11.1436 21.5895 10.605 21.4807 10.0248C21.073 7.83331 20.6654 5.64591 20.2577 3.46257C20.0927 2.57476 20.1958 2.4653 21.1693 2.45836C22.7412 2.44619 22.9644 2.39581 23.1838 4.03592C23.2926 4.8525 23.469 5.66213 23.6171 6.46829C23.6509 6.67851 23.7015 6.88005 23.7785 7.23622Z" fill="#023390"/>
<path d="M15.454 9.79398C14.5424 10.0581 13.6702 10.4108 12.7586 10.548C11.5675 10.7218 10.6259 10.2249 10.247 9.40133C9.85124 8.54479 10.157 7.29907 10.9523 6.63364C11.907 5.83791 13.1056 5.62074 14.3286 5.46785C14.9025 5.39487 15.4859 5.37055 16.0561 5.27673C16.2643 5.24372 16.4463 5.07693 16.6395 4.97094C16.4819 4.73118 16.3562 4.31247 16.1593 4.27598C15.4049 4.15161 14.6385 4.10153 13.8728 4.12657C13.3626 4.14394 12.8561 4.32811 12.3534 4.45494C11.9933 4.54528 11.7907 4.45494 11.8901 4.0953C12.1996 2.87911 12.1396 2.68279 13.507 2.49688C14.9157 2.30577 16.3206 2.22932 17.718 2.54727C19.1154 2.86521 19.6218 3.60535 19.3349 4.8945C18.9822 6.49118 18.5564 8.07395 18.1738 9.66368C18.0556 10.1484 17.7274 10.3586 17.2228 10.3586C16.8927 10.3586 16.5625 10.3586 16.2343 10.3586C15.7185 10.3864 15.3809 10.2353 15.454 9.79398ZM16.1293 6.76743C14.9626 6.69098 13.8784 6.89078 13.3157 7.3981C13.2003 7.51676 13.1112 7.65532 13.0536 7.80586C12.996 7.95641 12.971 8.11599 12.9799 8.27549C12.9962 8.4565 13.0884 8.62441 13.2367 8.74326C13.385 8.86211 13.5776 8.92245 13.7734 8.91138C15.5028 8.94092 16.0936 8.33456 16.1311 6.76743H16.1293Z" fill="#023390"/>
<path d="M44.9159 9.78338C44.0343 10.0475 43.1658 10.4123 42.2561 10.5548C41.0482 10.7459 40.0672 10.2247 39.692 9.3942C39.2869 8.4977 39.6339 7.22766 40.4986 6.55876C41.4458 5.82731 42.605 5.61535 43.7829 5.46941C44.3457 5.40165 44.9084 5.38428 45.4542 5.29567C45.6774 5.25745 45.8744 5.07849 46.0807 4.96382C45.9194 4.7258 45.79 4.31577 45.5855 4.28102C44.8509 4.15575 44.1036 4.10564 43.3572 4.13161C42.847 4.14898 42.3386 4.32793 41.836 4.45824C41.3933 4.57291 41.2732 4.44434 41.3539 4.03431C41.5827 2.84593 41.7028 2.71389 42.9764 2.51582C44.3625 2.30039 45.7524 2.24479 47.1292 2.55231C48.506 2.85983 49.0743 3.60517 48.7949 4.87695C48.4403 6.491 48.0052 8.09115 47.6075 9.69651C47.575 9.89451 47.4632 10.0739 47.2942 10.1988C47.1252 10.3238 46.9116 10.3851 46.6959 10.3706C46.347 10.3706 45.9982 10.3706 45.6512 10.3706C45.1222 10.3863 44.8296 10.1969 44.9159 9.78338ZM45.5686 6.71339C45.1915 6.73335 44.8158 6.77221 44.4432 6.82979C43.9161 6.92053 43.4001 7.06023 42.9032 7.24677C42.7044 7.32722 42.5432 7.47098 42.4489 7.65202C42.3546 7.83305 42.3335 8.03938 42.3893 8.23361C42.5018 8.70792 42.8413 8.94769 43.3965 8.92857C45.0322 8.86603 45.5574 8.30137 45.5686 6.71339Z" fill="#039DDD"/>
<path d="M50.3799 10.3687C49.0538 10.3687 49.0163 10.3322 49.3014 9.11776C49.9266 6.45374 50.5556 3.79262 51.1884 1.13439C51.3909 0.284797 51.6329 0.11453 52.5858 0.112793C54.152 0.112793 54.1595 0.112793 53.8218 1.54094C53.1966 4.16674 52.5714 6.79138 51.9461 9.41486C51.7548 10.2297 51.5204 10.3687 50.3799 10.3687Z" fill="#039DDD"/>
</g>
<defs>
<clipPath id="clip0_1642_49367">
<rect width="54" height="14" fill="white"/>
</clipPath>
</defs>
</svg>
