<svg width="50" height="51" viewBox="0 0 50 51" fill="none" xmlns="http://www.w3.org/2000/svg">
<path d="M35.56 3H12.52V47.0426H35.56V3Z" fill="white" stroke="black" stroke-linecap="round" stroke-linejoin="round"/>
<path d="M5.8 28.4468H3.88V46.0638H5.8V28.4468Z" fill="white" stroke="black" stroke-linecap="round" stroke-linejoin="round"/>
<path d="M8.68 46.0638H1V48.0213H8.68V46.0638Z" fill="white" stroke="black" stroke-linecap="round" stroke-linejoin="round"/>
<path d="M24.04 35.7872C13.2784 35.7872 4.83997 31.4906 4.83997 26C4.83997 25.4617 5.27197 25.0213 5.79997 25.0213C6.32797 25.0213 6.75997 25.4617 6.75997 26C6.75997 30.2477 14.6704 33.8298 24.04 33.8298C33.4096 33.8298 41.32 30.2477 41.32 26C41.32 25.4617 41.752 25.0213 42.28 25.0213C42.808 25.0213 43.24 25.4617 43.24 26C43.24 31.4906 34.8016 35.7872 24.04 35.7872Z" fill="white" stroke="black" stroke-linecap="round" stroke-linejoin="round"/>
<g style="mix-blend-mode:darken">
<path d="M25 36.766C14.2384 36.766 5.79999 32.4694 5.79999 26.9787C5.79999 26.4404 6.23199 26 6.75999 26C7.28799 26 7.71999 26.4404 7.71999 26.9787C7.71999 31.2264 15.6304 34.8085 25 34.8085C34.3696 34.8085 42.28 31.2264 42.28 26.9787C42.28 26.4404 42.712 26 43.24 26C43.768 26 44.2 26.4404 44.2 26.9787C44.2 32.4694 35.7616 36.766 25 36.766Z" fill="#FF6E53"/>
</g>
<path d="M4.84002 29.4255C6.4306 29.4255 7.72002 28.111 7.72002 26.4894C7.72002 24.8678 6.4306 23.5532 4.84002 23.5532C3.24944 23.5532 1.96002 24.8678 1.96002 26.4894C1.96002 28.111 3.24944 29.4255 4.84002 29.4255Z" fill="white" stroke="black" stroke-linecap="round" stroke-linejoin="round"/>
<g style="mix-blend-mode:darken">
<path d="M6.75999 29.9149C8.08547 29.9149 9.15999 28.8194 9.15999 27.4681C9.15999 26.1168 8.08547 25.0213 6.75999 25.0213C5.4345 25.0213 4.35999 26.1168 4.35999 27.4681C4.35999 28.8194 5.4345 29.9149 6.75999 29.9149Z" fill="#FF6E53"/>
</g>
<path d="M44.2 28.4468H42.28V46.0638H44.2V28.4468Z" fill="white" stroke="black" stroke-linecap="round" stroke-linejoin="round"/>
<path d="M47.08 46.0638H39.4V48.0213H47.08V46.0638Z" fill="white" stroke="black" stroke-linecap="round" stroke-linejoin="round"/>
<path d="M43.24 29.4255C44.8306 29.4255 46.12 28.111 46.12 26.4894C46.12 24.8678 44.8306 23.5532 43.24 23.5532C41.6494 23.5532 40.36 24.8678 40.36 26.4894C40.36 28.111 41.6494 29.4255 43.24 29.4255Z" fill="white" stroke="black" stroke-linecap="round" stroke-linejoin="round"/>
<g style="mix-blend-mode:darken">
<path d="M44.68 30.4043C46.0055 30.4043 47.08 29.3088 47.08 27.9574C47.08 26.6061 46.0055 25.5106 44.68 25.5106C43.3545 25.5106 42.28 26.6061 42.28 27.9574C42.28 29.3088 43.3545 30.4043 44.68 30.4043Z" fill="#FF6E53"/>
</g>
<g style="mix-blend-mode:darken">
<path d="M5.8 29.4255H3.88V46.0638H5.8V29.4255Z" fill="#FF6E53"/>
</g>
<g style="mix-blend-mode:darken">
<path d="M49 47.0426H1V49H49V47.0426Z" fill="#FF6E53"/>
</g>
<g style="mix-blend-mode:darken">
<path d="M44.2 29.4255H42.28V46.0638H44.2V29.4255Z" fill="#FF6E53"/>
</g>
<path d="M30.7599 26.9787C31.5552 26.9787 32.1999 26.3214 32.1999 25.5106C32.1999 24.6998 31.5552 24.0426 30.7599 24.0426C29.9647 24.0426 29.3199 24.6998 29.3199 25.5106C29.3199 26.3214 29.9647 26.9787 30.7599 26.9787Z" fill="white" stroke="black" stroke-linecap="round" stroke-linejoin="round"/>
<g style="mix-blend-mode:darken">
<path d="M31.72 27.9574C32.5153 27.9574 33.16 27.3002 33.16 26.4894C33.16 25.6786 32.5153 25.0213 31.72 25.0213C30.9247 25.0213 30.28 25.6786 30.28 26.4894C30.28 27.3002 30.9247 27.9574 31.72 27.9574Z" fill="#FF6E53"/>
</g>
<path d="M24.04 8.50043L25.5568 11.6323L28.9552 12.1413L26.4976 14.5783L27.0736 18.0234L24.04 16.3987L21.0064 18.0234L21.5824 14.5783L19.1248 12.1413L22.5232 11.6323L24.04 8.50043Z" fill="white" stroke="black" stroke-linecap="round" stroke-linejoin="round"/>
<g style="mix-blend-mode:darken">
<path d="M24.04 8.50043L25.5568 11.6323L28.9552 12.1413L26.4976 14.5783L27.0736 18.0234L24.04 16.3987L21.0064 18.0234L21.5824 14.5783L19.1248 12.1413L22.5232 11.6323L24.04 8.50043Z" fill="#FF6E53"/>
</g>
</svg>
