<svg width="52" height="52" viewBox="0 0 52 52" fill="none" xmlns="http://www.w3.org/2000/svg">
<g clip-path="url(#clip0_2280_65251)">
<path d="M44.5367 21.8258C40.8075 21.8258 37.7659 18.7598 37.7659 15.0008C37.7659 11.2418 40.8075 8.17578 44.5367 8.17578C45.245 8.17578 45.9534 8.29128 46.62 8.51178C43.8909 9.40428 41.9325 11.9873 41.9325 15.0008C41.9325 18.0143 43.8909 20.5973 46.62 21.4898C45.9534 21.7103 45.245 21.8258 44.5367 21.8258Z" fill="white"/>
<path d="M44.5368 8.70039C44.6722 8.70039 44.8076 8.70039 44.943 8.71089C42.818 10.0024 41.4118 12.3544 41.4118 15.0004C41.4118 17.6464 42.818 19.9984 44.943 21.2899C44.8076 21.3004 44.6722 21.3004 44.5368 21.3004C41.0889 21.3004 38.2868 18.4759 38.2868 15.0004C38.2868 11.5249 41.0889 8.70039 44.5368 8.70039ZM44.5368 7.65039C40.5055 7.65039 37.2451 10.9369 37.2451 15.0004C37.2451 19.0639 40.5055 22.3504 44.5368 22.3504C45.9222 22.3504 47.2139 21.9514 48.3076 21.2794C45.0368 21.0694 42.4534 18.3499 42.4534 15.0004C42.4534 11.6509 45.0472 8.92089 48.3076 8.72139C47.2139 8.04939 45.9222 7.65039 44.5368 7.65039Z" fill="black"/>
<path d="M7.55745 40.7254V29.2174C7.55745 26.6869 6.57829 24.3034 4.79704 22.5079C3.22412 20.9119 2.34912 18.7909 2.34912 16.5334V5.55039C2.34912 5.25639 2.57829 5.02539 2.86995 5.02539H14.3283C14.62 5.02539 14.8491 5.25639 14.8491 5.55039V16.5334C14.8491 18.7909 13.9741 20.9014 12.4012 22.4974C10.62 24.2929 9.64079 26.6764 9.64079 29.2174V40.7254H7.55745Z" fill="white"/>
<path d="M14.3284 5.55V16.533C14.3284 18.6435 13.5159 20.6385 12.0263 22.1295C10.1513 24.0195 9.12004 26.5395 9.12004 29.2065V40.2H8.07837V29.217C8.07837 26.5395 7.04712 24.03 5.17212 22.14C3.69295 20.649 2.87004 18.654 2.87004 16.5435V5.55H14.3284ZM14.3284 4.5H2.87004C2.29712 4.5 1.82837 4.9725 1.82837 5.55V16.533C1.82837 18.906 2.76587 21.1845 4.43254 22.875C6.0992 24.5655 7.0367 26.8335 7.0367 29.217V41.25H10.1617V29.217C10.1617 26.844 11.0992 24.5655 12.7659 22.875C14.4325 21.1845 15.37 18.9165 15.37 16.533V5.55C15.37 4.9725 14.9013 4.5 14.3284 4.5Z" fill="black"/>
<path d="M7.55745 40.7254V29.2174C7.55745 26.6869 6.57829 24.3034 4.79704 22.5079C3.22412 20.9119 2.34912 18.7909 2.34912 16.5334V5.55039C2.34912 5.25639 2.57829 5.02539 2.86995 5.02539H14.3283C14.62 5.02539 14.8491 5.25639 14.8491 5.55039V16.5334C14.8491 18.7909 13.9741 20.9014 12.4012 22.4974C10.62 24.2929 9.64079 26.6764 9.64079 29.2174V40.7254H7.55745Z" fill="white"/>
<path d="M14.3284 5.55V16.533C14.3284 18.6435 13.5159 20.6385 12.0263 22.1295C10.1513 24.0195 9.12004 26.5395 9.12004 29.2065V40.2H8.07837V29.217C8.07837 26.5395 7.04712 24.03 5.17212 22.14C3.69295 20.649 2.87004 18.654 2.87004 16.5435V5.55H14.3284ZM14.3284 4.5H2.87004C2.29712 4.5 1.82837 4.9725 1.82837 5.55V16.533C1.82837 18.906 2.76587 21.1845 4.43254 22.875C6.0992 24.5655 7.0367 26.8335 7.0367 29.217V41.25H10.1617V29.217C10.1617 26.844 11.0992 24.5655 12.7659 22.875C14.4325 21.1845 15.37 18.9165 15.37 16.533V5.55C15.37 4.9725 14.9013 4.5 14.3284 4.5Z" fill="black"/>
<g style="mix-blend-mode:darken">
<path d="M5.90133 21.3941C4.62008 20.1026 3.91174 18.3701 3.91174 16.5431V11.8496H13.2867V16.5326C13.2867 18.3701 12.5784 20.0921 11.2972 21.3836C10.0367 22.6541 7.16174 22.6541 5.90133 21.3941Z" fill="#FF6E53"/>
</g>
<path opacity="0.99" d="M25.7867 45.45C39.0185 45.45 49.745 43.3345 49.745 40.725C49.745 38.1155 39.0185 36 25.7867 36C12.5549 36 1.82837 38.1155 1.82837 40.725C1.82837 43.3345 12.5549 45.45 25.7867 45.45Z" fill="white" stroke="black" stroke-miterlimit="10"/>
<g style="mix-blend-mode:darken">
<path d="M27.8701 46.4998C41.1019 46.4998 51.8284 44.3843 51.8284 41.7748C51.8284 39.1653 41.1019 37.0498 27.8701 37.0498C14.6383 37.0498 3.91174 39.1653 3.91174 41.7748C3.91174 44.3843 14.6383 46.4998 27.8701 46.4998Z" fill="#FF6E53"/>
</g>
<path d="M45.5576 39.9795C45.5576 39.9585 45.5785 39.9375 45.5785 39.9165H45.5576C45.2972 29.1225 36.5576 20.46 25.7868 20.46C15.016 20.46 6.27637 29.133 6.01595 39.927H5.99512C5.99512 39.948 6.01595 39.969 6.01595 39.99C6.01595 40.137 6.28678 40.41 6.28678 40.41C7.8597 41.7855 15.9743 42.846 25.7868 42.846C35.5993 42.846 43.7035 41.796 45.2868 40.41C45.2868 40.41 45.5576 40.1265 45.5576 39.9795Z" fill="white" stroke="black" stroke-width="0.9268" stroke-miterlimit="10"/>
<path d="M29.1616 19.4835C29.1616 21.1005 27.6512 21.426 25.7866 21.426C23.922 21.426 22.4116 21.09 22.4116 19.4835C22.4116 17.877 23.922 16.5645 25.7866 16.5645C27.6512 16.5645 29.1616 17.8665 29.1616 19.4835Z" fill="white" stroke="black" stroke-width="0.9268" stroke-miterlimit="10"/>
<g style="mix-blend-mode:darken">
<path d="M28.3908 22.8748C30.692 22.8748 32.5575 21.9346 32.5575 20.7748C32.5575 19.615 30.692 18.6748 28.3908 18.6748C26.0896 18.6748 24.2241 19.615 24.2241 20.7748C24.2241 21.9346 26.0896 22.8748 28.3908 22.8748Z" fill="#FF6E53"/>
</g>
<g style="mix-blend-mode:darken">
<path d="M44.5367 40.7248C44.5367 46.4998 16.4117 45.4498 16.4117 40.7248C16.4117 32.8918 22.7034 26.5498 30.4742 26.5498C38.2451 26.5498 44.5367 32.8918 44.5367 40.7248Z" fill="#FF6E53"/>
</g>
</g>
<defs>
<clipPath id="clip0_2280_65251">
<rect width="51" height="51" fill="white" transform="translate(0.828369 0.5)"/>
</clipPath>
</defs>
</svg>
