<svg width="10" height="9" viewBox="0 0 10 9" fill="none" xmlns="http://www.w3.org/2000/svg">
<path d="M4.45393 0.321429C4.69663 -0.107143 5.30337 -0.107143 5.54606 0.321428L9.91458 8.03571C10.1573 8.46428 9.85391 9 9.36852 9H0.631482C0.146091 9 -0.157278 8.46429 0.0854172 8.03571L4.45393 0.321429Z" fill="#DE6956"/>
<path d="M4.95929 6.3692C4.8463 6.3692 4.75211 6.28271 4.7425 6.17013L4.47405 3.02544C4.44913 2.73358 4.67932 2.48291 4.97224 2.48291H5.01482C5.31204 2.48291 5.54364 2.74065 5.51197 3.03619L5.17562 6.17481C5.16378 6.28536 5.07048 6.3692 4.95929 6.3692ZM4.98872 7.93264C4.72485 7.93264 4.51095 7.71874 4.51095 7.45487V7.42468C4.51095 7.16081 4.72485 6.94691 4.98872 6.94691C5.25258 6.94691 5.46648 7.16081 5.46648 7.42468V7.45487C5.46648 7.71874 5.25258 7.93264 4.98872 7.93264Z" fill="white"/>
</svg>
