<svg width="40" height="41" viewBox="0 0 40 41" fill="none" xmlns="http://www.w3.org/2000/svg">
<g clip-path="url(#clip0_1467_24012)">
<path d="M5.30032 38.8779C4.99542 38.8779 4.75586 38.64 4.75586 38.3373V2.66163C4.75586 2.35893 4.99542 2.12109 5.30032 2.12109H33.6125C33.9174 2.12109 34.1569 2.35893 34.1569 2.66163V38.3373C34.1569 38.64 33.9174 38.8779 33.6125 38.8779H5.30032Z" fill="white"/>
<path d="M33.612 2.66311V38.3388H5.29987V2.66311H33.612ZM33.612 1.58203H5.29987C4.70096 1.58203 4.21094 2.06852 4.21094 2.66311V38.3388C4.21094 38.9334 4.70096 39.4199 5.29987 39.4199H33.612C34.2109 39.4199 34.701 38.9334 34.701 38.3388V2.66311C34.701 2.06852 34.2109 1.58203 33.612 1.58203Z" fill="black"/>
<path d="M33.0679 32.3906H6.93359V36.715H33.0679V32.3906Z" fill="white"/>
<path d="M32.523 32.9326V36.1759H7.4776V32.9326H32.523ZM33.6119 31.8516H6.38867V37.257H33.6119V31.8516Z" fill="black"/>
<path d="M27.6242 10.6823L24.3574 12.5418V1.03906H30.891V12.5418L27.6242 10.6823Z" fill="white"/>
<path d="M30.3461 1.58108V11.6135L28.1682 10.3703L27.6238 10.0676L27.0793 10.3703L24.9014 11.6135V1.58108H30.3461ZM31.435 0.5H23.8125V13.473L27.6238 11.3108L31.435 13.473V0.5Z" fill="black"/>
<path d="M33.6112 34.0117H19.4551V35.0928H33.6112V34.0117Z" fill="black"/>
<g style="mix-blend-mode:darken">
<path d="M34.7008 3.74419V1.58203H32.523H24.9005V14.555L28.7117 12.3928L32.523 14.555V30.7712H6.38867V39.4199H7.4776V40.5009H33.6119H35.7898V3.74419H34.7008Z" fill="#FF6E53"/>
</g>
</g>
<defs>
<clipPath id="clip0_1467_24012">
<rect width="40" height="40" fill="white" transform="translate(0 0.5)"/>
</clipPath>
</defs>
</svg>
