<svg width="133" height="90" viewBox="0 0 133 90" fill="none" xmlns="http://www.w3.org/2000/svg">
<rect width="133" height="90" rx="4" fill="#2E77BB"/>
<g clip-path="url(#clip0_935_32119)">
<path d="M133 75.2125C131.378 75.2356 129.755 75.268 128.133 75.2818C126.955 75.2934 125.764 75.1663 124.605 75.3119C123.035 75.5106 121.996 74.8706 121.05 73.6391C119.89 72.1327 118.565 70.7626 117.259 69.277C115.799 70.9359 114.343 72.5116 112.998 74.1474C112.307 74.9861 111.58 75.3165 110.488 75.3026C99.8655 75.2564 89.2431 75.2749 78.6207 75.2749C77.4835 75.2749 77.4768 75.2749 77.4768 74.0712C77.4768 65.4085 77.4768 56.7467 77.4768 48.0856C77.4768 46.8588 77.4768 46.8588 76.2836 46.8588H66.5C66.6368 46.459 66.7243 46.1656 66.8297 45.893C71.1794 35.7393 75.5292 25.5849 79.8789 15.4298C80.1032 14.8845 80.4038 14.6488 81.0004 14.6535C84.924 14.6812 88.8476 14.6812 92.7712 14.6535C93.3678 14.6535 93.6684 14.866 93.8927 15.4275C95.2384 18.5974 96.6133 21.7488 98.0959 24.9003V24.1147C98.0959 21.2567 98.1138 18.3964 98.0824 15.5384C98.0824 14.8452 98.3067 14.6419 98.9594 14.6442C103.921 14.6642 108.882 14.6642 113.843 14.6442C114.444 14.6442 114.74 14.8452 114.94 15.4344C115.727 17.8049 116.557 20.1569 117.43 22.6823C118.257 20.2979 119.072 18.0775 119.787 15.8225C120.065 14.9446 120.46 14.6142 121.384 14.6304C124.914 14.6927 128.447 14.6535 131.979 14.6581C132.314 14.6581 132.652 14.695 132.982 14.7158V18.3548C132.677 18.3802 132.372 18.4241 132.067 18.4264C129.349 18.4264 126.63 18.4611 123.912 18.4079C123.154 18.3941 122.846 18.6759 122.604 19.3806C121.061 23.8906 119.464 28.3914 117.894 32.8829C117.789 33.1855 117.632 33.4697 117.421 33.9364C117.196 33.3935 117.062 33.0562 116.941 32.7096C115.372 28.2088 113.81 23.7058 112.255 19.2004C112.074 18.669 111.852 18.4079 111.255 18.4149C108.398 18.4441 105.539 18.4441 102.678 18.4149C102.088 18.4149 101.907 18.6159 101.907 19.2143C101.922 26.8942 101.922 34.5733 101.907 42.2517C101.907 42.9171 102.131 43.0904 102.741 43.0742C104.226 43.0396 105.713 43.0234 107.198 43.0742C107.956 43.1043 108.209 42.894 108.202 42.0692C108.167 37.0162 108.182 31.9656 108.187 26.9127C108.187 26.6031 108.229 26.2935 108.252 25.9885C108.504 26.2223 108.691 26.5215 108.792 26.8549C110.602 31.9379 112.409 37.0209 114.213 42.1039C114.438 42.7207 114.662 43.1297 115.445 43.0765C116.732 43.0061 118.022 43.0061 119.309 43.0765C119.982 43.1089 120.28 42.8571 120.509 42.2032C122.304 37.0555 124.156 31.9217 125.991 26.7856C126.096 26.4922 126.242 26.2126 126.368 25.9261L126.626 25.9954V26.9889C126.626 32.0396 126.626 37.0925 126.612 42.1454C126.612 42.864 126.836 43.0858 127.523 43.0696C129.342 43.0465 131.161 43.0996 132.98 43.1228V52.1335L126.516 59.1341L133 66.2018V75.2125ZM81.4131 59.1827C81.4131 62.9926 81.4131 66.8071 81.4131 70.6147C81.4131 71.1831 81.4692 71.5227 82.169 71.5204C88.4177 71.4973 94.6679 71.4973 100.92 71.5204C101.532 71.5204 101.687 71.2755 101.673 70.7002C101.642 69.575 101.673 68.4475 101.673 67.3223C101.673 66.0493 101.673 66.047 100.437 66.047C96.5415 66.047 92.6456 66.0354 88.7497 66.047C88.0162 66.047 87.6506 65.8414 87.7112 65.0119C87.7504 64.2338 87.7504 63.4541 87.7112 62.676C87.6977 62.1331 87.9063 61.8628 88.4446 61.8743C88.7227 61.8743 89.0031 61.8743 89.2835 61.8743C92.9843 61.8743 96.6851 61.8582 100.384 61.8882C101.117 61.8882 101.379 61.6572 101.339 60.8947C101.285 59.8296 101.339 58.7598 101.326 57.6901C101.326 56.5603 101.326 56.558 100.222 56.558C96.4092 56.558 92.5962 56.5326 88.7833 56.5765C87.9153 56.5765 87.6304 56.2877 87.7022 55.4213C87.7572 54.7594 87.7572 54.0938 87.7022 53.432C87.6372 52.6141 87.9691 52.4108 88.7227 52.4177C92.6748 52.45 96.629 52.4338 100.581 52.4338C101.662 52.4338 101.662 52.4338 101.664 51.2786C101.667 50.1234 101.622 49.0236 101.678 47.9008C101.716 47.1244 101.505 46.8472 100.702 46.8495C94.5924 46.8818 88.482 46.8818 82.3708 46.8495C81.6509 46.8495 81.3974 47.039 81.4041 47.8176C81.4378 51.616 81.4131 55.3981 81.4131 59.1827ZM101.541 43.0835C101.436 42.7508 101.379 42.5036 101.283 42.2748C97.983 34.5733 94.6851 26.8719 91.3896 19.1704C91.1428 18.5905 90.8266 18.4264 90.2479 18.4357C88.0342 18.4657 85.8182 18.4749 83.6044 18.4357C82.9607 18.4218 82.6669 18.6667 82.4224 19.2512C79.716 25.6142 76.9961 31.9718 74.2627 38.324C73.6033 39.8697 72.9461 41.4177 72.2441 43.0858C74.5341 43.0858 76.685 43.102 78.8338 43.0581C79.0423 43.0581 79.3294 42.7254 79.4371 42.4805C79.9619 41.2698 80.4644 40.0476 80.9219 38.8092C81.126 38.2639 81.4333 38.0698 81.9895 38.0744C85.2126 38.0929 88.4356 38.0975 91.6587 38.0744C92.271 38.0744 92.5559 38.3286 92.7802 38.8808C93.2287 40.0891 93.7199 41.2883 94.2448 42.4666C94.3614 42.7277 94.6934 43.0581 94.9289 43.0627C97.0978 43.102 99.2756 43.0835 101.545 43.0835H101.541ZM121.413 59.1503L132.776 46.8795C130.165 46.8795 127.788 46.8449 125.412 46.9073C124.905 46.9465 124.428 47.1701 124.067 47.538C122.272 49.4788 120.529 51.4796 118.769 53.4574C118.356 53.9195 117.934 54.3816 117.405 54.9522C117.071 54.5456 116.811 54.2083 116.53 53.8894C114.673 51.7661 112.803 49.6567 110.961 47.5218C110.8 47.3084 110.591 47.1377 110.353 47.024C110.114 46.9103 109.853 46.8568 109.591 46.868C107.377 46.898 105.163 46.868 102.95 46.8819C102.725 46.8819 102.501 46.9234 102.144 46.9581C102.443 47.2954 102.622 47.5103 102.817 47.7159C106.085 51.2856 109.337 54.8783 112.639 58.4064C113.267 59.0787 113.179 59.4484 112.603 60.0676C109.346 63.5679 106.13 67.1098 102.9 70.6378C102.676 70.8689 102.472 71.1254 102.135 71.5066C104.721 71.5066 107.097 71.5343 109.472 71.4812C109.925 71.4499 110.352 71.2514 110.674 70.922C112.107 69.381 113.478 67.7775 114.875 66.1995C115.662 65.31 116.461 64.4297 117.448 63.3276C117.595 63.6169 117.764 63.8935 117.955 64.1547C119.924 66.4051 121.918 68.6347 123.876 70.8966C124.041 71.1057 124.252 71.2713 124.491 71.3798C124.731 71.4883 124.992 71.5365 125.253 71.5204C127.467 71.4904 129.68 71.5204 131.894 71.5043C132.119 71.5043 132.343 71.4719 132.686 71.4465C128.893 67.32 125.206 63.2929 121.418 59.1503H121.413Z" fill="white"/>
<path d="M83.4141 32.7096C84.5355 29.907 85.6211 27.2385 86.6954 24.5699H86.9489L90.2392 32.7142L83.4141 32.7096Z" fill="white"/>
</g>
<defs>
<clipPath id="clip0_935_32119">
<rect width="66.5" height="62.7907" fill="white" transform="translate(66.5 12.5581)"/>
</clipPath>
</defs>
</svg>
