<svg width="133" height="90" viewBox="0 0 133 90" fill="none" xmlns="http://www.w3.org/2000/svg">
<rect width="133" height="90" rx="4" fill="#1A1F71"/>
<g clip-path="url(#clip0_105_9981)">
<path d="M61.893 56.2971H56.2295L59.763 33.72H65.4265L61.893 56.2971Z" fill="white"/>
<path d="M51.474 33.72L46.0747 49.2343L45.4308 45.8914L43.5319 35.7429C43.5319 35.7429 43.3008 33.7029 40.8405 33.7029H31.9243L31.8252 34.1143C31.8252 34.1143 34.5496 34.6971 37.7364 36.7029L42.6568 56.3143H48.5515L57.5503 33.7543H51.474V33.72Z" fill="white"/>
<path d="M95.9734 56.2972H101.175L96.6504 33.7372H92.0932C89.9962 33.7372 89.4843 35.4172 89.4843 35.4172L81.0469 56.2972H86.9415L88.1138 52.9372H95.3129L95.9734 56.2972ZM89.7485 48.3086L92.7206 39.8572L94.3883 48.3086H89.7485Z" fill="white"/>
<path d="M81.4924 39.1543L82.3015 34.3029C82.3015 34.3029 79.8082 33.3257 77.2159 33.3257C74.4089 33.3257 67.7382 34.5943 67.7382 40.8C67.7382 46.6286 75.5647 46.6971 75.5647 49.7657C75.5647 52.8343 68.5473 52.2857 66.2356 50.3486L65.3936 55.4229C65.3936 55.4229 67.9198 56.6914 71.7836 56.6914C75.6473 56.6914 81.4759 54.6171 81.4759 48.96C81.4759 43.0971 73.5833 42.5486 73.5833 39.9943C73.5503 37.44 79.0652 37.7657 81.4924 39.1543Z" fill="white"/>
<path d="M45.4308 45.9086L43.5319 35.76C43.5319 35.76 43.3008 33.72 40.8405 33.72H31.9243L31.8252 34.1143C31.8252 34.1143 36.1182 35.04 40.2296 38.4857C44.1594 41.7943 45.4308 45.9086 45.4308 45.9086Z" fill="#F9A533"/>
</g>
<defs>
<clipPath id="clip0_105_9981">
<rect width="71" height="24" fill="white" transform="translate(31 33)"/>
</clipPath>
</defs>
</svg>
