<svg width="134" height="90" viewBox="0 0 134 90" fill="none" xmlns="http://www.w3.org/2000/svg">
<rect x="0.25" width="133" height="90" rx="4" fill="#E3DFD7"/>
<path d="M74.2076 30.84H58.1934V59.14H74.2076V30.84Z" fill="#FF5F00"/>
<path d="M59.21 45C59.21 39.26 61.9333 34.14 66.201 30.84C63.0917 28.44 59.1694 27 54.9016 27C44.8013 27 36.6113 35.06 36.6113 45C36.6113 54.94 44.8013 63 54.9016 63C59.1694 63 63.0917 61.56 66.201 59.16C61.9536 55.86 59.21 50.74 59.21 45Z" fill="#EB001B"/>
<path d="M95.7909 45C95.7909 54.94 87.6009 63 77.5005 63C73.2328 63 69.3105 61.56 66.2012 59.16C70.4486 55.86 73.1921 50.76 73.1921 45C73.1921 39.24 70.4689 34.14 66.2012 30.84C69.3105 28.42 73.2328 27 77.5005 27C87.6009 27 95.7909 35.06 95.7909 45ZM94.4496 56.92V55.72H94.9373V55.48H93.6773V55.72H94.1854V56.92H94.4496ZM96.8883 56.92V55.46H96.5021L96.055 56.46L95.608 55.46H95.2218V56.92H95.486V55.82L95.8925 56.76H96.177L96.5834 55.82V56.92H96.8883Z" fill="#F79E1B"/>
</svg>
