<svg width="41" height="40" viewBox="0 0 41 40" fill="none" xmlns="http://www.w3.org/2000/svg">
<g style="mix-blend-mode:darken">
<path d="M21.5737 40.0013C31.9988 40.0013 40.4501 31.6439 40.4501 21.3346C40.4501 11.0253 31.9988 2.66797 21.5737 2.66797C11.1485 2.66797 2.69727 11.0253 2.69727 21.3346C2.69727 31.6439 11.1485 40.0013 21.5737 40.0013Z" fill="#FF6E53"/>
</g>
<path d="M19.7751 38.6675C30.4484 38.6675 39.1009 30.1112 39.1009 19.5564C39.1009 9.00165 30.4484 0.445312 19.7751 0.445312C9.10169 0.445312 0.449219 9.00165 0.449219 19.5564C0.449219 30.1112 9.10169 38.6675 19.7751 38.6675Z" fill="white"/>
<path d="M19.7753 0.888889C30.2022 0.888889 38.6517 9.24444 38.6517 19.5556C38.6517 29.8667 30.2022 38.2222 19.7753 38.2222C9.34831 38.2222 0.898876 29.8667 0.898876 19.5556C0.898876 9.24444 9.34831 0.888889 19.7753 0.888889ZM19.7753 0C8.89888 0 0 8.8 0 19.5556C0 30.3111 8.89888 39.1111 19.7753 39.1111C30.6517 39.1111 39.5506 30.3111 39.5506 19.5556C39.5506 8.8 30.6517 0 19.7753 0Z" fill="black"/>
<path d="M19.7755 35.5547C28.7113 35.5547 35.9553 28.3912 35.9553 19.5547C35.9553 10.7181 28.7113 3.55469 19.7755 3.55469C10.8396 3.55469 3.5957 10.7181 3.5957 19.5547C3.5957 28.3912 10.8396 35.5547 19.7755 35.5547Z" fill="white" stroke="black" stroke-linecap="round" stroke-linejoin="round"/>
<path d="M21.1244 3.55469H18.4277V7.99913H21.1244V3.55469Z" fill="white" stroke="black" stroke-linecap="round" stroke-linejoin="round"/>
<path d="M21.1244 31.1094H18.4277V35.5538H21.1244V31.1094Z" fill="white" stroke="black" stroke-linecap="round" stroke-linejoin="round"/>
<path d="M30.598 31.4993L31.8691 30.2422L29.3268 27.7281L28.0556 28.9851L30.598 31.4993Z" fill="white" stroke="black" stroke-linecap="round" stroke-linejoin="round"/>
<path d="M10.2249 11.386L11.4961 10.1289L8.95371 7.61477L7.68252 8.87184L10.2249 11.386Z" fill="white" stroke="black" stroke-linecap="round" stroke-linejoin="round"/>
<path d="M31.8337 8.87035L30.5625 7.61328L28.0201 10.1274L29.2913 11.3845L31.8337 8.87035Z" fill="white" stroke="black" stroke-linecap="round" stroke-linejoin="round"/>
<path d="M11.531 28.9836L10.2598 27.7266L7.71738 30.2407L8.98857 31.4978L11.531 28.9836Z" fill="white" stroke="black" stroke-linecap="round" stroke-linejoin="round"/>
<path d="M35.9551 20.8893V18.2227H31.4607V20.8893H35.9551Z" fill="white" stroke="black" stroke-linecap="round" stroke-linejoin="round"/>
<path d="M8.08984 20.8893V18.2227H3.59546L3.59546 20.8893H8.08984Z" fill="white" stroke="black" stroke-linecap="round" stroke-linejoin="round"/>
<path d="M20.8545 21.0659L21.6635 20.2659L20.8545 19.4659V11.1992H19.0568V19.0214L14.7422 23.377L16.6298 25.3326L20.1354 21.8659H20.8545V21.0659Z" fill="white" stroke="black" stroke-linecap="round" stroke-linejoin="round"/>
<g style="mix-blend-mode:darken">
<path d="M21.753 21.9565L22.562 21.1565L21.753 20.3565V12.0898H19.9552V19.9121L15.6406 24.2676L17.5283 26.2232L21.0339 22.7565H21.753V21.9565Z" fill="#FF6E53"/>
</g>
<g style="mix-blend-mode:darken">
<path d="M10.0663 10.5763C16.0888 4.62075 25.6169 4.35408 31.909 9.68741C31.6394 9.33186 31.3697 8.9763 31.0102 8.70964C24.718 2.48741 14.4708 2.48741 8.08881 8.70964C1.70678 14.9319 1.79667 25.0652 8.08881 31.3763C8.44836 31.7319 8.71802 31.9985 9.07757 32.2652C3.7742 25.9541 4.04386 16.5319 10.0663 10.5763Z" fill="#FF6E53"/>
<path d="M22.0208 4.44141H19.3242V8.88585H22.0208V4.44141Z" fill="#FF6E53"/>
<path d="M22.0208 32H19.3242V36.4444H22.0208V32Z" fill="#FF6E53"/>
<path d="M31.4964 32.386L32.7676 31.1289L30.2252 28.6148L28.954 29.8718L31.4964 32.386Z" fill="#FF6E53"/>
<path d="M11.1214 12.2727L12.3926 11.0156L9.8502 8.50149L8.57901 9.75856L11.1214 12.2727Z" fill="#FF6E53"/>
<path d="M32.7321 9.75707L31.4609 8.5L28.9186 11.0141L30.1897 12.2712L32.7321 9.75707Z" fill="#FF6E53"/>
<path d="M12.4274 29.8703L11.1562 28.6133L8.61387 31.1274L9.88506 32.3845L12.4274 29.8703Z" fill="#FF6E53"/>
<path d="M36.8535 21.776V19.1094H32.3591V21.776H36.8535Z" fill="#FF6E53"/>
<path d="M8.98828 21.776V19.1094H4.4939L4.4939 21.776H8.98828Z" fill="#FF6E53"/>
</g>
</svg>
