<svg width="64" height="43" viewBox="0 0 64 43" fill="none" xmlns="http://www.w3.org/2000/svg">
<rect width="64" height="43" rx="4" fill="#1A1F71"/>
<g clip-path="url(#clip0_917_5002)">
<path d="M29.4046 27.6193H26.2139L28.2046 15.39H31.3953L29.4046 27.6193Z" fill="white"/>
<path d="M23.5349 15.39L20.493 23.7936L20.1302 21.9829L19.0604 16.4857C19.0604 16.4857 18.9302 15.3807 17.5442 15.3807H12.5209L12.4651 15.6036C12.4651 15.6036 14 15.9193 15.7953 17.0057L18.5674 27.6286H21.8883L26.9581 15.4086H23.5349V15.39Z" fill="white"/>
<path d="M48.6046 27.6193H51.5348L48.986 15.3993H46.4186C45.2372 15.3993 44.9488 16.3093 44.9488 16.3093L40.1953 27.6193H43.5162L44.1767 25.7993H48.2325L48.6046 27.6193ZM45.0976 23.2921L46.7721 18.7143L47.7116 23.2921H45.0976Z" fill="white"/>
<path d="M40.4465 18.3335L40.9023 15.7057C40.9023 15.7057 39.4976 15.1764 38.0372 15.1764C36.4558 15.1764 32.6976 15.8635 32.6976 19.225C32.6976 22.3821 37.1069 22.4193 37.1069 24.0814C37.1069 25.7435 33.1535 25.4464 31.8511 24.3971L31.3767 27.1457C31.3767 27.1457 32.8 27.8328 34.9767 27.8328C37.1535 27.8328 40.4372 26.7092 40.4372 23.645C40.4372 20.4692 35.9907 20.1721 35.9907 18.7885C35.9721 17.405 39.079 17.5814 40.4465 18.3335Z" fill="white"/>
<path d="M20.1302 21.9922L19.0604 16.495C19.0604 16.495 18.9302 15.39 17.5442 15.39H12.5209L12.4651 15.6036C12.4651 15.6036 14.8837 16.105 17.2 17.9714C19.4139 19.7636 20.1302 21.9922 20.1302 21.9922Z" fill="#F9A533"/>
</g>
<defs>
<clipPath id="clip0_917_5002">
<rect width="40" height="13" fill="white" transform="translate(12 15)"/>
</clipPath>
</defs>
</svg>
