<svg width="55" height="40" viewBox="0 0 55 40" fill="none" xmlns="http://www.w3.org/2000/svg">
<g clip-path="url(#clip0_15_873)">
<path d="M51 40H4C1.79 40 0 38.21 0 36V4C0 1.79 1.79 0 4 0H51C53.21 0 55 1.79 55 4V36C55 38.21 53.21 40 51 40Z" fill="#0066B2"/>
<path d="M24.71 26.59H21.28L23.42 13.42H26.85L24.71 26.59Z" fill="white"/>
<path d="M18.4 13.42L15.13 22.47L14.74 20.52L13.59 14.6C13.59 14.6 13.45 13.41 11.96 13.41H6.56L6.5 13.65C6.5 13.65 8.15 13.99 10.08 15.16L13.06 26.6H16.63L22.08 13.44H18.4V13.42Z" fill="white"/>
<path d="M45.35 26.59H48.5L45.76 13.43H43C41.73 13.43 41.42 14.41 41.42 14.41L36.31 26.59H39.88L40.59 24.63H44.95L45.35 26.59ZM41.58 21.93L43.38 17L44.39 21.93H41.58Z" fill="white"/>
<path d="M36.58 16.59L37.07 13.76C37.07 13.76 35.56 13.19 33.99 13.19C32.29 13.19 28.25 13.93 28.25 17.55C28.25 20.95 32.99 20.99 32.99 22.78C32.99 24.57 28.74 24.25 27.34 23.12L26.83 26.08C26.83 26.08 28.36 26.82 30.7 26.82C33.04 26.82 36.57 25.61 36.57 22.31C36.57 18.89 31.79 18.57 31.79 17.08C31.77 15.59 35.11 15.78 36.58 16.59Z" fill="white"/>
<path d="M14.74 20.53L13.59 14.61C13.59 14.61 13.45 13.42 11.96 13.42H6.56L6.5 13.65C6.5 13.65 9.1 14.19 11.59 16.2C13.97 18.13 14.74 20.53 14.74 20.53Z" fill="#F9A533"/>
</g>
<defs>
<clipPath id="clip0_15_873">
<rect width="55" height="40" fill="white"/>
</clipPath>
</defs>
</svg>
