<svg width="20" height="20" viewBox="0 0 20 20" fill="none" xmlns="http://www.w3.org/2000/svg">
<path d="M18.4615 0H1.53846C0.615385 0 0 0.615385 0 1.53846V18.4615C0 19.3846 0.769231 20 1.53846 20C1.84615 20 2 20 2.30769 19.8462L9.38461 15.2308C9.53846 15.0769 9.84615 15.0769 10.1538 15.0769C10.4615 15.0769 10.6154 15.0769 10.9231 15.2308L17.8462 19.8462C18 20 18.1538 20 18.4615 20C19.2308 20 20 19.3846 20 18.4615V1.53846C20 0.615385 19.3846 0 18.4615 0Z" fill="#EFEFEF"/>
<path d="M9.6 9.02C9.56 8.76 9.56667 8.52667 9.62 8.32C9.68 8.10667 9.76 7.91333 9.86 7.74C9.96 7.56 10.0733 7.39333 10.2 7.24C10.3333 7.08667 10.4567 6.93667 10.57 6.79C10.6833 6.63667 10.7767 6.48333 10.85 6.33C10.93 6.17667 10.97 6.01 10.97 5.83C10.97 5.56333 10.8867 5.33667 10.72 5.15C10.56 4.95667 10.32 4.86 10 4.86C9.78 4.86 9.57 4.91333 9.37 5.02C9.17667 5.12 9.00333 5.26 8.85 5.44L8.38 5.01C8.59333 4.77 8.84 4.57333 9.12 4.42C9.40667 4.26 9.73333 4.18 10.1 4.18C10.6067 4.18 11.01 4.32333 11.31 4.61C11.6167 4.89 11.77 5.28 11.77 5.78C11.77 6 11.73 6.2 11.65 6.38C11.57 6.56 11.47 6.73 11.35 6.89C11.2367 7.05 11.1133 7.21 10.98 7.37C10.8533 7.52333 10.7333 7.68333 10.62 7.85C10.5133 8.01667 10.43 8.19667 10.37 8.39C10.31 8.57667 10.2933 8.78667 10.32 9.02H9.6ZM9.98 11.12C9.81333 11.12 9.67333 11.0633 9.56 10.95C9.44667 10.83 9.39 10.68 9.39 10.5C9.39 10.3067 9.44667 10.1533 9.56 10.04C9.67333 9.92 9.81333 9.86 9.98 9.86C10.1467 9.86 10.2867 9.92 10.4 10.04C10.52 10.1533 10.58 10.3067 10.58 10.5C10.58 10.68 10.52 10.83 10.4 10.95C10.2867 11.0633 10.1467 11.12 9.98 11.12Z" fill="#969696"/>
</svg>
