<svg width="20" height="20" viewBox="0 0 20 20" fill="none" xmlns="http://www.w3.org/2000/svg">
<path d="M14.57 10.09L16.74 12.26C17.03 12.55 17.03 13.03 16.74 13.32C16.59 13.47 16.4 13.54 16.21 13.54C16.02 13.54 15.83 13.47 15.68 13.32L13.56 11.2L12.77 12.07C12.06 12.85 11.05 13.3 10 13.3C8.95 13.3 7.93 12.84 7.23 12.06L6.44 11.2L4.32 13.32C4.17 13.47 3.98 13.54 3.79 13.54C3.6 13.54 3.41 13.47 3.26 13.32C2.97 13.03 2.97 12.55 3.26 12.26L5.43 10.09L1 5.21002V15C1 16.1 1.9 17 3 17H17C18.1 17 19 16.1 19 15V5.21002L14.57 10.09Z" fill="#F26B55"/>
<path d="M8.32982 11.05C9.19982 12 10.7998 12 11.6698 11.05L18.4398 3.61C18.0698 3.23 17.5598 3 16.9998 3H2.99982C2.43982 3 1.92982 3.23 1.56982 3.61L8.32982 11.05Z" fill="#F26B55"/>
</svg>
