<svg width="20" height="20" viewBox="0 0 20 20" fill="none" xmlns="http://www.w3.org/2000/svg">
<g clip-path="url(#clip0_7_48)">
<path d="M19.3 9.37C17.64 7.74 14.23 5 10 5C5.77 5 2.36 7.74 0.709997 9.37C0.485201 9.57785 0.305828 9.82996 0.183151 10.1105C0.0604746 10.391 -0.00285339 10.6938 -0.00285339 11C-0.00285339 11.3062 0.0604746 11.609 0.183151 11.8895C0.305828 12.17 0.485201 12.4221 0.709997 12.63C2.36 14.26 5.77 17 10 17C14.23 17 17.64 14.26 19.3 12.63C19.5209 12.4198 19.6967 12.167 19.8169 11.8868C19.937 11.6066 19.999 11.3049 19.999 11C19.999 10.6951 19.937 10.3934 19.8169 10.1132C19.6967 9.83302 19.5209 9.58016 19.3 9.37ZM10 15C9.20887 15 8.43551 14.7654 7.77772 14.3259C7.11992 13.8864 6.60723 13.2616 6.30448 12.5307C6.00173 11.7998 5.92251 10.9956 6.07686 10.2196C6.2312 9.44371 6.61216 8.73098 7.17157 8.17157C7.73098 7.61216 8.44371 7.2312 9.21964 7.07686C9.99556 6.92252 10.7998 7.00173 11.5307 7.30448C12.2616 7.60723 12.8863 8.11992 13.3259 8.77772C13.7654 9.43552 14 10.2089 14 11C14 12.0609 13.5786 13.0783 12.8284 13.8284C12.0783 14.5786 11.0609 15 10 15Z" fill="#F24D3D"/>
<path d="M13 3L12.5 5.32" stroke="#F24D3D" stroke-width="2" stroke-linecap="round" stroke-linejoin="round"/>
<path d="M17.21 7.60001L18.46 5.98001" stroke="#F24D3D" stroke-width="2" stroke-linecap="round" stroke-linejoin="round"/>
<path d="M7.5 5.32L7 3" stroke="#F24D3D" stroke-width="2" stroke-linecap="round" stroke-linejoin="round"/>
<path d="M1.53999 5.98001L2.78999 7.60001" stroke="#F24D3D" stroke-width="2" stroke-linecap="round" stroke-linejoin="round"/>
</g>
<defs>
<clipPath id="clip0_7_48">
<rect width="20" height="15" fill="white" transform="translate(0 2)"/>
</clipPath>
</defs>
</svg>
