<svg width="15" height="16" viewBox="0 0 15 16" fill="none" xmlns="http://www.w3.org/2000/svg">
<g clip-path="url(#clip0_1807_12306)">
<path d="M7.5 0.5C3.36316 0.5 0 3.86316 0 8C0 12.1368 3.36316 15.5 7.5 15.5C11.6368 15.5 15 12.1368 15 8C15 3.86316 11.6368 0.5 7.5 0.5ZM7.5 13.1316C4.67368 13.1316 2.36842 10.8263 2.36842 8C2.36842 5.17368 4.67368 2.86842 7.5 2.86842C10.3263 2.86842 12.6316 5.17368 12.6316 8C12.6316 10.8263 10.3263 13.1316 7.5 13.1316Z" fill="black"/>
<path d="M10.129 9.05002L8.09217 8.0316V5.6316C8.09217 5.30791 7.82375 5.03949 7.50006 5.03949C7.17638 5.03949 6.90796 5.30791 6.90796 5.6316V8.39475C6.90796 8.61581 7.03427 8.82107 7.23954 8.9237L9.60796 10.1079C9.6948 10.1474 9.78164 10.1711 9.86848 10.1711C10.0895 10.1711 10.2948 10.0526 10.3974 9.83949C10.5474 9.54738 10.429 9.19212 10.129 9.05002Z" fill="black"/>
</g>
<defs>
<clipPath id="clip0_1807_12306">
<rect width="15" height="15" fill="white" transform="translate(0 0.5)"/>
</clipPath>
</defs>
</svg>
