<svg width="15" height="16" viewBox="0 0 15 16" fill="none" xmlns="http://www.w3.org/2000/svg">
<g clip-path="url(#clip0_1807_12267)">
<path d="M13.62 2.35907H12.37V1.03116C12.37 0.733711 12.15 0.5 11.87 0.5H11C10.72 0.5 10.5 0.733711 10.5 1.03116V2.35907H4.5V1.03116C4.5 0.733711 4.28 0.5 4 0.5H3.12C2.84 0.5 2.62 0.733711 2.62 1.03116V2.35907H1.38C0.62 2.35907 0 3.01771 0 3.81445V4.74929V5.68414V14.0552C0 14.8626 0.62 15.5212 1.38 15.5212H13.63C14.39 15.5212 15.01 14.8626 15.01 14.0552V5.68414V4.74929V3.81445C15 3.01771 14.38 2.35907 13.62 2.35907ZM13.62 14.4377H1.38C1.17 14.4377 1 14.2677 1 14.0446V6.2153H14V14.0552C14 14.2677 13.83 14.4377 13.62 14.4377Z" fill="black"/>
</g>
<defs>
<clipPath id="clip0_1807_12267">
<rect width="15" height="15" fill="white" transform="translate(0 0.5)"/>
</clipPath>
</defs>
</svg>
