<svg width="15" height="16" viewBox="0 0 15 16" fill="none" xmlns="http://www.w3.org/2000/svg">
<g clip-path="url(#clip0_1807_12345)">
<path d="M11.7858 7.49534H3.21436V1.49933C3.21436 0.9497 3.6965 0.5 4.28578 0.5H10.7144C11.3036 0.5 11.7858 0.9497 11.7858 1.49933V7.49534Z" fill="black"/>
<path d="M2.14282 8.49463V15.49H4.28568V10.4933H10.7143V15.49H12.8571V8.49463H2.14282Z" fill="black"/>
<path d="M11.7858 7.49534H3.21436V1.49933C3.21436 0.9497 3.6965 0.5 4.28578 0.5H10.7144C11.3036 0.5 11.7858 0.9497 11.7858 1.49933V7.49534Z" fill="black"/>
<path d="M2.14282 8.49463V15.49H4.28568V10.4933H10.7143V15.49H12.8571V8.49463H2.14282Z" fill="black"/>
</g>
<defs>
<clipPath id="clip0_1807_12345">
<rect width="15" height="15" fill="white" transform="translate(0 0.5)"/>
</clipPath>
</defs>
</svg>
