<svg width="61" height="61" viewBox="0 0 61 61" fill="none" xmlns="http://www.w3.org/2000/svg">
<path d="M56.9558 20.7157C56.5463 21.7596 55.9214 22.7584 53.8133 24.5165L53.7987 24.5314L35.1217 38.877C32.454 41.4125 28.3114 41.4125 25.6437 38.877L7.00422 24.5664C5.18987 23.0348 4.17828 21.5331 3.70837 20.804C3.77853 20.6308 5.48519 18.4533 7.26201 17.0931L25.6437 3.29697C28.3114 0.761484 32.454 0.761484 35.1217 3.29697L53.7987 16.8867L53.8133 16.9017C55.7223 18.3284 56.5137 19.7268 56.9558 20.7157V20.7157Z" fill="white" stroke="black" stroke-width="2" stroke-linecap="round" stroke-linejoin="round"/>
<g style="mix-blend-mode:darken">
<path d="M58.4027 22.2436C57.9932 23.2874 57.3683 24.2863 55.2602 26.0443L55.2456 26.0593L36.5686 40.4049C33.9009 42.9403 29.7583 42.9403 27.0906 40.4049L8.45112 26.0943C6.63677 24.5627 5.62518 23.061 5.15527 22.3318C5.22543 22.1587 6.93209 19.9811 8.70891 18.621L27.0906 4.82483C29.7583 2.28935 33.9009 2.28935 36.5686 4.82483L55.2456 18.4146L55.2602 18.4295C57.1692 19.8563 57.9605 21.2547 58.4027 22.2436V22.2436Z" fill="#F26B55"/>
</g>
<path d="M40.1455 17.7041C34.8721 15.2119 30.4032 22.5836 30.382 22.6186C30.3607 22.5836 25.8918 15.2119 20.6184 17.7041C15.3337 20.203 15.8639 26.2212 17.7305 30.2583C19.8499 34.8382 28.7161 42.3048 30.3803 42.3065C32.0429 42.3031 40.9107 34.8382 43.0302 30.2583C44.8983 26.2212 45.4286 20.203 40.1422 17.7041H40.1455Z" fill="white" stroke="black" stroke-width="2" stroke-linejoin="round"/>
<path d="M57.473 24.673V47.6538C57.473 52.0106 54.0058 55.5449 49.7229 55.5449H11.0424C6.75944 55.5449 3.29065 52.0106 3.29065 47.6538V24.673C3.29065 22.537 3.42934 21.5065 3.70834 20.804C3.94329 21.2002 5.53411 23.3478 7.00418 24.5664L25.6436 38.877C28.3113 41.4125 32.454 41.4125 35.1216 38.877L53.7986 24.5315L53.8133 24.5165C55.781 22.7135 56.5463 21.7596 56.9558 20.7174C56.99 20.7923 57.473 22.3522 57.473 24.673V24.673Z" fill="white" stroke="black" stroke-width="2" stroke-linecap="round" stroke-linejoin="round"/>
<g style="mix-blend-mode:darken">
<path fill-rule="evenodd" clip-rule="evenodd" d="M57.5202 20.9288L59.1046 22.8889C59.5421 23.3983 59.8248 26.7009 59.8577 27.832C59.9157 29.8216 60.006 32.9242 60.0635 36.259C60.1073 38.8013 60.1298 41.4182 60.0963 43.5897C60.0795 44.6733 60.0484 45.6765 59.9959 46.5187C59.9484 47.2819 59.8712 48.1592 59.6982 48.8513C58.916 51.98 56.2595 53.432 54.2932 54.1564C52.3237 54.882 49.9562 55.2762 47.9954 55.6026C47.9358 55.6125 47.8766 55.6224 47.8177 55.6322L44.3768 56.2057L37.3635 54.8916L46.3528 52.1994C48.6364 51.4627 49.6431 50.9348 50.7481 49.9158C51.3951 49.3191 52.3499 48.3233 52.4301 48.2093C52.7493 47.755 52.9346 47.482 52.9638 46.9082C52.9876 46.7028 53.0112 46.4297 53.0327 46.0851C53.0756 45.3957 53.1044 44.513 53.1204 43.4818C53.1522 41.4237 53.1311 38.8952 53.0878 36.3793C53.0353 33.3391 52.9467 30.2128 52.8871 28.1146C52.851 26.8411 52.8256 25.9463 52.8256 25.6796L56.3139 22.1913L57.5202 20.9288Z" fill="#F26B55"/>
</g>
<g style="mix-blend-mode:darken">
<path d="M10.2675 49.4671L17.2442 42.4903" stroke="#F26B55" stroke-width="2" stroke-linecap="square"/>
</g>
<g style="mix-blend-mode:darken">
<path d="M50.4954 49.4671L43.5186 42.4903" stroke="#F26B55" stroke-width="2" stroke-linecap="square"/>
</g>
<path d="M56.9549 10.5263C56.7837 10.9574 56.5103 11.2901 56.0428 11.4067C55.2589 11.6027 54.7915 12.095 54.5888 12.8713C54.4875 13.2604 54.2446 13.5472 53.8527 13.6887C53.3078 13.8846 52.7122 13.6629 52.4464 13.1485C52.3537 12.9698 52.2858 12.7766 52.2227 12.5845C52.0468 12.0472 51.7055 11.683 51.1587 11.5138C50.9771 11.4574 50.7964 11.3895 50.6262 11.3063C50.2018 11.0979 49.9752 10.749 49.9733 10.2767C49.9714 9.79014 50.1989 9.43451 50.6386 9.22037C50.6597 9.20986 50.6798 9.1936 50.7027 9.18882C51.6262 8.9852 52.1453 8.403 52.3996 7.5015C52.5334 7.02733 52.9378 6.78547 53.4473 6.7826C53.9703 6.77973 54.3288 7.03307 54.5324 7.51011C54.5926 7.65255 54.6519 7.79691 54.6978 7.94413C54.8708 8.50051 55.2322 8.86379 55.7914 9.02822C56.3277 9.18596 56.7837 9.43929 56.9558 10.0234V10.5253L56.9549 10.5263ZM53.3967 12.6495C53.7255 12.1075 53.9492 11.5377 54.346 11.1419C54.7417 10.7471 55.3125 10.5263 55.7455 10.2653C55.3173 10.0081 54.7475 9.78919 54.3527 9.39532C53.9521 8.99476 53.7227 8.42212 53.3938 7.88486C53.1099 9.13816 52.3126 9.90964 51.0497 10.2681C52.3231 10.6228 53.1099 11.4058 53.3967 12.6495V12.6495Z" fill="black"/>
<g style="mix-blend-mode:darken">
<path d="M57.4787 10.536C57.6809 10.6412 57.6812 10.9172 57.4792 11.0227C56.9235 11.3131 56.3046 11.6086 55.8432 12.0612C55.4095 12.4886 55.115 13.0531 54.795 13.6372C54.6664 13.8721 54.3169 13.8225 54.2217 13.5722C53.7605 12.3592 52.8941 11.5114 51.6306 11.0095C51.4421 10.9346 51.4414 10.6267 51.6297 10.5512C52.8852 10.048 53.7581 9.20748 54.2201 7.98887C54.315 7.73845 54.6645 7.68804 54.7939 7.9225C55.1161 8.50613 55.4158 9.07375 55.8545 9.50509C56.3125 9.95535 56.928 10.2495 57.4787 10.536Z" fill="#F26B55"/>
</g>
<path d="M12.0863 7.87972C11.8809 8.3971 11.5528 8.79633 10.9919 8.93628C10.0512 9.17146 9.49021 9.76226 9.247 10.6938C9.1254 11.1607 8.83402 11.5048 8.36367 11.6746C7.70977 11.9098 6.99508 11.6436 6.67616 11.0265C6.56488 10.8119 6.48343 10.5802 6.40772 10.3496C6.19664 9.7049 5.78709 9.26782 5.1309 9.06477C4.91293 8.99708 4.69612 8.91563 4.49192 8.81583C3.98257 8.56574 3.71068 8.14702 3.70839 7.58031C3.70609 6.99639 3.97912 6.56964 4.50683 6.31267C4.53207 6.30005 4.55616 6.28055 4.58369 6.27481C5.69187 6.03046 6.3148 5.33182 6.61995 4.25003C6.78055 3.68102 7.26581 3.39078 7.87726 3.38734C8.50477 3.3839 8.93497 3.68791 9.17932 4.26035C9.25159 4.43128 9.32272 4.60451 9.37778 4.78117C9.58542 5.44884 10.0191 5.88477 10.6902 6.08208C11.3337 6.27137 11.8809 6.57537 12.0874 7.2763V7.87858L12.0863 7.87972ZM7.81646 10.4276C8.21109 9.77717 8.47954 9.09345 8.95562 8.61851C9.43055 8.14472 10.1154 7.87972 10.6351 7.56654C10.1212 7.25795 9.43744 6.99524 8.96365 6.5226C8.48298 6.04193 8.20765 5.35477 7.81302 4.71005C7.47231 6.21401 6.51555 7.13979 5.00012 7.56998C6.52817 7.99559 7.47231 8.93513 7.81646 10.4276V10.4276Z" fill="black"/>
<g style="mix-blend-mode:darken">
<path d="M12.2105 7.83372C12.4122 7.93974 12.4125 8.21741 12.211 8.32381C11.5218 8.68772 10.7367 9.04953 10.1581 9.61704C9.60614 10.161 9.24204 10.8901 8.83013 11.6359C8.70066 11.8703 8.35159 11.8195 8.26246 11.5669C7.7076 9.99473 6.6058 8.91597 4.96854 8.30312C4.77858 8.23202 4.77787 7.92913 4.9676 7.85738C6.59378 7.24238 7.70475 6.17385 8.26032 4.59357C8.34914 4.34091 8.69824 4.28918 8.82844 4.52321C9.24272 5.26789 9.61338 6.00078 10.1717 6.54974C10.7463 7.11463 11.5275 7.47472 12.2105 7.83372Z" fill="#F26B55"/>
</g>
<path d="M25.0573 55.5626C25.2587 55.6691 25.2589 55.9476 25.0577 56.0545C24.2809 56.4674 23.3855 56.8727 22.7293 57.5164C22.0993 58.1373 21.6897 58.9755 21.2162 59.8278C21.0862 60.0619 20.7373 60.0106 20.6511 59.757C20.0358 57.9462 18.7785 56.715 16.893 56.03C16.7023 55.9607 16.7017 55.6606 16.8921 55.5907C18.7644 54.903 20.0328 53.6839 20.6487 51.8634C20.7345 51.6097 21.0833 51.5575 21.2141 51.7912C21.69 52.6419 22.1071 53.4844 22.7445 54.1111C23.3962 54.7519 24.2875 55.1553 25.0573 55.5626Z" fill="#F26B55"/>
<path d="M26.0856 55.6725C25.812 56.3618 25.3749 56.8936 24.6276 57.0801C23.3744 57.3934 22.627 58.1805 22.303 59.4215C22.141 60.0435 21.7528 60.502 21.1262 60.7282C20.2551 61.0415 19.3029 60.6869 18.8781 59.8647C18.7298 59.5789 18.6213 59.2702 18.5204 58.963C18.2392 58.1041 17.6936 57.5218 16.8194 57.2513C16.5291 57.1611 16.2402 57.0526 15.9682 56.9196C15.2896 56.5864 14.9274 56.0286 14.9243 55.2736C14.9213 54.4957 15.285 53.9272 15.988 53.5848C16.0217 53.568 16.0538 53.5421 16.0904 53.5344C17.5668 53.2089 18.3967 52.2781 18.8032 50.8369C19.0171 50.0789 19.6636 49.6922 20.4782 49.6877C21.3142 49.6831 21.8873 50.0881 22.2128 50.8507C22.3091 51.0784 22.4039 51.3092 22.4772 51.5446C22.7539 52.434 23.3316 53.0148 24.2256 53.2777C25.083 53.5298 25.812 53.9348 26.0871 54.8686V55.671L26.0856 55.6725ZM20.3972 59.0669C20.9229 58.2003 21.2806 57.2895 21.9148 56.6568C22.5475 56.0256 23.4599 55.6725 24.1523 55.2553C23.4676 54.8442 22.5567 54.4942 21.9255 53.8645C21.2852 53.2242 20.9184 52.3087 20.3926 51.4498C19.9387 53.4534 18.6641 54.6868 16.6452 55.2599C18.6809 55.8269 19.9387 57.0786 20.3972 59.0669V59.0669Z" fill="black"/>
</svg>
