<svg width="50" height="43" viewBox="0 0 50 43" fill="none" xmlns="http://www.w3.org/2000/svg">
<path d="M25 0C11.1952 0 0 9.62786 0 21.5028C0.0351865 26.3431 1.87075 30.9957 5.14309 34.5629C5.19587 34.6098 5.24279 34.6627 5.28384 34.7213C6.15764 35.5896 6.6913 36.7396 6.79686 37.9658C6.76167 40.4007 4.02299 42.9646 4.02299 42.9646C4.02299 42.9646 9.3772 40.7468 11.1893 40.078C11.2538 40.0545 11.3183 40.0428 11.3828 40.031C11.8285 39.9137 12.3035 39.9841 12.7023 40.2246C12.7082 40.2305 12.7141 40.2305 12.7199 40.2305C16.5494 42.0728 20.7483 43.0174 25 42.9998C38.8107 42.9998 50 33.3719 50 21.4969C50 9.622 38.8107 0 25 0Z" fill="#F24D3D"/>
<path d="M11.3652 22.1071C13.3885 22.688 15.4586 23.0752 17.5581 23.2629C22.49 23.5856 27.4396 23.4741 32.3481 22.9344C34.4945 22.7173 36.5998 22.2362 38.6289 21.5028C38.4881 23.2805 38.019 25.0231 37.2508 26.6306C36.0661 28.9481 33.0167 32.527 30.1196 33.2956C26.5365 34.0877 22.8243 34.029 19.2646 33.1313C16.2151 32.1926 13.7696 28.1737 12.9604 26.7949C12.0631 25.3868 11.5118 23.7792 11.3652 22.1071Z" fill="white"/>
<path d="M11.5706 17.0732C13.8753 17.3431 16.1976 17.4369 18.5199 17.3607C21.5225 17.1788 29.6857 16.6977 34.4125 14.8965C36.3946 14.2511 38.3064 13.4063 40.1127 12.3678C40.0071 14.6912 39.5028 16.9793 38.629 19.1325C37.3798 21.409 37.2039 21.3034 37.2039 21.3034C33.263 22.1365 29.2576 22.6176 25.2346 22.7349C21.4404 22.7232 17.652 22.4885 13.887 22.0367C13.1188 21.0393 12.4737 19.9539 11.9576 18.804C11.7641 18.2407 11.6351 17.6658 11.5706 17.0732Z" fill="white"/>
<path d="M10.6851 9.57507C12.632 10.4141 14.6787 10.9949 16.7723 11.2941C21.8392 12.1977 26.9823 12.5555 32.1254 12.3619C34.5415 12.2681 36.9459 11.9571 39.3151 11.4408V11.9923C39.3151 11.9923 36.7934 13.9167 30.4305 15.1429C25.4986 16.0347 20.5021 16.4923 15.488 16.5158H12.937C11.9694 14.8906 11.2774 13.1129 10.8903 11.2589C10.7672 10.7074 10.6968 10.1383 10.6851 9.57507Z" fill="white"/>
<path d="M31.967 11.6637C34.3069 11.5933 36.6409 11.3704 38.9515 10.989C37.198 9.93883 31.2984 8.95903 24.2553 8.64221C19.8452 8.34885 15.4117 8.52486 11.0369 9.16437C12.849 9.80389 14.7197 10.2674 16.6257 10.549C21.6984 11.3997 26.8356 11.7752 31.967 11.6637Z" fill="#FFE2CA"/>
<path d="M35.5207 22.3829C35.2979 23.2747 34.9812 24.143 34.5707 24.9644C33.3919 27.2819 30.3366 30.8608 27.4454 31.6353C23.8622 32.4273 20.1501 32.3686 16.5904 31.4651L16.5435 31.4475C17.3176 32.1985 18.25 32.7676 19.2645 33.1196C22.8184 34.0173 26.5364 34.076 30.1137 33.2839C33.0107 32.5153 36.0602 28.9364 37.239 26.6189C38.0072 25.0055 38.4764 23.2688 38.623 21.4911C37.6202 21.8842 36.5822 22.1775 35.5207 22.3829Z" fill="#FFE2CA"/>
<path d="M37.6612 13.5882C37.4266 15.7883 36.805 17.9298 35.8315 19.9129C35.4386 20.5876 34.9811 21.2212 34.4768 21.8138C36.1306 21.5263 37.2096 21.2975 37.2096 21.2975C37.2096 21.2975 37.3856 21.409 38.6347 19.1267C39.5085 16.9735 40.0128 14.6853 40.1184 12.3619C39.3384 12.8489 38.5115 13.2537 37.6612 13.5882Z" fill="#FFE2CA"/>
<path d="M37.2508 11.8339C37.2274 12.2622 37.1863 12.7198 37.1277 13.1657C37.8959 12.8548 38.629 12.4617 39.3151 11.9923V11.4408C38.6348 11.6109 37.9428 11.74 37.2508 11.8339Z" fill="#FFE2CA"/>
<path d="M30.0492 33.9762V35.2669C28.413 35.6483 26.7358 35.8302 25.0586 35.8067C23.3403 35.8243 21.622 35.6424 19.9448 35.2728V33.9821C20.0797 34.0173 20.2205 34.0466 20.3612 34.0759C23.5632 34.692 26.859 34.6626 30.0492 33.9762Z" fill="#FFE2CA"/>
</svg>
