<svg width="81" height="42" viewBox="0 0 81 42" fill="none" xmlns="http://www.w3.org/2000/svg">
<path d="M77.0047 5.62959C76.5906 6.57473 75.8337 7.50486 74.1342 9.14009H74.1199L56.3398 23.5122C53.7977 26.0475 49.8561 26.0475 47.314 23.5122L29.5624 9.2001C28.4484 8.22496 27.2488 6.66474 26.7204 5.86962C27.7772 3.12423 30.3478 1.17395 33.3469 1.17395H70.4782C73.3916 1.17395 75.8908 3.00421 77.0047 5.62959Z" fill="white" stroke="black" stroke-width="2" stroke-linecap="round" stroke-linejoin="round"/>
<path d="M77.6189 9.30511V32.2884C77.6189 36.639 74.3199 40.1795 70.2355 40.1795H33.4183C33.147 40.1795 32.8757 40.1645 32.6186 40.1345C31.3333 39.9845 30.1479 39.4744 29.134 38.7243C28.9911 38.6043 28.8626 38.4993 28.7198 38.3793C28.5341 38.2143 28.3628 38.0492 28.1914 37.8692C27.9058 37.5692 27.6487 37.2391 27.4202 36.8791C26.6633 35.6789 26.2063 34.2387 26.2063 32.6785V8.67501C26.2063 7.68487 26.392 6.73974 26.7204 5.86961C27.2488 6.66473 28.4485 8.22495 29.5624 9.20009L47.314 23.5121C49.8561 26.0475 53.7977 26.0475 56.3398 23.5121L74.12 9.15508H74.1343C75.8337 7.50485 76.5906 6.57471 77.0048 5.62958C77.2618 6.24467 77.4475 6.91976 77.5332 7.60986C77.5475 7.63987 77.5475 7.66987 77.5475 7.71488C77.5618 7.95491 77.5903 8.19495 77.6046 8.46498C77.6189 8.73502 77.6189 9.00506 77.6189 9.30511Z" fill="white" stroke="black" stroke-width="2" stroke-linecap="round" stroke-linejoin="round"/>
<g style="mix-blend-mode:darken">
<path d="M33.3469 32.6785L43.3438 20.6768" stroke="#F26B55" stroke-width="2" stroke-linecap="square"/>
</g>
<g style="mix-blend-mode:darken">
<path fill-rule="evenodd" clip-rule="evenodd" d="M8.06878 13.0612H20.0657V15.0612H8.06878V13.0612ZM1.64215 20.879L16.4953 20.879V22.879L1.64215 22.879L1.64215 20.879ZM5.21253 28.4628L20.0657 28.4628V30.4628L5.21253 30.4628L5.21253 28.4628Z" fill="#F26B55"/>
</g>
<g style="mix-blend-mode:darken">
<path d="M70.4782 32.6785L60.4814 20.6768" stroke="#F26B55" stroke-width="2" stroke-linecap="square"/>
</g>
<g style="mix-blend-mode:darken">
<path d="M30.515 9.93427C35.2754 13.9348 44.8719 23.282 47.7282 25.0822C51.2985 27.3326 53.4407 27.0825 56.297 25.0822C59.1532 23.082 70.8162 13.0805 77.0048 7.82977" stroke="#F26B55" stroke-width="2"/>
</g>
<g style="mix-blend-mode:darken">
<path fill-rule="evenodd" clip-rule="evenodd" d="M73.3303 2.58411C73.3303 2.58411 77.7677 3.82611 78.4428 5.56348C81.8703 14.3847 80.0918 33.1952 79.5998 34.4487C76.1723 43.1799 65.3614 41.1546 58.335 40.4945C62.2195 39.0843 70.5312 37.5841 72.6734 33.8036C74.5442 24.2922 74.4157 11.9905 73.3303 2.58411Z" fill="#F26B55"/>
</g>
</svg>
