<svg width="174" height="88" viewBox="0 0 174 88" fill="none" xmlns="http://www.w3.org/2000/svg">
<path d="M43.3167 6.73416C19.3928 6.73416 0 23.431 0 43.9793C0.0620167 52.3628 3.23803 60.4239 8.91104 66.5967C9.00182 66.68 9.0852 66.7709 9.16025 66.8686C10.6763 68.3817 11.6074 70.383 11.7882 72.5173C11.7278 76.7387 6.9778 81.1791 6.9778 81.1791C6.9778 81.1791 16.2513 77.3353 19.3928 76.1799C19.5015 76.1442 19.6125 76.1165 19.7251 76.0968C20.1059 75.9994 20.5023 75.9786 20.8912 76.0357C21.2801 76.0927 21.6538 76.2264 21.9906 76.4291C28.6293 79.6191 35.9061 81.2588 43.2714 81.2244C67.1953 81.2244 86.5957 64.5502 86.5957 43.9868C86.5957 23.4235 67.2482 6.73416 43.3243 6.73416" fill="white"/>
<path d="M19.6951 45.029C23.2012 46.0333 26.794 46.7059 30.4261 47.0377C38.9701 47.5906 47.546 47.3986 56.0566 46.4638C59.7726 46.088 63.4278 45.2535 66.9387 43.9793C66.6911 47.0675 65.8825 50.0847 64.5523 52.8828C62.4983 56.8927 57.212 63.0927 52.1977 64.4294C45.9901 65.7962 39.5494 65.698 33.3863 64.1424C28.1001 62.5188 23.8636 55.5561 22.4665 53.1697C20.9037 50.7251 19.9507 47.9411 19.6875 45.0516" fill="#F26B55"/>
<path d="M20.0576 36.3067C24.0669 36.7767 28.106 36.9433 32.1404 36.8051C37.336 36.488 51.4879 35.6573 59.674 32.5384C63.1085 31.4223 66.4186 29.9545 69.5517 28.1584C69.3663 32.18 68.498 36.1408 66.9841 39.8712C64.8167 43.8207 64.5147 43.647 64.5147 43.647C57.674 45.0795 50.7187 45.8959 43.7323 46.0862C37.1695 46.0677 30.6134 45.6643 24.0978 44.8779C22.7574 43.154 21.6244 41.2783 20.7222 39.2897C20.3879 38.3239 20.1649 37.3231 20.0576 36.3067Z" fill="#F26B55"/>
<path d="M18.5093 23.3253C21.8866 24.7794 25.4417 25.7799 29.0817 26.3007C37.8613 27.8633 46.7827 28.4835 55.694 28.1509C59.8834 27.9836 64.0502 27.4504 68.1468 26.5574V27.509C68.1468 27.509 63.7743 30.8393 52.7564 32.9689C44.2131 34.515 35.551 35.3109 26.869 35.3477H22.4211C20.7464 32.5306 19.5496 29.4558 18.8793 26.2478C18.6686 25.2844 18.5472 24.3035 18.5168 23.3177" fill="#F26B55"/>
<path d="M55.3996 26.9426C59.4486 26.82 63.4851 26.4289 67.4823 25.7721C64.4616 23.9521 54.2215 22.2605 42.0104 21.7092C34.3647 21.2012 26.6868 21.5075 19.106 22.623C22.2601 23.7264 25.5119 24.5279 28.8175 25.0169C37.5985 26.4881 46.4982 27.1328 55.3996 26.9426Z" fill="#F24D3D"/>
<path d="M61.5544 45.5123C61.1697 47.0555 60.6177 48.5521 59.9081 49.9754C57.8616 53.9929 52.5678 60.1929 47.5761 61.5295C41.3708 62.8977 34.9317 62.7968 28.7723 61.235L28.6968 61.1897C30.0381 62.4873 31.6462 63.4769 33.4091 64.0895C39.5695 65.645 46.0078 65.7433 52.2129 64.3765C57.2348 63.0399 62.521 56.8248 64.5675 52.8299C65.8877 50.0451 66.6912 47.0437 66.9387 43.9717C65.1897 44.6338 63.3853 45.1392 61.5468 45.4821" fill="#F24D3D"/>
<path d="M65.262 30.2729C64.8556 34.0832 63.782 37.7922 62.0903 41.2305C61.4036 42.3959 60.6179 43.5 59.7417 44.5306C62.6114 44.0321 64.4766 43.6319 64.4766 43.6319C64.4766 43.6319 64.7787 43.8207 66.9461 39.856C68.46 36.1257 69.3282 32.1649 69.5136 28.1433C68.1633 28.9752 66.7402 29.6829 65.262 30.2578" fill="#F24D3D"/>
<path d="M64.5523 27.2069C64.507 27.9621 64.439 28.7172 64.3408 29.5177C65.669 28.9787 66.935 28.2976 68.1167 27.4863V26.565C66.9364 26.8529 65.7415 27.0772 64.5372 27.2371" fill="#F24D3D"/>
<path d="M52.1069 65.5848V67.8503C49.2585 68.4961 46.3425 68.7953 43.4224 68.7414C40.4415 68.7683 37.4672 68.4567 34.5566 67.8125V65.547C34.7983 65.6074 35.05 65.6603 35.3118 65.7056C40.8609 66.7973 46.5731 66.7588 52.1069 65.5923" fill="#F24D3D"/>
<path d="M106.615 27.0559V0.156616H109.175L116.81 18.024V0.156616H119.936V27.0559H117.543L109.802 8.69007V27.0559H106.615Z" fill="white"/>
<path d="M129.134 27.3202C127.92 27.3925 126.712 27.0893 125.676 26.4517C124.82 25.816 124.215 24.8988 123.969 23.8615C123.617 22.4904 123.455 21.0778 123.486 19.6627V15.2827C123.452 13.8492 123.62 12.4179 123.984 11.0311C124.247 9.9993 124.864 9.09295 125.729 8.47106C126.748 7.83598 127.935 7.52281 129.134 7.5724C130.406 7.46856 131.672 7.82206 132.706 8.56923C133.52 9.32706 134.053 10.3389 134.217 11.4389C134.48 12.9344 134.601 14.4515 134.579 15.9699V17.5331H127.027V21.3845C127.01 22.0206 127.081 22.656 127.239 23.2725C127.342 23.7026 127.59 24.0841 127.941 24.3523C128.308 24.5998 128.745 24.7217 129.187 24.6997C129.623 24.7319 130.055 24.5969 130.396 24.3221C130.696 24.0268 130.895 23.6431 130.962 23.2271C131.066 22.6745 131.114 22.1129 131.105 21.5507V20.4103H134.564V21.1655C134.652 22.7689 134.22 24.3578 133.333 25.6966C132.548 26.784 131.148 27.3252 129.134 27.3202ZM127.012 15.5999H131.09V13.8705C131.101 13.1986 131.058 12.5269 130.962 11.8618C130.912 11.4038 130.719 10.9732 130.411 10.6309C130.055 10.3328 129.598 10.184 129.134 10.2155C128.662 10.1829 128.194 10.3253 127.82 10.6158C127.469 10.9809 127.253 11.4552 127.209 11.96C127.081 12.8223 127.025 13.6937 127.043 14.5653L127.012 15.5999Z" fill="white"/>
<path d="M140.326 27.0559L136.55 7.85938H140.137L142.494 23.3027L144.887 7.85938H148.339L144.676 27.0559H140.326Z" fill="white"/>
<path d="M155.928 27.3202C154.706 27.4003 153.489 27.0967 152.447 26.4517C151.588 25.8173 150.981 24.8999 150.733 23.8615C150.394 22.4859 150.242 21.0712 150.279 19.6552V15.2752C150.246 13.8416 150.413 12.4104 150.778 11.0235C151.041 9.99175 151.658 9.08539 152.522 8.46351C153.542 7.83108 154.729 7.52056 155.928 7.5724C157.2 7.46856 158.466 7.82206 159.5 8.56923C160.314 9.32706 160.847 10.3389 161.01 11.4389C161.277 12.9342 161.401 14.4513 161.381 15.9699V17.5331H153.829V21.3845C153.809 22.0211 153.883 22.6572 154.048 23.2725C154.147 23.702 154.393 24.0837 154.743 24.3523C155.109 24.5998 155.547 24.7217 155.989 24.6997C156.425 24.7334 156.857 24.5982 157.197 24.3221C157.497 24.0268 157.696 23.6431 157.763 23.2271C157.87 22.6748 157.92 22.1131 157.914 21.5507V20.4103H161.365V21.1655C161.442 22.7731 160.997 24.3624 160.097 25.6966C159.291 26.784 157.902 27.3252 155.928 27.3202ZM153.806 15.5999H157.892V13.8705C157.901 13.1984 157.855 12.5266 157.756 11.8618C157.708 11.4047 157.517 10.9742 157.212 10.6309C156.845 10.3262 156.373 10.1772 155.898 10.2155C155.426 10.1843 154.959 10.3266 154.584 10.6158C154.238 10.9845 154.023 11.4569 153.972 11.96C153.844 12.8223 153.789 13.6937 153.806 14.5653V15.5999Z" fill="white"/>
<path d="M164.695 27.0559V7.8594H168.252V10.5931C168.751 9.64062 169.481 8.82808 170.374 8.22943C171.02 7.84817 171.754 7.64249 172.504 7.63284H172.753C172.856 7.62479 172.96 7.62479 173.063 7.63284V11.5748C172.769 11.4574 172.466 11.3639 172.156 11.2954C171.812 11.22 171.46 11.1821 171.107 11.1822C170.579 11.177 170.059 11.307 169.596 11.5597C169.027 11.9406 168.564 12.4605 168.252 13.0701V27.0559H164.695Z" fill="white"/>
<path d="M106.615 57.2628V30.3635H117.052V33.1501H110.376V42.0536H115.791V44.7043H110.376V54.5744H117.12V57.2628H106.615Z" fill="white"/>
<path d="M123.289 57.5271C122.571 57.5382 121.869 57.3097 121.296 56.8777C120.716 56.4407 120.25 55.8709 119.936 55.2163C119.606 54.5523 119.436 53.8206 119.438 53.0791C119.406 52.0401 119.61 51.0073 120.034 50.0584C120.418 49.2545 120.979 48.5473 121.673 47.9893C122.416 47.3878 123.23 46.8805 124.097 46.4789C125.019 46.056 125.985 45.6482 127.005 45.248V43.8887C127.013 43.2444 126.97 42.6005 126.876 41.963C126.825 41.5297 126.631 41.1259 126.325 40.8151C125.972 40.5366 125.527 40.4018 125.079 40.4375C124.661 40.4161 124.247 40.5329 123.901 40.7698C123.592 41.0092 123.364 41.3392 123.251 41.7138C123.113 42.1819 123.047 42.6682 123.055 43.1562V44.1228L119.536 43.9869C119.581 41.8648 120.065 40.2941 120.994 39.2897C121.922 38.2853 123.365 37.7793 125.313 37.7793C127.261 37.7793 128.568 38.3004 129.361 39.335C130.247 40.6728 130.669 42.2649 130.562 43.866V52.626C130.562 53.2302 130.562 53.8041 130.607 54.3554C130.652 54.9066 130.69 55.4277 130.743 55.8657C130.796 56.3037 130.849 56.787 130.894 57.2099H127.624C127.556 56.855 127.473 56.4019 127.375 55.8657C127.277 55.3295 127.201 54.8311 127.156 54.3554C126.91 55.1517 126.471 55.8753 125.879 56.4623C125.546 56.811 125.143 57.0859 124.697 57.2693C124.251 57.4527 123.771 57.5405 123.289 57.5271ZM124.679 54.4686C125.033 54.469 125.379 54.3667 125.676 54.1741C125.976 53.9785 126.255 53.7506 126.506 53.4945C126.694 53.3067 126.861 53.0991 127.005 52.8752V47.4304C126.453 47.7401 125.932 48.0497 125.449 48.3593C124.991 48.6447 124.561 48.9734 124.165 49.341C123.81 49.6733 123.518 50.0673 123.304 50.504C123.077 51.0281 122.97 51.596 122.989 52.1668C123.009 52.7376 123.155 53.2968 123.418 53.8041C123.549 54.0173 123.736 54.1914 123.958 54.3082C124.179 54.4251 124.428 54.4805 124.679 54.4686Z" fill="white"/>
<path d="M138.831 57.5271C137.991 57.5655 137.157 57.3694 136.422 56.9607C135.816 56.5893 135.349 56.0295 135.093 55.3673C134.799 54.5937 134.658 53.7705 134.677 52.9432V40.4224H132.653V38.0663H134.677V32.4931H138.234V38.1041H141.323V40.4224H138.234V52.7091C138.186 53.2722 138.313 53.8364 138.597 54.3252C138.778 54.5058 138.998 54.6426 139.24 54.7251C139.482 54.8075 139.74 54.8335 139.994 54.8009C140.167 54.8009 140.371 54.8009 140.605 54.8009L141.285 54.733V57.3534C140.847 57.4214 140.432 57.4743 140.054 57.5045C139.676 57.5347 139.269 57.5271 138.831 57.5271Z" fill="white"/>
<path d="M105.158 87.4697L110.867 60.5705H114.484L120.231 87.4697H116.682L115.451 80.6732H109.968L108.677 87.4697H105.158ZM110.444 77.9999H114.93L112.664 65.8793L110.444 77.9999Z" fill="white"/>
<path d="M122.987 87.4697V60.5705H126.544V87.4697H122.987Z" fill="white"/>
<path d="M135.539 87.734C134.348 87.8046 133.165 87.5009 132.155 86.8656C131.318 86.2631 130.705 85.3999 130.411 84.4113C130.046 83.1868 129.872 81.913 129.897 80.6354V75.0547C129.873 73.7771 130.046 72.5034 130.411 71.2788C130.716 70.3078 131.328 69.4622 132.155 68.8698C133.165 68.2324 134.347 67.9237 135.539 67.9862C136.714 67.9199 137.88 68.2208 138.876 68.8471C139.705 69.4544 140.313 70.3164 140.606 71.3015C140.971 72.526 141.144 73.7997 141.119 75.0773V80.658C141.144 81.9357 140.971 83.2094 140.606 84.4339C140.31 85.4116 139.703 86.2657 138.876 86.8656C137.882 87.4978 136.715 87.8016 135.539 87.734ZM135.539 85.106C135.811 85.1357 136.086 85.0966 136.339 84.9924C136.593 84.8882 136.816 84.7221 136.988 84.5094C137.287 84.0346 137.459 83.4912 137.487 82.9311C137.54 82.2817 137.57 81.602 137.57 80.8921V74.8508C137.57 74.0956 137.57 73.431 137.487 72.7891C137.454 72.2323 137.282 71.6925 136.988 71.2184C136.82 70.9999 136.598 70.8283 136.344 70.72C136.09 70.6116 135.813 70.57 135.539 70.5991C135.263 70.5708 134.985 70.6127 134.73 70.721C134.475 70.8293 134.252 71.0004 134.081 71.2184C133.772 71.6864 133.595 72.229 133.568 72.7891C133.507 73.431 133.484 74.1182 133.484 74.8508V80.8921C133.484 81.602 133.484 82.2817 133.568 82.9311C133.588 83.4949 133.766 84.0416 134.081 84.5094C134.256 84.7211 134.481 84.8864 134.735 84.9904C134.989 85.0945 135.265 85.1342 135.539 85.106Z" fill="white"/>
<path d="M144.374 87.4697V68.2732H147.923V70.1687C148.565 69.5759 149.281 69.0682 150.053 68.6584C150.84 68.2366 151.72 68.021 152.613 68.0316C153.26 67.9873 153.899 68.2019 154.388 68.6281C154.805 69.0451 155.102 69.5669 155.249 70.1385C155.414 70.7335 155.498 71.3483 155.498 71.966V87.4697H151.948V72.9553C151.974 72.4078 151.871 71.862 151.646 71.3619C151.516 71.1601 151.331 70.9997 151.113 70.8993C150.895 70.799 150.653 70.763 150.415 70.7955C149.978 70.8099 149.551 70.9291 149.169 71.1429C148.729 71.3862 148.312 71.6693 147.923 71.9887V87.4697H144.374Z" fill="white"/>
<path d="M164.265 87.734C163.04 87.8127 161.821 87.5092 160.776 86.8656C159.92 86.2299 159.316 85.3127 159.07 84.2753C158.717 82.9018 158.555 81.4866 158.586 80.069V75.689C158.552 74.2555 158.72 72.8242 159.085 71.4374C159.352 70.3995 159.978 69.4898 160.852 68.8698C161.875 68.2385 163.064 67.9306 164.265 67.9863C165.537 67.8824 166.803 68.2359 167.837 68.9831C168.651 69.7409 169.184 70.7527 169.348 71.8527C169.611 73.3483 169.732 74.8654 169.71 76.3838V77.947H162.158V81.7984C162.141 82.4344 162.212 83.0699 162.37 83.6863C162.472 84.1165 162.72 84.498 163.072 84.7662C163.437 85.0126 163.871 85.1344 164.311 85.1136C164.749 85.1469 165.184 85.0119 165.526 84.736C165.827 84.4406 166.025 84.057 166.093 83.641C166.197 83.0884 166.245 82.5267 166.236 81.9645V80.8242H169.695V81.5794C169.782 83.1828 169.351 84.7717 168.464 86.1104C167.638 87.1979 166.239 87.7391 164.265 87.734ZM162.143 76.0137H166.221V74.2844C166.232 73.6124 166.189 72.9407 166.093 72.2756C166.043 71.8177 165.85 71.3871 165.541 71.0447C165.178 70.7391 164.708 70.5898 164.235 70.6294C163.763 70.5953 163.294 70.7379 162.921 71.0296C162.57 71.3947 162.354 71.8691 162.309 72.3738C162.181 73.2361 162.126 74.1076 162.143 74.9792V76.0137Z" fill="white"/>
</svg>
