<svg width="48" height="41" viewBox="0 0 48 41" fill="none" xmlns="http://www.w3.org/2000/svg">
<path d="M24.0102 0C11.1504 0 0.726227 8.97503 0.726227 20.0203C0.759562 24.5266 2.46675 28.8597 5.51616 32.1778C5.56495 32.2225 5.60977 32.2714 5.65011 32.3239C6.46503 33.1373 6.9655 34.213 7.06274 35.3602C7.03026 37.6294 4.47699 40.0162 4.47699 40.0162C4.47699 40.0162 9.46176 37.9501 11.1504 37.329C11.2088 37.3098 11.2685 37.2949 11.329 37.2843C11.5337 37.232 11.7468 37.2208 11.9558 37.2515C12.1649 37.2821 12.3658 37.354 12.5468 37.4629C16.1153 39.1777 20.0268 40.0591 23.9858 40.0406C36.8455 40.0406 47.2738 31.0777 47.2738 20.0243C47.2738 8.97097 36.874 0 24.0142 0" fill="white"/>
<path d="M11.3128 20.5845C13.1974 21.1244 15.1287 21.4859 17.081 21.6643C21.6736 21.9615 26.2834 21.8582 30.8581 21.3558C32.8556 21.1538 34.8203 20.7052 36.7075 20.0203C36.5745 21.6803 36.1398 23.3021 35.4248 24.8062C34.3207 26.9616 31.4792 30.2943 28.7839 31.0128C25.4471 31.7475 21.985 31.6947 18.6722 30.8585C15.8307 29.9858 13.5535 26.2431 12.8025 24.9604C11.9625 23.6464 11.4502 22.1499 11.3087 20.5967" fill="#F26B55"/>
<path d="M11.5076 15.8961C13.6627 16.1487 15.8338 16.2383 18.0024 16.164C20.7952 15.9935 28.4023 15.547 32.8025 13.8705C34.6487 13.2706 36.4279 12.4816 38.112 11.5161C38.0124 13.6779 37.5457 15.8069 36.7319 17.812C35.5669 19.935 35.4045 19.8417 35.4045 19.8417C31.7275 20.6117 27.9888 21.0505 24.2334 21.1528C20.7057 21.1429 17.1816 20.926 13.6793 20.5033C12.9588 19.5767 12.3498 18.5684 11.8648 17.4995C11.6851 16.9804 11.5653 16.4424 11.5076 15.8961Z" fill="#F26B55"/>
<path d="M10.6755 8.9182C12.4909 9.69981 14.4018 10.2376 16.3584 10.5175C21.0777 11.3575 25.8732 11.6909 30.6633 11.5121C32.9152 11.4221 35.155 11.1355 37.357 10.6556V11.167C37.357 11.167 35.0067 12.9572 29.0842 14.1019C24.492 14.933 19.8359 15.3608 15.1691 15.3805H12.7782C11.878 13.8663 11.2347 12.2135 10.8744 10.4891C10.7611 9.97125 10.6959 9.44401 10.6795 8.91414" fill="#F26B55"/>
<path d="M30.505 10.8626C32.6815 10.7967 34.8512 10.5865 36.9998 10.2334C35.3761 9.25512 29.8717 8.34584 23.3079 8.04952C19.1982 7.77644 15.0711 7.94109 10.9962 8.54069C12.6916 9.13379 14.4395 9.56465 16.2164 9.82747C20.9364 10.6183 25.7202 10.9648 30.505 10.8626Z" fill="#F24D3D"/>
<path d="M33.8133 20.8443C33.6066 21.6738 33.3098 22.4783 32.9284 23.2433C31.8283 25.4029 28.9828 28.7355 26.2996 29.454C22.9641 30.1895 19.5029 30.1352 16.192 29.2957L16.1514 29.2713C16.8724 29.9689 17.7368 30.5008 18.6844 30.8301C21.9959 31.6662 25.4566 31.719 28.792 30.9844C31.4914 30.2659 34.3329 26.9251 35.4329 24.7777C36.1426 23.2808 36.5745 21.6675 36.7076 20.0162C35.7674 20.3721 34.7975 20.6438 33.8092 20.8281" fill="#F24D3D"/>
<path d="M35.8064 12.6527C35.5879 14.7008 35.0108 16.6946 34.1015 18.5427C33.7324 19.1692 33.31 19.7627 32.8391 20.3166C34.3816 20.0487 35.3842 19.8336 35.3842 19.8336C35.3842 19.8336 35.5466 19.935 36.7116 17.8039C37.5254 15.7987 37.9921 13.6697 38.0918 11.508C37.3659 11.9552 36.601 12.3356 35.8064 12.6446" fill="#F24D3D"/>
<path d="M35.4248 11.0047C35.4005 11.4106 35.3639 11.8165 35.3112 12.2468C36.0251 11.957 36.7056 11.5909 37.3408 11.1549V10.6596C36.7063 10.8144 36.0641 10.935 35.4167 11.0209" fill="#F24D3D"/>
<path d="M28.7351 31.6338V32.8516C27.2041 33.1988 25.6366 33.3596 24.067 33.3306C22.4647 33.3451 20.8659 33.1776 19.3014 32.8313V31.6135C19.4313 31.646 19.5666 31.6744 19.7073 31.6988C22.6901 32.2856 25.7606 32.2649 28.7351 31.6379" fill="#F24D3D"/>
</svg>
