<svg width="16" height="16" viewBox="0 0 16 16" fill="none" xmlns="http://www.w3.org/2000/svg">
<path opacity="0.16" d="M7.89258 3.93945C5.64258 3.93945 3.84961 5.76758 3.84961 7.98242C3.84961 10.2324 5.64258 12.0254 7.89258 12.0254C10.1074 12.0254 11.9355 10.2324 11.9355 7.98242C11.9355 5.76758 10.1074 3.93945 7.89258 3.93945ZM7.89258 10.6191C6.45117 10.6191 5.25586 9.45898 5.25586 7.98242C5.25586 6.54102 6.41602 5.38086 7.89258 5.38086C9.33398 5.38086 10.4941 6.54102 10.4941 7.98242C10.4941 9.45898 9.33398 10.6191 7.89258 10.6191ZM13.0254 3.79883C13.0254 3.27148 12.6035 2.84961 12.0762 2.84961C11.5488 2.84961 11.127 3.27148 11.127 3.79883C11.127 4.32617 11.5488 4.74805 12.0762 4.74805C12.6035 4.74805 13.0254 4.32617 13.0254 3.79883ZM15.6973 4.74805C15.627 3.48242 15.3457 2.35742 14.4316 1.44336C13.5176 0.529297 12.3926 0.248047 11.127 0.177734C9.82617 0.107422 5.92383 0.107422 4.62305 0.177734C3.35742 0.248047 2.26758 0.529297 1.31836 1.44336C0.404297 2.35742 0.123047 3.48242 0.0527344 4.74805C-0.0175781 6.04883 -0.0175781 9.95117 0.0527344 11.252C0.123047 12.5176 0.404297 13.6074 1.31836 14.5566C2.26758 15.4707 3.35742 15.752 4.62305 15.8223C5.92383 15.8926 9.82617 15.8926 11.127 15.8223C12.3926 15.752 13.5176 15.4707 14.4316 14.5566C15.3457 13.6074 15.627 12.5176 15.6973 11.252C15.7676 9.95117 15.7676 6.04883 15.6973 4.74805ZM14.0098 12.623C13.7637 13.3262 13.2012 13.8535 12.5332 14.1348C11.4785 14.5566 9.01758 14.4512 7.89258 14.4512C6.73242 14.4512 4.27148 14.5566 3.25195 14.1348C2.54883 13.8535 2.02148 13.3262 1.74023 12.623C1.31836 11.6035 1.42383 9.14258 1.42383 7.98242C1.42383 6.85742 1.31836 4.39648 1.74023 3.3418C2.02148 2.67383 2.54883 2.14648 3.25195 1.86523C4.27148 1.44336 6.73242 1.54883 7.89258 1.54883C9.01758 1.54883 11.4785 1.44336 12.5332 1.86523C13.2012 2.11133 13.7285 2.67383 14.0098 3.3418C14.4316 4.39648 14.3262 6.85742 14.3262 7.98242C14.3262 9.14258 14.4316 11.6035 14.0098 12.623Z" fill="#ED1E79"/>
</svg>
