<svg width="17" height="17" viewBox="0 0 17 17" fill="none" xmlns="http://www.w3.org/2000/svg">
<path d="M17 8.5C17 13.1944 13.1944 17 8.5 17C3.80558 17 0 13.1944 0 8.5C0 3.80558 3.80558 0 8.5 0C13.1944 0 17 3.80558 17 8.5Z" fill="#5EC745"/>
<g clip-path="url(#clip0_303_11344)">
<path d="M13.36 6.16999L7.61 12.34C7.41 12.55 7.1 12.55 6.9 12.34L3.65 8.84999C3.45 8.63999 3.45 8.29999 3.65 8.08999L4.36 7.32999C4.56 7.11999 4.87 7.11999 5.07 7.32999L7.26 9.67999L11.95 4.64999C12.15 4.43999 12.46 4.43999 12.66 4.64999L13.37 5.40999C13.55 5.61999 13.55 5.95999 13.36 6.16999Z" fill="white"/>
</g>
<defs>
<clipPath id="clip0_303_11344">
<rect width="10" height="8" fill="white" transform="translate(3.5 4.5)"/>
</clipPath>
</defs>
</svg>
