<svg width="16" height="16" viewBox="0 0 16 16" fill="none" xmlns="http://www.w3.org/2000/svg">
<path d="M12.6458 11.552L10.2014 9.11743C9.90072 8.81791 9.90072 8.33407 10.2014 8.03455L12.6535 5.59231C12.9542 5.29279 13.44 5.29279 13.7407 5.59231L13.8795 5.71519V3.10399C13.8795 2.68159 13.5325 2.33599 13.1084 2.33599H5.39759V1.56799C5.39759 1.14559 5.0506 0.799988 4.62651 0.799988H1.54217C1.11807 0.799988 0.771084 1.14559 0.771084 1.56799V2.33599C0.346988 2.33599 0 2.68159 0 3.10399V10.784C0 11.2064 0.346988 11.552 0.771084 11.552H7.90361H10.6024H12.6458ZM6.93976 10.016C5.23566 10.016 3.85542 8.64127 3.85542 6.94399C3.85542 5.24671 5.23566 3.87199 6.93976 3.87199C8.64386 3.87199 10.0241 5.24671 10.0241 6.94399C10.0241 8.64127 8.64386 10.016 6.93976 10.016Z" fill="white"/>
<path d="M12.9927 7.97312L13.7483 7.22048C13.9025 7.06688 13.9025 6.8288 13.7483 6.6752L13.4784 6.4064C13.3242 6.2528 13.0852 6.2528 12.931 6.4064L11.0264 8.30336C10.8722 8.45696 10.8722 8.69504 11.0264 8.84864L12.931 10.7456C13.0852 10.8992 13.3242 10.8992 13.4784 10.7456L13.7483 10.4768C13.9025 10.3232 13.9025 10.0851 13.7483 9.93152L12.9541 9.14048C14.2727 9.4784 15.1825 10.8454 14.7199 12.3354C14.4886 13.0803 13.8871 13.687 13.1392 13.9251C11.7049 14.3706 10.371 13.5565 9.97 12.32H8.80566C9.17578 13.8176 10.3941 15.031 11.9748 15.1846C14.157 15.3997 15.9999 13.687 15.9999 11.552C15.9999 9.76256 14.6967 8.28032 12.9927 7.97312Z" fill="white"/>
</svg>
