<svg width="20" height="20" viewBox="0 0 20 20" fill="none" xmlns="http://www.w3.org/2000/svg">
<path d="M9.91099 7.29077C8.30385 7.29077 7.02316 8.59658 7.02316 10.1786C7.02316 11.7857 8.30385 13.0664 9.91099 13.0664C11.493 13.0664 12.7988 11.7857 12.7988 10.1786C12.7988 8.59658 11.493 7.29077 9.91099 7.29077ZM9.91099 12.062C8.88142 12.062 8.02762 11.2333 8.02762 10.1786C8.02762 9.14903 8.85631 8.32035 9.91099 8.32035C10.9406 8.32035 11.7693 9.14903 11.7693 10.1786C11.7693 11.2333 10.9406 12.062 9.91099 12.062ZM13.5773 7.19033C13.5773 6.81365 13.2759 6.51231 12.8993 6.51231C12.5226 6.51231 12.2213 6.81365 12.2213 7.19033C12.2213 7.567 12.5226 7.86834 12.8993 7.86834C13.2759 7.86834 13.5773 7.567 13.5773 7.19033ZM15.4858 7.86834C15.4355 6.96432 15.2347 6.16075 14.5818 5.50785C13.9289 4.85495 13.1253 4.65405 12.2213 4.60383C11.2921 4.55361 8.50474 4.55361 7.57561 4.60383C6.6716 4.65405 5.89314 4.85495 5.21512 5.50785C4.56222 6.16075 4.36133 6.96432 4.3111 7.86834C4.26088 8.79747 4.26088 11.5849 4.3111 12.514C4.36133 13.418 4.56222 14.1965 5.21512 14.8745C5.89314 15.5274 6.6716 15.7283 7.57561 15.7785C8.50474 15.8287 11.2921 15.8287 12.2213 15.7785C13.1253 15.7283 13.9289 15.5274 14.5818 14.8745C15.2347 14.1965 15.4355 13.418 15.4858 12.514C15.536 11.5849 15.536 8.79747 15.4858 7.86834ZM14.2804 13.4933C14.1046 13.9956 13.7028 14.3722 13.2257 14.5731C12.4724 14.8745 10.7146 14.7991 9.91099 14.7991C9.08231 14.7991 7.3245 14.8745 6.59626 14.5731C6.09403 14.3722 5.71735 13.9956 5.51646 13.4933C5.21512 12.7651 5.29046 11.0073 5.29046 10.1786C5.29046 9.37503 5.21512 7.61722 5.51646 6.86387C5.71735 6.38675 6.09403 6.01008 6.59626 5.80919C7.3245 5.50785 9.08231 5.58318 9.91099 5.58318C10.7146 5.58318 12.4724 5.50785 13.2257 5.80919C13.7028 5.98497 14.0795 6.38675 14.2804 6.86387C14.5818 7.61722 14.5064 9.37503 14.5064 10.1786C14.5064 11.0073 14.5818 12.7651 14.2804 13.4933Z" fill="#ED1E79"/>
</svg>
