<svg width="50" height="50" viewBox="0 0 50 50" fill="none" xmlns="http://www.w3.org/2000/svg">
<g clip-path="url(#clip0_814_16814)">
<path d="M25 0C20.0555 0 15.222 1.46622 11.1108 4.21326C6.99953 6.96029 3.79521 10.8648 1.90302 15.4329C0.0108322 20.0011 -0.484251 25.0277 0.480379 29.8773C1.44501 34.7268 3.82603 39.1814 7.32234 42.6777C10.8187 46.174 15.2732 48.555 20.1228 49.5196C24.9723 50.4843 29.9989 49.9892 34.5671 48.097C39.1353 46.2048 43.0397 43.0005 45.7868 38.8893C48.5338 34.778 50 29.9445 50 25C50 18.3696 47.3661 12.0107 42.6777 7.32233C37.9893 2.63392 31.6304 0 25 0V0ZM10 35.3667C7.85308 32.3342 6.68948 28.7154 6.66668 25C6.67549 20.1404 8.60986 15.4824 12.0461 12.0461C15.4824 8.60985 20.1404 6.67548 25 6.66667C28.7155 6.68947 32.3342 7.85306 35.3667 10L10 35.3667ZM25 43.3333C21.2846 43.3105 17.6658 42.1469 14.6333 40L40 14.6333C42.1469 17.6658 43.3105 21.2846 43.3333 25C43.3245 29.8596 41.3902 34.5176 37.9539 37.9539C34.5176 41.3901 29.8596 43.3245 25 43.3333Z" fill="#969696"/>
</g>
<defs>
<clipPath id="clip0_814_16814">
<rect width="50" height="50" fill="white"/>
</clipPath>
</defs>
</svg>
