<svg width="20" height="20" viewBox="0 0 20 20" fill="none" xmlns="http://www.w3.org/2000/svg">
<path d="M14.5361 7.67859C14.5433 7.77859 14.5433 7.87859 14.5433 7.97859C14.5647 11.6286 11.629 14.6143 7.97185 14.6357C7.94328 14.6357 7.9147 14.6357 7.87899 14.6357C6.60756 14.6429 5.35756 14.2786 4.28613 13.5929C4.47185 13.6143 4.6647 13.6214 4.85042 13.6214C5.90756 13.6286 6.92899 13.2715 7.7647 12.6215C6.7647 12.6072 5.87899 11.95 5.57185 11C5.92185 11.0572 6.28613 11.0429 6.62899 10.9572C5.53613 10.7357 4.75042 9.77145 4.75756 8.65716V8.62859C5.07899 8.80717 5.44328 8.91431 5.8147 8.92859C5.1647 8.49288 4.77185 7.76431 4.77185 6.97859C4.77185 6.56431 4.87899 6.15717 5.09328 5.80002C6.27899 7.26431 8.03613 8.15002 9.9147 8.25002C9.62185 6.98574 10.4004 5.72859 11.6647 5.42859C12.4861 5.23574 13.3433 5.50002 13.9147 6.10717C14.4361 6.00717 14.9433 5.81431 15.4004 5.54288C15.229 6.08574 14.8576 6.54288 14.3718 6.82859C14.829 6.77859 15.2861 6.65002 15.7147 6.46431C15.3933 6.93574 14.9933 7.34288 14.5361 7.67859Z" fill="#55B9F2"/>
</svg>
