<svg xmlns="http://www.w3.org/2000/svg" width="52.347" height="45" viewBox="0 0 52.347 45">
  <g id="Group_19" data-name="Group 19" transform="translate(-60.462 -1025.489)">
    <path id="Path_47" data-name="Path 47" d="M86.633,1025.489c-14.453,0-26.171,10.073-26.171,22.5a20.435,20.435,0,0,0,5.384,13.667,1.908,1.908,0,0,1,.146.163,5.454,5.454,0,0,1,1.586,3.4c-.036,2.559-2.9,5.234-2.9,5.234s5.6-2.322,7.5-3.018a1.476,1.476,0,0,1,.2-.052,1.807,1.807,0,0,1,1.383.2.023.023,0,0,0,.017.008,29.382,29.382,0,0,0,12.856,2.9c14.458,0,26.176-10.074,26.176-22.5s-11.718-22.5-26.176-22.5" fill="#f24d3d"/>
    <path id="Path_48" data-name="Path 48" d="M72.361,1048.624a35.151,35.151,0,0,0,6.484,1.212,89.168,89.168,0,0,0,15.486-.346,27.376,27.376,0,0,0,6.576-1.5,15.35,15.35,0,0,1-1.446,5.367c-1.236,2.424-4.431,6.169-7.463,6.977a24.658,24.658,0,0,1-11.362-.175c-3.195-.981-5.756-5.186-6.6-6.629a10.938,10.938,0,0,1-1.679-4.905" fill="#fff"/>
    <path id="Path_49" data-name="Path 49" d="M72.578,1043.354a48.8,48.8,0,0,0,7.277.307c3.141-.192,11.692-.692,16.637-2.577s5.97-2.655,5.97-2.655-.249,4.694-1.555,7.079-1.492,2.27-1.492,2.27a70.351,70.351,0,0,1-12.532,1.5A101.384,101.384,0,0,1,75,1048.547a16.925,16.925,0,0,1-2.021-3.385,8.3,8.3,0,0,1-.4-1.808" fill="#fff"/>
    <path id="Path_50" data-name="Path 50" d="M71.646,1035.506a25.017,25.017,0,0,0,6.374,1.808,75.712,75.712,0,0,0,16.077,1.115,43.463,43.463,0,0,0,7.526-.962v.577s-2.644,2.013-9.3,3.3a90.4,90.4,0,0,1-15.642,1.437H74.009a17.876,17.876,0,0,1-2.146-5.5,9.341,9.341,0,0,1-.217-1.769" fill="#fff"/>
    <path id="Path_51" data-name="Path 51" d="M93.933,1037.7a55.119,55.119,0,0,0,7.314-.707c-1.836-1.1-8.009-2.125-15.389-2.455a65.541,65.541,0,0,0-13.837.55,31.8,31.8,0,0,0,5.848,1.45,86.532,86.532,0,0,0,16.064,1.162" fill="#fff5ee"/>
    <path id="Path_52" data-name="Path 52" d="M97.651,1048.914a13.173,13.173,0,0,1-1,2.707c-1.236,2.424-4.431,6.169-7.463,6.977a24.672,24.672,0,0,1-11.362-.175l-.046-.017a7.729,7.729,0,0,0,2.851,1.752,24.658,24.658,0,0,0,11.362.175c3.032-.808,6.227-4.553,7.463-6.977a15.35,15.35,0,0,0,1.446-5.367,18.84,18.84,0,0,1-3.256.925" fill="#fff5ee"/>
    <path id="Path_53" data-name="Path 53" d="M99.891,1039.709c-.142,1.071-.7,4.7-1.917,6.62a13.808,13.808,0,0,1-1.42,1.992c1.735-.3,2.861-.543,2.861-.543s.186.115,1.492-2.27,1.555-7.079,1.555-7.079a15.582,15.582,0,0,1-2.571,1.28" fill="#fff5ee"/>
    <path id="Path_54" data-name="Path 54" d="M99.458,1037.876c-.027.456-.068.927-.127,1.4a12.317,12.317,0,0,0,2.292-1.226v-.577a21.766,21.766,0,0,1-2.165.408" fill="#fff5ee"/>
    <path id="Path_55" data-name="Path 55" d="M91.925,1061.045v1.351a21.808,21.808,0,0,1-5.227.562,23.56,23.56,0,0,1-5.355-.562v-1.351c.142.035.288.067.437.1a25.44,25.44,0,0,0,10.145-.1" fill="#fff5ee"/>
  </g>
</svg>
