<svg id="Layer_1" data-name="Layer 1" xmlns="http://www.w3.org/2000/svg" viewBox="0 0 344 213"><path d="M157.45.08a23.34,23.34,0,0,0,3.62,4.07,40,40,0,0,0,4.34,3.26c6,4,12.56,7.16,18.38,11.4a32.24,32.24,0,0,1,7.64,7.51,21.31,21.31,0,0,1,2.49,4.75,27.19,27.19,0,0,1,1.29,5.21c.58,3.53.92,7.25,2.74,10.45a23.65,23.65,0,0,0,7.46,7.79c3,2.08,6.14,3.81,9.21,5.69a40.37,40.37,0,0,1,8.56,6.52,19.88,19.88,0,0,1,5,9.37,25.07,25.07,0,0,1,0,10.7,32,32,0,0,1-3.95,10,29.19,29.19,0,0,1-7,8.09,46.74,46.74,0,0,1-9.34,5.36c-3.29,1.48-6.66,2.75-10,4-1.69.64-3.37,1.29-5,2a31.8,31.8,0,0,0-4.84,2.44,7.57,7.57,0,0,0-2.05,1.82,3.63,3.63,0,0,0-.68,2.65,8.3,8.3,0,0,0,2.81,4.61,21.57,21.57,0,0,0,4.42,3.16,23.23,23.23,0,0,0,5,2.06,21.89,21.89,0,0,0,5.4.62c1.81,0,3.61,0,5.41-.14a47.75,47.75,0,0,1,10.76.27,21,21,0,0,1,9.61,4.48,35.63,35.63,0,0,1,7.09,8A82.38,82.38,0,0,1,241,155.7l9.34,19.52L268.48,213h.34l-18.07-38-9.34-19.52a83.34,83.34,0,0,0-5.32-9.44,35.64,35.64,0,0,0-7.18-8.12,21.35,21.35,0,0,0-9.79-4.54,47.87,47.87,0,0,0-10.83-.25c-1.8.09-3.6.18-5.4.15a21.08,21.08,0,0,1-5.32-.6,23.17,23.17,0,0,1-9.34-5.13,8.05,8.05,0,0,1-2.73-4.43,3.41,3.41,0,0,1,.63-2.47,7.51,7.51,0,0,1,2-1.75,32.25,32.25,0,0,1,4.8-2.43c1.66-.7,3.34-1.35,5-2,3.36-1.29,6.74-2.57,10-4.06a47.25,47.25,0,0,0,9.37-5.41,29.36,29.36,0,0,0,7.06-8.16,32.51,32.51,0,0,0,4-10,25.4,25.4,0,0,0,0-10.77,19.93,19.93,0,0,0-5.06-9.47A40.62,40.62,0,0,0,214.74,60c-3.07-1.89-6.24-3.63-9.18-5.71a23.18,23.18,0,0,1-7.36-7.71c-1.78-3.15-2.12-6.82-2.7-10.37A27.4,27.4,0,0,0,194.21,31a21.25,21.25,0,0,0-2.51-4.82,32.91,32.91,0,0,0-7.7-7.61c-5.85-4.28-12.4-7.42-18.37-11.44a41.21,41.21,0,0,1-4.29-3.24,22.12,22.12,0,0,1-3.54-4c-.19-.27-.36-.56-.53-.84h-.5C157-.63,157.21-.27,157.45.08Z" fill="#ea9f26"/><path d="M149.56-.29c1.69.7,3.41,1.29,5.09,2a59.15,59.15,0,0,1,9.64,5.09,47.52,47.52,0,0,1,15.19,15.39,49.71,49.71,0,0,1,4.23,10c.3.87.6,1.73.92,2.58s.72,1.68,1.08,2.52l.55,1.26c.19.42.44.81.65,1.21l.68,1.19.76,1.15c4.11,6.11,10,10.68,15.06,15.83a43.23,43.23,0,0,1,6.79,8.48,25,25,0,0,1,3.34,10.24,27.81,27.81,0,0,1-6.13,20.24,30.11,30.11,0,0,1-8.37,6.82,52.69,52.69,0,0,1-4.9,2.38c-.83.36-1.67.74-2.52,1l-1.27.47L189,108a68.87,68.87,0,0,1-10.7,2,84.94,84.94,0,0,0-10.82,1.75,11.67,11.67,0,0,0-4.91,2.54,4,4,0,0,0-1.39,2.46,3.6,3.6,0,0,0,.91,2.68,13.2,13.2,0,0,0,4.49,3.23,35.11,35.11,0,0,0,5.13,2,48.79,48.79,0,0,0,5.33,1.32c1.8.33,3.62.53,5.43.73a59.64,59.64,0,0,1,10.75,1.73,41.16,41.16,0,0,1,10,4.07,48.47,48.47,0,0,1,8.65,6.57c2.66,2.48,5.07,5.2,7.54,7.89s4.91,5.4,7.41,8.05,5.18,5.15,7.93,7.55a58.94,58.94,0,0,1,7.78,7.61,28.91,28.91,0,0,1,3,4.53,39.19,39.19,0,0,1,2.11,5c1.19,3.44,2,7,2.84,10.54a77,77,0,0,0,3.13,10.49c1.33,3.41,2.92,6.7,4.54,10l1.15,2.31h.36l-1.21-2.46c-1.61-3.27-3.18-6.56-4.49-9.95a75.52,75.52,0,0,1-3.09-10.45c-.84-3.55-1.63-7.12-2.82-10.59a39.35,39.35,0,0,0-2.12-5.07,29.65,29.65,0,0,0-3-4.62,57.32,57.32,0,0,0-7.82-7.68c-2.74-2.39-5.37-4.91-7.9-7.52s-4.94-5.37-7.41-8-4.89-5.42-7.57-7.91a48.53,48.53,0,0,0-8.73-6.63A42,42,0,0,0,193.38,128a60.08,60.08,0,0,0-10.82-1.73c-1.81-.2-3.61-.4-5.39-.73a47.3,47.3,0,0,1-5.28-1.3,35.55,35.55,0,0,1-5.06-2,12.77,12.77,0,0,1-4.33-3.1,3.19,3.19,0,0,1-.82-2.34,3.63,3.63,0,0,1,1.26-2.18,11.32,11.32,0,0,1,4.71-2.42,83.35,83.35,0,0,1,10.75-1.75,68.31,68.31,0,0,0,10.77-2l1.32-.39,1.29-.48c.87-.3,1.7-.67,2.54-1,1.68-.73,3.34-1.51,4.94-2.4a30.33,30.33,0,0,0,8.48-6.93,28.19,28.19,0,0,0,6.19-20.57,25.31,25.31,0,0,0-3.41-10.38,43.51,43.51,0,0,0-6.86-8.54c-5.14-5.17-11-9.71-15.06-15.76l-.76-1.13-.67-1.19c-.21-.39-.46-.78-.65-1.19L186,37.19c-.36-.83-.74-1.65-1.08-2.5s-.62-1.71-.92-2.57a50.68,50.68,0,0,0-4.27-10.07A47.88,47.88,0,0,0,164.41,6.61a60.41,60.41,0,0,0-9.69-5.08C152.61.67,150.43-.06,148.36-1H148C148.49-.75,149-.51,149.56-.29Z" fill="#f1b55d"/><path d="M162,9.86a109.19,109.19,0,0,1,6.3,9.35l5.38,9.92c3.58,6.65,8.29,12.59,12.8,18.6s8.83,12.3,11,19.5a32.08,32.08,0,0,1-.91,22,24,24,0,0,1-6.5,9,31.2,31.2,0,0,1-9.8,5.32c-1.77.62-3.57,1.16-5.37,1.69a48.28,48.28,0,0,1-5.44,1.4,47.73,47.73,0,0,1-11.21.25c-3.74-.24-7.49-.7-11.29-.64a16.94,16.94,0,0,0-5.62.92,7.65,7.65,0,0,0-2.47,1.5,4.72,4.72,0,0,0-1.57,2.47,2.27,2.27,0,0,0,.24,1.51,3.78,3.78,0,0,0,1,1.13,9.88,9.88,0,0,0,2.5,1.42,36.5,36.5,0,0,0,5.43,1.66c3.68.85,7.41,1.45,11.12,2.06a66.67,66.67,0,0,1,11,2.43,30.34,30.34,0,0,1,5,2.47q2.44,1.39,4.82,2.91c6.37,4,12.14,8.84,17.92,13.67a84.62,84.62,0,0,0,18.79,12.51q2.56,1.2,5.23,2.18c1.77.65,3.57,1.21,5.33,1.86,3.49,1.26,7,3,9.27,6a17.74,17.74,0,0,1,1.57,2.28,18.6,18.6,0,0,1,1.14,2.54,25.93,25.93,0,0,1,1.32,5.43c.53,3.71.58,7.48.86,11.24a50.9,50.9,0,0,0,.69,5.63,35.62,35.62,0,0,0,1.51,5.46,89.12,89.12,0,0,0,4.7,10.28c1.23,2.4,2.49,4.8,3.56,7.27h.34c-1.09-2.53-2.36-5-3.6-7.42a85.7,85.7,0,0,1-4.65-10.25,34,34,0,0,1-1.48-5.42,51.81,51.81,0,0,1-.67-5.58c-.27-3.74-.31-7.52-.83-11.27a26.42,26.42,0,0,0-1.32-5.52,20.31,20.31,0,0,0-1.16-2.61,17.3,17.3,0,0,0-1.62-2.36c-2.37-3-5.94-4.85-9.46-6.12-1.77-.66-3.57-1.21-5.33-1.86s-3.49-1.36-5.19-2.16A83.37,83.37,0,0,1,196.59,140c-5.77-4.82-11.57-9.68-18-13.7q-2.38-1.52-4.85-2.91a30.86,30.86,0,0,0-5.09-2.51,66.15,66.15,0,0,0-11.05-2.44c-3.72-.62-7.43-1.21-11.09-2.06a35.28,35.28,0,0,1-5.36-1.63,9.52,9.52,0,0,1-2.39-1.35,2.31,2.31,0,0,1-1-2.21,4.34,4.34,0,0,1,1.42-2.2,7.17,7.17,0,0,1,2.33-1.4,16.21,16.21,0,0,1,5.46-.9c3.75-.06,7.49.4,11.25.64a48.73,48.73,0,0,0,11.32-.26,50,50,0,0,0,5.48-1.42c1.81-.53,3.62-1.07,5.4-1.71a31.44,31.44,0,0,0,9.92-5.41,24.31,24.31,0,0,0,6.59-9.16,32.39,32.39,0,0,0,.88-22.23c-2.24-7.27-6.62-13.58-11.12-19.58S177.45,35.63,173.86,29l-5.4-9.92a108.06,108.06,0,0,0-6.34-9.35A56.08,56.08,0,0,0,151.26-1H151A56,56,0,0,1,162,9.86Z" fill="#f8cc93"/><path d="M150.34,5.84l6.87,9.67C161.77,22,166.45,28.35,170.7,35a102.94,102.94,0,0,1,10.7,21.08,50.94,50.94,0,0,1,2.87,23.26,33.4,33.4,0,0,1-3.47,11.21,23.32,23.32,0,0,1-7.73,8.7,31.68,31.68,0,0,1-11,4.09c-1.93.41-3.87.73-5.82,1.06l-2.93.49c-1,.17-1.94.38-2.91.49a37,37,0,0,1-11.7-1c-3.86-.81-7.66-1.9-11.56-2.68a30.11,30.11,0,0,0-5.93-.68,9.58,9.58,0,0,0-5.74,1.63,6.54,6.54,0,0,0-2,2.32,2.08,2.08,0,0,0-.14,1.61,2.47,2.47,0,0,0,1.07,1.2,10,10,0,0,0,2.83,1.06c1,.24,2,.41,2.94.57,7.83,1.13,15.8,1.42,23.35,3.76a24.46,24.46,0,0,1,5.36,2.36,15.17,15.17,0,0,1,2.34,1.75l2.24,1.94c3,2.59,6,5.19,9,7.73a148.18,148.18,0,0,0,19.15,14,58.72,58.72,0,0,0,22.47,7.4c4,.5,7.93.35,11.83.81a21.13,21.13,0,0,1,5.67,1.4,13.35,13.35,0,0,1,2.53,1.42,12.48,12.48,0,0,1,2.12,2,12.68,12.68,0,0,1,2.53,5.18,23.75,23.75,0,0,1,.58,5.83c0,3.94-.6,7.86-.84,11.82a42.2,42.2,0,0,0,0,6,27.7,27.7,0,0,0,1.17,5.85,65.82,65.82,0,0,0,4.83,10.85,94,94,0,0,1,5.12,10.67c.34.91.65,1.85.91,2.79h.3c-.26-1-.58-1.95-.93-2.89a93.23,93.23,0,0,0-5.1-10.73,64.54,64.54,0,0,1-4.78-10.8,27,27,0,0,1-1.13-5.77,39.93,39.93,0,0,1,0-5.89c.25-3.94.83-7.86.87-11.84a24.32,24.32,0,0,0-.57-6,13.19,13.19,0,0,0-2.62-5.38,12.36,12.36,0,0,0-4.82-3.55,20.82,20.82,0,0,0-5.8-1.44c-4-.47-7.93-.32-11.83-.81a58.46,58.46,0,0,1-22.29-7.33,149.47,149.47,0,0,1-19.09-14c-3-2.54-6-5.13-9-7.72L151.58,117a16.34,16.34,0,0,0-2.4-1.8,25.61,25.61,0,0,0-5.47-2.4c-7.63-2.36-15.63-2.64-23.42-3.77-1-.15-2-.33-2.9-.56a9.44,9.44,0,0,1-2.69-1,2,2,0,0,1-.88-1,1.57,1.57,0,0,1,.12-1.26,6.28,6.28,0,0,1,1.83-2.15,9.2,9.2,0,0,1,5.48-1.53,29.53,29.53,0,0,1,5.83.67c3.87.77,7.68,1.86,11.56,2.67a36.83,36.83,0,0,0,11.84,1c1-.11,2-.33,2.94-.5l2.92-.5c1.95-.33,3.9-.65,5.84-1.06a32.28,32.28,0,0,0,11.11-4.18,23.57,23.57,0,0,0,7.84-8.86,33.91,33.91,0,0,0,3.49-11.34A51.23,51.23,0,0,0,181.69,56a103.49,103.49,0,0,0-10.78-21.11c-4.27-6.67-9-13-13.53-19.49l-6.89-9.66c-1.65-2.29-3.33-4.55-5.12-6.73h-.21C147,1.21,148.67,3.51,150.34,5.84Z" fill="#ffe2ca"/><path d="M74.1-.09a10.68,10.68,0,0,1,.63,4.37,18.22,18.22,0,0,0-.18,4.49,7,7,0,0,0,2.24,3.87,16.85,16.85,0,0,0,3.72,2.53c2.67,1.38,5.48,2.42,8.2,3.66a33.38,33.38,0,0,1,13.62,11.24A34.6,34.6,0,0,1,108.8,46.5a26.68,26.68,0,0,1-3.64,17.1,18.27,18.27,0,0,1-6.38,6,35.9,35.9,0,0,1-8.28,3.24,52.52,52.52,0,0,0-8.48,3,28.94,28.94,0,0,0-7.47,5,20.46,20.46,0,0,0-5.1,7.42,16.35,16.35,0,0,0-.67,2.16l-.31,1.1-.16,1.12A17.21,17.21,0,0,0,68.13,95c0,.76,0,1.51.1,2.27a27.13,27.13,0,0,0,2.53,8.64,41.27,41.27,0,0,0,4.85,7.59,53.84,53.84,0,0,0,6.2,6.52c2.22,2,4.54,3.92,6.92,5.73,4.78,3.63,9.79,6.9,14.83,10.13s10.09,6.43,15,9.85a34.93,34.93,0,0,1,6.6,6,21.79,21.79,0,0,1,4,7.84c.86,2.85,1.37,5.8,2,8.73a27.44,27.44,0,0,0,2.77,8.56,18.39,18.39,0,0,0,6.54,6.16c2.53,1.59,5.22,2.95,7.45,4.91a12.33,12.33,0,0,1,4.21,7.57,15.73,15.73,0,0,1-1.19,8.69,25.62,25.62,0,0,1-5,7.3c-.52.54-1.06,1.07-1.61,1.59h.36c.48-.46,1-.93,1.43-1.41a25.89,25.89,0,0,0,5.13-7.37,16.09,16.09,0,0,0,1.24-8.85,12.7,12.7,0,0,0-4.29-7.79c-2.27-2-5-3.38-7.49-5a17.92,17.92,0,0,1-6.37-6,26.64,26.64,0,0,1-2.68-8.43c-.59-2.93-1.08-5.89-1.94-8.78a22.4,22.4,0,0,0-4.11-8,34.83,34.83,0,0,0-6.7-6c-4.9-3.44-9.95-6.67-15-9.87s-10-6.49-14.8-10.1c-2.37-1.8-4.68-3.7-6.89-5.7A53,53,0,0,1,76,113.18a41,41,0,0,1-4.79-7.5,26.43,26.43,0,0,1-2.49-8.49c-.07-.74-.1-1.48-.1-2.21a18.11,18.11,0,0,1,.17-2.21l.16-1.09.3-1.07a19.92,19.92,0,0,1,.65-2.12,20.22,20.22,0,0,1,5-7.25,28.7,28.7,0,0,1,7.36-4.94,53.12,53.12,0,0,1,8.4-3A36.21,36.21,0,0,0,99,70a18.62,18.62,0,0,0,6.5-6.19,27.07,27.07,0,0,0,3.66-17.34,34.89,34.89,0,0,0-6.58-16.56A33.61,33.61,0,0,0,88.81,18.6c-2.73-1.22-5.54-2.27-8.2-3.63a16.4,16.4,0,0,1-3.68-2.48,6.73,6.73,0,0,1-2.18-3.75,18.51,18.51,0,0,1,.16-4.45,10.86,10.86,0,0,0-.65-4.44c-.1-.29-.22-.57-.33-.85h-.19C73.87-.7,74-.4,74.1-.09Z" fill="#fbcf69"/><path d="M81.14,2.51c.69,1.37,1.21,2.82,1.92,4.19A11.24,11.24,0,0,0,86,10.3c2.43,1.94,5.31,3.13,8.06,4.48.69.33,1.38.67,2,1s1.32.79,2,1.18a25,25,0,0,1,3.74,2.64c4.66,4,7.88,9.43,10.19,15.07.59,1.42,1.11,2.86,1.58,4.32s.89,2.93,1.23,4.43a42.2,42.2,0,0,1,1.07,9.09,31.3,31.3,0,0,1-1.27,9,20,20,0,0,1-4.52,7.84c-.57.5-1.09,1.06-1.71,1.51s-1.21.91-1.86,1.3a23.26,23.26,0,0,1-4.13,2c-2.87,1.06-5.87,1.74-8.83,2.56a57.88,57.88,0,0,0-8.74,3,21.5,21.5,0,0,0-7.51,5.37,14.94,14.94,0,0,0-3.66,8.44,18.09,18.09,0,0,0,.15,4.65A24.59,24.59,0,0,0,75,102.7a34.76,34.76,0,0,0,4.48,8.09,52.35,52.35,0,0,0,6.1,6.94c8.83,8.62,19.15,15.55,29.92,21.45,2.7,1.47,5.46,2.84,8.18,4.26a71.22,71.22,0,0,1,8,4.42,17,17,0,0,1,6,6.65,37,37,0,0,1,2.49,8.78,39.21,39.21,0,0,0,2.71,8.85,27.25,27.25,0,0,0,5.19,7.64,70.07,70.07,0,0,0,7,6,34.06,34.06,0,0,1,6.58,6.33,15.24,15.24,0,0,1,3,8.46,17.56,17.56,0,0,1-2,8.8,23.83,23.83,0,0,1-2.33,3.63h.35a24.49,24.49,0,0,0,2.24-3.5,17.87,17.87,0,0,0,2.1-8.95,15.72,15.72,0,0,0-3.06-8.65,34.8,34.8,0,0,0-6.63-6.43,70.1,70.1,0,0,1-7-6,26.65,26.65,0,0,1-5.09-7.54,38.79,38.79,0,0,1-2.64-8.75,37.91,37.91,0,0,0-2.53-8.9,17.53,17.53,0,0,0-6.2-6.84,70.1,70.1,0,0,0-8.1-4.44c-2.72-1.43-5.47-2.79-8.16-4.26C105,132.87,94.72,126,85.93,117.4a51.3,51.3,0,0,1-6.05-6.88,34.13,34.13,0,0,1-4.43-8,23.72,23.72,0,0,1-1.22-4.38,17.65,17.65,0,0,1-.16-4.53,14.66,14.66,0,0,1,3.55-8.2A21.11,21.11,0,0,1,85,80.17a57.28,57.28,0,0,1,8.66-3c3-.83,6-1.51,8.86-2.59a24,24,0,0,0,4.19-2c.67-.4,1.27-.9,1.9-1.34a19.65,19.65,0,0,0,1.74-1.55,20.19,20.19,0,0,0,4.59-8,31.11,31.11,0,0,0,1.26-9.15,42.8,42.8,0,0,0-1.1-9.16c-.34-1.51-.84-3-1.25-4.45s-1-2.91-1.59-4.34c-2.34-5.66-5.59-11.11-10.31-15.14a24.66,24.66,0,0,0-3.77-2.66c-.67-.39-1.32-.81-2-1.18s-1.37-.69-2.07-1c-2.75-1.34-5.63-2.52-8-4.44a10.7,10.7,0,0,1-2.85-3.52C82.52,5.26,82,3.81,81.3,2.44,80.72,1.26,80.07.12,79.4-1h-.19C79.9.15,80.55,1.31,81.14,2.51Z" fill="#fdd999"/><path d="M87.18,2.41a27.67,27.67,0,0,0,7.58,6.11c2.88,1.55,6,2.59,8.9,4a22.16,22.16,0,0,1,7.65,5.85,31.82,31.82,0,0,1,5,8.31,69.48,69.48,0,0,1,3.1,9.23c.85,3.14,1.64,6.29,2.26,9.48a61.58,61.58,0,0,1,1.17,9.65,31.39,31.39,0,0,1-1,9.61,17.18,17.18,0,0,1-4.87,8.2,19.6,19.6,0,0,1-8.44,4.5c-6.24,1.77-12.87,1.77-19.14,3.77a19.1,19.1,0,0,0-4.47,2.07,13.43,13.43,0,0,0-6.17,12.72,24.26,24.26,0,0,0,3,9.31,41.4,41.4,0,0,0,5.64,8,109.86,109.86,0,0,0,14.33,13.28c2.57,2,5.24,3.89,8,5.64s5.56,3.41,8.45,4.93S124,140,127,141.26s6.09,2.33,9.14,3.45a27.29,27.29,0,0,1,8.49,4.51,12.91,12.91,0,0,1,3,3.68,18.77,18.77,0,0,1,1.66,4.51c.76,3.14,1.06,6.41,2,9.55a26.39,26.39,0,0,0,4.82,8.53c4.13,5.09,9.33,9.1,13.78,13.83a31.62,31.62,0,0,1,5.65,7.84,17.76,17.76,0,0,1,1.73,9.38,18.06,18.06,0,0,1-1.87,6.46h.35a18.06,18.06,0,0,0,.12-16,32,32,0,0,0-5.69-8c-4.46-4.76-9.64-8.79-13.71-13.85a26.09,26.09,0,0,1-4.7-8.38c-1-3.07-1.28-6.33-2.05-9.52a19.17,19.17,0,0,0-1.71-4.62,13.47,13.47,0,0,0-3.13-3.83,27.87,27.87,0,0,0-8.64-4.59c-3.07-1.12-6.14-2.15-9.13-3.44s-5.94-2.62-8.8-4.15-5.69-3.14-8.41-4.91-5.39-3.62-8-5.62a108.16,108.16,0,0,1-14.27-13.21A41.28,41.28,0,0,1,82.12,105a24,24,0,0,1-3-9.13,13.2,13.2,0,0,1,2.48-9,13.5,13.5,0,0,1,3.48-3.26,19.21,19.21,0,0,1,4.36-2c6.17-2,12.81-2,19.11-3.81a20.11,20.11,0,0,0,8.6-4.61,15.82,15.82,0,0,0,1.67-1.8c.54-.63.93-1.36,1.4-2s.75-1.46,1.08-2.21.6-1.53.79-2.33a31.86,31.86,0,0,0,1-9.72,63.33,63.33,0,0,0-1.2-9.7c-.63-3.2-1.44-6.35-2.29-9.5a70.43,70.43,0,0,0-3.14-9.25,32.16,32.16,0,0,0-5-8.36,22.69,22.69,0,0,0-7.74-5.89c-2.94-1.41-6-2.45-8.91-4A27.76,27.76,0,0,1,87.3,2.3,39.14,39.14,0,0,1,84.71-1h-.19A41.12,41.12,0,0,0,87.18,2.41Z" fill="#ffe2ca"/><path d="M97.15,3.31c3.06,1.13,6.23,1.93,9.23,3.14a25.3,25.3,0,0,1,8.15,5.12c4.72,4.45,7.69,10.49,9.46,16.69.43,1.56.81,3.14,1.09,4.74s.4,3.19.68,4.83a12.41,12.41,0,0,0,2,4.48,34.71,34.71,0,0,1,5.13,13.53,24.41,24.41,0,0,1-.46,9.63,19.42,19.42,0,0,1-4.79,8.31,27.91,27.91,0,0,1-8,5.5c-5.87,2.82-12.23,4.39-18.44,6.3a46,46,0,0,0-9.08,3.58A13.17,13.17,0,0,0,86,96.48a13.75,13.75,0,0,0,.89,9.58A20.32,20.32,0,0,0,93,113.58c1.23,1.07,2.57,2,3.87,3s2.68,1.85,4.08,2.69c2.76,1.73,5.62,3.29,8.52,4.77,5.8,3,11.76,5.58,17.59,8.48,2.91,1.43,5.78,3,8.58,4.61,1.41.81,2.77,1.69,4.14,2.57s2.71,1.8,4,2.73a61,61,0,0,1,7.53,6.15,35.81,35.81,0,0,1,3.24,3.61l2.92,3.9a79.81,79.81,0,0,0,6.08,7.66c2.23,2.38,4.55,4.65,6.79,7a116.22,116.22,0,0,1,12.52,14.9,36.81,36.81,0,0,1,4.35,8.66,25.62,25.62,0,0,1,1.26,9.56,27,27,0,0,1-2.38,9.13h.29a27.05,27.05,0,0,0,2.39-9.11,26,26,0,0,0-1.25-9.68,37.14,37.14,0,0,0-4.36-8.76,115.74,115.74,0,0,0-12.51-15l-6.78-7a81.2,81.2,0,0,1-6.06-7.61l-2.94-3.91a37.69,37.69,0,0,0-3.28-3.64,60.7,60.7,0,0,0-7.59-6.17c-1.33-.93-2.68-1.85-4.05-2.72s-2.75-1.77-4.16-2.58c-2.81-1.65-5.69-3.17-8.62-4.6-5.83-2.89-11.8-5.49-17.6-8.44-2.9-1.47-5.76-3-8.51-4.74-1.4-.82-2.73-1.76-4.08-2.67s-2.63-1.9-3.86-3A20.07,20.07,0,0,1,87,106a13.53,13.53,0,0,1-.9-9.44,13,13,0,0,1,6.11-7.23,44.42,44.42,0,0,1,9-3.57c6.21-1.9,12.58-3.44,18.48-6.27a27.71,27.71,0,0,0,8-5.52,19.47,19.47,0,0,0,4.87-8.4,24.79,24.79,0,0,0,.5-9.74,34.49,34.49,0,0,0-2.8-9.36,37.25,37.25,0,0,0-2.34-4.3,11.78,11.78,0,0,1-2-4.37c-.26-1.57-.4-3.23-.67-4.83s-.66-3.2-1.08-4.77c-1.77-6.26-4.75-12.35-9.53-16.88a25.69,25.69,0,0,0-8.27-5.23c-3-1.23-6.2-2-9.23-3.17A25.82,25.82,0,0,1,90.06-1h-.71A25.48,25.48,0,0,0,97.15,3.31Z" fill="#fbbaa3"/><path d="M108.39-.63a27.6,27.6,0,0,1,9.08,4.51,31.33,31.33,0,0,1,6.86,7.48,35.67,35.67,0,0,1,5.79,19.3A6.73,6.73,0,0,0,132,35.44a8.83,8.83,0,0,0,1,.85l1,.79c.69.51,1.27,1.14,1.91,1.69A31.79,31.79,0,0,1,142,47a30.84,30.84,0,0,1,3.18,9.66,25.07,25.07,0,0,1-.56,10.13,24,24,0,0,1-4.72,9,32.78,32.78,0,0,1-7.69,6.69,49.94,49.94,0,0,1-19.11,7,87.45,87.45,0,0,1-10.24.68,29.31,29.31,0,0,0-5.11.59A12.52,12.52,0,0,0,93,92.81a10.51,10.51,0,0,0-1.82,1.83A9.14,9.14,0,0,0,90,96.93a11.11,11.11,0,0,0-.39,5.12,14.34,14.34,0,0,0,5.21,8.69c5.5,4.17,11.91,6.86,18.38,9.07s13.1,4,19.4,6.68a45.2,45.2,0,0,1,16.86,11.31c4.68,5,8.59,10.65,13.62,15.38a21.92,21.92,0,0,0,4.19,3,37.48,37.48,0,0,0,4.71,2.12,36.26,36.26,0,0,1,9.08,4.6,48.89,48.89,0,0,1,13.09,15.52,41.9,41.9,0,0,1,5.64,19.45,37.14,37.14,0,0,1-2.95,15.1h.28a37.3,37.3,0,0,0,3-15.1,42.28,42.28,0,0,0-5.62-19.63,49.17,49.17,0,0,0-13.16-15.69,36.2,36.2,0,0,0-9.17-4.66,39,39,0,0,1-4.66-2.09,22.17,22.17,0,0,1-4.12-3c-5-4.67-8.91-10.34-13.63-15.33a45.5,45.5,0,0,0-17-11.35c-6.34-2.65-13-4.42-19.44-6.65s-12.86-4.86-18.32-9A14.11,14.11,0,0,1,89.82,102a10.8,10.8,0,0,1,.36-5,8.88,8.88,0,0,1,1.18-2.24A9.78,9.78,0,0,1,93.14,93a12.11,12.11,0,0,1,4.6-2.1,28.78,28.78,0,0,1,5.08-.61,92.69,92.69,0,0,0,10.25-.69,50,50,0,0,0,19.2-7A33.45,33.45,0,0,0,140,75.87a24.22,24.22,0,0,0,4.78-9.05,25.44,25.44,0,0,0,.6-10.24,31.53,31.53,0,0,0-3.2-9.76,31.89,31.89,0,0,0-6.08-8.28c-.65-.56-1.23-1.2-1.93-1.71s-1.39-1-2-1.62a6.44,6.44,0,0,1-1.78-4.54,36,36,0,0,0-5.8-19.53,32,32,0,0,0-6.94-7.6A27.87,27.87,0,0,0,108.66-1H107Z" fill="#f6937c"/><path d="M131.93,9.58a31.25,31.25,0,0,1,2.75,10.73,23.5,23.5,0,0,1,.06,2.78l-.06,1.4a8.53,8.53,0,0,0,0,1.43,5.6,5.6,0,0,0,3.22,4.49,33.4,33.4,0,0,1,16.41,14.51,32,32,0,0,1,4,21.48A31.88,31.88,0,0,1,146.87,85a33.81,33.81,0,0,1-20.58,7.59,32.44,32.44,0,0,1-5.56-.47c-1.83-.35-3.63-.85-5.43-1.35-3.58-1-7.25-2.07-11-1.85a15.81,15.81,0,0,0-5.46,1.26,10.22,10.22,0,0,0-4.31,3.55,11.08,11.08,0,0,0-.25,10.83A13.23,13.23,0,0,0,97.78,109a18.31,18.31,0,0,0,2.34,1.56c.8.49,1.65.89,2.48,1.32a55.18,55.18,0,0,0,10.59,3.7c7.26,1.83,14.71,2.73,21.94,4.55a50.29,50.29,0,0,1,10.5,3.74,32.4,32.4,0,0,1,4.73,2.93,29.75,29.75,0,0,1,4.07,3.78c4.87,5.66,7.26,13,12.14,18.79a16.42,16.42,0,0,0,9.52,5.77c3.73.71,7.5.31,11.19.67a18.67,18.67,0,0,1,10.16,4,30.29,30.29,0,0,1,7.2,8.41c.48.8.93,1.61,1.35,2.44s.76,1.7,1.15,2.55a50.29,50.29,0,0,1,2,5.22c.27.89.46,1.81.7,2.71l.34,1.35c.1.45.16.92.24,1.38l.46,2.75.24,2.78.12,1.4v1.39l0,2.8-.19,2.79c0,.46-.05.93-.11,1.39l-.2,1.38a54.82,54.82,0,0,1-2.57,10.86c-.2.53-.41,1.06-.62,1.59h.25c.2-.5.41-1,.59-1.51a55.32,55.32,0,0,0,2.62-10.9l.21-1.39c.05-.47.07-.94.1-1.4l.2-2.8v-4.22l-.11-1.4-.24-2.8-.45-2.77c-.08-.46-.14-.93-.24-1.38l-.34-1.37c-.23-.91-.43-1.82-.7-2.72a48.86,48.86,0,0,0-1.94-5.27c-.39-.86-.73-1.73-1.16-2.57s-.87-1.66-1.35-2.46a30.72,30.72,0,0,0-7.27-8.54,19.11,19.11,0,0,0-10.36-4.15c-3.74-.37-7.51,0-11.15-.69a16,16,0,0,1-9.28-5.6c-4.82-5.68-7.23-13-12.18-18.77a30,30,0,0,0-4.13-3.83,33.12,33.12,0,0,0-4.79-2.95,51.63,51.63,0,0,0-10.58-3.75c-7.26-1.81-14.71-2.69-22-4.49a55.06,55.06,0,0,1-10.54-3.67c-.83-.42-1.67-.82-2.47-1.31a16.9,16.9,0,0,1-2.32-1.53,13.21,13.21,0,0,1-3.47-4.28,10.87,10.87,0,0,1,.22-10.6,10,10,0,0,1,4.21-3.49,15.65,15.65,0,0,1,5.39-1.25c3.74-.23,7.39.85,11,1.82,1.8.5,3.6,1,5.45,1.34.92.16,1.85.24,2.78.36l.7.08h.7l1.4,0A33.92,33.92,0,0,0,147,85.19a32.12,32.12,0,0,0,11.58-18.74,32.24,32.24,0,0,0-4-21.68A33.74,33.74,0,0,0,138.05,30.1a5.27,5.27,0,0,1-3-4.22c-.07-.89.06-1.84.07-2.78a24,24,0,0,0,0-2.81,31.74,31.74,0,0,0-2.76-10.87A33,33,0,0,0,124.88-1h-.62A32.67,32.67,0,0,1,131.93,9.58Z" fill="#f26b55"/><path d="M36.84,1.6a14.2,14.2,0,0,0,3.29,2.59,38.77,38.77,0,0,0,7.69,3.19,77.3,77.3,0,0,1,7.8,2.72,21,21,0,0,1,6.79,4.54,18.07,18.07,0,0,1,4,7.07c.88,2.61,1.45,5.32,2.22,8a18.32,18.32,0,0,0,3.65,7.44c1.81,2.13,4.35,3.5,5.93,5.74a10,10,0,0,1,1.17,7.87,14.18,14.18,0,0,1-1.49,3.81,18,18,0,0,1-2.49,3.27,59.76,59.76,0,0,1-6.27,5.39,57.79,57.79,0,0,0-15.79,19,61,61,0,0,0-5.45,15.64,39.27,39.27,0,0,0-1,8.23,12.52,12.52,0,0,0,2.47,7.84,11.14,11.14,0,0,0,3.2,2.68,24.84,24.84,0,0,0,3.82,1.67c2.59.95,5.25,1.79,7.44,3.48a26.17,26.17,0,0,1,5.58,6c1.61,2.24,3.07,4.59,4.77,6.79,3.39,4.44,7.9,7.82,12.49,10.88s9.4,5.87,13.52,9.51a34.33,34.33,0,0,1,5.43,6.18c1.57,2.26,2.94,4.66,4.35,7a30,30,0,0,1,3.51,7.42,15.78,15.78,0,0,1-.07,8.1C112,189,109.05,193.8,107,199a16.91,16.91,0,0,0-1.14,8.2,47.52,47.52,0,0,0,1.32,5.84h.29a46.41,46.41,0,0,1-1.32-5.87,16.74,16.74,0,0,1,1.14-8.06c2-5.11,5-9.87,6.44-15.28a16.18,16.18,0,0,0,.09-8.29,30.48,30.48,0,0,0-3.53-7.53c-1.41-2.38-2.77-4.79-4.35-7.07a34.44,34.44,0,0,0-5.48-6.27c-4.18-3.69-9-6.45-13.59-9.52s-9.07-6.39-12.43-10.76c-1.69-2.18-3.16-4.52-4.78-6.77A26.58,26.58,0,0,0,64,121.51c-2.24-1.71-4.95-2.57-7.53-3.5a25.39,25.39,0,0,1-3.78-1.64,10.7,10.7,0,0,1-3.12-2.6,12.26,12.26,0,0,1-2.44-7.67,39.1,39.1,0,0,1,1-8.19,61.09,61.09,0,0,1,5.38-15.6,56.87,56.87,0,0,1,9.6-13.42,58.83,58.83,0,0,1,6.16-5.53A59.75,59.75,0,0,0,75.58,58a18.47,18.47,0,0,0,2.54-3.3,14.25,14.25,0,0,0,1.52-3.88,10.21,10.21,0,0,0-1.18-8.07c-1.64-2.32-4.17-3.68-5.94-5.78A18.13,18.13,0,0,1,69,29.61c-.75-2.65-1.31-5.37-2.19-8a18.41,18.41,0,0,0-4.09-7.22,21.21,21.21,0,0,0-6.9-4.63A73.5,73.5,0,0,0,47.94,7a38.38,38.38,0,0,1-7.59-3.17A13.53,13.53,0,0,1,37.16,1.3,8.73,8.73,0,0,1,35.67-1h-.49A9.14,9.14,0,0,0,36.84,1.6Z" fill="#fdd999"/><path d="M51.28-1h-.44q-.14.59-.3,1.17a10,10,0,0,0-.49,4.21,7,7,0,0,0,1.84,3.81c2,2.12,4.63,3.28,7.23,4.27s5.36,1.65,8,2.56a30.24,30.24,0,0,1,7.43,3.72,21.4,21.4,0,0,1,5.74,6c3.08,4.67,4.5,10.16,6.36,15.42a55.14,55.14,0,0,1,2.52,8,13.76,13.76,0,0,1-1.08,8.12,15.75,15.75,0,0,1-5.23,6.35,55.28,55.28,0,0,1-7.27,4.12,37.62,37.62,0,0,0-7.07,4.5,33.86,33.86,0,0,0-5.77,6.07,32.64,32.64,0,0,0-6.27,15.4,39.12,39.12,0,0,0,1.6,16.61,20.7,20.7,0,0,0,4,7.33,22.49,22.49,0,0,0,6.75,5,57.5,57.5,0,0,1,7.22,4.19,54.51,54.51,0,0,1,6.29,5.48c2,2,3.89,4,5.91,5.94s4.13,3.78,6.25,5.6a113.72,113.72,0,0,1,12.16,11.46,32.28,32.28,0,0,1,4.64,6.89,73.08,73.08,0,0,1,2.93,7.82,21.77,21.77,0,0,0,1.83,3.8,22.73,22.73,0,0,0,2.6,3.33c1.9,2.06,4,3.89,5.52,6.24a11.77,11.77,0,0,1,1.43,8,28.82,28.82,0,0,1-2.35,8c-1.13,2.55-2.43,5-3.48,7.63-.87,2.38-1.74,4.76-2.52,7.16h.29c.78-2.37,1.64-4.71,2.5-7.05,1.06-2.58,2.35-5,3.5-7.61a29.19,29.19,0,0,0,2.39-8.05,15.29,15.29,0,0,0,0-4.22,10.23,10.23,0,0,0-1.45-4c-1.51-2.42-3.68-4.27-5.55-6.31a19.4,19.4,0,0,1-4.33-7,76.12,76.12,0,0,0-2.93-7.87,32.6,32.6,0,0,0-4.68-7c-3.67-4.26-8-7.84-12.24-11.48-2.11-1.82-4.23-3.64-6.24-5.57s-3.93-4-5.93-5.92a54.47,54.47,0,0,0-6.34-5.5A57.77,57.77,0,0,0,69,121.26a22.51,22.51,0,0,1-6.68-4.89,20.4,20.4,0,0,1-4-7.23,39,39,0,0,1-1.64-16.49,32.46,32.46,0,0,1,6.19-15.33,33.86,33.86,0,0,1,5.73-6,35.88,35.88,0,0,1,7.05-4.46A55.84,55.84,0,0,0,83,62.68a15.87,15.87,0,0,0,5.32-6.41A14,14,0,0,0,89.39,48a53.85,53.85,0,0,0-2.52-8c-1.83-5.25-3.24-10.77-6.34-15.5a21.73,21.73,0,0,0-5.81-6.05,30.75,30.75,0,0,0-7.5-3.79c-2.65-.92-5.36-1.58-8-2.57S54.05,10,52.19,7.92a6.51,6.51,0,0,1-1.73-3.6,9.69,9.69,0,0,1,.49-4C51.07-.14,51.18-.57,51.28-1Z" fill="#fbcf69"/><path d="M67.92-1a7.84,7.84,0,0,1-.27,4.24,41.32,41.32,0,0,1-2,3.93A6.76,6.76,0,0,0,65,11.63a6.82,6.82,0,0,0,2.42,3.75,15.58,15.58,0,0,0,3.82,2.31,39.34,39.34,0,0,0,4.16,1.56c1.41.46,2.85.81,4.26,1.24.7.2,1.4.42,2.09.69s1.37.52,2,.81a34.11,34.11,0,0,1,7.55,4.5,28.78,28.78,0,0,1,10,14.19,24.74,24.74,0,0,1-1.36,17.18,21.75,21.75,0,0,1-5.2,7A20.54,20.54,0,0,1,93,66.26c-.6.42-1.25.77-1.87,1.16a27.26,27.26,0,0,1-4.06,1.71c-2.79.94-5.68,1.59-8.47,2.59a23.42,23.42,0,0,0-7.68,4.35,24,24,0,0,0-8.3,15.25,28.69,28.69,0,0,0,3.76,17.08,47.93,47.93,0,0,0,11.38,13.5,153.21,153.21,0,0,0,14.39,10.31,129.57,129.57,0,0,1,14.25,10.44,47.33,47.33,0,0,1,11,13.65,29.62,29.62,0,0,1,2.86,8.27,20.24,20.24,0,0,1,.31,2.17c.09.73.12,1.46.15,2.2a44.06,44.06,0,0,0,.27,4.43,10.34,10.34,0,0,0,1.44,4.23,9.61,9.61,0,0,0,3.3,3c2.6,1.5,5.5,2.24,8.09,3.6a11.58,11.58,0,0,1,3.47,2.6,9.94,9.94,0,0,1,2,3.83,14.33,14.33,0,0,1-.47,8.61,24.18,24.18,0,0,1-4.67,7.41c-1.94,2.22-4.1,4.23-6.21,6.28l-.06.06h.29c2.09-2,4.23-4,6.16-6.19a24.45,24.45,0,0,0,4.74-7.47,14.63,14.63,0,0,0,.5-8.78,10.3,10.3,0,0,0-2.05-3.95,12,12,0,0,0-3.56-2.69c-2.63-1.38-5.53-2.14-8.06-3.61a9.32,9.32,0,0,1-3.17-2.91,9.88,9.88,0,0,1-1.37-4.08c-.19-1.45-.2-2.92-.25-4.4,0-.74,0-1.48-.15-2.22a20.06,20.06,0,0,0-.3-2.2,30.54,30.54,0,0,0-2.87-8.41,47.65,47.65,0,0,0-11.11-13.75,128,128,0,0,0-14.32-10.43A151.79,151.79,0,0,1,78,121.65a47.34,47.34,0,0,1-11.35-13.38,28.38,28.38,0,0,1-3.78-16.92A23.77,23.77,0,0,1,71,76.2a23.23,23.23,0,0,1,7.61-4.34c2.78-1,5.67-1.63,8.47-2.57a27.6,27.6,0,0,0,4.09-1.71c.63-.39,1.29-.74,1.9-1.16A20.64,20.64,0,0,0,94.85,65,21.87,21.87,0,0,0,100.11,58a24.92,24.92,0,0,0,1.42-17.35,29,29,0,0,0-10-14.35,34.92,34.92,0,0,0-7.6-4.56c-.68-.3-1.36-.59-2.07-.83a21.72,21.72,0,0,0-2.11-.7c-1.41-.44-2.84-.79-4.24-1.25a40,40,0,0,1-4.12-1.55,15.48,15.48,0,0,1-3.72-2.26,6.53,6.53,0,0,1-2.29-3.55A6.43,6.43,0,0,1,66,7.39c.63-1.31,1.49-2.54,2-4A8.25,8.25,0,0,0,68.34-1h-.43A.08.08,0,0,0,67.92-1Z" fill="#f9c638"/><path d="M150.34,5.84l6.87,9.67C161.77,22,166.45,28.35,170.7,35a102.94,102.94,0,0,1,10.7,21.08,50.94,50.94,0,0,1,2.87,23.26,33.4,33.4,0,0,1-3.47,11.21,23.32,23.32,0,0,1-7.73,8.7,31.68,31.68,0,0,1-11,4.09c-1.93.41-3.87.73-5.82,1.06l-2.93.49c-1,.17-1.94.38-2.91.49a37,37,0,0,1-11.7-1c-3.86-.81-7.66-1.9-11.56-2.68a30.11,30.11,0,0,0-5.93-.68,9.58,9.58,0,0,0-5.74,1.63,6.54,6.54,0,0,0-2,2.32,2.08,2.08,0,0,0-.14,1.61,2.47,2.47,0,0,0,1.07,1.2,10,10,0,0,0,2.83,1.06c1,.24,2,.41,2.94.57,7.83,1.13,15.8,1.42,23.35,3.76a24.46,24.46,0,0,1,5.36,2.36,15.17,15.17,0,0,1,2.34,1.75l2.24,1.94c3,2.59,6,5.19,9,7.73a148.18,148.18,0,0,0,19.15,14,58.72,58.72,0,0,0,22.47,7.4c4,.5,7.93.35,11.83.81a21.13,21.13,0,0,1,5.67,1.4,13.35,13.35,0,0,1,2.53,1.42,12.48,12.48,0,0,1,2.12,2,12.68,12.68,0,0,1,2.53,5.18,23.75,23.75,0,0,1,.58,5.83c0,3.94-.6,7.86-.84,11.82a42.2,42.2,0,0,0,0,6,27.7,27.7,0,0,0,1.17,5.85,65.82,65.82,0,0,0,4.83,10.85,94,94,0,0,1,5.12,10.67c.34.91.65,1.85.91,2.79h.3c-.26-1-.58-1.95-.93-2.89a93.23,93.23,0,0,0-5.1-10.73,64.54,64.54,0,0,1-4.78-10.8,27,27,0,0,1-1.13-5.77,39.93,39.93,0,0,1,0-5.89c.25-3.94.83-7.86.87-11.84a24.32,24.32,0,0,0-.57-6,13.19,13.19,0,0,0-2.62-5.38,12.36,12.36,0,0,0-4.82-3.55,20.82,20.82,0,0,0-5.8-1.44c-4-.47-7.93-.32-11.83-.81a58.46,58.46,0,0,1-22.29-7.33,149.47,149.47,0,0,1-19.09-14c-3-2.54-6-5.13-9-7.72L151.58,117a16.34,16.34,0,0,0-2.4-1.8,25.61,25.61,0,0,0-5.47-2.4c-7.63-2.36-15.63-2.64-23.42-3.77-1-.15-2-.33-2.9-.56a9.44,9.44,0,0,1-2.69-1,2,2,0,0,1-.88-1,1.57,1.57,0,0,1,.12-1.26,6.28,6.28,0,0,1,1.83-2.15,9.2,9.2,0,0,1,5.48-1.53,29.53,29.53,0,0,1,5.83.67c3.87.77,7.68,1.86,11.56,2.67a36.83,36.83,0,0,0,11.84,1c1-.11,2-.33,2.94-.5l2.92-.5c1.95-.33,3.9-.65,5.84-1.06a32.28,32.28,0,0,0,11.11-4.18,23.57,23.57,0,0,0,7.84-8.86,33.91,33.91,0,0,0,3.49-11.34A51.23,51.23,0,0,0,181.69,56a103.49,103.49,0,0,0-10.78-21.11c-4.27-6.67-9-13-13.53-19.49l-6.89-9.66c-1.65-2.29-3.33-4.55-5.12-6.73h-.21C147,1.21,148.67,3.51,150.34,5.84Z" fill="#ffe2ca"/><path d="M140.78,2.79a118.72,118.72,0,0,1,8.71,11.61A107.41,107.41,0,0,1,156.71,27c.52,1.1,1,2.2,1.49,3.31s.87,2.26,1.42,3.36a23.64,23.64,0,0,0,1.87,3.14c.69,1,1.51,1.93,2.27,2.86,6.11,7.45,10.56,16.49,11.61,26.14a34.42,34.42,0,0,1-1.24,14.34A24,24,0,0,1,166.2,92c-3.8,3-8.42,4.75-13,6.22l-3.47,1.07a28.34,28.34,0,0,1-3.52.89,31.81,31.81,0,0,1-7.23.41,109.37,109.37,0,0,1-14.38-2,32,32,0,0,0-7.24-.71,8.72,8.72,0,0,0-3.54.91,5.87,5.87,0,0,0-1.5,1.07,2,2,0,0,0-.53.8.94.94,0,0,0,.22.93,1.4,1.4,0,0,0,.63.77,7.27,7.27,0,0,0,.85.5c.57.31,1.16.58,1.75.86,1.17.56,2.34,1.11,3.49,1.71,2.31,1.18,4.5,2.57,6.75,3.86s4.47,2.65,6.58,4.14c1.06.75,2.07,1.56,3.11,2.34s2.09,1.55,3.15,2.29c8.51,6,17.74,10.85,27,15.45,4.68,2.26,9.46,4.3,14.24,6.33s9.52,4.14,14.36,6a76.1,76.1,0,0,1,7.11,3.11,30.76,30.76,0,0,1,6.35,4.37,30.44,30.44,0,0,1,5,5.83,33.36,33.36,0,0,1,3.32,7c.83,2.45,1.59,4.93,2.4,7.4a73.66,73.66,0,0,0,2.65,7.33c2,4.8,4.41,9.41,6.45,14.18s3.74,9.72,4.06,14.9c0,1,0,2,0,3.06h.26c0-1,0-2.05,0-3.07-.31-5.23-2-10.24-4-15s-4.43-9.4-6.41-14.19a74.81,74.81,0,0,1-2.63-7.31c-.79-2.47-1.55-4.95-2.38-7.42a33.35,33.35,0,0,0-3.34-7.07,31,31,0,0,0-5.09-5.93,29.92,29.92,0,0,0-6.45-4.43,75.6,75.6,0,0,0-7.16-3.12c-4.83-1.88-9.57-4-14.36-6s-9.56-4.05-14.23-6.3c-9.31-4.57-18.53-9.4-27-15.36-1.07-.74-2.11-1.51-3.15-2.28s-2.06-1.59-3.12-2.34c-2.14-1.49-4.37-2.83-6.61-4.14s-4.45-2.67-6.78-3.85c-1.15-.6-2.33-1.15-3.5-1.7-.59-.28-1.17-.56-1.74-.86a7.48,7.48,0,0,1-.83-.48c-.25-.18-.52-.4-.55-.65v0l0,0c-.44-.41-.12-1,.29-1.43a5.76,5.76,0,0,1,1.44-1,8.55,8.55,0,0,1,3.45-.88,31.79,31.79,0,0,1,7.2.69,109.26,109.26,0,0,0,14.41,2,32.11,32.11,0,0,0,7.26-.42,28.49,28.49,0,0,0,3.53-.89l3.48-1.06c4.6-1.46,9.25-3.2,13.09-6.23a24.33,24.33,0,0,0,8-11.94,34.89,34.89,0,0,0,1.28-14.43c-1-9.72-5.5-18.82-11.62-26.32-.78-1-1.58-1.85-2.26-2.84a23.68,23.68,0,0,1-1.83-3.11c-.54-1.07-.93-2.22-1.41-3.34s-1-2.23-1.49-3.32a107.42,107.42,0,0,0-7.21-12.65,121.11,121.11,0,0,0-8.72-11.66Q139.53.72,137.86-1h-.59C138.49.22,139.65,1.49,140.78,2.79Z" fill="#fbbaa3"/><path d="M138.64,8.5A53.51,53.51,0,0,1,144.92,21a41.94,41.94,0,0,1,1.74,6.76A9.72,9.72,0,0,0,149.78,34a41.48,41.48,0,0,1,15.89,22.39,33.89,33.89,0,0,1,1,13.84,26.21,26.21,0,0,1-5.35,12.73,33.9,33.9,0,0,1-10.9,8.62,57.91,57.91,0,0,1-6.37,2.9A31.76,31.76,0,0,1,137.26,96a49.07,49.07,0,0,1-13.95-.54c-2.31-.39-4.59-.93-6.92-1.21a15.93,15.93,0,0,0-3.52-.06,10.47,10.47,0,0,0-3.37,1,5.49,5.49,0,0,0-1.9.48,2.58,2.58,0,0,0-1.36,1.45,4,4,0,0,0-.13,2,9.61,9.61,0,0,0,.51,1.91,18.94,18.94,0,0,0,4.25,6.55,36.06,36.06,0,0,0,6,5,57.17,57.17,0,0,0,6.75,4c9.35,4.72,19.5,7.41,29.21,11.15a76.27,76.27,0,0,1,14.06,6.72c4.41,2.76,8.14,6.43,12,9.95a119.17,119.17,0,0,0,12,10.08c4.24,3.12,9.55,4.43,13.32,8a31.89,31.89,0,0,1,4.89,6c1.41,2.18,2.71,4.44,3.92,6.74a84.24,84.24,0,0,1,6.07,14.36A45,45,0,0,1,221.2,205a36.87,36.87,0,0,1-1.22,8h.26a37.42,37.42,0,0,0,1.24-8,45.6,45.6,0,0,0-2.1-15.47,85.23,85.23,0,0,0-6.06-14.43c-1.21-2.31-2.5-4.58-3.92-6.78a32.52,32.52,0,0,0-4.93-6.11,26.57,26.57,0,0,0-6.57-4.29,44.52,44.52,0,0,1-6.77-3.83,115.07,115.07,0,0,1-12-10c-3.85-3.5-7.6-7.19-12.07-10A77.51,77.51,0,0,0,153,127.38c-9.74-3.73-19.89-6.39-29.21-11.08a57.19,57.19,0,0,1-6.73-3.94,37,37,0,0,1-6-5,18.61,18.61,0,0,1-4.21-6.47,9.12,9.12,0,0,1-.5-1.86,3.7,3.7,0,0,1,.11-1.87,2.33,2.33,0,0,1,1.25-1.33,5.43,5.43,0,0,1,1.84-.47h0a10,10,0,0,1,3.31-1,15.59,15.59,0,0,1,3.48,0c2.31.27,4.6.81,6.91,1.19a49.4,49.4,0,0,0,14,.51,32.78,32.78,0,0,0,6.84-1.57,55.75,55.75,0,0,0,6.4-2.9,33.83,33.83,0,0,0,11-8.64,26.3,26.3,0,0,0,5.42-12.82,34.23,34.23,0,0,0-1-13.95A41.8,41.8,0,0,0,150,33.7a9.33,9.33,0,0,1-3-6,42.1,42.1,0,0,0-1.74-6.82A54.14,54.14,0,0,0,139,8.28,52.73,52.73,0,0,0,131-1h-.61A52.05,52.05,0,0,1,138.64,8.5Z" fill="#f6937c"/><path d="M131.93,9.58a31.25,31.25,0,0,1,2.75,10.73,23.5,23.5,0,0,1,.06,2.78l-.06,1.4a8.53,8.53,0,0,0,0,1.43,5.6,5.6,0,0,0,3.22,4.49,33.4,33.4,0,0,1,16.41,14.51,32,32,0,0,1,4,21.48A31.88,31.88,0,0,1,146.87,85a33.81,33.81,0,0,1-20.58,7.59,32.44,32.44,0,0,1-5.56-.47c-1.83-.35-3.63-.85-5.43-1.35-3.58-1-7.25-2.07-11-1.85a15.81,15.81,0,0,0-5.46,1.26,10.22,10.22,0,0,0-4.31,3.55,11.08,11.08,0,0,0-.25,10.83A13.23,13.23,0,0,0,97.78,109a18.31,18.31,0,0,0,2.34,1.56c.8.49,1.65.89,2.48,1.32a55.18,55.18,0,0,0,10.59,3.7c7.26,1.83,14.71,2.73,21.94,4.55a50.29,50.29,0,0,1,10.5,3.74,32.4,32.4,0,0,1,4.73,2.93,29.75,29.75,0,0,1,4.07,3.78c4.87,5.66,7.26,13,12.14,18.79a16.42,16.42,0,0,0,9.52,5.77c3.73.71,7.5.31,11.19.67a18.67,18.67,0,0,1,10.16,4,30.29,30.29,0,0,1,7.2,8.41c.48.8.93,1.61,1.35,2.44s.76,1.7,1.15,2.55a50.29,50.29,0,0,1,2,5.22c.27.89.46,1.81.7,2.71l.34,1.35c.1.45.16.92.24,1.38l.46,2.75.24,2.78.12,1.4v1.39l0,2.8-.19,2.79c0,.46-.05.93-.11,1.39l-.2,1.38a54.82,54.82,0,0,1-2.57,10.86c-.2.53-.41,1.06-.62,1.59h.25c.2-.5.41-1,.59-1.51a55.32,55.32,0,0,0,2.62-10.9l.21-1.39c.05-.47.07-.94.1-1.4l.2-2.8v-4.22l-.11-1.4-.24-2.8-.45-2.77c-.08-.46-.14-.93-.24-1.38l-.34-1.37c-.23-.91-.43-1.82-.7-2.72a48.86,48.86,0,0,0-1.94-5.27c-.39-.86-.73-1.73-1.16-2.57s-.87-1.66-1.35-2.46a30.72,30.72,0,0,0-7.27-8.54,19.11,19.11,0,0,0-10.36-4.15c-3.74-.37-7.51,0-11.15-.69a16,16,0,0,1-9.28-5.6c-4.82-5.68-7.23-13-12.18-18.77a30,30,0,0,0-4.13-3.83,33.12,33.12,0,0,0-4.79-2.95,51.63,51.63,0,0,0-10.58-3.75c-7.26-1.81-14.71-2.69-22-4.49a55.06,55.06,0,0,1-10.54-3.67c-.83-.42-1.67-.82-2.47-1.31a16.9,16.9,0,0,1-2.32-1.53,13.21,13.21,0,0,1-3.47-4.28,10.87,10.87,0,0,1,.22-10.6,10,10,0,0,1,4.21-3.49,15.65,15.65,0,0,1,5.39-1.25c3.74-.23,7.39.85,11,1.82,1.8.5,3.6,1,5.45,1.34.92.16,1.85.24,2.78.36l.7.08h.7l1.4,0A33.92,33.92,0,0,0,147,85.19a32.12,32.12,0,0,0,11.58-18.74,32.24,32.24,0,0,0-4-21.68A33.74,33.74,0,0,0,138.05,30.1a5.27,5.27,0,0,1-3-4.22c-.07-.89.06-1.84.07-2.78a24,24,0,0,0,0-2.81,31.74,31.74,0,0,0-2.76-10.87A33,33,0,0,0,124.88-1h-.62A32.67,32.67,0,0,1,131.93,9.58Z" fill="#f26b55"/><path d="M247.6,5.38a23.4,23.4,0,0,1-7.85,7,21.6,21.6,0,0,1-10.19,2.5,32.84,32.84,0,0,1-10.44-1.69,53.19,53.19,0,0,1-9.69-4.33c-3.11-1.71-6.12-3.61-9.14-5.47-1.51-.93-3-1.85-4.58-2.73L194.55,0h-.36l1.44.79c1.54.88,3.06,1.8,4.58,2.73,6,3.68,12,7.66,18.86,9.84a32.82,32.82,0,0,0,10.49,1.73,22,22,0,0,0,10.3-2.51,23.57,23.57,0,0,0,7.95-7A30.08,30.08,0,0,0,251,0h-.3A29.84,29.84,0,0,1,247.6,5.38Z" fill="#f26b55"/><path d="M275.56,162.56c-1.57-6.91-3-14-6.17-20.41a35.08,35.08,0,0,0-2.69-4.63,20.11,20.11,0,0,0-3.6-4,28.62,28.62,0,0,0-9.48-4.93,95.46,95.46,0,0,0-10.28-2.88,65.2,65.2,0,0,0-10.6-1.31c-1.78-.07-3.57-.07-5.35,0s-3.56.27-5.31.35a10.55,10.55,0,0,1-5.09-.83,5.26,5.26,0,0,1-3.07-3.81,5.2,5.2,0,0,1,2-4.46,14.17,14.17,0,0,1,4.65-2.35c3.34-1.17,6.76-2.14,10.13-3.31a39.87,39.87,0,0,0,9.65-4.57,24.63,24.63,0,0,0,7.3-7.77,26.73,26.73,0,0,0,3.46-10.1,33.81,33.81,0,0,0-.33-10.67c-1.33-7-4.59-13.56-8.52-19.47a158.19,158.19,0,0,0-13.38-16.6c-4.71-5.31-9.45-10.61-14.56-15.56a90.89,90.89,0,0,0-16.76-13.13,62,62,0,0,0-9.63-4.59,17.16,17.16,0,0,1-4.69-2.39,5,5,0,0,1-1.59-2,3.82,3.82,0,0,1-.1-2.54,3.23,3.23,0,0,1,.24-.58h-.22a4.77,4.77,0,0,0-.22.52,4,4,0,0,0,.1,2.68,5.21,5.21,0,0,0,1.65,2.12,17.67,17.67,0,0,0,4.75,2.44,61.94,61.94,0,0,1,9.58,4.59A89.94,89.94,0,0,1,214.1,25.48c5.09,4.94,9.81,10.25,14.51,15.57a158,158,0,0,1,13.31,16.59C245.82,63.53,249,70,250.34,77a33.82,33.82,0,0,1,.31,10.53,26.25,26.25,0,0,1-3.4,9.92,24.42,24.42,0,0,1-7.17,7.63,39.53,39.53,0,0,1-9.54,4.51c-3.35,1.16-6.77,2.13-10.13,3.3a14.73,14.73,0,0,0-4.8,2.44,5.14,5.14,0,0,0,1.17,9,11,11,0,0,0,5.31.88c1.8-.08,3.55-.28,5.32-.34s3.54-.07,5.31,0a64.23,64.23,0,0,1,10.52,1.31,94.14,94.14,0,0,1,10.23,2.86,28.26,28.26,0,0,1,9.31,4.85,25.45,25.45,0,0,1,6.17,8.46c3.11,6.37,4.55,13.39,6.15,20.29l9.5,41.55c.65,2.93,1.36,5.85,2,8.79h.31c-.63-3-1.33-5.92-2-8.87Z" fill="#f26b55"/><path d="M279.63,205.94l-12.5-40.39c-2.08-6.72-4.23-13.48-7.52-19.76a31.22,31.22,0,0,0-6.22-8.56,32.29,32.29,0,0,0-8.85-5.81,38.47,38.47,0,0,0-4.94-1.91l-2.54-.78c-.86-.22-1.72-.4-2.59-.56a61.27,61.27,0,0,0-10.56-.8c-1.76,0-3.52,0-5.29.06a46.1,46.1,0,0,1-5.26-.08,12.89,12.89,0,0,1-5-1.4,7.47,7.47,0,0,1-3.47-3.7,5.09,5.09,0,0,1-.26-2.53,4.51,4.51,0,0,1,1.12-2.27,12.26,12.26,0,0,1,4.43-2.67c3.27-1.31,6.63-2.35,10-3.53a60.37,60.37,0,0,0,9.69-4.23,26.63,26.63,0,0,0,8-6.87,29.57,29.57,0,0,0,5.84-19.9A30.78,30.78,0,0,0,241.2,70a38.16,38.16,0,0,0-5.61-9c-4.48-5.47-9.92-10-14.55-15.32a51.76,51.76,0,0,1-6.12-8.57,71.15,71.15,0,0,0-5.77-8.86,65.64,65.64,0,0,0-15.82-13.95c-3-1.93-6-3.69-9.14-5.34-1.56-.82-3.13-1.61-4.72-2.39A18.17,18.17,0,0,1,175.1,3.8a5.47,5.47,0,0,1-1.91-4.53,2.56,2.56,0,0,1,.05-.27h-.41c0,.08,0,.15,0,.23a5.21,5.21,0,0,0,.44,2.67,7.07,7.07,0,0,0,1.6,2.18A18.35,18.35,0,0,0,179.31,7q2.37,1.16,4.71,2.37c3.12,1.63,6.17,3.38,9.12,5.3a65,65,0,0,1,15.77,13.85,71.85,71.85,0,0,1,5.78,8.81,51.64,51.64,0,0,0,6.16,8.6c4.66,5.31,10.11,9.84,14.58,15.29a37.37,37.37,0,0,1,5.6,8.88,30.7,30.7,0,0,1,2.48,10.19A29.22,29.22,0,0,1,237.68,100a26.48,26.48,0,0,1-8,6.79,59.12,59.12,0,0,1-9.66,4.19c-3.32,1.17-6.69,2.21-10,3.51a12.54,12.54,0,0,0-4.54,2.74,4.75,4.75,0,0,0-1.19,2.4,5.31,5.31,0,0,0,.27,2.68,7.82,7.82,0,0,0,3.59,3.87,13.31,13.31,0,0,0,5.11,1.44,44.68,44.68,0,0,0,5.3.09c1.76,0,3.52-.06,5.28,0a60.34,60.34,0,0,1,10.49.82c.86.16,1.72.34,2.57.56l2.51.78a36,36,0,0,1,4.9,1.91,31.49,31.49,0,0,1,8.73,5.75,31,31,0,0,1,6.13,8.47c3.25,6.23,5.38,13,7.49,19.69L279.34,206q.81,2.52,1.53,5.05c.18.64.37,1.28.56,1.92h.29c-.19-.67-.39-1.33-.58-2C280.67,209.3,280.16,207.62,279.63,205.94Z" fill="#f6937c"/><path d="M226.07,5.14a21.28,21.28,0,0,1-10.14,2.08,29.81,29.81,0,0,1-10.16-2.39c-.81-.33-1.61-.69-2.4-1.06L201,2.56,196.33.14,194.11-1h-1c1,.5,2,1,3.05,1.54L200.82,3l2.35,1.21c.8.38,1.61.74,2.43,1.07a30.06,30.06,0,0,0,10.31,2.43,21.72,21.72,0,0,0,10.36-2.13A24.94,24.94,0,0,0,234.46-1h-.62A24.51,24.51,0,0,1,226.07,5.14Z" fill="#f6937c"/><path d="M258.8,169.79a190.07,190.07,0,0,0-8.53-19.47c-3.08-6.37-7.71-12.18-13.86-15.86a27.79,27.79,0,0,0-9.95-3.73,57.31,57.31,0,0,0-10.63-.45c-1.77,0-3.54.09-5.31.07a26.42,26.42,0,0,1-5.26-.41,18.12,18.12,0,0,1-4.95-1.74,11.94,11.94,0,0,1-4-3.36,5.14,5.14,0,0,1-1-4.86,4.9,4.9,0,0,1,1.64-2,13.92,13.92,0,0,1,2.26-1.35c3.18-1.53,6.55-2.65,9.87-3.88a94.35,94.35,0,0,0,9.82-4.06,33.47,33.47,0,0,0,8.74-6,30.61,30.61,0,0,0,8.52-19.07,26.2,26.2,0,0,0-.13-5.31c-.07-.89-.28-1.76-.43-2.63s-.43-1.73-.73-2.56a24.84,24.84,0,0,0-5.51-9c-4.83-5.25-11-8.91-16.19-13.74A28.51,28.51,0,0,1,206.91,42c-1.52-3.19-2.34-6.66-3.8-9.92a31.16,31.16,0,0,0-6-8.74,53.73,53.73,0,0,0-8.21-6.77c-5.86-4-12.19-7.26-18.18-11a18.27,18.27,0,0,1-4-3.36A8.51,8.51,0,0,1,164.91-1h-.44a8.92,8.92,0,0,0,1.9,3.45,18.75,18.75,0,0,0,4.11,3.43c6,3.75,12.35,7,18.19,11a53.24,53.24,0,0,1,8.17,6.71,30.78,30.78,0,0,1,6,8.65c1.45,3.21,2.28,6.69,3.82,9.91a28.47,28.47,0,0,0,6.42,8.44c5.2,4.85,11.4,8.49,16.21,13.7a24.74,24.74,0,0,1,5.49,9c.3.84.49,1.7.72,2.55a25.85,25.85,0,0,1,.44,2.61,26.62,26.62,0,0,1,.14,5.28,30.23,30.23,0,0,1-8.5,18.94,33.11,33.11,0,0,1-8.69,6,98.54,98.54,0,0,1-9.81,4c-3.33,1.22-6.7,2.33-9.91,3.86a14.16,14.16,0,0,0-2.3,1.38,5,5,0,0,0-1.73,2.06,4.28,4.28,0,0,0-.18,2.69,7.3,7.3,0,0,0,1.15,2.44c2.15,2.93,5.63,4.53,9.09,5.23a26.42,26.42,0,0,0,5.32.44c1.77,0,3.54,0,5.31-.07a57.35,57.35,0,0,1,10.57.47,27.15,27.15,0,0,1,9.81,3.71c6.07,3.64,10.64,9.38,13.69,15.72l1.23,2.35,1.12,2.4q1.11,2.42,2.14,4.86c1.39,3.25,2.71,6.53,4,9.83l15.65,39.51c.46,1.18.94,2.36,1.41,3.54h.31c-.48-1.22-1-2.43-1.44-3.65Z" fill="#fbbaa3"/><path d="M200.83-.6c-.56-.11-1.11-.25-1.66-.4h-1.6a26.44,26.44,0,0,0,3.17.85,19.69,19.69,0,0,0,10.59-.78l.18-.07h-1.45A19.35,19.35,0,0,1,200.83-.6Z" fill="#fbbaa3"/><path d="M157.45.08a23.34,23.34,0,0,0,3.62,4.07,40,40,0,0,0,4.34,3.26c6,4,12.56,7.16,18.38,11.4a32.24,32.24,0,0,1,7.64,7.51,21.31,21.31,0,0,1,2.49,4.75,27.19,27.19,0,0,1,1.29,5.21c.58,3.53.92,7.25,2.74,10.45a23.65,23.65,0,0,0,7.46,7.79c3,2.08,6.14,3.81,9.21,5.69a40.37,40.37,0,0,1,8.56,6.52,19.88,19.88,0,0,1,5,9.37,25.07,25.07,0,0,1,0,10.7,32,32,0,0,1-3.95,10,29.19,29.19,0,0,1-7,8.09,46.74,46.74,0,0,1-9.34,5.36c-3.29,1.48-6.66,2.75-10,4-1.69.64-3.37,1.29-5,2a31.8,31.8,0,0,0-4.84,2.44,7.57,7.57,0,0,0-2.05,1.82,3.63,3.63,0,0,0-.68,2.65,8.3,8.3,0,0,0,2.81,4.61,21.57,21.57,0,0,0,4.42,3.16,23.23,23.23,0,0,0,5,2.06,21.89,21.89,0,0,0,5.4.62c1.81,0,3.61,0,5.41-.14a47.75,47.75,0,0,1,10.76.27,21,21,0,0,1,9.61,4.48,35.63,35.63,0,0,1,7.09,8A82.38,82.38,0,0,1,241,155.7l9.34,19.52L268.48,213h.34l-18.07-38-9.34-19.52a83.34,83.34,0,0,0-5.32-9.44,35.64,35.64,0,0,0-7.18-8.12,21.35,21.35,0,0,0-9.79-4.54,47.87,47.87,0,0,0-10.83-.25c-1.8.09-3.6.18-5.4.15a21.08,21.08,0,0,1-5.32-.6,23.17,23.17,0,0,1-9.34-5.13,8.05,8.05,0,0,1-2.73-4.43,3.41,3.41,0,0,1,.63-2.47,7.51,7.51,0,0,1,2-1.75,32.25,32.25,0,0,1,4.8-2.43c1.66-.7,3.34-1.35,5-2,3.36-1.29,6.74-2.57,10-4.06a47.25,47.25,0,0,0,9.37-5.41,29.36,29.36,0,0,0,7.06-8.16,32.51,32.51,0,0,0,4-10,25.4,25.4,0,0,0,0-10.77,19.93,19.93,0,0,0-5.06-9.47A40.62,40.62,0,0,0,214.74,60c-3.07-1.89-6.24-3.63-9.18-5.71a23.18,23.18,0,0,1-7.36-7.71c-1.78-3.15-2.12-6.82-2.7-10.37A27.4,27.4,0,0,0,194.21,31a21.25,21.25,0,0,0-2.51-4.82,32.91,32.91,0,0,0-7.7-7.61c-5.85-4.28-12.4-7.42-18.37-11.44a41.21,41.21,0,0,1-4.29-3.24,22.12,22.12,0,0,1-3.54-4c-.19-.27-.36-.56-.53-.84h-.5C157-.63,157.21-.27,157.45.08Z" fill="#ffe2ca"/><path d="M4.7,5.69a19,19,0,0,0,7.77,4.44c2.87.91,5.84,1.42,8.65,2.43a16.6,16.6,0,0,1,4,2,17.77,17.77,0,0,1,3.25,3.06c1.92,2.29,3.42,4.9,5.23,7.3a27.39,27.39,0,0,0,6.53,6.18c2.45,1.73,5,3.24,7.55,4.89a30.11,30.11,0,0,1,6.87,5.68A10.67,10.67,0,0,1,57,50a11.73,11.73,0,0,1-1.45,4.16,21.47,21.47,0,0,1-2.64,3.58,65.5,65.5,0,0,1-6.61,6.06,79.6,79.6,0,0,0-6.67,6.06,78,78,0,0,0-5.83,6.87,121,121,0,0,0-9.58,15.24c-1.43,2.64-2.8,5.31-4.15,8s-2.71,5.35-3.87,8.13a46.1,46.1,0,0,0-2.76,8.6,22.82,22.82,0,0,0-.18,9,14.46,14.46,0,0,0,4.46,7.8,21.12,21.12,0,0,0,7.89,4.36c5.72,1.91,11.78,2.55,17.28,4.88,5.66,2.1,9.25,7.47,14.82,10,5.41,2.74,11.35,4,17.07,5.7a51.37,51.37,0,0,1,8.36,3.17,26.19,26.19,0,0,1,3.8,2.31,15.37,15.37,0,0,1,3.22,3A6.18,6.18,0,0,1,91.42,171a17,17,0,0,1-.8,4.35,17.32,17.32,0,0,1-4.79,7.37c-2.2,2-4.85,3.48-7.1,5.5a12.21,12.21,0,0,0-2.81,3.57,7,7,0,0,0-.77,4.46,5.87,5.87,0,0,0,.35,1.1c.16.36.32.66.18.94-.28.59-1.11.81-1.7,1.31a2.7,2.7,0,0,0-1,2.1,5.25,5.25,0,0,0,.52,2.24,12.69,12.69,0,0,0,2.78,3.56,26.42,26.42,0,0,0,3.56,2.78c1.48,1,3,1.85,4.55,2.72h.49c-1.66-.94-3.31-1.88-4.89-2.94a26.09,26.09,0,0,1-3.52-2.76,12.31,12.31,0,0,1-2.7-3.49,5,5,0,0,1-.49-2.11,2.42,2.42,0,0,1,.85-1.86c.52-.47,1.36-.62,1.8-1.42a1,1,0,0,0,0-.66c-.06-.2-.16-.37-.22-.54a5.23,5.23,0,0,1-.32-1,6.64,6.64,0,0,1,.75-4.24A11.83,11.83,0,0,1,79,188.5c2.22-2,4.88-3.45,7.13-5.48A17.68,17.68,0,0,0,91,175.49a17,17,0,0,0,.84-4.47,6.6,6.6,0,0,0-1.3-4.37,15.54,15.54,0,0,0-3.31-3.12,25.55,25.55,0,0,0-3.87-2.37A51.17,51.17,0,0,0,75,158c-5.74-1.72-11.66-3-17-5.67A17.53,17.53,0,0,1,56,151.21c-.63-.39-1.27-.77-1.86-1.22-1.2-.88-2.34-1.85-3.49-2.82a41.94,41.94,0,0,0-3.56-2.78,25.23,25.23,0,0,0-4-2.13c-5.59-2.36-11.65-3-17.31-4.89a20.71,20.71,0,0,1-7.73-4.26,14.11,14.11,0,0,1-4.32-7.55,22.45,22.45,0,0,1,.18-8.83,45.61,45.61,0,0,1,2.73-8.51c1.15-2.76,2.51-5.43,3.86-8.11s2.71-5.34,4.13-8a118.8,118.8,0,0,1,9.51-15.21,74.22,74.22,0,0,1,5.78-6.85A79.1,79.1,0,0,1,46.55,64a65.82,65.82,0,0,0,6.63-6.1,22.76,22.76,0,0,0,2.68-3.64A12.3,12.3,0,0,0,57.33,50a11,11,0,0,0-2.58-8.46,30.6,30.6,0,0,0-7-5.73c-2.51-1.64-5.11-3.14-7.56-4.86a27.36,27.36,0,0,1-6.5-6.11c-1.8-2.39-3.31-5-5.25-7.3a17.79,17.79,0,0,0-3.29-3.08,17.29,17.29,0,0,0-4-2c-2.84-1-5.81-1.53-8.66-2.44A18.67,18.67,0,0,1,4.83,5.55,20.25,20.25,0,0,1,.32-1H.09A20.29,20.29,0,0,0,4.7,5.69Z" fill="#f26b55"/><path d="M9-.31a16,16,0,0,0,3,3.13A24.64,24.64,0,0,0,19.6,6.71a53.17,53.17,0,0,1,7.94,3.21,30,30,0,0,1,6.7,5.29c2,2,3.88,4.21,5.9,6.24s4,4.08,6,6.18A101.09,101.09,0,0,1,56.84,41a14.75,14.75,0,0,1,1.75,3.86A9.56,9.56,0,0,1,58.81,49a20.11,20.11,0,0,1-3.38,7.75,66.88,66.88,0,0,1-5.35,6.68c-1.88,2.16-3.78,4.31-5.6,6.53-7.29,8.89-13,18.92-18.33,29a74.77,74.77,0,0,0-3.5,7.87,34.36,34.36,0,0,0-2.1,8.37,13.77,13.77,0,0,0,1.55,8.44,13.11,13.11,0,0,0,6.62,5.46A71.52,71.52,0,0,0,37,131.69a37.39,37.39,0,0,1,7.94,3.1,26.83,26.83,0,0,1,6.75,5.14,68.56,68.56,0,0,0,6.12,6,32.74,32.74,0,0,0,7.43,4.39c2.63,1.16,5.35,2.11,8.06,3s5.43,1.81,8.08,2.87a36.63,36.63,0,0,1,7.58,3.88,19.7,19.7,0,0,1,3.23,2.73,8.86,8.86,0,0,1,2,3.61,14.66,14.66,0,0,1,.48,4.19,16.41,16.41,0,0,1-.59,4.18,17.51,17.51,0,0,1-4.34,7.21c-1.9,2.11-4,4.1-5.51,6.61a11.76,11.76,0,0,0-1.56,4,8,8,0,0,0-.08,1.09c0,.36.06.76,0,1.06-.08.63-.74,1.05-1.28,1.5a4,4,0,0,0-1.28,1.79,5.22,5.22,0,0,0-.26,2.18,10.82,10.82,0,0,0,1.31,4.12,20.37,20.37,0,0,0,5.67,6.44c.88.72,1.78,1.4,2.69,2.09h.38c-1-.76-2-1.5-2.92-2.28a20.16,20.16,0,0,1-5.57-6.38,10.67,10.67,0,0,1-1.26-4,4.13,4.13,0,0,1,1.44-3.71c.51-.44,1.26-.84,1.4-1.71,0-.42,0-.73,0-1.09a7.28,7.28,0,0,1,.08-1,11.51,11.51,0,0,1,1.54-3.92c1.44-2.45,3.56-4.41,5.49-6.53A17.89,17.89,0,0,0,94.48,175a16.09,16.09,0,0,0,.63-4.3,15.45,15.45,0,0,0-.48-4.32,9.27,9.27,0,0,0-2.14-3.8,19.63,19.63,0,0,0-3.3-2.81,36.88,36.88,0,0,0-7.67-3.95c-2.67-1.06-5.4-2-8.11-2.87s-5.41-1.86-8-3a31.85,31.85,0,0,1-7.32-4.32,67.67,67.67,0,0,1-6.09-6,27.27,27.27,0,0,0-6.86-5.22,38.22,38.22,0,0,0-8-3.14,72.31,72.31,0,0,1-8.18-2.49,12.72,12.72,0,0,1-6.4-5.26A13.4,13.4,0,0,1,21,115.31a33.39,33.39,0,0,1,2.07-8.25,73.77,73.77,0,0,1,3.47-7.82c5.34-10.1,11-20.14,18.23-29,1.81-2.21,3.7-4.36,5.57-6.53A67.14,67.14,0,0,0,55.71,57a20.48,20.48,0,0,0,3.41-7.88,10,10,0,0,0-.23-4.32,15.56,15.56,0,0,0-1.8-3.93A101.45,101.45,0,0,0,46.28,27.46c-2-2.09-4-4.13-6-6.16s-3.89-4.2-5.91-6.23a29.92,29.92,0,0,0-6.76-5.3,53.26,53.26,0,0,0-8-3.2,24.33,24.33,0,0,1-7.58-3.89A15.56,15.56,0,0,1,9.15-.41C9-.6,8.88-.8,8.75-1H8.52C8.68-.77,8.83-.53,9-.31Z" fill="#f6937c"/><path d="M23.89,2.82c2.6,1.11,5.28,2.05,7.82,3.28A44.33,44.33,0,0,1,39,10.43a35.86,35.86,0,0,1,6.19,5.74,31.9,31.9,0,0,1,4.32,7.24c1.18,2.57,2.2,5.21,3.54,7.72a23.25,23.25,0,0,0,2.31,3.58,27.61,27.61,0,0,0,3,3c1,1,2.16,1.84,3.15,2.84a8.28,8.28,0,0,1,2.22,3.47,13,13,0,0,1-.76,8.19,30.21,30.21,0,0,1-4.42,7.15c-1.74,2.22-3.63,4.32-5.45,6.49A178.09,178.09,0,0,0,34.13,94.08c-1.35,2.49-2.6,5-3.72,7.65a31.48,31.48,0,0,0-2.5,8.14,14.09,14.09,0,0,0,.06,4.3,9.14,9.14,0,0,0,1.71,4,10.23,10.23,0,0,0,3.3,2.77,20.07,20.07,0,0,0,4,1.55,58.39,58.39,0,0,1,8.07,2.44,21,21,0,0,1,6.69,5,66.15,66.15,0,0,1,5.11,6.73,27.68,27.68,0,0,0,5.8,6.23c4.53,3.53,9.92,5.59,15.18,7.62s10.66,3.94,15.09,7.44a15.72,15.72,0,0,1,5.1,6.51,16.52,16.52,0,0,1,1.32,8.17,17.72,17.72,0,0,1-3.11,7.71c-1.54,2.35-3.32,4.58-4.73,7.06a18.73,18.73,0,0,0-1.77,3.89c-.23,1.4-1.64,2.14-2.33,3.44a9.38,9.38,0,0,0-1.21,4.1,13.11,13.11,0,0,0,2.11,8.16,23.06,23.06,0,0,0,2.7,3.29c.9.95,1.83,1.86,2.74,2.79h.33c-1-1-1.95-2-2.89-3a22.43,22.43,0,0,1-2.65-3.27,12.85,12.85,0,0,1-1.68-3.83,12.67,12.67,0,0,1-.35-4.16,8.86,8.86,0,0,1,1.18-4A9.06,9.06,0,0,1,89,193.2a6.2,6.2,0,0,0,.67-.86,4.07,4.07,0,0,0,.4-1,19,19,0,0,1,1.76-3.81c1.4-2.44,3.18-4.65,4.74-7a18,18,0,0,0,3.21-7.87,17,17,0,0,0-1.32-8.4,16,16,0,0,0-5.22-6.71C88.71,153.92,83.25,152,78,150s-10.6-4.08-15-7.54a27.3,27.3,0,0,1-5.71-6.13,65.64,65.64,0,0,0-5.15-6.77,21.54,21.54,0,0,0-6.84-5.09A59.49,59.49,0,0,0,37.11,122c-2.69-.73-5.38-1.9-7-4.14a10.47,10.47,0,0,1-1.69-7.91,30.39,30.39,0,0,1,2.46-8c1.11-2.6,2.36-5.13,3.7-7.62a180.56,180.56,0,0,1,18.8-28.14c1.81-2.17,3.7-4.28,5.45-6.52a30.42,30.42,0,0,0,4.44-7.25,16.91,16.91,0,0,0,1.06-4.14A10.46,10.46,0,0,0,64,44a8.62,8.62,0,0,0-2.31-3.59c-1-1-2.14-1.86-3.16-2.84a26.11,26.11,0,0,1-3-3A22.77,22.77,0,0,1,53.26,31c-1.34-2.48-2.37-5.12-3.56-7.69A32.43,32.43,0,0,0,45.33,16a36.26,36.26,0,0,0-6.24-5.76A44.35,44.35,0,0,0,31.79,6C29.23,4.72,26.55,3.78,24,2.68A25.14,25.14,0,0,1,17.57-1h-.25A25,25,0,0,0,23.89,2.82Z" fill="#fbbaa3"/><path d="M31.1.29c2.69,1,5.43,1.79,8.1,2.79a25.34,25.34,0,0,1,7.48,4.05A13.16,13.16,0,0,1,51,14.27a79.32,79.32,0,0,1,1.28,8.47,22.71,22.71,0,0,0,.93,4.2,10.21,10.21,0,0,0,2.12,3.75,7.92,7.92,0,0,0,.78.75,7.07,7.07,0,0,0,.86.67,11,11,0,0,0,1.93,1A38.17,38.17,0,0,0,63,34.37,17.46,17.46,0,0,1,67,35.89a8.08,8.08,0,0,1,3,2.91A11.82,11.82,0,0,1,71.2,47a19.17,19.17,0,0,1-3.59,7.62C65.94,56.91,64,59,62.1,61.15A177.47,177.47,0,0,0,42.07,89c-1.44,2.48-2.83,5-4.14,7.52a25.64,25.64,0,0,0-2.9,8.11,10.32,10.32,0,0,0,.24,4.35,7.23,7.23,0,0,0,2.41,3.62,10.8,10.8,0,0,0,3.9,1.93c1.39.42,2.8.69,4.18,1a19.76,19.76,0,0,1,4,1.3,12,12,0,0,1,3.38,2.45,27,27,0,0,1,4.49,7.18,60,60,0,0,0,4,7.62,25.38,25.38,0,0,0,6,6.15c4.67,3.42,10.06,5.54,15.32,7.74a81.57,81.57,0,0,1,7.78,3.54,39.69,39.69,0,0,1,7,4.8,25.56,25.56,0,0,1,5.48,6.43,18.44,18.44,0,0,1,1.66,3.88c.14.69.32,1.38.4,2.07a12.48,12.48,0,0,1,.1,2.11,17.66,17.66,0,0,1-2.32,8.07,60.62,60.62,0,0,1-4.7,7.14,70.34,70.34,0,0,0-4.78,7.13,15.38,15.38,0,0,0-2.21,8.25,11.69,11.69,0,0,0,1,4.19,19.94,19.94,0,0,0,2.23,3.68c.91,1.27,1.9,2.48,2.81,3.74h.29c-.94-1.32-2-2.58-2.9-3.88a20.89,20.89,0,0,1-2.19-3.65,11.58,11.58,0,0,1-1-4.09,15.06,15.06,0,0,1,2.2-8.08,67.12,67.12,0,0,1,4.79-7.08,61.39,61.39,0,0,0,4.75-7.17,18,18,0,0,0,2.41-8.24,14.33,14.33,0,0,0-.09-2.17c-.08-.72-.27-1.43-.41-2.13a18.26,18.26,0,0,0-1.69-4,25.88,25.88,0,0,0-5.56-6.59A40.09,40.09,0,0,0,91,151.07c-2.53-1.37-5.19-2.45-7.83-3.56-5.26-2.19-10.63-4.3-15.22-7.67a24.79,24.79,0,0,1-5.93-6,60.22,60.22,0,0,1-3.95-7.56,27.27,27.27,0,0,0-4.58-7.3A12.69,12.69,0,0,0,50,116.4a20.84,20.84,0,0,0-4.12-1.33c-1.4-.32-2.8-.59-4.16-1A10.36,10.36,0,0,1,38,112.23a6.78,6.78,0,0,1-2.27-3.39,10,10,0,0,1-.23-4.15,25.29,25.29,0,0,1,2.85-8c1.31-2.53,2.7-5,4.13-7.5A178.86,178.86,0,0,1,62.39,61.41c1.87-2.16,3.83-4.26,5.51-6.59a19.4,19.4,0,0,0,3.63-7.77,12.18,12.18,0,0,0-1.29-8.41,8.36,8.36,0,0,0-3.1-3,17.28,17.28,0,0,0-4-1.54A36.24,36.24,0,0,1,59,32.84a10.73,10.73,0,0,1-1.88-1,5.8,5.8,0,0,1-.83-.65,8.74,8.74,0,0,1-.77-.72,10.18,10.18,0,0,1-2.07-3.65,21.78,21.78,0,0,1-.93-4.16,78.6,78.6,0,0,0-1.31-8.48A13.36,13.36,0,0,0,46.81,7a25.18,25.18,0,0,0-7.55-4.06c-2.68-1-5.43-1.81-8.11-2.78C30.19-.2,29.24-.59,28.3-1h-.39C29-.53,30-.1,31.1.29Z" fill="#ffe2ca"/></svg>