<svg width="17" height="17" viewBox="0 0 17 17" fill="none" xmlns="http://www.w3.org/2000/svg">
<path d="M16.6482 8.18401C16.6493 7.63904 16.6032 7.095 16.5104 6.55801H8.97656V9.63901H13.2906C13.2022 10.1313 13.0151 10.6006 12.7405 11.0184C12.466 11.4363 12.1097 11.794 11.6932 12.07V14.07H14.267C15.0529 13.3106 15.6708 12.3943 16.0808 11.3806C16.4908 10.3668 16.6838 9.27817 16.6472 8.18501L16.6482 8.18401Z" fill="#2085FC"/>
<path d="M8.97635 16C10.9212 16.0543 12.8136 15.3637 14.2678 14.069L11.694 12.069C11.0741 12.4662 10.3721 12.7168 9.6411 12.8018C8.91014 12.8867 8.16945 12.8038 7.47526 12.5593C6.78107 12.3147 6.1516 11.9151 5.63463 11.3905C5.11765 10.866 4.72675 10.2304 4.49159 9.53201H1.83887V11.593C2.50385 12.918 3.52345 14.0318 4.78383 14.81C6.04421 15.5883 7.49574 16.0002 8.97635 16Z" fill="#00AC47"/>
<path d="M4.49165 9.533C4.15717 8.53949 4.15717 7.46352 4.49165 6.47V4.41H1.83893C1.28053 5.52479 0.989746 6.75478 0.989746 8.002C0.989746 9.24923 1.28053 10.4792 1.83893 11.594L4.49165 9.533Z" fill="#FFBA00"/>
<path d="M8.97635 3.166C10.1153 3.14794 11.2158 3.57891 12.0404 4.366L14.3207 2.082C12.8748 0.722412 10.9595 -0.0237265 8.97635 -3.3871e-07C7.49543 4.76289e-05 6.04367 0.412489 4.78327 1.19125C3.52286 1.97001 2.50343 3.08442 1.83887 4.41L4.49159 6.47C4.80072 5.51897 5.39954 4.68884 6.20394 4.09623C7.00833 3.50361 7.97788 3.17831 8.97635 3.166Z" fill="#FF2B25"/>
</svg>
