<svg width="50" height="50" viewBox="0 0 50 50" fill="none" xmlns="http://www.w3.org/2000/svg">
<g clip-path="url(#clip0_811_1228)">
<path d="M24.5399 40.4699C23.7999 40.1799 6.37988 33.3699 6.37988 19.3899C6.44286 16.6624 7.58439 14.071 9.55436 12.1835C11.5243 10.296 14.1621 9.2663 16.8899 9.31995C18.3394 9.31846 19.774 9.61204 21.1064 10.1828C22.4387 10.7536 23.641 11.5896 24.6399 12.6399L24.9999 12.9999L25.3599 12.6099C26.3588 11.5596 27.561 10.7236 28.8934 10.1528C30.2258 9.58204 31.6604 9.28846 33.1099 9.28995C35.8427 9.23637 38.485 10.2702 40.4558 12.1641C42.4266 14.0581 43.5647 16.6571 43.6199 19.3899C43.6199 33.3899 26.1999 40.1799 25.4599 40.4699L24.9999 40.6399L24.5399 40.4699Z" fill="white"/>
<path d="M33.1101 9.81996C35.7036 9.76895 38.2116 10.7472 40.0857 12.5406C41.9597 14.3341 43.0472 16.7968 43.1101 19.39C43.1201 33 26.0001 39.72 25.2801 40L25.0001 40.11L24.7201 40C21.4048 38.637 18.2897 36.8305 15.4601 34.63C9.77014 30.15 6.88014 25 6.88014 19.39C6.9431 16.7968 8.03054 14.3341 9.90458 12.5406C11.7786 10.7472 14.2867 9.76895 16.8801 9.81996C18.2633 9.82073 19.6318 10.1031 20.9023 10.6498C22.1727 11.1965 23.3186 11.9961 24.2701 13L25.0001 13.78L25.7301 13C26.6822 12.001 27.8272 11.2057 29.0958 10.6626C30.3644 10.1194 31.7301 9.8395 33.1101 9.83996V9.81996ZM33.1101 8.83996C31.594 8.83446 30.0928 9.13849 28.6982 9.73343C27.3037 10.3284 26.0453 11.2017 25.0001 12.3C23.9566 11.1981 22.699 10.321 21.3044 9.72262C19.9098 9.1242 18.4077 8.81703 16.8901 8.81996C14.0315 8.76901 11.2691 9.85261 9.20755 11.8336C7.14599 13.8146 5.95316 16.5316 5.89014 19.39C5.89014 33.69 23.6201 40.64 24.3801 40.93L25.0101 41.18L25.6401 40.93C26.4001 40.64 44.1301 33.69 44.1301 19.39C44.0671 16.5316 42.8743 13.8146 40.8127 11.8336C38.7512 9.85261 35.9888 8.76901 33.1301 8.81996L33.1101 8.83996Z" fill="black"/>
<g style="mix-blend-mode:darken">
<g style="mix-blend-mode:darken">
<path d="M44.76 19.3099V19.2299C44.7128 16.9606 43.8311 14.7883 42.2834 13.128C40.7356 11.4678 38.6304 10.436 36.37 10.2299C35.9914 10.1895 35.6108 10.1694 35.23 10.1699C33.7134 10.1675 32.2123 10.4739 30.818 11.0705C29.4237 11.667 28.1654 12.5413 27.12 13.6399C26.07 12.5473 24.8086 11.6798 23.4127 11.0901C22.0167 10.5004 20.5154 10.201 19 10.2099C16.1414 10.159 13.379 11.2426 11.3174 13.2236C9.25585 15.2045 8.06302 17.9216 8 20.7799C8.09991 25.5943 10.0561 30.1838 13.46 33.5899C16.8609 36.655 20.7648 39.111 25 40.8499L25.64 41.0899L26.27 40.8499C27 40.5599 44.76 33.6099 44.76 19.3099Z" fill="#FF6E53"/>
</g>
</g>
<path d="M24.5 0.47998V5.47998C24.5 5.61259 24.5527 5.73977 24.6464 5.83353C24.7402 5.9273 24.8674 5.97998 25 5.97998C25.1326 5.97998 25.2598 5.9273 25.3536 5.83353C25.4473 5.73977 25.5 5.61259 25.5 5.47998V0.47998C25.5 0.347372 25.4473 0.220195 25.3536 0.126427C25.2598 0.0326589 25.1326 -0.0200195 25 -0.0200195C24.8674 -0.0200195 24.7402 0.0326589 24.6464 0.126427C24.5527 0.220195 24.5 0.347372 24.5 0.47998Z" fill="#FF6E53"/>
<path d="M0.850102 44.39L4.0001 41.29L4.4401 40.85C4.9001 40.4 4.1901 39.69 3.7301 40.15L0.590102 43.24L0.150102 43.68C-0.309898 44.14 0.400102 44.85 0.850102 44.39Z" fill="#FF6E53"/>
<path d="M49.8499 43.68L46.7599 40.59L46.3199 40.15C45.8599 39.69 45.1499 40.4 45.6099 40.85L48.7099 43.95L49.1499 44.39C49.5999 44.85 50.3099 44.14 49.8499 43.68Z" fill="#FF6E53"/>
<path d="M24.3501 50C24.9024 50 25.3501 49.5523 25.3501 49C25.3501 48.4477 24.9024 48 24.3501 48C23.7978 48 23.3501 48.4477 23.3501 49C23.3501 49.5523 23.7978 50 24.3501 50Z" fill="#FF6E53"/>
<path d="M1 10.8199C1.55228 10.8199 2 10.3722 2 9.81995C2 9.26766 1.55228 8.81995 1 8.81995C0.447715 8.81995 0 9.26766 0 9.81995C0 10.3722 0.447715 10.8199 1 10.8199Z" fill="#FF6E53"/>
<path d="M49 10.8199C49.5523 10.8199 50 10.3722 50 9.81995C50 9.26766 49.5523 8.81995 49 8.81995C48.4477 8.81995 48 9.26766 48 9.81995C48 10.3722 48.4477 10.8199 49 10.8199Z" fill="#FF6E53"/>
</g>
<defs>
<clipPath id="clip0_811_1228">
<rect width="50" height="50" fill="white"/>
</clipPath>
</defs>
</svg>
