<svg width="15" height="15" viewBox="0 0 15 15" fill="none" xmlns="http://www.w3.org/2000/svg">
<path d="M10.9275 7.5675L12.555 9.195C12.7725 9.4125 12.7725 9.7725 12.555 9.99C12.4425 10.1025 12.3 10.155 12.1575 10.155C12.015 10.155 11.8725 10.1025 11.76 9.99L10.17 8.4L9.5775 9.0525C9.045 9.6375 8.2875 9.975 7.5 9.975C6.7125 9.975 5.9475 9.63 5.4225 9.045L4.83 8.4L3.24 9.99C3.1275 10.1025 2.985 10.155 2.8425 10.155C2.7 10.155 2.5575 10.1025 2.445 9.99C2.2275 9.7725 2.2275 9.4125 2.445 9.195L4.0725 7.5675L0.75 3.9075V11.25C0.75 12.075 1.425 12.75 2.25 12.75H12.75C13.575 12.75 14.25 12.075 14.25 11.25V3.9075L10.9275 7.5675Z" fill="white"/>
<path d="M6.24749 8.2875C6.89999 9 8.09999 9 8.75249 8.2875L13.83 2.7075C13.5525 2.4225 13.17 2.25 12.75 2.25H2.24999C1.82999 2.25 1.44749 2.4225 1.17749 2.7075L6.24749 8.2875Z" fill="white"/>
</svg>
