<svg width="92" height="93" viewBox="0 0 92 93" fill="none" xmlns="http://www.w3.org/2000/svg">
<path d="M35.5499 87.5862C30.5946 87.8626 25.6438 86.968 21.1 84.9753C16.5561 82.9825 12.5473 79.9478 9.39922 76.1178C6.25118 72.2877 4.05273 67.7703 2.9825 62.9326C1.91228 58.0949 2.00047 53.0734 3.23991 48.2761" fill="white"/>
<path d="M35.5499 87.5862C30.5946 87.8626 25.6438 86.968 21.1 84.9753C16.5561 82.9825 12.5473 79.9478 9.39922 76.1178C6.25118 72.2877 4.05273 67.7703 2.9825 62.9326C1.91228 58.0949 2.00047 53.0734 3.23991 48.2761" stroke="#60423C" stroke-width="2" stroke-linecap="round" stroke-linejoin="round"/>
<path d="M4.03003 49.9332C5.68688 49.9332 7.03003 48.5924 7.03003 46.9385C7.03003 45.2846 5.68688 43.9438 4.03003 43.9438C2.37318 43.9438 1.03003 45.2846 1.03003 46.9385C1.03003 48.5924 2.37318 49.9332 4.03003 49.9332Z" fill="white" stroke="#60423C" stroke-width="2.06" stroke-linecap="round" stroke-linejoin="round"/>
<path d="M86.2201 56.6311C86.4948 61.5757 85.5975 66.5154 83.601 71.0489C81.6046 75.5824 78.5653 79.5821 74.7299 82.7232C70.8944 85.8643 66.371 88.0582 61.5269 89.1269C56.6827 90.1956 51.6544 90.1088 46.8501 88.8738" fill="white"/>
<path d="M86.2201 56.6311C86.4948 61.5757 85.5975 66.5154 83.601 71.0489C81.6046 75.5824 78.5653 79.5821 74.7299 82.7232C70.8944 85.8643 66.371 88.0582 61.5269 89.1269C56.6827 90.1956 51.6544 90.1088 46.8501 88.8738" stroke="#60423C" stroke-width="2" stroke-linecap="round" stroke-linejoin="round"/>
<path d="M45.5 91.0299C47.1569 91.0299 48.5 89.6891 48.5 88.0352C48.5 86.3813 47.1569 85.0405 45.5 85.0405C43.8431 85.0405 42.5 86.3813 42.5 88.0352C42.5 89.6891 43.8431 91.0299 45.5 91.0299Z" fill="white" stroke="#60423C" stroke-width="2.06" stroke-linecap="round" stroke-linejoin="round"/>
<path d="M4.59999 35.3991C4.32366 30.4536 5.21974 25.5128 7.21548 20.978C9.21122 16.4431 12.2503 12.4421 16.086 9.2999C19.9216 6.15766 24.4456 3.96282 29.2906 2.89363C34.1356 1.82443 39.1649 1.91104 43.97 3.14642" stroke="#60423C" stroke-width="2" stroke-linecap="round" stroke-linejoin="round"/>
<path d="M45.5 7.01938C47.1569 7.01938 48.5 5.67862 48.5 4.02471C48.5 2.37079 47.1569 1.03003 45.5 1.03003C43.8431 1.03003 42.5 2.37079 42.5 4.02471C42.5 5.67862 43.8431 7.01938 45.5 7.01938Z" fill="white" stroke="#60423C" stroke-width="2.06" stroke-linecap="round" stroke-linejoin="round"/>
<path d="M55.3401 5.2127C60.2943 4.93685 65.2439 5.83135 69.7868 7.82354C74.3297 9.81574 78.3379 12.8495 81.4857 16.6783C84.6335 20.5071 86.8322 25.0231 87.9033 29.8595C88.9744 34.6959 88.8877 39.7162 87.6501 44.5128" fill="white"/>
<path d="M55.3401 5.2127C60.2943 4.93685 65.2439 5.83135 69.7868 7.82354C74.3297 9.81574 78.3379 12.8495 81.4857 16.6783C84.6335 20.5071 86.8322 25.0231 87.9033 29.8595C88.9744 34.6959 88.8877 39.7162 87.6501 44.5128" stroke="#60423C" stroke-width="2" stroke-linecap="round" stroke-linejoin="round"/>
<path d="M87.0303 49.0348C88.6871 49.0348 90.0303 47.694 90.0303 46.0401C90.0303 44.3862 88.6871 43.0454 87.0303 43.0454C85.3734 43.0454 84.0303 44.3862 84.0303 46.0401C84.0303 47.694 85.3734 49.0348 87.0303 49.0348Z" fill="white" stroke="#60423C" stroke-width="2.06" stroke-linecap="round" stroke-linejoin="round"/>
<path d="M45.4099 6.02124C37.4987 6.02124 29.7651 8.36304 23.1871 12.7505C16.6092 17.1379 11.4823 23.374 8.45475 30.6701C5.42724 37.9662 4.63511 45.9945 6.17852 53.74C7.72193 61.4855 11.5316 68.6002 17.1257 74.1843C22.7198 79.7685 29.8471 83.5714 37.6063 85.112C45.3656 86.6527 53.4082 85.862 60.7173 82.8399C68.0263 79.8177 74.2735 74.6999 78.6687 68.1336C83.064 61.5673 85.4099 53.8475 85.4099 45.9503C85.4099 35.3604 81.1957 25.2043 73.6942 17.7162C66.1927 10.228 56.0186 6.02124 45.4099 6.02124V6.02124ZM45.4099 70.9059C40.4654 70.9059 35.6319 69.4423 31.5207 66.7001C27.4094 63.9579 24.2051 60.0604 22.3129 55.5004C20.4207 50.9403 19.9257 45.9226 20.8903 41.0817C21.8549 36.2407 24.2359 31.7941 27.7323 28.304C31.2286 24.8138 35.6831 22.4371 40.5327 21.4741C45.3822 20.5112 50.4089 21.0054 54.977 22.8943C59.5452 24.7831 63.4496 27.9817 66.1967 32.0856C68.9437 36.1896 70.4099 41.0145 70.4099 45.9503C70.4099 52.5689 67.776 58.9165 63.0876 63.5966C58.3992 68.2766 52.0403 70.9059 45.4099 70.9059Z" fill="white" stroke="#60423C" stroke-width="2" stroke-linecap="round" stroke-linejoin="round"/>
<path d="M45.4099 4.02466C37.1031 4.02466 28.9828 6.48355 22.076 11.0904C15.1691 15.6972 9.78587 22.2451 6.60699 29.9059C3.42811 37.5668 2.59637 45.9966 4.21695 54.1294C5.83753 62.2621 9.83764 69.7325 15.7114 75.5959C21.5853 81.4593 29.0689 85.4523 37.2161 87.07C45.3633 88.6877 53.8081 87.8574 61.4826 84.6842C69.1571 81.511 75.7166 76.1373 80.3316 69.2427C84.9467 62.3481 87.4099 54.2422 87.4099 45.9501C87.4099 34.8308 82.9849 24.1669 75.1084 16.3043C67.2319 8.44179 56.549 4.02466 45.4099 4.02466ZM45.4099 68.9093C40.861 68.9093 36.4141 67.5628 32.6318 65.04C28.8495 62.5172 25.9015 58.9315 24.1607 54.7362C22.4199 50.541 21.9644 45.9247 22.8519 41.471C23.7393 37.0174 25.9299 32.9264 29.1465 29.7155C32.3631 26.5046 36.4613 24.318 40.9229 23.4321C45.3844 22.5462 50.009 23.0009 54.2117 24.7386C58.4144 26.4763 62.0065 29.4191 64.5337 33.1947C67.061 36.9703 68.4099 41.4092 68.4099 45.9501C68.4099 48.9652 67.815 51.9507 66.6592 54.7362C65.5033 57.5218 63.8091 60.0528 61.6734 62.1847C59.5376 64.3167 57.0021 66.0078 54.2117 67.1616C51.4212 68.3154 48.4303 68.9093 45.4099 68.9093V68.9093Z" fill="white" stroke="#60423C" stroke-width="2" stroke-linecap="round" stroke-linejoin="round"/>
<path d="M29.1501 62.1812C26.9699 60.0195 25.2519 57.4386 24.1001 54.5947L9.31006 67.392C12.8947 73.3923 17.919 78.4078 23.9301 81.986L36.7501 67.2223C33.9012 66.0725 31.3156 64.3576 29.1501 62.1812Z" fill="white" stroke="#60423C" stroke-width="2" stroke-linecap="round" stroke-linejoin="round"/>
<path d="M61.6701 29.7189C63.8323 31.8852 65.5331 34.4658 66.6701 37.3054L81.5101 24.5081C77.9254 18.5078 72.9011 13.4923 66.8901 9.91406L54.0701 24.6778C56.919 25.8276 59.5045 27.5425 61.6701 29.7189V29.7189Z" fill="white" stroke="#60423C" stroke-width="2" stroke-linecap="round" stroke-linejoin="round"/>
<path d="M81.5101 67.392L66.7201 54.5947C65.559 57.4337 63.8421 60.0128 61.67 62.1811C59.4978 64.3494 56.9141 66.0633 54.0701 67.2223L66.8901 81.986C72.9011 78.4078 77.9254 73.3923 81.5101 67.392V67.392Z" fill="white" stroke="#60423C" stroke-width="2" stroke-linecap="round" stroke-linejoin="round"/>
<path d="M9.31006 24.5081L24.1001 37.3054C25.2611 34.4664 26.978 31.8872 29.1502 29.7189C31.3223 27.5507 33.906 25.8368 36.7501 24.6778L23.9301 9.91406C17.919 13.4923 12.8947 18.5078 9.31006 24.5081V24.5081Z" fill="white" stroke="#60423C" stroke-width="2" stroke-linecap="round" stroke-linejoin="round"/>
<g style="mix-blend-mode:darken">
<path d="M31.1501 64.1776C28.9699 62.0158 27.2519 59.4349 26.1001 56.5911L11.3101 69.3883C14.8947 75.3887 19.919 80.4041 25.9301 83.9824L38.7501 69.2186C35.9012 68.0688 33.3156 66.3539 31.1501 64.1776V64.1776Z" fill="#FF6E53"/>
</g>
<g style="mix-blend-mode:darken">
<path d="M63.6701 31.7154C65.8323 33.8818 67.5331 36.4624 68.6701 39.3019L83.5101 26.5047C79.9254 20.5043 74.9011 15.4889 68.8901 11.9106L56.0701 26.6744C58.919 27.8242 61.5045 29.5391 63.6701 31.7154V31.7154Z" fill="#FF6E53"/>
</g>
<g style="mix-blend-mode:darken">
<path d="M83.5101 69.3883L68.7201 56.5911C67.559 59.43 65.8421 62.0092 63.67 64.1775C61.4978 66.3458 58.9141 68.0596 56.0701 69.2186L68.8901 83.9824C74.9011 80.4041 79.9254 75.3887 83.5101 69.3883Z" fill="#FF6E53"/>
</g>
<g style="mix-blend-mode:darken">
<path d="M11.3101 26.5047L26.1001 39.3019C27.2611 36.463 28.978 33.8838 31.1502 31.7155C33.3223 29.5472 35.906 27.8334 38.7501 26.6744L25.9301 11.9106C19.919 15.4889 14.8947 20.5043 11.3101 26.5047V26.5047Z" fill="#FF6E53"/>
</g>
<g style="mix-blend-mode:darken">
<path d="M29.27 62.0617C25.821 57.6449 24.1082 52.122 24.4538 46.5325C24.7994 40.9429 27.1797 35.6722 31.1467 31.7123C35.1136 27.7524 40.3937 25.3764 45.9931 25.0313C51.5926 24.6863 57.1253 26.3961 61.55 29.839C59.5463 27.273 57.0192 25.1615 54.1362 23.6442C51.2531 22.127 48.0799 21.2387 44.8269 21.0382C41.5739 20.8378 38.3154 21.3298 35.2672 22.4816C32.2191 23.6334 29.4511 25.4187 27.1465 27.7192C24.8419 30.0197 23.0534 32.7829 21.8995 35.8256C20.7457 38.8683 20.2528 42.121 20.4536 45.3683C20.6544 48.6155 21.5443 51.7831 23.0642 54.661C24.5842 57.539 26.6995 60.0616 29.27 62.0617V62.0617Z" fill="#FF6E53"/>
</g>
<g style="mix-blend-mode:darken">
<path d="M75.03 16.3826C81.9681 24.3966 85.6103 34.7351 85.2246 45.3202C84.8389 55.9052 80.4539 65.9522 72.9508 73.4419C65.4478 80.9316 55.3829 85.3089 44.7791 85.6939C34.1752 86.0789 23.8183 82.4432 15.79 75.5174C19.5645 79.8773 24.1989 83.4137 29.4037 85.9058C34.6086 88.3978 40.2722 89.7921 46.041 90.0016C51.8098 90.2111 57.5599 89.2312 62.9324 87.1232C68.3049 85.0152 73.1844 81.8243 77.2662 77.7496C81.3481 73.675 84.5446 68.8042 86.6564 63.4413C88.7682 58.0783 89.7498 52.3384 89.54 46.5798C89.3301 40.8213 87.9333 35.1677 85.4368 29.9721C82.9403 24.7765 79.3977 20.1504 75.03 16.3826V16.3826Z" fill="#FF6E53"/>
</g>
</svg>
