<svg width="66" height="114" viewBox="0 0 66 114" fill="none" xmlns="http://www.w3.org/2000/svg">
<path d="M54.0601 113H11.9401C11.3364 112.999 10.7511 112.792 10.2805 112.414C9.80979 112.036 9.48168 111.509 9.35005 110.92L1.25006 75.1C0.691309 72.5708 1.07616 69.9246 2.3322 67.6593C3.58824 65.394 5.62885 63.6658 8.07005 62.8L33.0001 54.01L57.9301 62.8C60.3713 63.6658 62.4119 65.394 63.6679 67.6593C64.9239 69.9246 65.3088 72.5708 64.7501 75.1L56.6501 110.92C56.5184 111.509 56.1903 112.036 55.7197 112.414C55.249 112.792 54.6637 112.999 54.0601 113Z" fill="white" stroke="#60423C" stroke-width="2" stroke-linecap="round" stroke-linejoin="round"/>
<path d="M48.9001 59.31C48.9001 64.06 41.7801 69.24 33.0001 69.24C24.2201 69.24 17.1001 64.06 17.1001 59.31C17.1001 54.56 24.2201 52.02 33.0001 52.02C41.7801 52.02 48.9001 54.55 48.9001 59.31Z" fill="white" stroke="#60423C" stroke-width="2" stroke-linecap="round" stroke-linejoin="round"/>
<path d="M23.76 61.15L23.28 61.31L33 82.86L42.72 61.31L42.24 61.15C36.2506 59.0997 29.7494 59.0997 23.76 61.15Z" fill="white" stroke="#60423C" stroke-width="2" stroke-linecap="round" stroke-linejoin="round"/>
<g style="mix-blend-mode:darken">
<path d="M48.9001 59.31C48.9001 54.55 41.7801 52.02 33.0001 52.02C24.2201 52.02 17.1001 54.55 17.1001 59.31C17.1001 62.78 20.9101 66.48 26.3901 68.22L33.0001 82.86L39.6101 68.22C45.0901 66.48 48.9001 62.78 48.9001 59.31Z" fill="#FF6E53"/>
</g>
<path d="M20.1301 59.7599C22.1105 58.438 23.7999 56.7254 25.0947 54.7273C26.3896 52.7291 27.2626 50.4875 27.6601 48.1399C31.1722 49.0125 34.8352 49.0877 38.3801 48.3599C38.5114 49.805 38.9495 51.2055 39.6651 52.4678C40.3808 53.7301 41.3575 54.8252 42.5301 55.6799C43.3101 56.2499 44.2501 56.7899 44.5301 57.6799C44.6584 58.4491 44.532 59.2391 44.1701 59.9299C40.8501 68.1999 33.0001 81.4899 33.0001 81.4899C33.0001 81.4899 25.1401 69.4899 21.8101 62.3099" fill="white"/>
<path d="M20.1301 59.7599C22.1105 58.438 23.7999 56.7254 25.0947 54.7273C26.3896 52.7291 27.2626 50.4875 27.6601 48.1399C31.1722 49.0125 34.8352 49.0877 38.3801 48.3599C38.5114 49.805 38.9495 51.2055 39.6651 52.4678C40.3808 53.7301 41.3575 54.8252 42.5301 55.6799C43.3101 56.2499 44.2501 56.7899 44.5301 57.6799C44.6584 58.4491 44.532 59.2391 44.1701 59.9299C40.8501 68.1999 33.0001 81.4899 33.0001 81.4899C33.0001 81.4899 25.1401 69.4899 21.8101 62.3099" stroke="#60423C" stroke-width="2" stroke-linecap="round" stroke-linejoin="round"/>
<g style="mix-blend-mode:darken">
<path d="M26.46 50.88C26.0568 53.1041 26.2069 55.3933 26.8971 57.5457C27.5872 59.6981 28.7963 61.6477 30.4177 63.2226C32.039 64.7976 34.0229 65.9495 36.1945 66.5768C38.366 67.2042 40.6586 67.2877 42.87 66.82C43.356 66.7628 43.8112 66.5527 44.17 66.22C44.5004 65.7585 44.6595 65.1962 44.62 64.63C44.7877 60.8548 44.4922 57.0733 43.74 53.37C43.4918 51.5477 42.7674 49.8231 41.64 48.37C39.55 46.06 36.06 45.83 32.95 45.75C31.302 45.5644 29.6342 45.8234 28.12 46.5C26.68 47.3 25.73 49.25 26.58 50.66" fill="#FF6E53"/>
</g>
<path d="M47.6601 59.0401L42.6301 57.3101L30.3501 84.5101V113H35.6501V85.6601L47.6601 59.0401Z" fill="white" stroke="#60423C" stroke-width="2" stroke-linecap="round" stroke-linejoin="round"/>
<path d="M24.1401 57.0601L23.7601 57.1701L19.0901 58.7701L30.3501 83.7101V113H35.6501V82.5701L24.1401 57.0601Z" fill="white" stroke="#60423C" stroke-width="2" stroke-linecap="round" stroke-linejoin="round"/>
<path d="M33.0001 89.78C33.3646 89.78 33.6601 89.4845 33.6601 89.12C33.6601 88.7555 33.3646 88.46 33.0001 88.46C32.6356 88.46 32.3401 88.7555 32.3401 89.12C32.3401 89.4845 32.6356 89.78 33.0001 89.78Z" fill="white" stroke="#60423C" stroke-width="2" stroke-linecap="round" stroke-linejoin="round"/>
<path d="M33.0001 101.7C33.3646 101.7 33.6601 101.404 33.6601 101.04C33.6601 100.675 33.3646 100.38 33.0001 100.38C32.6356 100.38 32.3401 100.675 32.3401 101.04C32.3401 101.404 32.6356 101.7 33.0001 101.7Z" fill="white" stroke="#60423C" stroke-width="2" stroke-linecap="round" stroke-linejoin="round"/>
<g style="mix-blend-mode:darken">
<path d="M22.4501 56.76L17.6901 59.62C17.5116 59.7239 17.3605 59.8688 17.2492 60.0426C17.1379 60.2165 17.0697 60.4144 17.0501 60.62L16.0001 74.31C15.9788 74.5619 16.0302 74.8146 16.1483 75.038C16.2665 75.2615 16.4463 75.4464 16.6664 75.5707C16.8865 75.6949 17.1377 75.7534 17.3901 75.7391C17.6424 75.7248 17.8854 75.6383 18.0901 75.49L28.1601 68.31C28.4107 68.1312 28.5916 67.871 28.6719 67.5737C28.7521 67.2765 28.7267 66.9606 28.6001 66.68L24.3401 57.31C24.2599 57.1424 24.1452 56.9936 24.0036 56.8733C23.8619 56.7531 23.6965 56.6641 23.5181 56.6121C23.3397 56.5602 23.1523 56.5466 22.9683 56.572C22.7842 56.5975 22.6077 56.6615 22.4501 56.76Z" fill="#FF6E53"/>
</g>
<g style="mix-blend-mode:darken">
<path d="M46.2001 56.76L51.0001 59.62C51.1786 59.7239 51.3297 59.8688 51.441 60.0426C51.5523 60.2165 51.6205 60.4144 51.6401 60.62L52.6501 74.31C52.6714 74.5619 52.62 74.8146 52.5019 75.038C52.3837 75.2615 52.2039 75.4464 51.9838 75.5707C51.7637 75.6949 51.5125 75.7534 51.2601 75.7391C51.0078 75.7248 50.7648 75.6383 50.5601 75.49L40.4901 68.31C40.2395 68.1312 40.0586 67.871 39.9783 67.5737C39.8981 67.2765 39.9235 66.9606 40.0501 66.68L44.3101 57.31C44.3903 57.1424 44.505 56.9936 44.6466 56.8733C44.7883 56.7531 44.9537 56.6641 45.1321 56.6121C45.3105 56.5602 45.4979 56.5466 45.6819 56.572C45.8659 56.5975 46.0425 56.6615 46.2001 56.76Z" fill="#FF6E53"/>
</g>
<path d="M21.13 54.1101L16.36 56.9701C16.1842 57.0769 16.0351 57.2226 15.9242 57.3959C15.8133 57.5692 15.7434 57.7656 15.72 57.9701L14.72 71.67C14.6987 71.9219 14.7502 72.1746 14.8683 72.3981C14.9864 72.6216 15.1662 72.8065 15.3864 72.9307C15.6065 73.055 15.8577 73.1135 16.11 73.0992C16.3624 73.0849 16.6054 72.9984 16.81 72.85L26.89 65.62C27.1405 65.4411 27.3206 65.1803 27.3991 64.8826C27.4776 64.585 27.4497 64.2693 27.32 63.99L23 54.69C22.9224 54.5227 22.8105 54.3735 22.6716 54.2521C22.5327 54.1307 22.3699 54.0397 22.1937 53.985C22.0176 53.9304 21.8319 53.9133 21.6486 53.9348C21.4654 53.9563 21.2888 54.016 21.13 54.1101Z" fill="white" stroke="#60423C" stroke-width="2" stroke-linecap="round" stroke-linejoin="round"/>
<path d="M44.8702 54.1101L49.6402 56.9701C49.816 57.0769 49.9651 57.2226 50.076 57.3959C50.1869 57.5692 50.2568 57.7656 50.2802 57.9701L51.2802 71.67C51.3015 71.9219 51.25 72.1746 51.1319 72.3981C51.0138 72.6216 50.834 72.8065 50.6138 72.9307C50.3937 73.055 50.1425 73.1135 49.8902 73.0992C49.6378 73.0849 49.3948 72.9984 49.1902 72.85L39.1602 65.65C38.9097 65.4711 38.7296 65.2103 38.6511 64.9126C38.5726 64.615 38.6005 64.2993 38.7302 64.02L43.0002 54.69C43.0778 54.5227 43.1897 54.3735 43.3286 54.2521C43.4675 54.1307 43.6303 54.0397 43.8065 53.985C43.9827 53.9304 44.1683 53.9133 44.3516 53.9348C44.5348 53.9563 44.7115 54.016 44.8702 54.1101Z" fill="white" stroke="#60423C" stroke-width="2" stroke-linecap="round" stroke-linejoin="round"/>
<path d="M29.1501 12.44C29.8301 10.1 30.2301 7.53 29.3201 5.27C28.7852 4.02852 27.9055 2.96645 26.7853 2.20965C25.6652 1.45284 24.3516 1.03304 23.0001 1C21.6435 1.00395 20.3111 1.35986 19.1332 2.03294C17.9554 2.70602 16.9723 3.67322 16.2801 4.84C15.6097 6.01796 15.2211 7.33514 15.1448 8.68836C15.0685 10.0416 15.3065 11.3941 15.8401 12.64C17.0101 15.41 19.9301 17.64 22.9101 17.17" fill="white"/>
<path d="M29.1501 12.44C29.8301 10.1 30.2301 7.53 29.3201 5.27C28.7852 4.02852 27.9055 2.96645 26.7853 2.20965C25.6652 1.45284 24.3516 1.03304 23.0001 1C21.6435 1.00395 20.3111 1.35986 19.1332 2.03294C17.9554 2.70602 16.9723 3.67322 16.2801 4.84C15.6097 6.01796 15.2211 7.33514 15.1448 8.68836C15.0685 10.0416 15.3065 11.3941 15.8401 12.64C17.0101 15.41 19.9301 17.64 22.9101 17.17" stroke="#60423C" stroke-width="2" stroke-linecap="round" stroke-linejoin="round"/>
<path d="M26.8601 11.91C27.0649 11.0521 27.0649 10.158 26.8601 9.30005" stroke="#60423C" stroke-width="2" stroke-linecap="round" stroke-linejoin="round"/>
<path d="M46.8001 15.3099C43.9679 12.713 40.4062 11.049 36.597 10.5431C32.7879 10.0372 28.9153 10.7138 25.5034 12.4814C22.0915 14.249 19.3051 17.0222 17.5212 20.4257C15.7374 23.8291 15.0423 27.6984 15.5301 31.5099C15.7517 34.3243 17.0308 36.9504 19.1101 38.8599C19.0394 38.1547 19.0799 37.4427 19.2301 36.7499C19.3071 36.4018 19.4636 36.0762 19.6874 35.7986C19.9112 35.521 20.1962 35.299 20.5201 35.1499C21.7501 34.6699 23.0301 35.7099 23.8301 36.7699C24.6301 37.8299 25.4401 39.0899 26.7501 39.2999C26.3278 36.0137 26.6174 32.6751 27.5991 29.5107C28.5809 26.3462 30.2319 23.43 32.4401 20.9599" fill="white"/>
<path d="M46.8001 15.3099C43.9679 12.713 40.4062 11.049 36.597 10.5431C32.7879 10.0372 28.9153 10.7138 25.5034 12.4814C22.0915 14.249 19.3051 17.0222 17.5212 20.4257C15.7374 23.8291 15.0423 27.6984 15.5301 31.5099C15.7517 34.3243 17.0308 36.9504 19.1101 38.8599C19.0394 38.1547 19.0799 37.4427 19.2301 36.7499C19.3071 36.4018 19.4636 36.0762 19.6874 35.7986C19.9112 35.521 20.1962 35.299 20.5201 35.1499C21.7501 34.6699 23.0301 35.7099 23.8301 36.7699C24.6301 37.8299 25.4401 39.0899 26.7501 39.2999C26.3278 36.0137 26.6174 32.6751 27.5991 29.5107C28.5809 26.3462 30.2319 23.43 32.4401 20.9599" stroke="#60423C" stroke-width="2" stroke-linecap="round" stroke-linejoin="round"/>
<path d="M53.44 31.75C54.5428 38.1531 53.8221 44.7372 51.36 50.75C50.05 53.96 48.08 57.12 44.97 58.65C42.0669 59.8966 38.797 59.986 35.83 58.9C32.7515 57.8677 29.9889 56.0636 27.8059 53.66C25.6228 51.2564 24.0922 48.3334 23.36 45.17C23.2011 45.6038 22.9003 45.9712 22.5064 46.2126C22.1126 46.454 21.6487 46.5553 21.19 46.5C20.2695 46.3581 19.4127 45.9436 18.73 45.31C16.9154 43.9495 15.6686 41.9653 15.23 39.74C15.0394 38.6303 15.1908 37.4889 15.6641 36.4673C16.1374 35.4456 16.9103 34.5921 17.88 34.02C19.88 33.02 22.76 33.97 23.39 36.12C23.9602 33.8222 24.9911 31.6641 26.4204 29.7767C27.8497 27.8893 29.6475 26.3119 31.7047 25.1402C33.762 23.9685 36.0358 23.2269 38.3883 22.9604C40.7408 22.694 43.1228 22.9082 45.39 23.59" fill="white"/>
<path d="M53.44 31.75C54.5428 38.1531 53.8221 44.7372 51.36 50.75C50.05 53.96 48.08 57.12 44.97 58.65C42.0669 59.8966 38.797 59.986 35.83 58.9C32.7515 57.8677 29.9889 56.0636 27.8059 53.66C25.6228 51.2564 24.0922 48.3334 23.36 45.17C23.2011 45.6038 22.9003 45.9712 22.5064 46.2126C22.1126 46.454 21.6487 46.5553 21.19 46.5C20.2695 46.3581 19.4127 45.9436 18.73 45.31C16.9154 43.9495 15.6686 41.9653 15.23 39.74C15.0394 38.6303 15.1908 37.4889 15.6641 36.4673C16.1374 35.4456 16.9103 34.5921 17.88 34.02C19.88 33.02 22.76 33.97 23.39 36.12C23.9602 33.8222 24.9911 31.6641 26.4204 29.7767C27.8497 27.8893 29.6475 26.3119 31.7047 25.1402C33.762 23.9685 36.0358 23.2269 38.3883 22.9604C40.7408 22.694 43.1228 22.9082 45.39 23.59" stroke="#60423C" stroke-width="2" stroke-linecap="round" stroke-linejoin="round"/>
<path d="M41.43 12.64C45.02 11.55 49.08 13.19 51.5 16.06C53.8071 19.0627 54.9952 22.7757 54.86 26.56C54.9826 28.2818 54.5364 29.9963 53.59 31.44C52.59 32.8 50.46 33.44 49.07 32.44L49 30.87C48.2884 31.7979 47.3578 32.5348 46.2915 33.0148C45.2252 33.4947 44.0564 33.7026 42.89 33.62C42.7026 33.6289 42.5155 33.5958 42.3425 33.5231C42.1695 33.4504 42.0149 33.34 41.89 33.2C41.7917 33.025 41.7336 32.8303 41.72 32.63L41.04 28C41.15 29.67 41.14 31.62 39.82 32.66C39.2276 33.077 38.5399 33.3384 37.82 33.42C35.7761 33.7769 33.676 33.6328 31.7 33C32.3019 32.0475 32.6274 30.9466 32.64 29.82C32.4682 30.374 32.1696 30.8803 31.7679 31.2986C31.3662 31.717 30.8725 32.036 30.326 32.2301C29.7794 32.4243 29.1951 32.4883 28.6195 32.4171C28.0439 32.3459 27.4928 32.1414 27.01 31.82L26.52 22.96" fill="white"/>
<path d="M41.43 12.64C45.02 11.55 49.08 13.19 51.5 16.06C53.8071 19.0627 54.9952 22.7757 54.86 26.56C54.9826 28.2818 54.5364 29.9963 53.59 31.44C52.59 32.8 50.46 33.44 49.07 32.44L49 30.87C48.2884 31.7979 47.3578 32.5348 46.2915 33.0148C45.2252 33.4947 44.0564 33.7026 42.89 33.62C42.7026 33.6289 42.5155 33.5958 42.3425 33.5231C42.1695 33.4504 42.0149 33.34 41.89 33.2C41.7917 33.025 41.7336 32.8303 41.72 32.63L41.04 28C41.15 29.67 41.14 31.62 39.82 32.66C39.2276 33.077 38.5399 33.3384 37.82 33.42C35.7761 33.7769 33.676 33.6328 31.7 33C32.3019 32.0475 32.6274 30.9466 32.64 29.82C32.4682 30.374 32.1696 30.8803 31.7679 31.2986C31.3662 31.717 30.8725 32.036 30.326 32.2301C29.7794 32.4243 29.1951 32.4883 28.6195 32.4171C28.0439 32.3459 27.4928 32.1414 27.01 31.82L26.52 22.96" stroke="#60423C" stroke-width="2" stroke-linecap="round" stroke-linejoin="round"/>
<g style="mix-blend-mode:darken">
<path d="M51 16.9101C48.9118 16.3331 46.7822 15.9185 44.63 15.6701C42.4286 15.4252 40.215 15.305 38 15.3101C35.7559 15.2484 33.5113 15.4126 31.3 15.8001C33.4164 14.9454 35.6144 14.3087 37.86 13.9001C39.71 13.5201 41.6 13.2401 43.5 13.0301C40.9547 12.0419 38.225 11.6188 35.5 11.7901C34.3951 11.8757 33.3005 12.0631 32.23 12.3501C32.7314 10.469 32.6617 8.48139 32.03 6.64006C31.4936 5.37659 30.6028 4.29541 29.4654 3.52706C28.3279 2.75871 26.9924 2.33603 25.62 2.31006C24.2659 2.31963 22.9371 2.678 21.7617 3.35062C20.5864 4.02323 19.6043 4.98738 18.91 6.15006C18.2396 7.32802 17.851 8.6452 17.7747 9.99842C17.6983 11.3516 17.9363 12.7042 18.47 13.9501C19.2682 15.8353 20.7772 17.33 22.67 18.1101C22.54 18.2601 22.39 18.4001 22.26 18.5601C20.6585 20.5419 19.472 22.8257 18.7711 25.2755C18.0701 27.7253 17.8691 30.291 18.18 32.8201C18.2619 33.4362 18.3788 34.0472 18.53 34.6501C18.5924 34.5945 18.6593 34.5444 18.73 34.5001C20.19 33.7101 21.55 34.3301 22.78 35.2201C22.7905 34.8479 22.9362 34.4924 23.19 34.2201C23.4783 33.945 23.8615 33.7915 24.26 33.7915C24.6585 33.7915 25.0417 33.945 25.33 34.2201C26.0848 34.9385 27.0002 35.4664 28 35.7601C28.4178 35.8648 28.842 35.9416 29.27 35.9901C29.3406 34.9821 29.4776 33.98 29.68 32.9901V33.1101C30.1633 33.4294 30.7143 33.6321 31.2893 33.7022C31.8644 33.7723 32.4478 33.7078 32.9937 33.5139C33.5396 33.32 34.033 33.0019 34.4349 32.5848C34.8369 32.1676 35.1365 31.6628 35.31 31.1101C35.3101 32.2406 34.995 33.3487 34.4 34.3101C36.3751 34.9476 38.4763 35.0918 40.52 34.7301C41.239 34.6518 41.9268 34.3939 42.52 33.9801C43.84 32.9801 43.85 30.9801 43.74 29.3201L44.42 33.9501C44.4352 34.15 44.4932 34.3444 44.59 34.5201C44.7149 34.6601 44.8695 34.7705 45.0425 34.8432C45.2155 34.9158 45.4026 34.9489 45.59 34.9401C46.7561 35.02 47.9239 34.8109 48.9898 34.3311C50.0557 33.8514 50.9866 33.116 51.7 32.1901C51.7 32.7201 51.7 33.2601 51.77 33.7901C53.16 34.7901 55.25 34.1201 56.29 32.7901C57.2364 31.3464 57.6826 29.6319 57.56 27.9101C57.6225 24.6279 56.7334 21.3979 55 18.6101C53.7472 17.87 52.4023 17.2984 51 16.9101Z" fill="#FF6E53"/>
</g>
<path d="M40.6602 13.1001C41.738 13.5991 42.6911 14.3319 43.4505 15.2451C44.2098 16.1584 44.7562 17.2293 45.0502 18.3801" stroke="#60423C" stroke-width="2" stroke-linecap="round" stroke-linejoin="round"/>
<path d="M35.3701 13.74C36.1938 14.577 36.7357 15.6502 36.9201 16.81" stroke="#60423C" stroke-width="2" stroke-linecap="round" stroke-linejoin="round"/>
<path d="M42.1702 46.9C43.1091 46.8237 43.9843 46.395 44.6202 45.7L42.1702 46.9Z" fill="white"/>
<path d="M42.1702 46.9C43.1091 46.8237 43.9843 46.395 44.6202 45.7" stroke="#60423C" stroke-width="2" stroke-linecap="round" stroke-linejoin="round"/>
<path d="M36.6802 49.95C37.7748 51.0075 39.2077 51.6446 40.7262 51.7489C42.2447 51.8532 43.7513 51.418 44.9802 50.52" fill="white"/>
<path d="M36.6802 49.95C37.7748 51.0075 39.2077 51.6446 40.7262 51.7489C42.2447 51.8532 43.7513 51.418 44.9802 50.52" stroke="#60423C" stroke-width="2" stroke-linecap="round" stroke-linejoin="round"/>
<path d="M36.6801 39.6601C37.3926 39.6601 37.9701 39.0825 37.9701 38.3701C37.9701 37.6576 37.3926 37.0801 36.6801 37.0801C35.9677 37.0801 35.3901 37.6576 35.3901 38.3701C35.3901 39.0825 35.9677 39.6601 36.6801 39.6601Z" fill="#60423C" stroke="#60423C" stroke-width="2" stroke-linecap="round" stroke-linejoin="round"/>
<path d="M47.81 39.6601C48.5225 39.6601 49.1 39.0825 49.1 38.3701C49.1 37.6576 48.5225 37.0801 47.81 37.0801C47.0976 37.0801 46.52 37.6576 46.52 38.3701C46.52 39.0825 47.0976 39.6601 47.81 39.6601Z" fill="#60423C" stroke="#60423C" stroke-width="2" stroke-linecap="round" stroke-linejoin="round"/>
</svg>
