<svg xmlns="http://www.w3.org/2000/svg" viewBox="0 0 22 22"><g id="ratings"><rect width="22" height="22" fill="#fff"/><polygon points="6.4 22 4.62 19.31 1.4 19.11 5.37 12.24 10.37 15.12 6.4 22" fill="#f24d3d"/><polygon points="20.6 19.11 17.38 19.31 15.6 22 11.63 15.12 16.63 12.24 20.6 19.11" fill="#f24d3d"/><circle cx="11" cy="8.26" r="7.76" fill="#fff"/><path d="M11,1A7.26,7.26,0,1,1,3.74,8.26,7.27,7.27,0,0,1,11,1m0-1a8.26,8.26,0,1,0,8.26,8.26A8.26,8.26,0,0,0,11,0Z" fill="#f24d3d"/><circle cx="11" cy="8.26" r="5.61" fill="#f24d3d"/><path d="M11.2,4.32l1.1,2.23a.23.23,0,0,0,.17.13L14.93,7a.22.22,0,0,1,.12.38L13.27,9.15a.2.2,0,0,0-.06.19l.42,2.46a.22.22,0,0,1-.32.23L11.1,10.87a.23.23,0,0,0-.2,0L8.69,12a.22.22,0,0,1-.32-.23l.42-2.46a.2.2,0,0,0-.06-.19L7,7.41A.22.22,0,0,1,7.07,7l2.46-.35a.23.23,0,0,0,.17-.13l1.1-2.23A.23.23,0,0,1,11.2,4.32Z" fill="#fff"/></g></svg>