<svg xmlns="http://www.w3.org/2000/svg" viewBox="0 0 22 22"><g id="help_images" data-name="help images"><rect width="22" height="22" rx="2" fill="gray"/><path d="M15.52,14.8,13,12.26a.79.79,0,0,1,0-1.13l2.54-2.54a.79.79,0,0,1,1.13,0l.14.13V5.8A.8.8,0,0,0,16,5H8.6V4.2a.8.8,0,0,0-.8-.8H4.6a.8.8,0,0,0-.8.8V5a.8.8,0,0,0-.8.8V14a.8.8,0,0,0,.8.8H15.52ZM9.6,13.2A3.2,3.2,0,1,1,12.8,10,3.2,3.2,0,0,1,9.6,13.2Z" fill="#fff"/><path d="M15.88,11.07l.78-.79a.39.39,0,0,0,0-.56l-.28-.29a.42.42,0,0,0-.57,0l-2,2a.42.42,0,0,0,0,.57l2,2a.4.4,0,0,0,.57,0l.28-.28a.4.4,0,0,0,0-.57l-.82-.82a2.6,2.6,0,0,1,1.83,3.33A2.51,2.51,0,0,1,16,17.27a2.6,2.6,0,0,1-3.29-1.67H11.53a3.84,3.84,0,0,0,3.29,3,3.8,3.8,0,0,0,1.06-7.51Z" fill="#fff"/></g></svg>