<svg width="92" height="84" viewBox="0 0 92 84" fill="none" xmlns="http://www.w3.org/2000/svg">
<g clip-path="url(#clip0)">
<path d="M84.0599 1H14.6899V82.84H84.0599V1Z" fill="white" stroke="#60423C" stroke-width="2" stroke-linecap="round" stroke-linejoin="round"/>
<path d="M33.1899 41.22C34.4047 41.22 35.6075 41.4592 36.7298 41.9241C37.852 42.3889 38.8717 43.0703 39.7307 43.9292C40.5896 44.7882 41.271 45.8079 41.7358 46.9301C42.2007 48.0524 42.4399 49.2552 42.4399 50.47V82.84H23.9399V50.47C23.9399 48.0167 24.9145 45.6639 26.6492 43.9292C28.3839 42.1945 30.7367 41.22 33.1899 41.22Z" fill="white" stroke="#60423C" stroke-width="2" stroke-miterlimit="10"/>
<path d="M30.8799 41.55C28.8982 42.0576 27.1413 43.2091 25.8851 44.8237C24.6289 46.4382 23.9447 48.4244 23.9399 50.47V82.8501H37.8199V50.47C37.8152 48.4244 37.131 46.4382 35.8748 44.8237C34.6186 43.2091 32.8617 42.0576 30.8799 41.55Z" fill="white" stroke="#60423C" stroke-width="2" stroke-miterlimit="10"/>
<path d="M62.61 43.53H66.2C68.4835 43.53 70.6735 44.4372 72.2882 46.0518C73.9029 47.6665 74.81 49.8565 74.81 52.14V66.66H54V52.14C54 49.8565 54.9071 47.6665 56.5218 46.0518C58.1365 44.4372 60.3265 43.53 62.61 43.53Z" fill="white" stroke="#60423C" stroke-width="2" stroke-miterlimit="10"/>
<path d="M62.1 43.5901C59.9129 43.715 57.8563 44.6709 56.3506 46.262C54.8449 47.8532 54.0041 49.9595 54 52.1501V66.6601H70.19V52.1501C70.1885 49.9604 69.3498 47.8541 67.8458 46.2627C66.3417 44.6713 64.2861 43.7151 62.1 43.5901Z" fill="white" stroke="#60423C" stroke-width="2" stroke-miterlimit="10"/>
<path d="M90.9999 31.97H21.6299L14.6899 13.47H84.0599L90.9999 31.97Z" fill="white" stroke="#60423C" stroke-width="2" stroke-linecap="round" stroke-linejoin="round"/>
<path d="M21.63 31.97C21.5946 32.9028 21.7477 33.8333 22.0803 34.7056C22.4128 35.5779 22.918 36.3741 23.5654 37.0467C24.2129 37.7192 24.9894 38.2542 25.8484 38.6196C26.7075 38.985 27.6315 39.1734 28.565 39.1734C29.4985 39.1734 30.4225 38.985 31.2816 38.6196C32.1406 38.2542 32.9171 37.7192 33.5646 37.0467C34.212 36.3741 34.7172 35.5779 35.0497 34.7056C35.3823 33.8333 35.5354 32.9028 35.5 31.97C35.5 33.8106 36.2312 35.5758 37.5327 36.8773C38.8342 38.1788 40.5994 38.91 42.44 38.91C44.2806 38.91 46.0458 38.1788 47.3473 36.8773C48.6488 35.5758 49.38 33.8106 49.38 31.97C49.3446 32.9028 49.4977 33.8333 49.8303 34.7056C50.1628 35.5779 50.668 36.3741 51.3154 37.0467C51.9629 37.7192 52.7394 38.2542 53.5984 38.6196C54.4575 38.985 55.3815 39.1734 56.315 39.1734C57.2486 39.1734 58.1725 38.985 59.0316 38.6196C59.8906 38.2542 60.6671 37.7192 61.3146 37.0467C61.962 36.3741 62.4672 35.5779 62.7997 34.7056C63.1323 33.8333 63.2854 32.9028 63.25 31.97C63.25 33.8106 63.9812 35.5758 65.2827 36.8773C66.5842 38.1788 68.3494 38.91 70.19 38.91C72.0306 38.91 73.7958 38.1788 75.0973 36.8773C76.3988 35.5758 77.13 33.8106 77.13 31.97C77.0946 32.9028 77.2477 33.8333 77.5803 34.7056C77.9128 35.5779 78.418 36.3741 79.0654 37.0467C79.7129 37.7192 80.4894 38.2542 81.3484 38.6196C82.2075 38.985 83.1315 39.1734 84.065 39.1734C84.9986 39.1734 85.9225 38.985 86.7816 38.6196C87.6406 38.2542 88.4171 37.7192 89.0646 37.0467C89.712 36.3741 90.2172 35.5779 90.5497 34.7056C90.8823 33.8333 91.0354 32.9028 91 31.97H21.63Z" fill="white" stroke="#60423C" stroke-width="2" stroke-linecap="round" stroke-linejoin="round"/>
<path d="M35.5001 31.97L28.5701 13.47" stroke="#60423C" stroke-width="2" stroke-linecap="round" stroke-linejoin="round"/>
<path d="M49.3799 31.97L42.4399 13.47" stroke="#60423C" stroke-width="2" stroke-linecap="round" stroke-linejoin="round"/>
<path d="M63.2501 31.97L56.3201 13.47" stroke="#60423C" stroke-width="2" stroke-linecap="round" stroke-linejoin="round"/>
<path d="M77.1299 31.97L70.1899 13.47" stroke="#60423C" stroke-width="2" stroke-linecap="round" stroke-linejoin="round"/>
<path d="M77.13 75.9099H54V66.6599H79.44L77.13 75.9099Z" fill="white" stroke="#60423C" stroke-width="2" stroke-miterlimit="10"/>
<path d="M77.1301 75.9099H58.6301L56.3101 66.6599H79.4401L77.1301 75.9099Z" fill="white" stroke="#60423C" stroke-width="2" stroke-miterlimit="10"/>
<path d="M14.87 1H1V82.84H14.87V1Z" fill="white" stroke="#60423C" stroke-width="2" stroke-linecap="round" stroke-linejoin="round"/>
<path d="M20.65 31.97H16.03" stroke="#60423C" stroke-width="2" stroke-linecap="round" stroke-linejoin="round"/>
<g style="mix-blend-mode:multiply">
<path d="M80.6899 1V30.82H15.9399L22.8799 51.63H80.6899V66.13L77.6899 74.75H57.5599V83H89.9299V51.63V30.82V1H80.6899Z" fill="#FF6E53"/>
</g>
</g>
<defs>
<clipPath id="clip0">
<rect width="92" height="83.2" fill="white"/>
</clipPath>
</defs>
</svg>
