<svg width="20" height="20" viewBox="0 0 20 20" fill="none" xmlns="http://www.w3.org/2000/svg">
<g clip-path="url(#clip0)">
<path d="M19.41 16.59L14.02 11.2C14.64 10.1 15 8.84 15 7.5C15 3.36 11.64 0 7.5 0C3.36 0 0 3.36 0 7.5C0 11.64 3.36 15 7.5 15C8.84 15 10.1 14.64 11.19 14.02L16.58 19.41C16.98 19.8 17.49 20 18 20C18.51 20 19.02 19.8 19.41 19.41C20.2 18.63 20.2 17.37 19.41 16.59ZM7.5 11C5.57 11 4 9.43 4 7.5C4 5.57 5.57 4 7.5 4C9.43 4 11 5.57 11 7.5C11 9.43 9.43 11 7.5 11Z" fill="#F24D3D"/>
</g>
<defs>
<clipPath id="clip0">
<rect width="20" height="20" fill="white"/>
</clipPath>
</defs>
</svg>
