<svg width="108" height="98" viewBox="0 0 108 98" fill="none" xmlns="http://www.w3.org/2000/svg">
<g clip-path="url(#clip0)">
<path d="M70.2699 37.16C69.5991 34.6009 68.5902 32.1426 67.2699 29.85L72.0299 19.8V15.8C72.0299 15.8 67.7599 15.25 66.2399 14.01L56.1499 18.8C53.8554 17.4836 51.3976 16.475 48.8399 15.8L45.0899 5.2C43.7499 5.07 42.3799 5 40.9999 5C39.6199 5 38.2499 5.07 36.9099 5.2L33.1599 15.73C30.6022 16.405 28.1444 17.4136 25.8499 18.73L15.7599 13.97C14.4199 15.06 9.96992 15.8 9.96992 15.8V19.8L14.7699 29.89C13.4539 32.1847 12.4452 34.6424 11.7699 37.2L1.20992 40.9C0.929701 43.6228 0.929701 46.3672 1.20992 49.09L11.7299 52.8C12.4052 55.3576 13.4139 57.8153 14.7299 60.11L9.92992 66.2V70.2C11.6574 72.3225 13.5975 74.2626 15.7199 75.99L25.8099 71.2C28.1044 72.5163 30.5622 73.525 33.1199 74.2L36.9099 84.8C39.6294 85.08 42.3704 85.08 45.0899 84.8L48.8399 74.27C51.3976 73.595 53.8554 72.5864 56.1499 71.27L66.2399 76.06C68.3624 74.3326 70.3025 72.3925 72.0299 70.27V66.27L67.2299 60.18C68.5502 57.8874 69.5591 55.4291 70.2299 52.87L80.7499 49.13C81.0301 46.4072 81.0301 43.6628 80.7499 40.94L70.2699 37.16ZM55.9999 45C55.9999 47.9667 55.1202 50.8668 53.472 53.3336C51.8237 55.8003 49.4811 57.7229 46.7402 58.8582C43.9993 59.9935 40.9833 60.2906 38.0736 59.7118C35.1639 59.133 32.4911 57.7044 30.3933 55.6066C28.2955 53.5088 26.8669 50.8361 26.2881 47.9264C25.7094 45.0166 26.0064 42.0006 27.1417 39.2597C28.277 36.5189 30.1996 34.1762 32.6664 32.528C35.1331 30.8797 38.0332 30 40.9999 30C44.9782 30 48.7935 31.5804 51.6065 34.3934C54.4196 37.2064 55.9999 41.0217 55.9999 45Z" fill="white" stroke="#60423C" stroke-width="2" stroke-linecap="round" stroke-linejoin="round"/>
<path d="M70.2699 33.16C69.5991 30.6009 68.5902 28.1426 67.2699 25.85L72.0299 15.8C70.3025 13.6775 68.3624 11.7374 66.2399 10.01L56.1499 14.8C53.8554 13.4836 51.3976 12.475 48.8399 11.8L45.0899 1.2C43.7499 1.07 42.3799 1 40.9999 1C39.6199 1 38.2499 1.07 36.9099 1.2L33.1599 11.73C30.6022 12.405 28.1444 13.4136 25.8499 14.73L15.7599 9.97C13.6354 11.71 11.6953 13.6636 9.96992 15.8L14.7699 25.89C13.4539 28.1847 12.4452 30.6424 11.7699 33.2L1.20992 36.9C0.929701 39.6228 0.929701 42.3672 1.20992 45.09L11.7299 48.8C12.4052 51.3576 13.4139 53.8153 14.7299 56.11L9.92992 66.2C11.6574 68.3225 13.5975 70.2626 15.7199 71.99L25.8099 67.2C28.1044 68.5163 30.5622 69.525 33.1199 70.2L36.9099 80.8C39.6294 81.08 42.3704 81.08 45.0899 80.8L48.8399 70.27C51.3976 69.595 53.8554 68.5864 56.1499 67.27L66.2399 72.06C68.3624 70.3326 70.3025 68.3925 72.0299 66.27L67.2299 56.18C68.5502 53.8874 69.5591 51.4291 70.2299 48.87L80.7499 45.13C81.0301 42.4072 81.0301 39.6628 80.7499 36.94L70.2699 33.16ZM55.9999 41C55.9999 43.9667 55.1202 46.8668 53.472 49.3336C51.8237 51.8003 49.4811 53.7229 46.7402 54.8582C43.9993 55.9935 40.9833 56.2906 38.0736 55.7118C35.1639 55.133 32.4911 53.7044 30.3933 51.6066C28.2955 49.5088 26.8669 46.8361 26.2881 43.9264C25.7094 41.0166 26.0064 38.0006 27.1417 35.2597C28.277 32.5189 30.1996 30.1762 32.6664 28.528C35.1331 26.8797 38.0332 26 40.9999 26C44.9782 26 48.7935 27.5804 51.6065 30.3934C54.4196 33.2064 55.9999 37.0218 55.9999 41Z" fill="white" stroke="#60423C" stroke-width="2" stroke-linecap="round" stroke-linejoin="round"/>
<g style="mix-blend-mode:darken">
<path d="M15.77 26.85L10.97 16.8V20.8L14.77 28.8C15.08 28.1 15.41 27.46 15.77 26.85Z" fill="#FF6E53"/>
<path d="M15.77 26.85L10.97 16.8V20.8L14.77 28.8C15.08 28.1 15.41 27.46 15.77 26.85Z" stroke="#FF6E53" stroke-linecap="round" stroke-linejoin="round"/>
</g>
<g style="mix-blend-mode:darken">
<path d="M69.24 28.74L73.03 20.74V16.8L68.23 26.89C68.59 27.46 68.92 28.1 69.24 28.74Z" fill="#FF6E53"/>
<path d="M69.24 28.74L73.03 20.74V16.8L68.23 26.89C68.59 27.46 68.92 28.1 69.24 28.74Z" stroke="#FF6E53" stroke-linecap="round" stroke-linejoin="round"/>
</g>
<g style="mix-blend-mode:darken">
<path d="M42 27C38.0218 27 34.2064 28.5804 31.3934 31.3934C28.5804 34.2064 27 38.0218 27 42C27.0044 42.6693 27.0546 43.3375 27.15 44C27.6595 40.4245 29.4419 37.1528 32.1699 34.786C34.898 32.4191 38.3883 31.116 42 31.116C45.6117 31.116 49.102 32.4191 51.8301 34.786C54.5581 37.1528 56.3405 40.4245 56.85 44C56.9454 43.3375 56.9956 42.6693 57 42C57 38.0218 55.4196 34.2064 52.6066 31.3934C49.7936 28.5804 45.9782 27 42 27Z" fill="#FF6E53"/>
<path d="M42 27C38.0218 27 34.2064 28.5804 31.3934 31.3934C28.5804 34.2064 27 38.0218 27 42C27.0044 42.6693 27.0546 43.3375 27.15 44C27.6595 40.4245 29.4419 37.1528 32.1699 34.786C34.898 32.4191 38.3883 31.116 42 31.116C45.6117 31.116 49.102 32.4191 51.8301 34.786C54.5581 37.1528 56.3405 40.4245 56.85 44C56.9454 43.3375 56.9956 42.6693 57 42C57 38.0218 55.4196 34.2064 52.6066 31.3934C49.7936 28.5804 45.9782 27 42 27Z" stroke="#FF6E53" stroke-linecap="round" stroke-linejoin="round"/>
</g>
<g style="mix-blend-mode:darken">
<path d="M14.77 59.25L15.77 57.14C14.454 54.8453 13.4453 52.3876 12.77 49.83L2.21 46.09C2.14 45.4 2.09 44.7 2.05 44C2.05 44.66 2 45.32 2 46C1.99938 47.366 2.06947 48.7312 2.21 50.09L12.73 53.8C13.2296 55.6792 13.9129 57.5046 14.77 59.25Z" fill="#FF6E53"/>
<path d="M14.77 59.25L15.77 57.14C14.454 54.8453 13.4453 52.3876 12.77 49.83L2.21 46.09C2.14 45.4 2.09 44.7 2.05 44C2.05 44.66 2 45.32 2 46C1.99938 47.366 2.06947 48.7312 2.21 50.09L12.73 53.8C13.2296 55.6792 13.9129 57.5046 14.77 59.25Z" stroke="#FF6E53" stroke-linecap="round" stroke-linejoin="round"/>
</g>
<g style="mix-blend-mode:darken">
<path d="M81.79 46.09L71.27 49.8C70.5992 52.3591 69.5903 54.8174 68.27 57.11L69.27 59.22C70.1075 57.481 70.7772 55.6661 71.27 53.8L81.79 50.06C81.9305 48.7012 82.0006 47.336 82 45.97C82 45.29 82 44.63 82 43.97C81.92 44.7 81.86 45.4 81.79 46.09Z" fill="#FF6E53"/>
<path d="M81.79 46.09L71.27 49.8C70.5992 52.3591 69.5903 54.8174 68.27 57.11L69.27 59.22C70.1075 57.481 70.7772 55.6661 71.27 53.8L81.79 50.06C81.9305 48.7012 82.0006 47.336 82 45.97C82 45.29 82 44.63 82 43.97C81.92 44.7 81.86 45.4 81.79 46.09Z" stroke="#FF6E53" stroke-linecap="round" stroke-linejoin="round"/>
</g>
<g style="mix-blend-mode:darken">
<path d="M67.24 73.02L57.15 68.23C54.8555 69.5463 52.3977 70.555 49.84 71.23L46.09 81.8C43.3705 82.08 40.6294 82.08 37.91 81.8L34.16 71.26C31.6022 70.585 29.1445 69.5763 26.85 68.26L16.76 73.02C14.6375 71.2926 12.6974 69.3524 10.97 67.23V71.23C12.6974 73.3524 14.6375 75.2926 16.76 77.02L26.85 72.23C29.1445 73.5463 31.6022 74.555 34.16 75.23L37.91 85.8C40.6294 86.08 43.3705 86.08 46.09 85.8L49.84 75.27C52.3977 74.595 54.8555 73.5863 57.15 72.27L67.24 77.06C69.3624 75.3326 71.3025 73.3924 73.03 71.27V67.27C71.3005 69.3785 69.3604 71.3051 67.24 73.02Z" fill="#FF6E53"/>
<path d="M67.24 73.02L57.15 68.23C54.8555 69.5463 52.3977 70.555 49.84 71.23L46.09 81.8C43.3705 82.08 40.6294 82.08 37.91 81.8L34.16 71.26C31.6022 70.585 29.1445 69.5763 26.85 68.26L16.76 73.02C14.6375 71.2926 12.6974 69.3524 10.97 67.23V71.23C12.6974 73.3524 14.6375 75.2926 16.76 77.02L26.85 72.23C29.1445 73.5463 31.6022 74.555 34.16 75.23L37.91 85.8C40.6294 86.08 43.3705 86.08 46.09 85.8L49.84 75.27C52.3977 74.595 54.8555 73.5863 57.15 72.27L67.24 77.06C69.3624 75.3326 71.3025 73.3924 73.03 71.27V67.27C71.3005 69.3785 69.3604 71.3051 67.24 73.02Z" stroke="#FF6E53" stroke-linecap="round" stroke-linejoin="round"/>
</g>
<path d="M101.47 74.4901C101.211 72.6875 100.621 70.9483 99.7299 69.3601L101.95 64.8701L101.57 57.8701L92.5099 58.2601H80.8599L71.4199 57.8701V64.8701L73.6599 69.3601C72.7688 70.9483 72.1789 72.6875 71.9199 74.4901L67.3999 69.3501C67.3999 69.4601 67.3999 76.5701 67.3999 76.6801C67.394 80.4294 68.4893 84.0979 70.5499 87.2301L75.6099 86.6901C76.9482 88.1692 78.5659 89.3689 80.3699 90.2201L81.1099 95.1601C84.7593 96.2799 88.6606 96.2799 92.3099 95.1601L93.0599 90.2201C94.8624 89.3665 96.4797 88.1671 97.8199 86.6901L102.88 87.2301C104.941 84.0979 106.036 80.4294 106.03 76.6801V69.6801L101.47 74.4901ZM95.9099 77.1301C95.9099 78.9548 95.3691 80.7385 94.3558 82.2559C93.3424 83.7734 91.9021 84.9564 90.2167 85.6556C88.5313 86.3548 86.6765 86.5387 84.8866 86.1842C83.0967 85.8297 81.452 84.9526 80.1604 83.6637C78.8688 82.3749 77.9881 80.7322 77.6297 78.943C77.2713 77.1539 77.4513 75.2987 78.1468 73.6118C78.8423 71.9249 80.0222 70.482 81.5375 69.4654C83.0527 68.4488 84.8353 67.9041 86.6599 67.9001C87.8741 67.8962 89.0771 68.1321 90.1998 68.5943C91.3225 69.0565 92.3429 69.7359 93.2024 70.5935C94.0619 71.4511 94.7435 72.47 95.2081 73.5918C95.6728 74.7135 95.9113 75.916 95.9099 77.1301Z" fill="white" stroke="#60423C" stroke-width="2" stroke-linecap="round" stroke-linejoin="round"/>
<path d="M101.47 67.49C101.211 65.6874 100.621 63.9482 99.7299 62.36L101.95 57.87C99.5476 54.759 96.2549 52.4534 92.5099 51.26L89.2499 54.95C87.5515 54.63 85.8083 54.63 84.1099 54.95L80.8599 51.26C77.115 52.4534 73.8222 54.759 71.4199 57.87L73.6599 62.36C72.7688 63.9482 72.1789 65.6874 71.9199 67.49L67.3999 69.35C67.3999 69.46 67.3999 69.57 67.3999 69.68C67.394 73.4293 68.4893 77.0978 70.5499 80.23L75.6099 79.69C76.9482 81.1691 78.5659 82.3688 80.3699 83.22L81.1099 88.16C84.7593 89.2798 88.6606 89.2798 92.3099 88.16L93.0599 83.22C94.8624 82.3664 96.4797 81.167 97.8199 79.69L102.88 80.23C104.941 77.0978 106.036 73.4293 106.03 69.68C106.03 69.57 106.03 69.46 106.03 69.35L101.47 67.49ZM95.9099 70.13C95.9099 71.9547 95.3691 73.7384 94.3558 75.2558C93.3424 76.7733 91.9021 77.9563 90.2167 78.6555C88.5313 79.3547 86.6765 79.5386 84.8866 79.1841C83.0967 78.8296 81.452 77.9525 80.1604 76.6636C78.8688 75.3748 77.9881 73.732 77.6297 71.9429C77.2713 70.1538 77.4513 68.2986 78.1468 66.6117C78.8423 64.9248 80.0222 63.4819 81.5375 62.4653C83.0527 61.4486 84.8353 60.904 86.6599 60.9C87.8741 60.8961 89.0771 61.132 90.1998 61.5942C91.3225 62.0564 92.3429 62.7358 93.2024 63.5934C94.0619 64.451 94.7435 65.4699 95.2081 66.5917C95.6728 67.7134 95.9113 68.9159 95.9099 70.13Z" fill="white" stroke="#60423C" stroke-width="2" stroke-linecap="round" stroke-linejoin="round"/>
<g style="mix-blend-mode:darken">
<path d="M108 71.68C108 71.57 108 71.46 108 71.35L103.49 69.49C103.43 69.09 103.35 68.7 103.26 68.31L103.97 66.87L103.66 60.56L104 59.87C101.598 56.759 98.3049 54.4534 94.5599 53.26L91.2999 56.95C90.4521 56.7935 89.592 56.7132 88.7299 56.71C87.8678 56.7141 87.0078 56.7944 86.1599 56.95L82.8599 53.26C79.1149 54.4534 75.8222 56.759 73.4199 59.87V66.87L74.1199 68.31C74.0399 68.7 73.9599 69.09 73.8999 69.49L69.3799 71.35C69.3799 71.46 69.3799 71.57 69.3799 71.68C69.3799 71.79 69.3799 71.93 69.3799 72.06C69.3799 73.89 69.3799 78.59 69.3799 78.68C69.3739 82.4293 70.4693 86.0978 72.5299 89.23L77.5899 88.69C78.9282 90.1691 80.5459 91.3688 82.3499 92.22L83.0899 97.16C86.7393 98.2798 90.6405 98.2798 94.2899 97.16L95.0399 92.22C96.8439 91.3688 98.4616 90.1691 99.7999 88.69L104.86 89.23C106.921 86.0978 108.016 82.4293 108.01 78.68L108 71.68ZM88.6599 81.35C86.8311 81.35 85.0436 80.8062 83.5247 79.7877C82.0058 78.7691 80.8241 77.3219 80.1299 75.63C80.8225 73.935 82.0041 72.4845 83.5242 71.4636C85.0442 70.4427 86.8338 69.8974 88.6649 69.8974C90.496 69.8974 92.2856 70.4427 93.8056 71.4636C95.3257 72.4845 96.5073 73.935 97.1999 75.63C96.505 77.3235 95.3218 78.7718 93.8009 79.7905C92.2801 80.8091 90.4904 81.352 88.6599 81.35Z" fill="#FF6E53"/>
</g>
</g>
<defs>
<clipPath id="clip0">
<rect width="108" height="98" fill="white"/>
</clipPath>
</defs>
</svg>
