<svg width="28" height="28" viewBox="0 0 28 28" fill="none" xmlns="http://www.w3.org/2000/svg">
<g filter="url(#filter0_d_1337_32932)">
<path d="M14.0223 8.84375C11.1652 8.84375 8.88839 11.1652 8.88839 13.9777C8.88839 16.8348 11.1652 19.1116 14.0223 19.1116C16.8348 19.1116 19.1563 16.8348 19.1563 13.9777C19.1563 11.1652 16.8348 8.84375 14.0223 8.84375ZM14.0223 17.3259C12.192 17.3259 10.6741 15.8527 10.6741 13.9777C10.6741 12.1473 12.1473 10.6741 14.0223 10.6741C15.8527 10.6741 17.3259 12.1473 17.3259 13.9777C17.3259 15.8527 15.8527 17.3259 14.0223 17.3259ZM20.5402 8.66518C20.5402 7.99554 20.0045 7.45982 19.3348 7.45982C18.6652 7.45982 18.1295 7.99554 18.1295 8.66518C18.1295 9.33482 18.6652 9.87054 19.3348 9.87054C20.0045 9.87054 20.5402 9.33482 20.5402 8.66518ZM23.933 9.87054C23.8438 8.26339 23.4866 6.83482 22.3259 5.67411C21.1652 4.51339 19.7366 4.15625 18.1295 4.06696C16.4777 3.97768 11.5223 3.97768 9.87054 4.06696C8.26339 4.15625 6.87946 4.51339 5.67411 5.67411C4.51339 6.83482 4.15625 8.26339 4.06696 9.87054C3.97768 11.5223 3.97768 16.4777 4.06696 18.1295C4.15625 19.7366 4.51339 21.1205 5.67411 22.3259C6.87946 23.4866 8.26339 23.8438 9.87054 23.933C11.5223 24.0223 16.4777 24.0223 18.1295 23.933C19.7366 23.8438 21.1652 23.4866 22.3259 22.3259C23.4866 21.1205 23.8438 19.7366 23.933 18.1295C24.0223 16.4777 24.0223 11.5223 23.933 9.87054ZM21.7902 19.8705C21.4777 20.7634 20.7634 21.433 19.9152 21.7902C18.5759 22.3259 15.4509 22.192 14.0223 22.192C12.5491 22.192 9.42411 22.3259 8.12946 21.7902C7.23661 21.433 6.56696 20.7634 6.20982 19.8705C5.67411 18.5759 5.80804 15.4509 5.80804 13.9777C5.80804 12.5491 5.67411 9.42411 6.20982 8.08482C6.56696 7.23661 7.23661 6.56696 8.12946 6.20982C9.42411 5.67411 12.5491 5.80804 14.0223 5.80804C15.4509 5.80804 18.5759 5.67411 19.9152 6.20982C20.7634 6.52232 21.433 7.23661 21.7902 8.08482C22.3259 9.42411 22.192 12.5491 22.192 13.9777C22.192 15.4509 22.3259 18.5759 21.7902 19.8705Z" fill="white"/>
</g>
<defs>
<filter id="filter0_d_1337_32932" x="0" y="0" width="28" height="28" filterUnits="userSpaceOnUse" color-interpolation-filters="sRGB">
<feFlood flood-opacity="0" result="BackgroundImageFix"/>
<feColorMatrix in="SourceAlpha" type="matrix" values="0 0 0 0 0 0 0 0 0 0 0 0 0 0 0 0 0 0 127 0" result="hardAlpha"/>
<feOffset/>
<feGaussianBlur stdDeviation="2"/>
<feColorMatrix type="matrix" values="0 0 0 0 0 0 0 0 0 0 0 0 0 0 0 0 0 0 0.25 0"/>
<feBlend mode="normal" in2="BackgroundImageFix" result="effect1_dropShadow_1337_32932"/>
<feBlend mode="normal" in="SourceGraphic" in2="effect1_dropShadow_1337_32932" result="shape"/>
</filter>
</defs>
</svg>
